<svg width="188" height="74" viewBox="0 0 188 74" fill="none" xmlns="http://www.w3.org/2000/svg">
<rect y="0.138672" width="187.448" height="73.7994" rx="8" fill="#141414"/>
<path d="M32.4548 50.8827C31.488 50.8331 30.5784 50.4336 29.9135 49.7668C29.118 49.0417 28.4082 48.2367 27.7965 47.3661C26.841 46.0696 26.0857 44.6505 25.5535 43.1517C24.9512 41.5392 24.6343 39.8435 24.6157 38.1332C24.5689 36.4549 25.0075 34.7965 25.884 33.3375C26.526 32.2859 27.4417 31.4077 28.5437 30.7867C29.6335 30.1684 30.8771 29.8356 32.1473 29.8223C33.1048 29.876 34.0457 30.0834 34.9299 30.4356C35.6356 30.7299 36.3766 30.9368 37.1376 31.0504C37.977 30.8838 38.7973 30.6398 39.5866 30.322C40.5208 29.9764 41.51 29.7828 42.5122 29.7495C42.646 29.7495 42.7782 29.7495 42.9058 29.7641C45.1043 29.8238 47.149 30.8464 48.4403 32.5319C47.4325 33.0427 46.5939 33.8083 46.0177 34.7437C45.4415 35.679 45.1503 36.7474 45.1765 37.8301C45.1665 38.6581 45.3417 39.4786 45.6907 40.2377C46.0397 40.9968 46.5545 41.6771 47.2012 42.2339C47.79 42.7653 48.4754 43.1912 49.2244 43.4911C49.0707 43.9281 48.8939 44.3506 48.7063 44.776C48.2805 45.716 47.7551 46.6126 47.1382 47.452C46.5549 48.293 45.8759 49.0707 45.1135 49.7712C44.418 50.4251 43.491 50.8109 42.5122 50.8536C41.6826 50.8187 40.8676 50.6343 40.1109 50.3102C39.2948 49.9734 38.4179 49.7889 37.5281 49.7668C36.6132 49.7839 35.7103 49.9674 34.8684 50.3073C34.1413 50.6181 33.3645 50.8116 32.5701 50.8798L32.4548 50.8827V50.8827ZM37.2975 29.7495C37.1822 29.7495 37.0669 29.7495 36.9516 29.7364C36.9273 29.563 36.9145 29.3883 36.9131 29.2134C36.9634 27.7583 37.5635 26.3687 38.6042 25.2977C39.1863 24.6821 39.8918 24.1824 40.6797 23.8278C41.4139 23.4696 42.2162 23.2542 43.0396 23.1941C43.0626 23.3849 43.0626 23.5714 43.0626 23.7491C43.041 25.1814 42.4731 26.5578 41.4638 27.6241C40.9751 28.245 40.3489 28.757 39.6291 29.1242C38.9094 29.4914 38.1135 29.7048 37.2975 29.7495V29.7495Z" fill="#F3FBFD"/>
<path d="M64.0711 32.0381V21.6755H66.6617C68.2625 21.6755 69.4788 22.1231 70.3108 23.0182C71.1427 23.9028 71.5587 25.1666 71.5587 26.8094C71.5587 28.4628 71.1427 29.7476 70.3108 30.6638C69.4893 31.58 68.2941 32.0381 66.7249 32.0381H64.0711ZM65.3822 30.9639H66.567C67.778 30.9639 68.6837 30.6006 69.284 29.874C69.8948 29.1368 70.2002 28.1153 70.2002 26.8094C70.2002 25.5036 69.8948 24.5031 69.284 23.8081C68.6837 23.1025 67.778 22.7497 66.567 22.7497H65.3822V30.9639ZM76.6489 32.2276C76.0276 32.2276 75.4431 32.0697 74.8955 31.7537C74.3584 31.4378 73.9213 30.9797 73.5843 30.3794C73.2579 29.7792 73.0947 29.0578 73.0947 28.2153C73.0947 27.3518 73.2579 26.6199 73.5843 26.0196C73.9213 25.4193 74.3584 24.9612 74.8955 24.6453C75.4431 24.3294 76.0276 24.1714 76.6489 24.1714C77.2807 24.1714 77.8652 24.3294 78.4023 24.6453C78.9394 24.9612 79.3712 25.4193 79.6976 26.0196C80.0346 26.6199 80.2031 27.3518 80.2031 28.2153C80.2031 29.0578 80.0346 29.7792 79.6976 30.3794C79.3712 30.9797 78.9394 31.4378 78.4023 31.7537C77.8652 32.0697 77.2807 32.2276 76.6489 32.2276ZM76.6489 31.1535C77.3123 31.1535 77.8442 30.8849 78.2443 30.3479C78.655 29.8002 78.8604 29.0894 78.8604 28.2153C78.8604 27.3307 78.655 26.6146 78.2443 26.067C77.8442 25.5194 77.3123 25.2456 76.6489 25.2456C75.996 25.2456 75.4641 25.5194 75.0534 26.067C74.6427 26.6146 74.4374 27.3307 74.4374 28.2153C74.4374 29.0894 74.6427 29.8002 75.0534 30.3479C75.4641 30.8849 75.996 31.1535 76.6489 31.1535ZM83.3796 32.0381L81.247 24.3609H82.574L83.7113 28.7998C83.7956 29.1578 83.8745 29.5159 83.9483 29.874C84.022 30.2215 84.0957 30.5743 84.1694 30.9323H84.2326C84.3168 30.5743 84.4011 30.2215 84.4853 29.874C84.5696 29.5159 84.6591 29.1578 84.7539 28.7998L85.9386 24.3609H87.2024L88.4029 28.7998C88.4977 29.1578 88.5872 29.5159 88.6714 29.874C88.7662 30.2215 88.8557 30.5743 88.94 30.9323H89.0032C89.0874 30.5743 89.1664 30.2215 89.2401 29.874C89.3244 29.5159 89.4033 29.1578 89.4771 28.7998L90.5986 24.3609H91.8307L89.7772 32.0381H88.1975L87.0918 27.9152C86.997 27.5466 86.9075 27.1833 86.8232 26.8252C86.7495 26.4672 86.6653 26.0933 86.5705 25.7037H86.5073C86.4231 26.0933 86.3388 26.4724 86.2546 26.841C86.1703 27.1991 86.0755 27.5624 85.9702 27.931L84.8961 32.0381H83.3796ZM93.5016 32.0381V24.3609H94.5758L94.6863 25.4667H94.7337C95.1023 25.0981 95.492 24.7927 95.9027 24.5505C96.3134 24.2978 96.782 24.1714 97.3086 24.1714C98.1195 24.1714 98.7092 24.4294 99.0778 24.9454C99.4569 25.4509 99.6465 26.1934 99.6465 27.1727V32.0381H98.3512V27.3465C98.3512 26.6304 98.2353 26.1091 98.0036 25.7826C97.7719 25.4562 97.4034 25.2929 96.8979 25.2929C96.5082 25.2929 96.1554 25.393 95.8395 25.5931C95.5341 25.7932 95.1866 26.088 94.7969 26.4777V32.0381H93.5016ZM103.515 32.2276C103.03 32.2276 102.677 32.0802 102.456 31.7853C102.246 31.4799 102.14 31.0482 102.14 30.49V20.7909H103.436V30.5848C103.436 30.7849 103.473 30.9323 103.546 31.0271C103.62 31.1114 103.704 31.1535 103.799 31.1535C103.841 31.1535 103.878 31.1535 103.91 31.1535C103.952 31.1429 104.01 31.1324 104.083 31.1219L104.257 32.1013C104.173 32.1434 104.073 32.175 103.957 32.1961C103.841 32.2171 103.694 32.2276 103.515 32.2276ZM109.152 32.2276C108.531 32.2276 107.946 32.0697 107.399 31.7537C106.862 31.4378 106.425 30.9797 106.088 30.3794C105.761 29.7792 105.598 29.0578 105.598 28.2153C105.598 27.3518 105.761 26.6199 106.088 26.0196C106.425 25.4193 106.862 24.9612 107.399 24.6453C107.946 24.3294 108.531 24.1714 109.152 24.1714C109.784 24.1714 110.369 24.3294 110.906 24.6453C111.443 24.9612 111.874 25.4193 112.201 26.0196C112.538 26.6199 112.706 27.3518 112.706 28.2153C112.706 29.0578 112.538 29.7792 112.201 30.3794C111.874 30.9797 111.443 31.4378 110.906 31.7537C110.369 32.0697 109.784 32.2276 109.152 32.2276ZM109.152 31.1535C109.816 31.1535 110.347 30.8849 110.748 30.3479C111.158 29.8002 111.364 29.0894 111.364 28.2153C111.364 27.3307 111.158 26.6146 110.748 26.067C110.347 25.5194 109.816 25.2456 109.152 25.2456C108.499 25.2456 107.967 25.5194 107.557 26.067C107.146 26.6146 106.941 27.3307 106.941 28.2153C106.941 29.0894 107.146 29.8002 107.557 30.3479C107.967 30.8849 108.499 31.1535 109.152 31.1535ZM116.282 32.2276C115.639 32.2276 115.102 32.0381 114.67 31.659C114.249 31.2693 114.038 30.7322 114.038 30.0477C114.038 29.2052 114.412 28.5628 115.16 28.1205C115.918 27.6677 117.113 27.3518 118.746 27.1727C118.746 26.8463 118.698 26.5356 118.604 26.2407C118.519 25.9459 118.361 25.7089 118.13 25.5299C117.909 25.3403 117.587 25.2456 117.166 25.2456C116.724 25.2456 116.308 25.3298 115.918 25.4983C115.529 25.6668 115.181 25.8564 114.876 26.067L114.37 25.1666C114.728 24.9349 115.165 24.7137 115.681 24.5031C116.208 24.282 116.776 24.1714 117.387 24.1714C118.325 24.1714 119.004 24.461 119.425 25.0402C119.846 25.6089 120.057 26.3724 120.057 27.3307V32.0381H118.983L118.872 31.1219H118.825C118.467 31.4168 118.072 31.6748 117.64 31.8959C117.219 32.1171 116.766 32.2276 116.282 32.2276ZM116.661 31.1851C117.029 31.1851 117.377 31.0956 117.703 30.9165C118.03 30.7375 118.377 30.4848 118.746 30.1583V28.0258C117.472 28.1837 116.576 28.4207 116.06 28.7366C115.555 29.0525 115.302 29.458 115.302 29.9529C115.302 30.3847 115.434 30.7006 115.697 30.9007C115.96 31.0903 116.282 31.1851 116.661 31.1851ZM125.095 32.2276C124.136 32.2276 123.367 31.8801 122.788 31.1851C122.209 30.4795 121.919 29.4896 121.919 28.2153C121.919 27.3834 122.072 26.6673 122.377 26.067C122.693 25.4562 123.104 24.9875 123.61 24.6611C124.126 24.3346 124.673 24.1714 125.252 24.1714C125.695 24.1714 126.079 24.2504 126.406 24.4083C126.732 24.5663 127.064 24.7822 127.401 25.056L127.338 23.7449V20.7909H128.649V32.0381H127.575L127.464 31.1377H127.417C127.122 31.4326 126.774 31.6906 126.374 31.9117C125.974 32.1223 125.547 32.2276 125.095 32.2276ZM125.379 31.1377C126.053 31.1377 126.706 30.7849 127.338 30.0793V26.067C127.011 25.7721 126.695 25.5668 126.39 25.4509C126.095 25.3245 125.79 25.2614 125.474 25.2614C125.063 25.2614 124.689 25.3877 124.352 25.6405C124.026 25.8827 123.762 26.2249 123.562 26.6673C123.362 27.099 123.262 27.6098 123.262 28.1995C123.262 29.1157 123.446 29.8371 123.815 30.3636C124.184 30.8797 124.705 31.1377 125.379 31.1377ZM137.382 32.2276C136.761 32.2276 136.177 32.0697 135.629 31.7537C135.092 31.4378 134.655 30.9797 134.318 30.3794C133.991 29.7792 133.828 29.0578 133.828 28.2153C133.828 27.3518 133.991 26.6199 134.318 26.0196C134.655 25.4193 135.092 24.9612 135.629 24.6453C136.177 24.3294 136.761 24.1714 137.382 24.1714C138.014 24.1714 138.599 24.3294 139.136 24.6453C139.673 24.9612 140.105 25.4193 140.431 26.0196C140.768 26.6199 140.937 27.3518 140.937 28.2153C140.937 29.0578 140.768 29.7792 140.431 30.3794C140.105 30.9797 139.673 31.4378 139.136 31.7537C138.599 32.0697 138.014 32.2276 137.382 32.2276ZM137.382 31.1535C138.046 31.1535 138.578 30.8849 138.978 30.3479C139.389 29.8002 139.594 29.0894 139.594 28.2153C139.594 27.3307 139.389 26.6146 138.978 26.067C138.578 25.5194 138.046 25.2456 137.382 25.2456C136.729 25.2456 136.198 25.5194 135.787 26.067C135.376 26.6146 135.171 27.3307 135.171 28.2153C135.171 29.0894 135.376 29.8002 135.787 30.3479C136.198 30.8849 136.729 31.1535 137.382 31.1535ZM142.958 32.0381V24.3609H144.033L144.143 25.4667H144.191C144.559 25.0981 144.949 24.7927 145.36 24.5505C145.77 24.2978 146.239 24.1714 146.765 24.1714C147.576 24.1714 148.166 24.4294 148.535 24.9454C148.914 25.4509 149.103 26.1934 149.103 27.1727V32.0381H147.808V27.3465C147.808 26.6304 147.692 26.1091 147.46 25.7826C147.229 25.4562 146.86 25.2929 146.355 25.2929C145.965 25.2929 145.612 25.393 145.296 25.5931C144.991 25.7932 144.643 26.088 144.254 26.4777V32.0381H142.958ZM67.4245 46.1869L67.0923 47.4326H69.9781L69.6667 46.1869C69.4868 45.5087 69.2999 44.789 69.1062 44.0277C68.9262 43.2665 68.7463 42.5329 68.5664 41.827H68.4833C68.3172 42.5468 68.1442 43.2872 67.9643 44.0485C67.7982 44.7959 67.6183 45.5087 67.4245 46.1869ZM62.5248 53.0381L66.7601 39.5018H70.4349L74.6702 53.0381H71.4314L70.601 49.8201H66.4695L65.639 53.0381H62.5248ZM75.9001 56.8581V42.7405H78.3914L78.5991 43.7578H78.6821C79.0835 43.398 79.5333 43.1004 80.0316 42.8651C80.5437 42.616 81.0696 42.4914 81.6094 42.4914C82.8551 42.4914 83.8378 42.9689 84.5575 43.9239C85.2772 44.8651 85.6371 46.1315 85.6371 47.7232C85.6371 48.8997 85.4295 49.9031 85.0143 50.7336C84.599 51.564 84.0593 52.2007 83.3949 52.6436C82.7444 53.0727 82.0454 53.2872 81.298 53.2872C80.8551 53.2872 80.426 53.1973 80.0108 53.0173C79.5956 52.8236 79.208 52.5537 78.8482 52.2076L78.952 53.8478V56.8581H75.9001ZM80.5921 50.7959C81.1181 50.7959 81.5679 50.5537 81.9416 50.0692C82.3153 49.5848 82.5022 48.8166 82.5022 47.7647C82.5022 45.9101 81.907 44.9827 80.7167 44.9827C80.1215 44.9827 79.5333 45.2942 78.952 45.917V50.1315C79.2288 50.3807 79.5056 50.5537 79.7824 50.6505C80.0593 50.7474 80.3292 50.7959 80.5921 50.7959ZM87.8013 56.8581V42.7405H90.2926L90.5003 43.7578H90.5833C90.9847 43.398 91.4345 43.1004 91.9328 42.8651C92.4449 42.616 92.9708 42.4914 93.5106 42.4914C94.7563 42.4914 95.739 42.9689 96.4587 43.9239C97.1784 44.8651 97.5383 46.1315 97.5383 47.7232C97.5383 48.8997 97.3307 49.9031 96.9155 50.7336C96.5002 51.564 95.9605 52.2007 95.2961 52.6436C94.6456 53.0727 93.9466 53.2872 93.1992 53.2872C92.7563 53.2872 92.3272 53.1973 91.912 53.0173C91.4968 52.8236 91.1093 52.5537 90.7494 52.2076L90.8532 53.8478V56.8581H87.8013ZM92.4933 50.7959C93.0193 50.7959 93.4691 50.5537 93.8428 50.0692C94.2165 49.5848 94.4034 48.8166 94.4034 47.7647C94.4034 45.9101 93.8082 44.9827 92.6179 44.9827C92.0227 44.9827 91.4345 45.2942 90.8532 45.917V50.1315C91.13 50.3807 91.4068 50.5537 91.6836 50.6505C91.9605 50.7474 92.2304 50.7959 92.4933 50.7959ZM108.239 53.2872C107.354 53.2872 106.468 53.1211 105.582 52.789C104.71 52.4568 103.928 51.9723 103.236 51.3357L104.98 49.2388C105.464 49.654 106.004 49.9931 106.599 50.2561C107.194 50.5191 107.769 50.6505 108.322 50.6505C108.959 50.6505 109.43 50.5329 109.734 50.2976C110.053 50.0623 110.212 49.744 110.212 49.3426C110.212 48.9135 110.032 48.6021 109.672 48.4083C109.326 48.2007 108.855 47.9724 108.26 47.7232L106.495 46.9758C106.039 46.782 105.603 46.526 105.188 46.2076C104.772 45.8755 104.433 45.4672 104.17 44.9827C103.907 44.4983 103.776 43.9308 103.776 43.2803C103.776 42.5329 103.976 41.8547 104.378 41.2457C104.793 40.6367 105.361 40.1523 106.08 39.7924C106.814 39.4326 107.651 39.2526 108.592 39.2526C109.367 39.2526 110.143 39.4049 110.918 39.7094C111.693 40.0139 112.371 40.4568 112.952 41.0381L111.395 42.9689C110.952 42.6229 110.509 42.3599 110.066 42.18C109.623 41.9862 109.132 41.8893 108.592 41.8893C108.066 41.8893 107.644 42 107.326 42.2215C107.021 42.4291 106.869 42.7267 106.869 43.1142C106.869 43.5295 107.063 43.8409 107.45 44.0485C107.852 44.2561 108.343 44.4775 108.925 44.7128L110.668 45.4187C111.485 45.7509 112.136 46.2076 112.62 46.789C113.104 47.3703 113.347 48.1384 113.347 49.0935C113.347 49.8409 113.146 50.5329 112.745 51.1696C112.343 51.8063 111.762 52.3184 111.001 52.7059C110.239 53.0934 109.319 53.2872 108.239 53.2872ZM118.772 53.2872C117.499 53.2872 116.586 52.9204 116.032 52.1869C115.492 51.4533 115.222 50.4914 115.222 49.3011V45.1281H113.811V42.8651L115.388 42.7405L115.741 40H118.274V42.7405H120.745V45.1281H118.274V49.2595C118.274 49.8409 118.392 50.263 118.627 50.526C118.876 50.7751 119.202 50.8997 119.603 50.8997C119.769 50.8997 119.935 50.8789 120.101 50.8374C120.281 50.7959 120.44 50.7474 120.579 50.6921L121.056 52.9135C120.793 52.9966 120.468 53.0796 120.08 53.1627C119.707 53.2457 119.271 53.2872 118.772 53.2872ZM126.812 53.2872C125.94 53.2872 125.116 53.0796 124.341 52.6644C123.58 52.2353 122.964 51.6194 122.494 50.8166C122.023 50 121.788 49.0243 121.788 47.8893C121.788 46.7405 122.023 45.7647 122.494 44.962C122.964 44.1592 123.58 43.5502 124.341 43.135C125.116 42.7059 125.94 42.4914 126.812 42.4914C127.684 42.4914 128.501 42.7059 129.262 43.135C130.023 43.5502 130.639 44.1592 131.11 44.962C131.58 45.7647 131.815 46.7405 131.815 47.8893C131.815 49.0243 131.58 50 131.11 50.8166C130.639 51.6194 130.023 52.2353 129.262 52.6644C128.501 53.0796 127.684 53.2872 126.812 53.2872ZM126.812 50.8166C127.435 50.8166 127.905 50.5537 128.224 50.0277C128.542 49.4879 128.701 48.7751 128.701 47.8893C128.701 46.9897 128.542 46.2769 128.224 45.7509C127.905 45.2249 127.435 44.962 126.812 44.962C126.175 44.962 125.698 45.2249 125.379 45.7509C125.075 46.2769 124.923 46.9897 124.923 47.8893C124.923 48.7751 125.075 49.4879 125.379 50.0277C125.698 50.5537 126.175 50.8166 126.812 50.8166ZM133.906 53.0381V42.7405H136.397L136.605 44.5468H136.688C137.061 43.8547 137.511 43.3426 138.037 43.0104C138.563 42.6644 139.089 42.4914 139.615 42.4914C139.906 42.4914 140.148 42.5122 140.342 42.5537C140.536 42.5814 140.702 42.6298 140.84 42.699L140.342 45.3357C140.162 45.2803 139.982 45.2388 139.802 45.2111C139.636 45.1834 139.442 45.1696 139.221 45.1696C138.833 45.1696 138.425 45.3149 137.996 45.6056C137.581 45.8824 137.234 46.3668 136.958 47.0589V53.0381H133.906ZM146.584 53.2872C145.601 53.2872 144.716 53.0727 143.927 52.6436C143.138 52.2146 142.515 51.5986 142.058 50.7959C141.601 49.9931 141.373 49.0243 141.373 47.8893C141.373 46.7682 141.601 45.8063 142.058 45.0035C142.529 44.2007 143.138 43.5848 143.885 43.1557C144.633 42.7128 145.415 42.4914 146.231 42.4914C147.214 42.4914 148.024 42.7128 148.66 43.1557C149.311 43.5848 149.795 44.173 150.113 44.9205C150.446 45.654 150.612 46.4914 150.612 47.4326C150.612 47.6955 150.598 47.9585 150.57 48.2215C150.543 48.4706 150.515 48.6575 150.487 48.782H144.321C144.46 49.5294 144.771 50.0831 145.255 50.4429C145.74 50.789 146.321 50.962 146.999 50.962C147.733 50.962 148.473 50.7336 149.221 50.2768L150.238 52.1246C149.712 52.4845 149.124 52.7682 148.473 52.9758C147.823 53.1834 147.193 53.2872 146.584 53.2872ZM144.3 46.7682H148.017C148.017 46.2007 147.878 45.7371 147.601 45.3772C147.338 45.0035 146.902 44.8166 146.293 44.8166C145.823 44.8166 145.401 44.9827 145.027 45.3149C144.653 45.6333 144.411 46.1177 144.3 46.7682Z" fill="#F3FBFD"/>
</svg>
