<svg width="203" height="74" viewBox="0 0 203 74" fill="none" xmlns="http://www.w3.org/2000/svg">
<rect x="0.172852" y="0.138672" width="202.173" height="72.9402" rx="8" fill="#E0FB92"/>
<g clip-path="url(#clip0_2022_1310)">
<path fill-rule="evenodd" clip-rule="evenodd" d="M32.6068 25.0562C32.3313 25.3439 32.1729 25.7874 32.1729 26.3633V46.8521C32.1729 47.428 32.3313 47.8715 32.6173 48.1495L32.6919 48.211L44.5011 36.7304V36.4724L32.6818 24.9946L32.6072 25.0562H32.6068Z" fill="url(#paint0_linear_2022_1310)"/>
<path fill-rule="evenodd" clip-rule="evenodd" d="M48.4303 40.5714L44.4912 36.7409V36.4731L48.4315 32.6426L48.5166 32.6939L53.1768 35.2687C54.5114 35.9999 54.5114 37.2047 53.1768 37.9457L48.5166 40.5205L48.4303 40.5719V40.5714Z" fill="url(#paint1_linear_2022_1310)"/>
<path fill-rule="evenodd" clip-rule="evenodd" d="M48.5145 40.5207L44.4903 36.6074L32.6064 48.1606C33.0404 48.6138 33.7708 48.6652 34.5875 48.2221L48.5145 40.5211V40.5207Z" fill="url(#paint2_linear_2022_1310)"/>
<path fill-rule="evenodd" clip-rule="evenodd" d="M48.5145 32.6955L34.5875 25.0043C33.7724 24.551 33.0408 24.6122 32.6064 25.0654L44.4894 36.6072L48.5149 32.6951L48.5145 32.6955Z" fill="url(#paint3_linear_2022_1310)"/>
<path opacity="0.2" fill-rule="evenodd" clip-rule="evenodd" d="M48.43 40.4373L34.5982 48.0771C33.8255 48.5092 33.1362 48.479 32.6918 48.0873L32.6172 48.1599L32.6918 48.2214C33.1362 48.6123 33.8255 48.6433 34.5982 48.2112L48.5252 40.52L48.43 40.4373Z" fill="#3418D8"/>
<path opacity="0.12" fill-rule="evenodd" clip-rule="evenodd" d="M53.1738 37.8123L48.418 40.438L48.5031 40.5207L53.1633 37.946C53.8303 37.5755 54.1591 37.092 54.1591 36.6074C54.1167 37.0509 53.7779 37.4727 53.1738 37.8119V37.8123Z" fill="#3418D8"/>
<path opacity="0.25" fill-rule="evenodd" clip-rule="evenodd" d="M34.5879 25.138L53.175 35.4036C53.7792 35.7329 54.118 36.165 54.1708 36.608C54.1708 36.1246 53.8425 35.64 53.175 35.2695L34.5879 25.0039C33.2537 24.2625 32.1729 24.88 32.1729 26.3624V26.4965C32.1729 25.0137 33.2537 24.4064 34.5879 25.138Z" fill="white"/>
</g>
<path d="M64.8545 30.6089V19.6114H67.6039C69.3027 19.6114 70.5936 20.0864 71.4765 21.0364C72.3594 21.9752 72.8009 23.3163 72.8009 25.0598C72.8009 26.8145 72.3594 28.178 71.4765 29.1504C70.6047 30.1227 69.3362 30.6089 67.6709 30.6089H64.8545ZM66.246 29.4689H67.5033C68.7886 29.4689 69.7497 29.0833 70.3868 28.3121C71.035 27.5298 71.3591 26.4457 71.3591 25.0598C71.3591 23.674 71.035 22.6122 70.3868 21.8746C69.7497 21.1258 68.7886 20.7514 67.5033 20.7514H66.246V29.4689ZM78.203 30.8101C77.5436 30.8101 76.9233 30.6424 76.3421 30.3071C75.7721 29.9718 75.3083 29.4857 74.9507 28.8486C74.6042 28.2116 74.431 27.446 74.431 26.5519C74.431 25.6354 74.6042 24.8587 74.9507 24.2216C75.3083 23.5846 75.7721 23.0984 76.3421 22.7631C76.9233 22.4278 77.5436 22.2602 78.203 22.2602C78.8736 22.2602 79.4939 22.4278 80.0638 22.7631C80.6338 23.0984 81.0921 23.5846 81.4385 24.2216C81.7962 24.8587 81.975 25.6354 81.975 26.5519C81.975 27.446 81.7962 28.2116 81.4385 28.8486C81.0921 29.4857 80.6338 29.9718 80.0638 30.3071C79.4939 30.6424 78.8736 30.8101 78.203 30.8101ZM78.203 29.6701C78.9071 29.6701 79.4715 29.3851 79.8962 28.8151C80.3321 28.2339 80.55 27.4795 80.55 26.5519C80.55 25.6131 80.3321 24.8531 79.8962 24.2719C79.4715 23.6907 78.9071 23.4001 78.203 23.4001C77.5101 23.4001 76.9457 23.6907 76.5098 24.2719C76.0739 24.8531 75.856 25.6131 75.856 26.5519C75.856 27.4795 76.0739 28.2339 76.5098 28.8151C76.9457 29.3851 77.5101 29.6701 78.203 29.6701ZM85.3461 30.6089L83.0829 22.4613H84.4911L85.6982 27.1722C85.7876 27.5522 85.8714 27.9322 85.9496 28.3121C86.0279 28.681 86.1061 29.0554 86.1843 29.4354H86.2514C86.3408 29.0554 86.4302 28.681 86.5196 28.3121C86.609 27.9322 86.704 27.5522 86.8046 27.1722L88.062 22.4613H89.4031L90.6772 27.1722C90.7778 27.5522 90.8728 27.9322 90.9622 28.3121C91.0628 28.681 91.1578 29.0554 91.2472 29.4354H91.3143C91.4037 29.0554 91.4875 28.681 91.5657 28.3121C91.6552 27.9322 91.739 27.5522 91.8172 27.1722L93.0075 22.4613H94.3151L92.1357 30.6089H90.4593L89.2858 26.2333C89.1852 25.8422 89.0902 25.4566 89.0008 25.0766C88.9225 24.6966 88.8331 24.2998 88.7325 23.8863H88.6655C88.5761 24.2998 88.4867 24.7022 88.3973 25.0934C88.3078 25.4734 88.2073 25.8589 88.0955 26.2501L86.9555 30.6089H85.3461ZM96.0884 30.6089V22.4613H97.2284L97.3457 23.6348H97.396C97.7872 23.2437 98.2007 22.9196 98.6366 22.6625C99.0724 22.3943 99.5698 22.2602 100.129 22.2602C100.989 22.2602 101.615 22.534 102.006 23.0816C102.409 23.6181 102.61 24.406 102.61 25.4454V30.6089H101.235V25.6298C101.235 24.8698 101.112 24.3166 100.866 23.9701C100.62 23.6237 100.229 23.4504 99.6927 23.4504C99.2792 23.4504 98.9048 23.5566 98.5695 23.769C98.2454 23.9813 97.8766 24.2943 97.4631 24.7078V30.6089H96.0884ZM106.715 30.8101C106.201 30.8101 105.826 30.6536 105.592 30.3407C105.368 30.0165 105.256 29.5583 105.256 28.966V18.6726H106.631V29.0666C106.631 29.2789 106.67 29.4354 106.748 29.536C106.827 29.6254 106.916 29.6701 107.017 29.6701C107.061 29.6701 107.101 29.6701 107.134 29.6701C107.179 29.6589 107.24 29.6477 107.318 29.6365L107.503 30.6759C107.413 30.7207 107.307 30.7542 107.184 30.7765C107.061 30.7989 106.905 30.8101 106.715 30.8101ZM112.698 30.8101C112.039 30.8101 111.418 30.6424 110.837 30.3071C110.267 29.9718 109.803 29.4857 109.446 28.8486C109.099 28.2116 108.926 27.446 108.926 26.5519C108.926 25.6354 109.099 24.8587 109.446 24.2216C109.803 23.5846 110.267 23.0984 110.837 22.7631C111.418 22.4278 112.039 22.2602 112.698 22.2602C113.369 22.2602 113.989 22.4278 114.559 22.7631C115.129 23.0984 115.587 23.5846 115.933 24.2216C116.291 24.8587 116.47 25.6354 116.47 26.5519C116.47 27.446 116.291 28.2116 115.933 28.8486C115.587 29.4857 115.129 29.9718 114.559 30.3071C113.989 30.6424 113.369 30.8101 112.698 30.8101ZM112.698 29.6701C113.402 29.6701 113.966 29.3851 114.391 28.8151C114.827 28.2339 115.045 27.4795 115.045 26.5519C115.045 25.6131 114.827 24.8531 114.391 24.2719C113.966 23.6907 113.402 23.4001 112.698 23.4001C112.005 23.4001 111.441 23.6907 111.005 24.2719C110.569 24.8531 110.351 25.6131 110.351 26.5519C110.351 27.4795 110.569 28.2339 111.005 28.8151C111.441 29.3851 112.005 29.6701 112.698 29.6701ZM120.264 30.8101C119.582 30.8101 119.012 30.6089 118.554 30.2065C118.107 29.793 117.884 29.223 117.884 28.4966C117.884 27.6025 118.28 26.9207 119.074 26.4513C119.879 25.9707 121.147 25.6354 122.879 25.4454C122.879 25.099 122.829 24.7692 122.728 24.4563C122.639 24.1434 122.471 23.8919 122.226 23.7019C121.991 23.5007 121.65 23.4001 121.203 23.4001C120.734 23.4001 120.292 23.4896 119.879 23.6684C119.465 23.8472 119.096 24.0484 118.772 24.2719L118.236 23.3163C118.616 23.0704 119.079 22.8357 119.627 22.6122C120.186 22.3775 120.789 22.2602 121.438 22.2602C122.432 22.2602 123.153 22.5675 123.6 23.1822C124.047 23.7857 124.271 24.596 124.271 25.6131V30.6089H123.131L123.013 29.6365H122.963C122.583 29.9495 122.164 30.2233 121.706 30.458C121.259 30.6927 120.778 30.8101 120.264 30.8101ZM120.666 29.7036C121.058 29.7036 121.426 29.6086 121.773 29.4186C122.119 29.2286 122.488 28.9604 122.879 28.6139V26.3507C121.527 26.5183 120.577 26.7698 120.029 27.1051C119.493 27.4404 119.225 27.8707 119.225 28.396C119.225 28.8542 119.364 29.1895 119.644 29.4018C119.923 29.603 120.264 29.7036 120.666 29.7036ZM129.617 30.8101C128.6 30.8101 127.784 30.4412 127.17 29.7036C126.555 28.9548 126.247 27.9042 126.247 26.5519C126.247 25.6689 126.41 24.909 126.734 24.2719C127.069 23.6237 127.505 23.1263 128.041 22.7799C128.589 22.4334 129.17 22.2602 129.785 22.2602C130.254 22.2602 130.662 22.344 131.009 22.5116C131.355 22.6793 131.707 22.9084 132.065 23.199L131.998 21.8075V18.6726H133.389V30.6089H132.249L132.132 29.6533H132.082C131.769 29.9662 131.4 30.2401 130.975 30.4748C130.55 30.6983 130.098 30.8101 129.617 30.8101ZM129.919 29.6533C130.634 29.6533 131.327 29.2789 131.998 28.5301V24.2719C131.651 23.959 131.316 23.741 130.992 23.6181C130.679 23.484 130.355 23.4169 130.019 23.4169C129.584 23.4169 129.187 23.551 128.829 23.8193C128.483 24.0763 128.203 24.4395 127.991 24.909C127.779 25.3672 127.672 25.9092 127.672 26.5351C127.672 27.5075 127.868 28.273 128.259 28.8318C128.65 29.3795 129.204 29.6533 129.919 29.6533ZM142.658 30.8101C141.999 30.8101 141.378 30.6424 140.797 30.3071C140.227 29.9718 139.763 29.4857 139.406 28.8486C139.059 28.2116 138.886 27.446 138.886 26.5519C138.886 25.6354 139.059 24.8587 139.406 24.2216C139.763 23.5846 140.227 23.0984 140.797 22.7631C141.378 22.4278 141.999 22.2602 142.658 22.2602C143.329 22.2602 143.949 22.4278 144.519 22.7631C145.089 23.0984 145.547 23.5846 145.894 24.2216C146.251 24.8587 146.43 25.6354 146.43 26.5519C146.43 27.446 146.251 28.2116 145.894 28.8486C145.547 29.4857 145.089 29.9718 144.519 30.3071C143.949 30.6424 143.329 30.8101 142.658 30.8101ZM142.658 29.6701C143.362 29.6701 143.926 29.3851 144.351 28.8151C144.787 28.2339 145.005 27.4795 145.005 26.5519C145.005 25.6131 144.787 24.8531 144.351 24.2719C143.926 23.6907 143.362 23.4001 142.658 23.4001C141.965 23.4001 141.401 23.6907 140.965 24.2719C140.529 24.8531 140.311 25.6131 140.311 26.5519C140.311 27.4795 140.529 28.2339 140.965 28.8151C141.401 29.3851 141.965 29.6701 142.658 29.6701ZM148.576 30.6089V22.4613H149.716L149.833 23.6348H149.883C150.274 23.2437 150.688 22.9196 151.124 22.6625C151.56 22.3943 152.057 22.2602 152.616 22.2602C153.477 22.2602 154.102 22.534 154.494 23.0816C154.896 23.6181 155.097 24.406 155.097 25.4454V30.6089H153.722V25.6298C153.722 24.8698 153.599 24.3166 153.354 23.9701C153.108 23.6237 152.717 23.4504 152.18 23.4504C151.767 23.4504 151.392 23.5566 151.057 23.769C150.733 23.9813 150.364 24.2943 149.95 24.7078V30.6089H148.576ZM65.0423 52.6089V38.2431H69.9777C71.0353 38.2431 71.9901 38.39 72.8421 38.6838C73.7087 38.9629 74.3991 39.4403 74.9132 40.116C75.4273 40.7917 75.6844 41.7097 75.6844 42.8701C75.6844 43.9865 75.4273 44.9046 74.9132 45.6243C74.3991 46.3441 73.7161 46.8802 72.8641 47.2327C72.0122 47.5706 71.0794 47.7395 70.0659 47.7395H68.2812V52.6089H65.0423ZM68.2812 45.1616H69.8676C71.6302 45.1616 72.5116 44.3978 72.5116 42.8701C72.5116 42.121 72.2766 41.5922 71.8065 41.2837C71.3365 40.9753 70.6608 40.821 69.7794 40.821H68.2812V45.1616ZM80.8777 52.8733C79.7614 52.8733 78.9828 52.5428 78.5422 51.8818C78.1162 51.2061 77.9032 50.3174 77.9032 49.2157V37.1635H81.1421V49.348C81.1421 49.6858 81.2009 49.9208 81.3184 50.053C81.4506 50.1852 81.5828 50.2513 81.715 50.2513C81.7884 50.2513 81.8472 50.2513 81.8912 50.2513C81.95 50.2366 82.0234 50.2219 82.1116 50.2073L82.5082 52.6089C82.3319 52.6823 82.1042 52.7411 81.8251 52.7852C81.5607 52.8439 81.2449 52.8733 80.8777 52.8733ZM86.9618 52.8733C85.963 52.8733 85.1698 52.5575 84.5822 51.9259C83.9947 51.2795 83.7009 50.4937 83.7009 49.5683C83.7009 48.4225 84.1856 47.5265 85.1551 46.8802C86.1246 46.2339 87.6889 45.8006 89.8482 45.5802C89.8188 45.0955 89.6719 44.7136 89.4075 44.4345C89.1578 44.1407 88.7319 43.9938 88.1296 43.9938C87.6743 43.9938 87.2116 44.082 86.7415 44.2582C86.2715 44.4345 85.772 44.6769 85.2432 44.9853L84.0755 42.8481C84.7659 42.4221 85.5003 42.0769 86.2788 41.8125C87.072 41.5481 87.8946 41.4159 88.7465 41.4159C90.142 41.4159 91.2143 41.8199 91.9634 42.6278C92.7126 43.4357 93.0871 44.6769 93.0871 46.3514V52.6089H90.4431L90.2228 51.4852H90.1347C89.6793 51.8965 89.1872 52.2343 88.6584 52.4987C88.1443 52.7484 87.5788 52.8733 86.9618 52.8733ZM88.0635 50.3615C88.4307 50.3615 88.7465 50.2807 89.0109 50.1191C89.29 49.9429 89.5691 49.7152 89.8482 49.4361V47.5192C88.7025 47.6661 87.9093 47.9011 87.4686 48.2242C87.0279 48.5327 86.8076 48.8999 86.8076 49.3259C86.8076 49.6785 86.9178 49.9429 87.1381 50.1191C87.3731 50.2807 87.6816 50.3615 88.0635 50.3615ZM97.0387 56.8834C96.7155 56.8834 96.4291 56.8613 96.1794 56.8173C95.9443 56.7732 95.7167 56.7218 95.4963 56.663L96.0692 54.1953C96.172 54.21 96.2895 54.232 96.4217 54.2614C96.5539 54.3055 96.6788 54.3275 96.7963 54.3275C97.3398 54.3275 97.7584 54.1953 98.0522 53.9309C98.346 53.6665 98.5663 53.3213 98.7132 52.8953L98.8674 52.3225L94.6591 41.6803H97.92L99.4844 46.3734C99.6459 46.8729 99.7928 47.3796 99.925 47.8937C100.057 48.4079 100.197 48.9367 100.344 49.4802H100.432C100.549 48.966 100.667 48.4519 100.784 47.9378C100.917 47.409 101.049 46.8876 101.181 46.3734L102.503 41.6803H105.61L101.82 52.7191C101.482 53.6298 101.107 54.3936 100.696 55.0105C100.285 55.6421 99.7855 56.1122 99.1979 56.4207C98.6251 56.7291 97.9053 56.8834 97.0387 56.8834ZM116.377 52.8733C115.437 52.8733 114.497 52.697 113.557 52.3445C112.631 51.992 111.801 51.4778 111.067 50.8022L112.918 48.5768C113.432 49.0174 114.005 49.3773 114.636 49.6564C115.268 49.9355 115.877 50.0751 116.465 50.0751C117.141 50.0751 117.64 49.9502 117.963 49.7005C118.301 49.4508 118.47 49.1129 118.47 48.6869C118.47 48.2316 118.279 47.9011 117.897 47.6954C117.53 47.4751 117.031 47.2327 116.399 46.9683L114.526 46.1751C114.041 45.9695 113.579 45.6978 113.138 45.3599C112.697 45.0074 112.337 44.5741 112.058 44.0599C111.779 43.5458 111.64 42.9436 111.64 42.2532C111.64 41.46 111.853 40.7403 112.279 40.0939C112.719 39.4476 113.322 38.9335 114.085 38.5516C114.864 38.1697 115.753 37.9787 116.751 37.9787C117.574 37.9787 118.397 38.1403 119.219 38.4635C120.042 38.7866 120.762 39.2567 121.378 39.8736L119.726 41.9227C119.256 41.5555 118.786 41.2764 118.316 41.0854C117.846 40.8798 117.324 40.777 116.751 40.777C116.193 40.777 115.745 40.8945 115.407 41.1295C115.084 41.3498 114.923 41.6657 114.923 42.0769C114.923 42.5176 115.128 42.8481 115.54 43.0684C115.966 43.2888 116.487 43.5238 117.104 43.7735L118.955 44.5226C119.821 44.8752 120.512 45.3599 121.026 45.9768C121.54 46.5938 121.797 47.409 121.797 48.4225C121.797 49.2157 121.584 49.9502 121.158 50.6259C120.732 51.3016 120.115 51.8451 119.307 52.2564C118.499 52.6676 117.523 52.8733 116.377 52.8733ZM127.555 52.8733C126.204 52.8733 125.235 52.484 124.647 51.7055C124.074 50.927 123.788 49.9061 123.788 48.6429V44.2142H122.289V41.8125L123.964 41.6803L124.339 38.7719H127.027V41.6803H129.649V44.2142H127.027V48.5988C127.027 49.2157 127.151 49.6638 127.401 49.9429C127.666 50.2073 128.011 50.3395 128.437 50.3395C128.613 50.3395 128.789 50.3174 128.966 50.2734C129.156 50.2293 129.325 50.1779 129.472 50.1191L129.979 52.4767C129.7 52.5648 129.355 52.653 128.943 52.7411C128.547 52.8292 128.084 52.8733 127.555 52.8733ZM136.087 52.8733C135.162 52.8733 134.288 52.653 133.465 52.2123C132.658 51.7569 132.004 51.1033 131.505 50.2513C131.005 49.3847 130.755 48.3491 130.755 47.1446C130.755 45.9254 131.005 44.8899 131.505 44.0379C132.004 43.186 132.658 42.5396 133.465 42.099C134.288 41.6436 135.162 41.4159 136.087 41.4159C137.013 41.4159 137.879 41.6436 138.687 42.099C139.495 42.5396 140.149 43.186 140.648 44.0379C141.148 44.8899 141.397 45.9254 141.397 47.1446C141.397 48.3491 141.148 49.3847 140.648 50.2513C140.149 51.1033 139.495 51.7569 138.687 52.2123C137.879 52.653 137.013 52.8733 136.087 52.8733ZM136.087 50.2513C136.748 50.2513 137.248 49.9722 137.586 49.414C137.924 48.8412 138.092 48.0847 138.092 47.1446C138.092 46.1898 137.924 45.4334 137.586 44.8752C137.248 44.317 136.748 44.0379 136.087 44.0379C135.412 44.0379 134.905 44.317 134.567 44.8752C134.244 45.4334 134.082 46.1898 134.082 47.1446C134.082 48.0847 134.244 48.8412 134.567 49.414C134.905 49.9722 135.412 50.2513 136.087 50.2513ZM143.616 52.6089V41.6803H146.26L146.48 43.5972H146.568C146.965 42.8628 147.442 42.3193 148.001 41.9668C148.559 41.5996 149.117 41.4159 149.675 41.4159C149.984 41.4159 150.241 41.438 150.446 41.482C150.652 41.5114 150.828 41.5628 150.975 41.6363L150.446 44.4345C150.255 44.3758 150.064 44.3317 149.873 44.3023C149.697 44.2729 149.492 44.2582 149.257 44.2582C148.845 44.2582 148.412 44.4125 147.957 44.7209C147.516 45.0147 147.149 45.5288 146.855 46.2633V52.6089H143.616ZM157.071 52.8733C156.028 52.8733 155.088 52.6456 154.251 52.1903C153.414 51.7349 152.753 51.0812 152.268 50.2293C151.783 49.3773 151.541 48.3491 151.541 47.1446C151.541 45.9548 151.783 44.9339 152.268 44.082C152.767 43.23 153.414 42.5764 154.207 42.121C155 41.651 155.83 41.4159 156.697 41.4159C157.739 41.4159 158.599 41.651 159.274 42.121C159.965 42.5764 160.479 43.2006 160.817 43.9938C161.169 44.7724 161.346 45.661 161.346 46.6599C161.346 46.939 161.331 47.2181 161.302 47.4971C161.272 47.7615 161.243 47.9598 161.213 48.092H154.669C154.816 48.8852 155.147 49.4728 155.661 49.8547C156.175 50.2219 156.792 50.4056 157.512 50.4056C158.29 50.4056 159.076 50.1632 159.869 49.6785L160.949 51.6394C160.391 52.0213 159.767 52.3225 159.076 52.5428C158.386 52.7631 157.717 52.8733 157.071 52.8733ZM154.647 45.9548H158.591C158.591 45.3526 158.445 44.8605 158.151 44.4786C157.872 44.082 157.409 43.8837 156.763 43.8837C156.263 43.8837 155.815 44.0599 155.419 44.4125C155.022 44.7503 154.765 45.2644 154.647 45.9548Z" fill="#141414"/>
<defs>
<linearGradient id="paint0_linear_2022_1310" x1="44.0282" y1="26.0702" x2="25.1666" y2="31.2437" gradientUnits="userSpaceOnUse">
<stop stop-color="#00A1FF"/>
<stop offset="0.26" stop-color="#00BEFF"/>
<stop offset="0.51" stop-color="#00D2FF"/>
<stop offset="0.76" stop-color="#00DFFF"/>
<stop offset="1" stop-color="#00E3FF"/>
</linearGradient>
<linearGradient id="paint1_linear_2022_1310" x1="54.9791" y1="36.4507" x2="31.9109" y2="36.4507" gradientUnits="userSpaceOnUse">
<stop stop-color="#FFE000"/>
<stop offset="0.41" stop-color="#FFBD00"/>
<stop offset="0.78" stop-color="#FFA500"/>
<stop offset="1" stop-color="#FF9C00"/>
</linearGradient>
<linearGradient id="paint2_linear_2022_1310" x1="45.6295" y1="38.6307" x2="31.0421" y2="63.8378" gradientUnits="userSpaceOnUse">
<stop stop-color="#FF3A44"/>
<stop offset="1" stop-color="#C31162"/>
</linearGradient>
<linearGradient id="paint3_linear_2022_1310" x1="28.9355" y1="18.0437" x2="35.4484" y2="29.3044" gradientUnits="userSpaceOnUse">
<stop stop-color="#32A071"/>
<stop offset="0.07" stop-color="#2DA771"/>
<stop offset="0.48" stop-color="#15CF74"/>
<stop offset="0.8" stop-color="#06E775"/>
<stop offset="1" stop-color="#00F076"/>
</linearGradient>
<clipPath id="clip0_2022_1310">
<rect width="22.0046" height="23.8384" fill="white" transform="translate(32.1729 24.6897)"/>
</clipPath>
</defs>
</svg>
