<svg width="193" height="74" viewBox="0 0 193 74" fill="none" xmlns="http://www.w3.org/2000/svg">
<rect x="0.398438" y="0.138672" width="192.448" height="73.7994" rx="8" fill="#141414"/>
<g clip-path="url(#clip0_140_4063)">
<path fill-rule="evenodd" clip-rule="evenodd" d="M25.5402 22.9418C25.2041 23.2929 25.0107 23.834 25.0107 24.5367V49.5367C25.0107 50.2394 25.2041 50.7805 25.553 51.1197L25.6441 51.1948L40.0534 37.1864V36.8716L25.6318 22.8667L25.5407 22.9418H25.5402Z" fill="url(#paint0_linear_140_4063)"/>
<path fill-rule="evenodd" clip-rule="evenodd" d="M44.8483 41.8736L40.042 37.1997V36.8729L44.8499 32.199L44.9537 32.2616L50.64 35.4033C52.2684 36.2955 52.2684 37.7656 50.64 38.6698L44.9537 41.8114L44.8483 41.8741V41.8736Z" fill="url(#paint1_linear_140_4063)"/>
<path fill-rule="evenodd" clip-rule="evenodd" d="M44.9497 41.8118L40.0395 37.0369L25.5391 51.1338C26.0686 51.6868 26.9597 51.7495 27.9563 51.2089L44.9497 41.8123V41.8118Z" fill="url(#paint2_linear_140_4063)"/>
<path fill-rule="evenodd" clip-rule="evenodd" d="M44.9497 32.2635L27.9563 22.8789C26.9618 22.3258 26.0691 22.4004 25.5391 22.9535L40.0384 37.0365L44.9502 32.2631L44.9497 32.2635Z" fill="url(#paint3_linear_140_4063)"/>
<path opacity="0.2" fill-rule="evenodd" clip-rule="evenodd" d="M44.8472 41.7097L27.97 51.0317C27.0271 51.5589 26.1861 51.5221 25.6438 51.0442L25.5527 51.1327L25.6438 51.2078C26.1861 51.6847 27.0271 51.7225 27.97 51.1954L44.9633 41.8107L44.8472 41.7097Z" fill="#3418D8"/>
<path opacity="0.12" fill-rule="evenodd" clip-rule="evenodd" d="M50.6359 38.507L44.833 41.7108L44.9369 41.8118L50.6231 38.6701C51.4371 38.218 51.8382 37.6282 51.8382 37.0369C51.7865 37.578 51.3731 38.0927 50.6359 38.5065V38.507Z" fill="#3418D8"/>
<path opacity="0.25" fill-rule="evenodd" clip-rule="evenodd" d="M27.9575 23.0419L50.6371 35.5678C51.3743 35.9696 51.7877 36.4968 51.8521 37.0374C51.8521 36.4475 51.4516 35.8562 50.6371 35.4041L27.9575 22.8783C26.3296 21.9736 25.0107 22.7271 25.0107 24.5359V24.6995C25.0107 22.8902 26.3296 22.1492 27.9575 23.0419Z" fill="white"/>
</g>
<path d="M64.4695 32.0381V21.6755H67.0602C68.6609 21.6755 69.8772 22.1231 70.7092 23.0182C71.5411 23.9028 71.9571 25.1666 71.9571 26.8094C71.9571 28.4628 71.5411 29.7476 70.7092 30.6638C69.8878 31.58 68.6925 32.0381 67.1234 32.0381H64.4695ZM65.7807 30.9639H66.9654C68.1765 30.9639 69.0821 30.6006 69.6824 29.874C70.2932 29.1368 70.5986 28.1153 70.5986 26.8094C70.5986 25.5036 70.2932 24.5031 69.6824 23.8081C69.0821 23.1025 68.1765 22.7497 66.9654 22.7497H65.7807V30.9639ZM77.0473 32.2276C76.426 32.2276 75.8415 32.0697 75.2939 31.7537C74.7568 31.4378 74.3198 30.9797 73.9828 30.3794C73.6563 29.7792 73.4931 29.0578 73.4931 28.2153C73.4931 27.3518 73.6563 26.6199 73.9828 26.0196C74.3198 25.4193 74.7568 24.9612 75.2939 24.6453C75.8415 24.3294 76.426 24.1714 77.0473 24.1714C77.6792 24.1714 78.2637 24.3294 78.8007 24.6453C79.3378 24.9612 79.7696 25.4193 80.0961 26.0196C80.4331 26.6199 80.6015 27.3518 80.6015 28.2153C80.6015 29.0578 80.4331 29.7792 80.0961 30.3794C79.7696 30.9797 79.3378 31.4378 78.8007 31.7537C78.2637 32.0697 77.6792 32.2276 77.0473 32.2276ZM77.0473 31.1535C77.7108 31.1535 78.2426 30.8849 78.6428 30.3479C79.0535 29.8002 79.2588 29.0894 79.2588 28.2153C79.2588 27.3307 79.0535 26.6146 78.6428 26.067C78.2426 25.5194 77.7108 25.2456 77.0473 25.2456C76.3944 25.2456 75.8626 25.5194 75.4519 26.067C75.0412 26.6146 74.8358 27.3307 74.8358 28.2153C74.8358 29.0894 75.0412 29.8002 75.4519 30.3479C75.8626 30.8849 76.3944 31.1535 77.0473 31.1535ZM83.778 32.0381L81.6455 24.3609H82.9724L84.1097 28.7998C84.194 29.1578 84.273 29.5159 84.3467 29.874C84.4204 30.2215 84.4941 30.5743 84.5678 30.9323H84.631C84.7153 30.5743 84.7995 30.2215 84.8838 29.874C84.968 29.5159 85.0575 29.1578 85.1523 28.7998L86.3371 24.3609H87.6008L88.8013 28.7998C88.8961 29.1578 88.9856 29.5159 89.0699 29.874C89.1647 30.2215 89.2542 30.5743 89.3384 30.9323H89.4016C89.4858 30.5743 89.5648 30.2215 89.6385 29.874C89.7228 29.5159 89.8018 29.1578 89.8755 28.7998L90.9971 24.3609H92.2292L90.1756 32.0381H88.596L87.4902 27.9152C87.3954 27.5466 87.3059 27.1833 87.2217 26.8252C87.148 26.4672 87.0637 26.0933 86.9689 25.7037H86.9057C86.8215 26.0933 86.7372 26.4724 86.653 26.841C86.5687 27.1991 86.474 27.5624 86.3687 27.931L85.2945 32.0381H83.778ZM93.9 32.0381V24.3609H94.9742L95.0848 25.4667H95.1322C95.5008 25.0981 95.8904 24.7927 96.3011 24.5505C96.7118 24.2978 97.1805 24.1714 97.707 24.1714C98.5179 24.1714 99.1076 24.4294 99.4762 24.9454C99.8554 25.4509 100.045 26.1934 100.045 27.1727V32.0381H98.7496V27.3465C98.7496 26.6304 98.6338 26.1091 98.4021 25.7826C98.1704 25.4562 97.8018 25.2929 97.2963 25.2929C96.9067 25.2929 96.5539 25.393 96.2379 25.5931C95.9325 25.7932 95.585 26.088 95.1954 26.4777V32.0381H93.9ZM103.913 32.2276C103.429 32.2276 103.076 32.0802 102.855 31.7853C102.644 31.4799 102.539 31.0482 102.539 30.49V20.7909H103.834V30.5848C103.834 30.7849 103.871 30.9323 103.945 31.0271C104.018 31.1114 104.103 31.1535 104.197 31.1535C104.24 31.1535 104.276 31.1535 104.308 31.1535C104.35 31.1429 104.408 31.1324 104.482 31.1219L104.656 32.1013C104.571 32.1434 104.471 32.175 104.355 32.1961C104.24 32.2171 104.092 32.2276 103.913 32.2276ZM109.551 32.2276C108.929 32.2276 108.345 32.0697 107.797 31.7537C107.26 31.4378 106.823 30.9797 106.486 30.3794C106.16 29.7792 105.996 29.0578 105.996 28.2153C105.996 27.3518 106.16 26.6199 106.486 26.0196C106.823 25.4193 107.26 24.9612 107.797 24.6453C108.345 24.3294 108.929 24.1714 109.551 24.1714C110.182 24.1714 110.767 24.3294 111.304 24.6453C111.841 24.9612 112.273 25.4193 112.599 26.0196C112.936 26.6199 113.105 27.3518 113.105 28.2153C113.105 29.0578 112.936 29.7792 112.599 30.3794C112.273 30.9797 111.841 31.4378 111.304 31.7537C110.767 32.0697 110.182 32.2276 109.551 32.2276ZM109.551 31.1535C110.214 31.1535 110.746 30.8849 111.146 30.3479C111.557 29.8002 111.762 29.0894 111.762 28.2153C111.762 27.3307 111.557 26.6146 111.146 26.067C110.746 25.5194 110.214 25.2456 109.551 25.2456C108.898 25.2456 108.366 25.5194 107.955 26.067C107.544 26.6146 107.339 27.3307 107.339 28.2153C107.339 29.0894 107.544 29.8002 107.955 30.3479C108.366 30.8849 108.898 31.1535 109.551 31.1535ZM116.68 32.2276C116.038 32.2276 115.5 32.0381 115.069 31.659C114.647 31.2693 114.437 30.7322 114.437 30.0477C114.437 29.2052 114.811 28.5628 115.558 28.1205C116.317 27.6677 117.512 27.3518 119.144 27.1727C119.144 26.8463 119.097 26.5356 119.002 26.2407C118.918 25.9459 118.76 25.7089 118.528 25.5299C118.307 25.3403 117.986 25.2456 117.565 25.2456C117.122 25.2456 116.706 25.3298 116.317 25.4983C115.927 25.6668 115.579 25.8564 115.274 26.067L114.769 25.1666C115.127 24.9349 115.564 24.7137 116.08 24.5031C116.606 24.282 117.175 24.1714 117.786 24.1714C118.723 24.1714 119.402 24.461 119.823 25.0402C120.245 25.6089 120.455 26.3724 120.455 27.3307V32.0381H119.381L119.271 31.1219H119.223C118.865 31.4168 118.47 31.6748 118.038 31.8959C117.617 32.1171 117.164 32.2276 116.68 32.2276ZM117.059 31.1851C117.428 31.1851 117.775 31.0956 118.102 30.9165C118.428 30.7375 118.776 30.4848 119.144 30.1583V28.0258C117.87 28.1837 116.975 28.4207 116.459 28.7366C115.953 29.0525 115.701 29.458 115.701 29.9529C115.701 30.3847 115.832 30.7006 116.095 30.9007C116.359 31.0903 116.68 31.1851 117.059 31.1851ZM125.493 32.2276C124.535 32.2276 123.766 31.8801 123.187 31.1851C122.607 30.4795 122.318 29.4896 122.318 28.2153C122.318 27.3834 122.471 26.6673 122.776 26.067C123.092 25.4562 123.503 24.9875 124.008 24.6611C124.524 24.3346 125.072 24.1714 125.651 24.1714C126.093 24.1714 126.478 24.2504 126.804 24.4083C127.131 24.5663 127.462 24.7822 127.799 25.056L127.736 23.7449V20.7909H129.047V32.0381H127.973L127.862 31.1377H127.815C127.52 31.4326 127.173 31.6906 126.772 31.9117C126.372 32.1223 125.946 32.2276 125.493 32.2276ZM125.777 31.1377C126.451 31.1377 127.104 30.7849 127.736 30.0793V26.067C127.41 25.7721 127.094 25.5668 126.788 25.4509C126.493 25.3245 126.188 25.2614 125.872 25.2614C125.461 25.2614 125.088 25.3877 124.751 25.6405C124.424 25.8827 124.161 26.2249 123.961 26.6673C123.761 27.099 123.661 27.6098 123.661 28.1995C123.661 29.1157 123.845 29.8371 124.213 30.3636C124.582 30.8797 125.103 31.1377 125.777 31.1377ZM137.781 32.2276C137.16 32.2276 136.575 32.0697 136.027 31.7537C135.49 31.4378 135.053 30.9797 134.716 30.3794C134.39 29.7792 134.227 29.0578 134.227 28.2153C134.227 27.3518 134.39 26.6199 134.716 26.0196C135.053 25.4193 135.49 24.9612 136.027 24.6453C136.575 24.3294 137.16 24.1714 137.781 24.1714C138.413 24.1714 138.997 24.3294 139.534 24.6453C140.071 24.9612 140.503 25.4193 140.83 26.0196C141.167 26.6199 141.335 27.3518 141.335 28.2153C141.335 29.0578 141.167 29.7792 140.83 30.3794C140.503 30.9797 140.071 31.4378 139.534 31.7537C138.997 32.0697 138.413 32.2276 137.781 32.2276ZM137.781 31.1535C138.444 31.1535 138.976 30.8849 139.376 30.3479C139.787 29.8002 139.992 29.0894 139.992 28.2153C139.992 27.3307 139.787 26.6146 139.376 26.067C138.976 25.5194 138.444 25.2456 137.781 25.2456C137.128 25.2456 136.596 25.5194 136.185 26.067C135.775 26.6146 135.569 27.3307 135.569 28.2153C135.569 29.0894 135.775 29.8002 136.185 30.3479C136.596 30.8849 137.128 31.1535 137.781 31.1535ZM143.357 32.0381V24.3609H144.431L144.542 25.4667H144.589C144.958 25.0981 145.347 24.7927 145.758 24.5505C146.169 24.2978 146.637 24.1714 147.164 24.1714C147.975 24.1714 148.565 24.4294 148.933 24.9454C149.312 25.4509 149.502 26.1934 149.502 27.1727V32.0381H148.206V27.3465C148.206 26.6304 148.091 26.1091 147.859 25.7826C147.627 25.4562 147.259 25.2929 146.753 25.2929C146.364 25.2929 146.011 25.393 145.695 25.5931C145.389 25.7932 145.042 26.088 144.652 26.4777V32.0381H143.357ZM64.6465 53.0381V39.5018H69.297C70.2935 39.5018 71.1932 39.6402 71.9959 39.917C72.8125 40.18 73.4631 40.6298 73.9475 41.2665C74.4319 41.9032 74.6741 42.7682 74.6741 43.8616C74.6741 44.9135 74.4319 45.7786 73.9475 46.4568C73.4631 47.135 72.8195 47.6402 72.0167 47.9723C71.2139 48.2907 70.335 48.4499 69.38 48.4499H67.6984V53.0381H64.6465ZM67.6984 46.0208H69.1932C70.8541 46.0208 71.6845 45.3011 71.6845 43.8616C71.6845 43.1557 71.4631 42.6575 71.0202 42.3668C70.5773 42.0762 69.9406 41.9308 69.1101 41.9308H67.6984V46.0208ZM79.5676 53.2872C78.5157 53.2872 77.7821 52.9758 77.3669 52.353C76.9655 51.7163 76.7648 50.8789 76.7648 49.8409V38.4845H79.8167V49.9654C79.8167 50.2838 79.8721 50.5052 79.9828 50.6298C80.1074 50.7544 80.232 50.8166 80.3565 50.8166C80.4257 50.8166 80.4811 50.8166 80.5226 50.8166C80.578 50.8028 80.6472 50.789 80.7302 50.7751L81.1039 53.0381C80.9379 53.1073 80.7233 53.1627 80.4603 53.2042C80.2112 53.2595 79.9136 53.2872 79.5676 53.2872ZM85.3005 53.2872C84.3593 53.2872 83.6119 52.9896 83.0583 52.3945C82.5046 51.7855 82.2278 51.045 82.2278 50.173C82.2278 49.0935 82.6846 48.2492 83.598 47.6402C84.5115 47.0312 85.9856 46.6229 88.0202 46.4153C87.9925 45.9585 87.8541 45.5987 87.605 45.3357C87.3697 45.0589 86.9683 44.9205 86.4008 44.9205C85.9717 44.9205 85.5358 45.0035 85.0929 45.1696C84.6499 45.3357 84.1794 45.564 83.6811 45.8547L82.5807 43.8409C83.2313 43.4395 83.9233 43.1142 84.6569 42.8651C85.4043 42.616 86.1794 42.4914 86.9821 42.4914C88.297 42.4914 89.3074 42.872 90.0133 43.6333C90.7191 44.3945 91.0721 45.564 91.0721 47.1419V53.0381H88.5807L88.3731 51.9793H88.2901C87.861 52.3668 87.3973 52.6851 86.8991 52.9343C86.4147 53.1696 85.8818 53.2872 85.3005 53.2872ZM86.3385 50.9204C86.6845 50.9204 86.9821 50.8443 87.2313 50.6921C87.4942 50.526 87.7572 50.3114 88.0202 50.0485V48.2422C86.9406 48.3807 86.1932 48.6021 85.778 48.9066C85.3627 49.1973 85.1551 49.5433 85.1551 49.9447C85.1551 50.2768 85.2589 50.526 85.4666 50.6921C85.688 50.8443 85.9787 50.9204 86.3385 50.9204ZM94.7955 57.0658C94.491 57.0658 94.2211 57.045 93.9858 57.0035C93.7643 56.962 93.5498 56.9135 93.3422 56.8581L93.882 54.5329C93.9789 54.5467 94.0896 54.5675 94.2142 54.5952C94.3387 54.6367 94.4564 54.6575 94.5671 54.6575C95.0792 54.6575 95.4737 54.5329 95.7505 54.2838C96.0273 54.0346 96.2349 53.7094 96.3733 53.308L96.5187 52.7682L92.5533 42.7405H95.6259L97.1 47.1627C97.2522 47.6333 97.3906 48.1108 97.5152 48.5952C97.6398 49.0796 97.7712 49.5779 97.9097 50.09H97.9927C98.1034 49.6056 98.2142 49.1211 98.3249 48.6367C98.4494 48.1384 98.574 47.6471 98.6986 47.1627L99.9443 42.7405H102.872L99.3007 53.1419C98.9823 54 98.6294 54.7197 98.2418 55.3011C97.8543 55.8962 97.3837 56.3391 96.8301 56.6298C96.2903 56.9204 95.6121 57.0658 94.7955 57.0658ZM113.017 53.2872C112.131 53.2872 111.246 53.1211 110.36 52.789C109.488 52.4568 108.706 51.9723 108.014 51.3357L109.758 49.2388C110.242 49.654 110.782 49.9931 111.377 50.2561C111.972 50.5191 112.547 50.6505 113.1 50.6505C113.737 50.6505 114.207 50.5329 114.512 50.2976C114.83 50.0623 114.989 49.744 114.989 49.3426C114.989 48.9135 114.81 48.6021 114.45 48.4083C114.104 48.2007 113.633 47.9724 113.038 47.7232L111.273 46.9758C110.816 46.782 110.38 46.526 109.965 46.2076C109.55 45.8755 109.211 45.4672 108.948 44.9827C108.685 44.4983 108.554 43.9308 108.554 43.2803C108.554 42.5329 108.754 41.8547 109.156 41.2457C109.571 40.6367 110.138 40.1523 110.858 39.7924C111.592 39.4326 112.429 39.2526 113.37 39.2526C114.145 39.2526 114.92 39.4049 115.695 39.7094C116.47 40.0139 117.149 40.4568 117.73 41.0381L116.173 42.9689C115.73 42.6229 115.287 42.3599 114.844 42.18C114.401 41.9862 113.91 41.8893 113.37 41.8893C112.844 41.8893 112.422 42 112.104 42.2215C111.799 42.4291 111.647 42.7267 111.647 43.1142C111.647 43.5295 111.841 43.8409 112.228 44.0485C112.63 44.2561 113.121 44.4775 113.702 44.7128L115.446 45.4187C116.263 45.7509 116.913 46.2076 117.398 46.789C117.882 47.3703 118.124 48.1384 118.124 49.0935C118.124 49.8409 117.924 50.5329 117.522 51.1696C117.121 51.8063 116.54 52.3184 115.778 52.7059C115.017 53.0934 114.097 53.2872 113.017 53.2872ZM123.55 53.2872C122.277 53.2872 121.363 52.9204 120.81 52.1869C120.27 51.4533 120 50.4914 120 49.3011V45.1281H118.588V42.8651L120.166 42.7405L120.519 40H123.052V42.7405H125.523V45.1281H123.052V49.2595C123.052 49.8409 123.17 50.263 123.405 50.526C123.654 50.7751 123.979 50.8997 124.381 50.8997C124.547 50.8997 124.713 50.8789 124.879 50.8374C125.059 50.7959 125.218 50.7474 125.356 50.6921L125.834 52.9135C125.571 52.9966 125.246 53.0796 124.858 53.1627C124.484 53.2457 124.049 53.2872 123.55 53.2872ZM131.59 53.2872C130.718 53.2872 129.894 53.0796 129.119 52.6644C128.358 52.2353 127.742 51.6194 127.271 50.8166C126.801 50 126.565 49.0243 126.565 47.8893C126.565 46.7405 126.801 45.7647 127.271 44.962C127.742 44.1592 128.358 43.5502 129.119 43.135C129.894 42.7059 130.718 42.4914 131.59 42.4914C132.462 42.4914 133.278 42.7059 134.04 43.135C134.801 43.5502 135.417 44.1592 135.887 44.962C136.358 45.7647 136.593 46.7405 136.593 47.8893C136.593 49.0243 136.358 50 135.887 50.8166C135.417 51.6194 134.801 52.2353 134.04 52.6644C133.278 53.0796 132.462 53.2872 131.59 53.2872ZM131.59 50.8166C132.213 50.8166 132.683 50.5537 133.001 50.0277C133.32 49.4879 133.479 48.7751 133.479 47.8893C133.479 46.9897 133.32 46.2769 133.001 45.7509C132.683 45.2249 132.213 44.962 131.59 44.962C130.953 44.962 130.476 45.2249 130.157 45.7509C129.853 46.2769 129.7 46.9897 129.7 47.8893C129.7 48.7751 129.853 49.4879 130.157 50.0277C130.476 50.5537 130.953 50.8166 131.59 50.8166ZM138.684 53.0381V42.7405H141.175L141.382 44.5468H141.466C141.839 43.8547 142.289 43.3426 142.815 43.0104C143.341 42.6644 143.867 42.4914 144.393 42.4914C144.684 42.4914 144.926 42.5122 145.12 42.5537C145.313 42.5814 145.479 42.6298 145.618 42.699L145.12 45.3357C144.94 45.2803 144.76 45.2388 144.58 45.2111C144.414 45.1834 144.22 45.1696 143.998 45.1696C143.611 45.1696 143.203 45.3149 142.773 45.6056C142.358 45.8824 142.012 46.3668 141.735 47.0589V53.0381H138.684ZM151.362 53.2872C150.379 53.2872 149.493 53.0727 148.704 52.6436C147.915 52.2146 147.293 51.5986 146.836 50.7959C146.379 49.9931 146.151 49.0243 146.151 47.8893C146.151 46.7682 146.379 45.8063 146.836 45.0035C147.306 44.2007 147.915 43.5848 148.663 43.1557C149.41 42.7128 150.192 42.4914 151.009 42.4914C151.992 42.4914 152.801 42.7128 153.438 43.1557C154.088 43.5848 154.573 44.173 154.891 44.9205C155.223 45.654 155.39 46.4914 155.39 47.4326C155.39 47.6955 155.376 47.9585 155.348 48.2215C155.32 48.4706 155.293 48.6575 155.265 48.782H149.099C149.237 49.5294 149.549 50.0831 150.033 50.4429C150.518 50.789 151.099 50.962 151.777 50.962C152.511 50.962 153.251 50.7336 153.999 50.2768L155.016 52.1246C154.49 52.4845 153.902 52.7682 153.251 52.9758C152.601 53.1834 151.971 53.2872 151.362 53.2872ZM149.078 46.7682H152.794C152.794 46.2007 152.656 45.7371 152.379 45.3772C152.116 45.0035 151.68 44.8166 151.071 44.8166C150.601 44.8166 150.178 44.9827 149.805 45.3149C149.431 45.6333 149.189 46.1177 149.078 46.7682Z" fill="#F3FBFD"/>
<defs>
<linearGradient id="paint0_linear_140_4063" x1="39.4764" y1="24.179" x2="16.4619" y2="30.4917" gradientUnits="userSpaceOnUse">
<stop stop-color="#00A1FF"/>
<stop offset="0.26" stop-color="#00BEFF"/>
<stop offset="0.51" stop-color="#00D2FF"/>
<stop offset="0.76" stop-color="#00DFFF"/>
<stop offset="1" stop-color="#00E3FF"/>
</linearGradient>
<linearGradient id="paint1_linear_140_4063" x1="52.8391" y1="36.8456" x2="24.6917" y2="36.8456" gradientUnits="userSpaceOnUse">
<stop stop-color="#FFE000"/>
<stop offset="0.41" stop-color="#FFBD00"/>
<stop offset="0.78" stop-color="#FFA500"/>
<stop offset="1" stop-color="#FF9C00"/>
</linearGradient>
<linearGradient id="paint2_linear_140_4063" x1="41.4295" y1="39.5057" x2="23.6302" y2="70.2627" gradientUnits="userSpaceOnUse">
<stop stop-color="#FF3A44"/>
<stop offset="1" stop-color="#C31162"/>
</linearGradient>
<linearGradient id="paint3_linear_140_4063" x1="21.0599" y1="14.3858" x2="29.0067" y2="28.1258" gradientUnits="userSpaceOnUse">
<stop stop-color="#32A071"/>
<stop offset="0.07" stop-color="#2DA771"/>
<stop offset="0.48" stop-color="#15CF74"/>
<stop offset="0.8" stop-color="#06E775"/>
<stop offset="1" stop-color="#00F076"/>
</linearGradient>
<clipPath id="clip0_140_4063">
<rect width="26.8496" height="29.087" fill="white" transform="translate(25.0107 22.4949)"/>
</clipPath>
</defs>
</svg>
