<svg width="146" height="31" viewBox="0 0 146 31" fill="none" xmlns="http://www.w3.org/2000/svg">
<path d="M48.2966 21.4943L37.8938 3.73825C35.6132 0.0374425 30.0517 -0.00192899 27.8511 3.89572L16.9282 22.3605C14.8876 25.7463 17.4083 29.9982 21.4894 29.9982H43.3752C47.4964 29.9982 50.5772 25.6281 48.2966 21.4943Z" fill="#F3FBFD"/>
<path d="M33.2918 22.8727L32.6517 21.7703C32.0515 20.7467 30.7311 18.5419 30.7311 18.5419L21.9288 3.50257C19.6482 0.156103 14.2468 -0.11949 11.9661 4.09312L1.72339 21.5341C-0.397174 25.1955 2.1235 29.9593 6.72474 29.9988H28.4905H37.773H43.2946C37.653 30.0381 35.8526 27.164 33.2918 22.8727Z" fill="#F3FBFD"/>
<path d="M33.292 22.8726L32.6518 21.7704C32.0517 20.7467 30.7313 18.542 30.7313 18.542L25.0498 8.69934L16.8876 22.4003C14.8472 25.7861 17.3678 30.038 21.4489 30.038H28.4507H37.7332H43.2948C37.6132 29.9987 35.8527 27.164 33.292 22.8726Z" fill="url(#paint0_linear_432_8484)"/>
<path d="M83.6104 28.4225V7.91069H100.935V9.20991C100.935 10.2335 100.095 11.0603 99.0545 11.0603H87.9315V16.572H99.0545V19.7217H87.9315V25.2335H99.0545C100.095 25.2335 100.935 26.0602 100.935 27.0839V28.3832L83.6104 28.4225Z" fill="white"/>
<path d="M125.822 7.91069H121.74C120.98 7.91069 120.3 8.22565 119.82 8.8162L114.899 14.9186L109.977 8.85558C109.497 8.26503 108.817 7.95005 108.057 7.95005H103.976L112.258 18.1862L103.976 28.4225H108.057C108.817 28.4225 109.497 28.1076 109.977 27.517L114.899 21.454L119.86 27.5564C120.34 28.1076 121.02 28.4619 121.78 28.4619H125.862L117.579 18.2256L125.822 7.91069Z" fill="white"/>
<path d="M70.0469 26.2595L75.7284 16.4957V28.3856H80.0497V7.87366H77.3689C76.5286 7.87366 75.7284 8.30672 75.3284 9.05476L68.5265 21.2595L61.7247 9.05476C61.3245 8.30672 60.5243 7.87366 59.6841 7.87366H57.0034V28.3856H61.3245V16.4957L67.006 26.2595H70.0469Z" fill="white"/>
<path d="M137.104 28.6584C131.102 28.7371 126.221 24.0913 126.181 18.1859C126.181 14.9575 127.181 12.2803 129.062 10.4299C130.942 8.61889 133.663 7.63463 136.904 7.63463C140.705 7.63463 143.706 8.93385 145.866 11.4535L144.506 12.5953C143.666 13.3039 142.425 13.3433 141.505 12.674C140.305 11.7685 138.784 11.3354 137.064 11.3354C132.823 11.3354 130.302 13.8551 130.302 18.1072C130.302 22.3984 132.903 25.0363 137.064 25.0363C138.824 25.0363 140.305 24.5638 141.505 23.6977C142.385 23.0283 143.626 23.0678 144.506 23.7764L145.866 24.9181C143.706 27.3985 140.825 28.6584 137.104 28.6584Z" fill="white"/>
<defs>
<linearGradient id="paint0_linear_432_8484" x1="13.9828" y1="16.1751" x2="39.1695" y2="25.6338" gradientUnits="userSpaceOnUse">
<stop stop-color="#F3FBFD"/>
<stop offset="1" stop-color="#303D48"/>
</linearGradient>
</defs>
</svg>
