<svg width="151" height="26" viewBox="0 0 151 26" fill="none" xmlns="http://www.w3.org/2000/svg">
<path d="M22.8205 15.347C22.373 15.6205 21.8509 15.6702 21.4531 15.4465C20.9559 15.1481 20.6575 14.4769 20.6575 13.557V10.7476C20.6575 9.40509 20.1354 8.43548 19.2404 8.18687C17.7238 7.73936 16.5802 9.60398 16.1576 10.3001L13.4725 14.6012V9.30564C13.4476 8.08742 13.0498 7.36643 12.304 7.14268C11.8068 6.99351 11.0609 7.06809 10.3399 8.16201L4.34827 17.7586C3.55269 16.242 3.13005 14.5514 3.13005 12.836C3.13005 7.04323 7.77917 2.34438 13.4725 2.34438C19.1658 2.34438 23.8149 7.04323 23.8149 12.836V12.8857C23.8647 14.0045 23.5166 14.8995 22.8205 15.347ZM26.1022 12.836V12.7863C26.0773 5.75043 20.4089 0.00738525 13.4725 0.00738525C6.53609 0.00738525 0.842773 5.75043 0.842773 12.836C0.842773 19.9216 6.51123 25.6646 13.4725 25.6646C16.6796 25.6646 19.7128 24.4464 22.0498 22.2337C22.5221 21.7862 22.547 21.0652 22.0995 20.5928C21.6768 20.1205 20.9558 20.0956 20.4835 20.5182L20.4586 20.5431C18.5691 22.3331 16.0332 23.3525 13.4228 23.3525C10.3648 23.3525 7.63 22.0099 5.74052 19.8718L11.1355 11.22V15.2227C11.1355 17.1371 11.8813 17.7586 12.5029 17.9326C13.1244 18.1067 14.0692 17.9824 15.0885 16.3664L18.047 11.5681C18.1465 11.4189 18.2211 11.2697 18.3205 11.1703V13.6067C18.3205 15.3967 19.0415 16.8387 20.2846 17.5348C21.4034 18.1813 22.8205 18.1067 23.989 17.3857C25.4309 16.4409 26.2017 14.8001 26.1022 12.836ZM43.7043 8.46035C44.0026 8.63438 44.2761 9.05703 44.2761 9.42995C44.2761 10.0266 43.7788 10.5239 43.207 10.5239C43.0579 10.5239 42.9336 10.4741 42.8092 10.4493C42.138 9.95205 41.2927 9.62884 40.3977 9.62884C38.2844 9.62884 36.8424 11.3443 36.8424 13.4824C36.8424 15.6205 38.3093 17.3111 40.3977 17.3111C41.4419 17.3111 42.3866 16.8884 43.0827 16.2172C43.2567 16.0929 43.4805 16.0183 43.7043 16.0183C44.2761 16.0183 44.7236 16.4658 44.7236 17.0376C44.7236 17.4105 44.4998 17.7337 44.2264 17.9078C43.207 18.7779 41.8396 19.3498 40.4225 19.3498C37.1905 19.3498 34.5552 16.6896 34.5552 13.4078C34.5552 10.1261 37.1905 7.46588 40.4225 7.46588C41.6159 7.44102 42.7595 7.81394 43.7043 8.46035ZM49.6213 10.9465C51.834 10.9465 53.6738 12.8111 53.6738 15.1233C53.6738 17.4354 51.8092 19.3746 49.6213 19.3746C47.3092 19.3746 45.3949 17.4354 45.3949 15.1233C45.3949 12.8111 47.3092 10.9465 49.6213 10.9465ZM49.5965 17.3111C50.5661 17.3111 51.3865 16.3912 51.3865 15.1481C51.3865 13.905 50.5661 13.1095 49.5965 13.1095C48.5523 13.1095 47.6821 13.8802 47.6821 15.1481C47.6821 16.4161 48.5523 17.3111 49.5965 17.3111ZM55.066 18.0818V12.2145C55.066 11.5681 55.5633 11.046 56.2097 11.046C56.8561 11.046 57.3533 11.5681 57.3533 12.2145V18.0818C57.3533 18.7282 56.8312 19.2503 56.2097 19.2503C55.5881 19.2503 55.066 18.7033 55.066 18.0818ZM54.892 8.83327C54.892 8.06256 55.4887 7.46588 56.2097 7.46588C56.9307 7.46588 57.5522 8.08742 57.5522 8.83327C57.5522 9.57912 56.9555 10.1758 56.2097 10.1758C55.4638 10.1509 54.892 9.55426 54.892 8.83327ZM61.729 14.8995V18.0818C61.729 18.7282 61.2069 19.2503 60.5853 19.2503C59.9638 19.2503 59.4417 18.7282 59.4417 18.0818V11.941C59.4417 11.4437 59.8395 11.046 60.3367 11.046C60.8339 11.046 61.2069 11.4686 61.2069 11.941C62.1267 11.0708 62.9472 10.9465 63.7179 10.9465C66.0052 10.9465 67.0245 12.662 67.0245 14.626V18.0818C67.0245 18.7282 66.5024 19.2503 65.8809 19.2503C65.2593 19.2503 64.7372 18.7282 64.7372 18.0818V14.8995C64.7372 13.905 64.6129 13.0598 63.1709 13.0598C62.1516 13.0598 61.729 13.905 61.729 14.8995ZM74.4333 16.1177C74.1598 16.1177 73.9858 15.9934 73.8366 15.8194L71.1764 12.9354V18.0818C71.1764 18.7282 70.6543 19.2503 70.0327 19.2503C69.4112 19.2503 68.8891 18.7282 68.8891 18.0818V7.88853C68.9637 7.7145 69.1377 7.59019 69.3118 7.59019C69.5107 7.59019 69.6847 7.76422 69.809 7.88853L74.0603 12.662C74.1846 12.8111 74.3338 12.8857 74.4333 12.8857C74.5079 12.8857 74.6819 12.8111 74.8062 12.662L79.0575 7.88853C79.1818 7.76422 79.331 7.59019 79.5548 7.59019C79.7537 7.59019 79.9277 7.7145 79.9774 7.88853V18.0818C79.9774 18.7282 79.4802 19.2503 78.8338 19.2503C78.1874 19.2503 77.6901 18.7282 77.6901 18.0818V12.9354L75.0299 15.8194C74.831 15.9934 74.657 16.1177 74.4333 16.1177ZM85.4221 17.3111C86.4414 17.3111 87.3116 16.3912 87.3116 15.1481C87.3116 13.905 86.4166 13.0846 85.4221 13.0846C84.4277 13.0846 83.6072 13.9299 83.6072 15.1481C83.6072 16.3664 84.4028 17.3111 85.4221 17.3111ZM87.8586 18.3553L87.8088 18.0818C87.3613 18.952 85.9442 19.3498 85.0492 19.3498C82.9111 19.3498 81.3199 17.4105 81.3199 15.0984C81.3199 12.7863 82.936 10.9216 85.1735 10.9216C85.5464 10.9216 86.8392 11.0211 87.8337 12.1896L87.8834 11.9161C87.8834 11.4189 88.2563 11.0211 88.7536 11.0211C89.2508 11.0211 89.6486 11.4437 89.6486 11.9161V18.3304C89.6486 18.8277 89.2508 19.2254 88.7536 19.2254C88.2315 19.2503 87.8586 18.8277 87.8586 18.3553ZM95.9386 13.0598H95.69C94.248 13.1343 93.9745 13.9548 93.9745 14.8995V18.0818C93.9745 18.7282 93.4524 19.2503 92.8309 19.2503C92.2093 19.2503 91.6872 18.7282 91.6872 18.0818V11.941C91.6872 11.4437 92.085 11.046 92.5823 11.046C93.0795 11.046 93.4524 11.4686 93.4524 11.941C94.2977 11.1454 94.9939 10.9714 95.69 10.9465H95.9137C96.4607 10.9465 96.9579 11.4189 96.9579 12.0156C96.9828 12.5625 96.4855 13.0598 95.9386 13.0598ZM104.764 17.5348C104.864 17.7089 104.939 17.8829 104.939 18.0818C104.939 18.6785 104.392 19.2254 103.795 19.2254C103.397 19.2254 103.049 18.9271 102.776 18.579L100.14 15.5211V18.0569C100.14 18.7033 99.6181 19.2254 98.9966 19.2254C98.375 19.2254 97.8529 18.7033 97.8529 18.0569V8.73382C97.8529 8.08742 98.3502 7.56533 98.9966 7.56533C99.643 7.56533 100.14 8.08742 100.14 8.73382V14.5515L102.776 11.6426C103.049 11.3443 103.372 11.0211 103.77 11.0211C104.342 11.0211 104.864 11.5432 104.864 12.1399C104.864 12.3139 104.814 12.5128 104.715 12.662L102.626 14.9492L104.764 17.5348ZM109.24 13.0846C108.618 13.0846 107.599 13.4078 107.599 14.3774H110.905C110.88 13.4078 109.836 13.0846 109.24 13.0846ZM112.223 15.8443H107.599C107.599 17.2116 108.916 17.4354 109.488 17.4354C109.911 17.4354 110.508 17.3608 110.98 17.1371C111.129 17.0376 111.353 16.963 111.577 16.963C112.074 16.963 112.496 17.3857 112.496 17.9078C112.496 18.2558 112.273 18.5542 111.999 18.7282C111.303 19.2503 110.383 19.3746 109.513 19.3746C107.201 19.3746 105.287 18.1315 105.287 15.2227C105.287 12.9354 106.455 10.9465 109.19 10.9465C111.403 10.9465 113.068 12.3885 113.118 14.9492C113.118 15.4216 112.72 15.8443 112.223 15.8443ZM118.588 19.3498H117.966C116.226 19.3498 115.206 18.579 115.206 15.8691V13.0598H114.61C114.063 13.0598 113.59 12.5625 113.59 12.0156C113.59 11.4189 114.088 10.9465 114.61 10.9465H115.206V8.78355C115.206 8.13715 115.704 7.61505 116.35 7.61505C116.996 7.61505 117.494 8.13715 117.494 8.78355V10.9465H118.438C118.985 10.9465 119.458 11.4189 119.458 12.0156C119.458 12.5625 118.96 13.0598 118.438 13.0598H117.494V15.4216C117.494 16.9879 117.568 17.3111 118.264 17.3111H118.588C119.135 17.3111 119.607 17.7586 119.607 18.3304C119.607 18.9022 119.135 19.3498 118.588 19.3498ZM129.651 8.46035C129.949 8.63438 130.223 9.05703 130.223 9.42995C130.223 10.0266 129.726 10.5239 129.154 10.5239C129.005 10.5239 128.88 10.4741 128.756 10.4493C128.085 9.95205 127.239 9.62884 126.344 9.62884C124.231 9.62884 122.789 11.3443 122.789 13.4824C122.789 15.6205 124.256 17.3111 126.344 17.3111C127.389 17.3111 128.333 16.8884 129.029 16.2172C129.203 16.0929 129.427 16.0183 129.651 16.0183C130.223 16.0183 130.67 16.4658 130.67 17.0376C130.67 17.4105 130.447 17.7337 130.173 17.9078C129.154 18.7779 127.786 19.3498 126.369 19.3498C123.137 19.3498 120.502 16.6896 120.502 13.4078C120.502 10.1261 123.137 7.46588 126.369 7.46588C127.563 7.44102 128.731 7.81394 129.651 8.46035ZM135.444 17.3111C136.463 17.3111 137.333 16.3912 137.333 15.1481C137.333 13.905 136.438 13.0846 135.444 13.0846C134.449 13.0846 133.629 13.9299 133.629 15.1481C133.629 16.3664 134.449 17.3111 135.444 17.3111ZM137.88 18.3553L137.83 18.0818C137.383 18.952 135.966 19.3498 135.071 19.3498C132.933 19.3498 131.342 17.4105 131.342 15.0984C131.342 12.7863 132.958 10.9216 135.195 10.9216C135.568 10.9216 136.861 11.0211 137.855 12.1896L137.905 11.9161C137.905 11.4189 138.278 11.0211 138.775 11.0211C139.272 11.0211 139.67 11.4437 139.67 11.9161V18.3304C139.67 18.8277 139.272 19.2254 138.775 19.2254C138.253 19.2503 137.88 18.8277 137.88 18.3553ZM145.911 17.3111C146.93 17.3111 147.725 16.3415 147.725 15.1481C147.725 13.9548 146.905 13.0846 145.911 13.0846C144.916 13.0846 144.021 13.905 144.021 15.1481C144.021 16.3912 144.891 17.3111 145.911 17.3111ZM144.021 18.6785V21.5873C144.021 22.2337 143.499 22.7558 142.877 22.7558C142.256 22.7558 141.734 22.2337 141.734 21.5873V11.941C141.734 11.4437 142.132 11.046 142.629 11.046C143.126 11.046 143.499 11.4686 143.499 12.0404C144.344 11.1703 145.388 10.9465 146.184 10.9465C148.397 10.9465 150.038 12.8111 150.038 15.1233C150.038 17.4354 148.471 19.3746 146.308 19.3746C145.637 19.3497 144.643 19.1509 144.021 18.6785Z" fill="white"/>
</svg>
