<svg width="128" height="37" viewBox="0 0 128 37" fill="none" xmlns="http://www.w3.org/2000/svg">
<g clip-path="url(#clip0_432_8492)">
<path d="M9.37821 29.4946C9.265 28.9079 9.11061 28.3213 8.55484 27.9714C8.0917 27.6626 7.61826 27.395 7.15512 27.1068C6.38321 26.6231 5.83773 25.9644 5.47751 25.141C5.27167 24.6882 5.18933 24.1942 5.18933 23.6899C5.18933 23.0312 5.43634 22.4857 5.89949 22.0328C6.55818 21.3741 7.39184 21.0654 8.32842 21.0139C8.33871 21.0139 8.35929 21.0242 8.42105 21.0448C8.30783 21.0963 8.20491 21.1374 8.12258 21.1786C7.49476 21.4256 6.92869 21.7549 6.46555 22.2284C5.72452 23.0003 5.59072 23.9369 6.09504 24.8837C6.39351 25.4292 6.7949 25.8924 7.27863 26.2732C7.76235 26.6437 8.25637 27.0142 8.77098 27.3333C9.2547 27.6523 9.58405 28.0434 9.73843 28.5992C9.81048 28.8668 9.89281 29.1344 9.98544 29.402C10.1707 29.9886 10.5206 30.5032 10.9632 30.9252C11.1793 31.131 11.4057 31.3369 11.7351 31.3575C11.838 31.3677 11.8792 31.4501 11.8895 31.5324C11.9101 31.6456 11.9101 31.7691 11.9101 31.8926C11.4263 31.8412 11.0455 31.5736 10.6133 31.4295C11.0764 31.7897 11.3543 32.3455 11.8998 32.6954C11.9101 32.5513 11.9204 32.4484 11.9306 32.2837C12.0439 32.4896 12.1365 32.6543 12.2291 32.8086C11.591 33.4673 10.7882 33.4365 10.2427 33.0351C10.0987 32.9321 9.95457 32.8086 9.83106 32.6954C9.42967 32.3352 8.95623 32.0367 8.49309 31.7588C8.349 31.6765 8.24608 31.6765 8.10199 31.7588C7.71089 31.9853 7.39184 31.9441 7.06249 31.6456C6.88753 31.4913 6.74344 31.2957 6.59935 31.1104C6.42438 30.8737 6.27 30.6267 6.09504 30.4003C5.70394 29.8754 5.19963 29.5152 4.57181 29.3402C4.14983 29.227 3.70727 29.1344 3.25442 29.0212C3.57348 28.6198 4.04691 28.733 4.49976 28.6095C4.40714 28.5168 4.33509 28.4448 4.26305 28.383C3.24413 27.4259 2.57515 26.2732 2.33843 24.9043C1.94733 22.6195 2.64719 20.7154 4.40714 19.1922C5.27167 18.4409 6.25971 17.916 7.37125 17.5969C7.40213 17.5867 7.4433 17.5867 7.53593 17.5661C7.3095 17.7616 7.11395 17.9263 7.00074 18.1939C7.08308 18.1939 7.13454 18.2042 7.1757 18.1939C8.18433 18.0292 9.18266 18.0807 10.2016 18.163C11.2925 18.2453 12.3938 18.3174 13.4847 18.338C14.4316 18.3483 15.3682 18.2351 16.2636 17.8851C16.7062 17.7102 17.1178 17.4734 17.4781 17.1853C17.5501 17.1338 17.5913 17.0721 17.6427 16.9794L17.3957 17.0515C16.6959 17.2779 15.9754 17.3808 15.2447 17.2367C14.339 17.0618 13.67 16.5574 13.2069 15.765C12.7025 14.8798 12.4144 13.9021 12.1468 12.9346C12.013 12.4406 11.8895 11.9672 11.766 11.4732C11.6219 10.8762 11.3852 10.3102 11.0044 9.82643C10.9838 9.79555 10.9735 9.76468 10.9426 9.72351C11.1279 9.55884 11.3131 9.40446 11.5087 9.22949C12.0027 9.68234 12.4041 10.2072 12.8569 10.7836C12.8466 10.6807 12.8466 10.6395 12.8363 10.6086C12.2085 9.51767 11.4675 8.5708 10.4383 7.88123C8.9974 6.92407 7.52563 6.94465 6.07445 7.81948C5.46722 8.1797 4.9732 8.67372 4.55122 9.23978C4.18071 9.72351 3.91312 10.2587 3.65581 10.7939C3.60435 10.8865 3.59406 10.9586 3.66611 11.0512C4.87028 12.5332 4.72619 14.1079 3.9337 15.7032C3.90282 15.7855 3.85136 15.8679 3.83078 15.9708C3.88224 15.9399 3.9337 15.909 3.97487 15.8782C4.11896 15.7341 4.26305 15.6003 4.38655 15.4562C4.65415 15.1474 4.79823 14.7872 4.80853 14.3755C4.82911 13.83 4.80853 13.2743 4.87028 12.7288C5.00408 11.36 5.60102 10.2484 6.82577 9.52796C7.52563 9.11628 8.25637 9.10599 9.01799 9.38387C9.75902 9.66176 10.3354 10.1558 10.7676 10.8042C10.7882 10.8351 10.7985 10.8762 10.8191 10.9071C10.8191 10.9071 10.8088 10.9174 10.7985 10.9586C10.7162 10.8865 10.6235 10.8145 10.5412 10.763C9.95456 10.3102 9.29587 9.93964 8.54455 9.82643C7.78294 9.72351 7.13454 9.92935 6.61993 10.4851C6.36263 10.7527 6.17737 11.0718 6.03328 11.4114C5.77598 12.0186 5.63189 12.6465 5.57014 13.3154C5.53926 13.7168 5.4981 14.1079 5.4878 14.5196C5.46722 15.0239 5.27167 15.4665 4.92174 15.8267C4.73648 16.0223 4.54093 16.2281 4.35568 16.4237C3.85136 16.9588 3.51172 17.6072 3.39851 18.3277C3.36764 18.5027 3.38822 18.6982 3.4191 18.8732C3.47056 19.0996 3.48085 19.1202 3.30588 19.2437C3.23384 19.3054 3.1515 19.3363 3.03829 19.4084C2.97654 18.9246 2.92508 18.4821 2.86332 18.0498C2.75011 18.6262 2.42076 19.1511 2.3796 19.7789C2.46193 19.7274 2.52369 19.7068 2.56485 19.6759C2.61631 19.6554 2.66777 19.6245 2.7707 19.573C2.6369 19.7789 2.53398 19.9435 2.43106 20.1082C1.42243 19.8406 1.14455 19.0996 1.26805 18.41C1.35039 17.9469 1.41214 17.4734 1.48419 16.9897C1.50477 16.8456 1.48419 16.7118 1.50477 16.5677C1.53565 16.3001 1.48419 16.084 1.19601 15.9605C0.990166 15.8679 0.876953 15.6517 0.876953 15.4356C0.876953 15.2195 0.897537 14.9828 0.979874 14.7769C1.09309 14.4476 1.26805 14.1491 1.42243 13.83C1.79295 13.089 1.84441 12.3274 1.5974 11.5349C1.52535 11.2879 1.44302 11.0512 1.36068 10.8145C1.3401 10.7321 1.30922 10.6395 1.26805 10.5057C1.79295 10.5983 1.94733 11.0409 2.23551 11.36C2.26638 11.2776 2.29726 11.2262 2.30755 11.1747C2.44135 10.5778 2.64719 10.0014 2.94566 9.46621C3.92341 7.70626 5.42605 6.64618 7.40213 6.28596C8.57543 6.08011 9.71785 6.29625 10.8191 6.72852C11.7145 7.07845 12.507 7.59305 13.2274 8.24145C13.2892 8.29291 13.3407 8.32379 13.3921 8.39583C13.1348 8.38554 12.9084 8.25174 12.6202 8.32379C12.6717 8.39583 12.6923 8.45758 12.7231 8.49875C13.2172 9.0854 13.6083 9.72351 13.9582 10.4131C14.4213 11.3394 14.8536 12.2657 15.327 13.1816C15.7799 14.0462 16.2945 14.8798 16.9841 15.5797C17.4884 16.0943 18.075 16.506 18.7543 16.7736C18.8366 16.8045 18.9293 16.8353 19.0425 16.825C18.9704 16.753 18.8881 16.6912 18.816 16.6295C18.2294 16.0943 17.756 15.4871 17.5398 14.7152C17.3134 13.8815 17.4369 13.1096 17.9309 12.3892C18.6925 11.2879 19.5879 10.3307 20.5451 9.39416C21.4199 8.53992 21.4508 8.60167 22.058 7.47984C22.2845 7.55188 22.5109 7.63422 22.7682 7.71655C22.6138 8.40612 22.3256 9.03394 22.0889 9.70293C22.1198 9.67205 22.161 9.63088 22.1816 9.60001C22.7682 8.63255 23.2108 7.60334 23.3754 6.47121C23.6327 4.70098 22.83 3.14687 21.2141 2.34409C20.1643 1.8192 19.0425 1.6854 17.8795 1.75744C17.6942 1.76774 17.4987 1.78832 17.3134 1.8089C16.5724 3.7644 14.9977 4.43338 13.001 4.51572C13.0731 4.5466 13.1142 4.59806 13.176 4.60835C13.4333 4.6701 13.6803 4.74215 13.9479 4.77302C14.2155 4.82448 14.5037 4.76273 14.7507 4.63922C15.1726 4.43338 15.6049 4.21725 16.0063 3.98053C16.7885 3.52768 17.6222 3.33213 18.5279 3.3733C19.1866 3.39388 19.8041 3.61002 20.3599 3.97024C20.998 4.39221 21.317 5.02003 21.4096 5.76106C21.5023 6.50209 21.3582 7.20195 21.0288 7.85035C21.0083 7.88123 20.9774 7.9224 20.9259 7.94298C20.9465 7.70626 20.9877 7.47984 21.0083 7.23283C21.0597 6.72852 21.0185 6.2345 20.895 5.76106C20.5554 4.5363 19.6085 3.95995 18.3117 4.06287C17.6016 4.12462 16.9326 4.33046 16.2739 4.62893C15.9446 4.78331 15.5946 4.9377 15.2756 5.11266C14.7301 5.42142 14.1743 5.46259 13.5774 5.30821C13.248 5.22587 12.9187 5.15383 12.579 5.10237C11.9615 4.99945 11.3646 5.08178 10.7676 5.28763C10.5618 5.35967 10.3765 5.44201 10.2633 5.62726C10.181 5.74048 10.0884 5.76106 9.96486 5.69931C9.86194 5.64785 9.75902 5.60668 9.65609 5.54493C9.96486 5.17441 10.3765 4.94799 10.7882 4.6701C10.4383 4.70098 9.20324 5.03032 8.96653 5.15383C9.07974 5.22587 9.18266 5.28763 9.28558 5.34938C9.28558 5.35967 9.27529 5.36996 9.27529 5.38025L8.70922 5.34938C8.45192 4.6701 8.72981 3.91878 9.3885 3.61002C9.61493 3.5071 9.87223 3.44534 10.0987 3.34242C10.5824 3.13658 11.0558 2.89986 11.5293 2.67344C11.6219 2.62198 11.6836 2.56023 11.6939 2.43672C11.7248 1.8089 12.0027 1.52073 12.6511 1.43839C13.0319 1.38693 13.4127 1.35605 13.7729 1.33547C14.5037 1.27372 15.1315 0.985538 15.6564 0.470934C15.8828 0.244508 16.0784 0.0180826 16.2945 -0.208343C16.3562 -0.280388 16.4283 -0.34214 16.5106 -0.434769C16.6856 0.059251 16.3974 0.409182 16.243 0.841449C16.3562 0.810573 16.4489 0.789988 16.5312 0.769404C17.9 0.368013 19.2792 0.357721 20.6274 0.862033C22.7579 1.65452 24.0547 3.17775 24.5281 5.38025C24.7649 6.51238 24.7443 7.6548 24.4664 8.77664C24.4561 8.79722 24.4458 8.8281 24.4149 8.88985C24.3223 8.64284 24.312 8.39583 24.1165 8.20028C24.065 8.28262 24.0341 8.34437 24.0135 8.39583C23.7459 9.05453 23.4269 9.67205 23.0152 10.2587C22.3359 11.257 21.6567 12.2451 21.0083 13.2537C20.5451 13.9536 20.1849 14.7049 19.9482 15.5077C19.7423 16.1972 19.66 16.8971 19.7629 17.6175C19.7732 17.7205 19.7938 17.8131 19.8658 17.9263C19.8864 17.8337 19.9173 17.741 19.9379 17.6587C20.0717 17.0618 20.2775 16.4854 20.648 15.9811C21.2656 15.1371 22.0992 14.7255 23.1593 14.7255C24.065 14.7255 24.9604 14.9107 25.8455 15.1474C26.5351 15.3224 27.2041 15.5179 27.8937 15.6929C28.4186 15.837 28.9332 15.8782 29.4683 15.8061H29.5816C29.633 16.0531 29.6845 16.2899 29.7359 16.5266C29.0464 16.753 28.3362 16.8353 27.6261 16.9485C27.6775 16.9588 27.7187 16.9794 27.7804 16.9794C28.8817 16.9794 29.9727 16.8765 31.0122 16.4751C31.7429 16.1972 32.4119 15.7958 32.8956 15.168C33.5749 14.2932 33.791 13.2846 33.6675 12.1936C33.5543 11.2467 33.1941 10.3925 32.6898 9.57942C32.5354 9.3427 32.381 9.11628 32.2266 8.88985C30.1476 9.20891 28.7479 8.24145 27.6981 6.56384C27.6981 6.66676 27.6878 6.72852 27.6981 6.79027C27.7187 6.92407 27.7702 7.04757 27.801 7.16078C27.9451 7.62393 28.2024 8.00473 28.6244 8.26204C29.0772 8.52963 29.5198 8.77664 29.9624 9.05452C30.9298 9.71322 31.5782 10.588 31.7841 11.7408C32.0105 12.9655 31.5576 13.933 30.4873 14.5711C29.9212 14.9004 29.2213 15.096 28.5729 15.0651C28.6759 15.0136 28.7376 14.9828 28.7994 14.9622C29.2934 14.7769 29.7668 14.5402 30.1785 14.2109C30.3638 14.0565 30.5593 13.8918 30.7137 13.7065C31.3209 12.9964 31.4135 12.1936 31.0224 11.3394C30.724 10.7218 30.2814 10.2072 29.7462 9.78526C29.2728 9.41475 28.7788 9.06482 28.2642 8.74576C27.7702 8.437 27.4614 8.03561 27.307 7.47984C27.2247 7.17107 27.132 6.8726 27.0188 6.56384C26.8027 5.98749 26.4631 5.50376 26.0102 5.09208C25.8044 4.91711 25.6088 4.74215 25.3206 4.73185C25.2177 4.73185 25.1663 4.64952 25.156 4.56718C25.1457 4.43338 25.1457 4.30988 25.1354 4.13491C25.5985 4.32017 25.9999 4.49514 26.4116 4.6701C26.2366 4.40251 25.3721 3.55856 25.1354 3.43505C25.1251 3.54826 25.1251 3.66148 25.1148 3.82615C25.0016 3.62031 24.8987 3.45564 24.8163 3.29096C25.4647 2.62198 26.2675 2.66315 26.8233 3.09541C26.9777 3.20863 27.1217 3.36301 27.2761 3.46593C27.6981 3.77469 28.1407 4.06287 28.5729 4.35105C28.6759 4.43338 28.7891 4.43338 28.9126 4.35105C29.3654 4.06287 29.7359 4.20696 30.0344 4.50543C30.1682 4.63922 30.2814 4.78331 30.3843 4.93769C30.5284 5.12295 30.6519 5.32879 30.7857 5.51405C31.2489 6.20362 31.8767 6.64618 32.6898 6.82114C33.0397 6.90348 33.3896 6.97553 33.7498 7.05786C33.6366 7.29458 33.4205 7.33575 33.1941 7.37692C32.9779 7.40779 32.7721 7.43867 32.4942 7.46955C32.628 7.58276 32.7103 7.66509 32.7927 7.74743C33.8013 8.71489 34.4703 9.8676 34.6864 11.2467C35.0261 13.3875 34.3982 15.2298 32.7927 16.7118C31.9076 17.5455 30.8578 18.1013 29.6948 18.4718C29.6433 18.4821 29.5918 18.4924 29.5301 18.4924C29.7154 18.3174 29.9212 18.1527 30.0138 17.8748C29.633 17.9057 29.2934 17.9469 28.964 17.9778C28.3156 18.0498 27.6672 17.9778 27.0085 17.9263C25.7632 17.8337 24.5281 17.6999 23.2725 17.741C22.3977 17.7616 21.5434 17.8851 20.7201 18.2042C20.2981 18.3791 19.907 18.6056 19.5468 18.8732C19.485 18.9246 19.4336 18.9761 19.3924 19.079C19.485 19.0584 19.5777 19.0275 19.6806 18.9967C20.3804 18.7702 21.0906 18.7085 21.811 18.8423C22.6962 19.0173 23.3446 19.5216 23.7974 20.2935C24.3223 21.1683 24.6002 22.146 24.8575 23.1238C24.9604 23.5355 25.0839 23.9266 25.1765 24.3383C25.3412 25.0484 25.5882 25.738 26.072 26.3349C25.8867 26.4996 25.7014 26.6643 25.5059 26.8495C24.981 26.3864 24.5693 25.8203 24.0959 25.2954C24.1062 25.3263 24.1062 25.3572 24.1165 25.3881C24.6825 26.3967 25.3721 27.3024 26.2881 28.0125C26.813 28.4139 27.3893 28.7124 28.0377 28.8359C28.9434 29.0109 29.808 28.8462 30.6211 28.4242C31.4135 28.0022 32.0311 27.395 32.5457 26.6643C32.8853 26.1805 33.1529 25.6556 33.3999 25.1205C33.3382 25.0484 33.3073 24.9867 33.2558 24.9352C32.7824 24.3897 32.5354 23.731 32.4736 23.0209C32.3913 22.0637 32.6074 21.158 33.0809 20.3346C33.1117 20.2729 33.1529 20.2111 33.1632 20.1082C33.1117 20.1391 33.0603 20.17 33.0191 20.2008C32.875 20.3449 32.7309 20.4787 32.6074 20.6228C32.3398 20.9316 32.1957 21.2918 32.1855 21.7035C32.1649 22.249 32.1855 22.8047 32.1237 23.3502C31.9899 24.7191 31.393 25.8306 30.1682 26.5716C29.6124 26.901 29.0052 26.973 28.398 26.8289C27.4305 26.6025 26.7204 26.0056 26.1852 25.2028C26.1955 25.1925 26.2058 25.1719 26.216 25.1513C26.2881 25.2028 26.3601 25.244 26.4219 25.3057C26.9571 25.7277 27.5437 26.0673 28.223 26.232C29.2522 26.479 30.127 26.1394 30.7034 25.2748C31.1048 24.6676 31.3106 23.9883 31.4033 23.2782C31.4753 22.7327 31.5165 22.1769 31.5576 21.6314C31.5885 21.1065 31.7841 20.6537 32.1443 20.2729C32.3707 20.0362 32.5971 19.82 32.7927 19.573C33.2352 19.0687 33.5028 18.4924 33.6366 17.8542C33.6881 17.6278 33.7087 17.4117 33.6058 17.1956C33.544 17.0926 33.5852 17.0103 33.6675 16.9485C33.7601 16.8765 33.8734 16.8045 33.966 16.7427C34.1512 17.175 34.1101 17.6278 34.213 18.0601C34.3262 17.4837 34.635 16.9691 34.6864 16.3516L34.3777 16.506C34.3777 16.506 34.3571 16.4957 34.3468 16.4854C34.4394 16.331 34.5218 16.1766 34.6041 16.0326C35.3348 16.1149 35.8803 16.8045 35.798 17.5352C35.7774 17.741 35.7362 17.9572 35.6951 18.163C35.5921 18.6776 35.5613 19.2025 35.551 19.7171C35.551 19.8818 35.5818 19.995 35.7568 20.0773C36.1067 20.2523 36.2405 20.5714 36.1788 20.9419C36.1582 21.1271 36.0964 21.3021 36.0244 21.4771C35.9112 21.7549 35.7774 22.0225 35.6436 22.3004C35.2937 23.0209 35.2216 23.7619 35.4583 24.5338C35.551 24.822 35.6436 25.1205 35.7465 25.4086C35.7568 25.4601 35.7671 25.5116 35.798 25.5939C35.2937 25.5013 35.1393 25.069 34.8511 24.7602C34.7379 24.8426 34.7585 24.9661 34.7379 25.069C34.4394 26.2629 33.8836 27.3127 32.9882 28.1566C31.7738 29.2887 30.3432 29.9474 28.6347 29.8857C27.2967 29.8342 26.072 29.4328 24.9604 28.7021C24.5693 28.4448 24.2194 28.136 23.8386 27.8479C23.7871 27.817 23.7254 27.7758 23.6842 27.7141C23.9415 27.7244 24.1679 27.8479 24.4458 27.7861C24.4252 27.7244 24.4149 27.6729 24.3738 27.6317C23.7562 26.8907 23.3137 26.0673 22.8917 25.2131C22.5006 24.3897 22.0992 23.5766 21.6772 22.7636C21.2656 21.9711 20.7715 21.2095 20.1437 20.5508C19.6394 20.0259 19.0528 19.6039 18.3735 19.326C18.2809 19.2951 18.1882 19.254 18.0544 19.254C18.1059 19.3157 18.1471 19.3569 18.2088 19.4186C18.5793 19.748 18.9087 20.1082 19.1557 20.5302C19.8041 21.6211 19.8144 22.7018 19.1454 23.7928C18.6617 24.5853 18.0236 25.2543 17.3752 25.9027C16.9635 26.3143 16.5518 26.726 16.1195 27.1171C15.6975 27.5288 15.3476 27.9817 15.1006 28.5168C15.08 28.5477 15.0491 28.5992 15.0286 28.6301C14.7918 28.5477 14.5551 28.4654 14.3184 28.383C14.4831 27.6935 14.761 27.0451 14.9771 26.3864C14.9462 26.4378 14.9051 26.4687 14.8845 26.5099C14.3184 27.467 13.8758 28.4757 13.7112 29.5872C13.4127 31.5324 14.3493 33.1689 16.2019 33.9202C17.1693 34.3216 18.1882 34.4245 19.2277 34.3422C19.3924 34.3319 19.5674 34.3216 19.732 34.2907C19.7423 34.2907 19.7423 34.2804 19.7629 34.2804C20.5039 32.3352 22.0786 31.6662 24.0444 31.5736C23.5195 31.3883 23.0152 31.2134 22.4594 31.4192C22.1713 31.5221 21.9037 31.6662 21.6464 31.8103C21.3067 31.9853 20.9671 32.2117 20.6274 32.3558C19.5056 32.8395 18.3632 32.9013 17.2208 32.4175C16.3254 32.0264 15.8108 31.3369 15.6873 30.3797C15.5946 29.6387 15.7181 28.9285 16.0681 28.2492C16.0886 28.2184 16.1195 28.1772 16.171 28.1566C16.1504 28.3933 16.1092 28.6403 16.0886 28.8668C16.0372 29.3093 16.0681 29.7416 16.171 30.1739C16.49 31.5633 17.5089 32.1499 18.816 32.0264C19.5262 31.9647 20.1849 31.7588 20.823 31.4604C21.1626 31.306 21.5126 31.1413 21.8419 30.9664C22.3771 30.6885 22.9226 30.6267 23.4886 30.7811C23.7357 30.8428 23.9827 30.9046 24.2297 30.9561C24.9295 31.1104 25.6294 31.059 26.2984 30.812C26.5042 30.7399 26.6998 30.6473 26.8336 30.462C26.9056 30.3591 26.9982 30.3488 27.1012 30.39C27.2041 30.4415 27.3173 30.4929 27.4717 30.565C27.0703 30.8737 26.6998 31.1413 26.3396 31.4089C26.6586 31.3883 27.8628 31.059 28.0892 30.9252C27.9863 30.8634 27.8834 30.8017 27.7907 30.7399C27.7907 30.7296 27.801 30.7193 27.801 30.7091C27.9863 30.7193 28.1818 30.7296 28.3568 30.7296C28.6038 31.481 28.295 32.1911 27.5849 32.5102C27.4305 32.5822 27.2658 32.6337 27.1115 32.6851C26.566 32.8601 26.0617 33.1071 25.5779 33.385C25.4338 33.457 25.3721 33.5497 25.3721 33.7143C25.3721 34.1672 25.156 34.4554 24.7134 34.5686C24.4149 34.6406 24.1268 34.6612 23.818 34.7024C23.5607 34.7333 23.2828 34.7333 23.0255 34.7847C22.408 34.8773 21.8831 35.1552 21.4405 35.5875C21.2141 35.8139 20.998 36.0506 20.7818 36.2771C20.7201 36.3491 20.648 36.4109 20.5554 36.5138C20.3701 36.0198 20.6892 35.6698 20.8127 35.2376C20.6789 35.2684 20.5863 35.2993 20.4937 35.3199C18.2911 35.9271 16.3048 35.5463 14.5242 34.126C13.495 33.3027 12.9187 32.2117 12.5996 30.9561C12.2909 29.7519 12.3012 28.5477 12.5893 27.3435C12.5996 27.2921 12.6099 27.2612 12.6511 27.22C12.7334 27.4465 12.754 27.6832 12.9496 27.889C12.9804 27.817 13.0319 27.7758 13.0525 27.7141C13.351 26.9216 13.7832 26.2011 14.2567 25.5013C14.9462 24.4823 15.6358 23.4634 16.2945 22.4239C16.7885 21.6314 17.1487 20.7772 17.2928 19.8509C17.3752 19.3672 17.3752 18.8835 17.3031 18.3997C17.2928 18.3174 17.2516 18.2453 17.2002 18.163C17.1796 18.2556 17.1487 18.338 17.1281 18.4306C16.9841 19.0584 16.7576 19.6451 16.3665 20.17C15.749 20.9727 14.9256 21.3638 13.917 21.3638C12.9084 21.3638 11.9924 21.1374 11.0455 20.9007C10.4898 20.7463 9.93398 20.5919 9.37821 20.4479C8.82244 20.2832 8.24608 20.2214 7.65943 20.2729H7.47417C7.42271 20.0465 7.38155 19.8303 7.31979 19.573C7.39184 19.5524 7.46388 19.5113 7.53593 19.4907C8.08141 19.3981 8.63718 19.3054 9.18266 19.2025C9.27529 19.1922 9.36792 19.1716 9.48113 19.1511C9.48113 19.1305 9.47084 19.0996 9.47084 19.079C9.04886 19.0996 8.6063 19.0996 8.18433 19.1408C7.42271 19.2025 6.68168 19.3466 5.98182 19.6348C5.88919 19.6657 5.79657 19.7171 5.69365 19.748C3.84107 20.5919 3.21325 22.3004 3.4191 23.9266C3.51172 24.6882 3.76903 25.3983 4.14983 26.0673C4.33509 26.407 4.56152 26.7157 4.76736 27.0348C4.8394 27.1377 4.92174 27.1892 5.05554 27.1583C6.90811 26.8907 8.19462 27.7552 9.18266 29.1961L9.35762 29.474C9.35762 29.474 9.37821 29.474 9.40909 29.4637L9.37821 29.4946ZM2.00908 14.2417L1.93704 14.2109C1.84441 14.4373 1.7312 14.6431 1.64886 14.8695C1.62827 14.9313 1.62827 15.0136 1.64886 15.0548C1.66944 15.1269 1.7312 15.2092 1.79295 15.2298C1.86499 15.2606 1.97821 15.1474 1.97821 15.0445C1.9885 14.849 1.99879 14.6534 1.99879 14.4579C2.00908 14.3961 1.99879 14.3344 1.99879 14.252L2.00908 14.2417ZM6.92869 30.2562C6.92869 30.2562 6.90811 30.2871 6.87723 30.318C6.96986 30.4517 7.0522 30.5753 7.14483 30.7091C7.1757 30.7605 7.20658 30.812 7.24775 30.8326C7.34038 30.9046 7.42271 30.9766 7.53593 30.9972C7.66972 31.0281 7.76235 30.9149 7.71089 30.8017C7.69031 30.7399 7.62856 30.6988 7.5771 30.6576L7.15512 30.3797C7.08308 30.3488 7.00074 30.2974 6.9184 30.2665L6.92869 30.2562ZM35.0055 21.8167C35.0055 21.8167 35.0569 21.827 35.0672 21.827C35.1599 21.6006 35.2731 21.3947 35.3554 21.1683C35.376 21.0963 35.3657 21.0036 35.3451 20.9213C35.3348 20.8698 35.2628 20.8081 35.2113 20.8081C35.1599 20.8081 35.0981 20.8595 35.0569 20.8904C35.0261 20.9213 35.0261 20.9933 35.0261 21.0448C35.0158 21.2095 35.0055 21.3741 35.0055 21.5491C34.9952 21.6417 35.0158 21.7241 35.0158 21.8167H35.0055ZM13.5774 2.02504C13.5774 2.02504 13.5671 1.97358 13.5568 1.95299C13.3201 1.97358 13.0731 2.00445 12.8363 2.04562C12.754 2.05591 12.6717 2.12796 12.6099 2.2C12.5276 2.29263 12.579 2.40584 12.6923 2.43672C12.7643 2.44701 12.8363 2.42643 12.9084 2.38526C13.0422 2.32351 13.1554 2.27205 13.2892 2.2C13.3921 2.12796 13.495 2.06621 13.5877 2.02504H13.5774ZM23.4372 34.0334C23.4372 34.0334 23.4475 34.0849 23.4475 34.1157C23.6842 34.0951 23.9106 34.0849 24.1473 34.0334C24.2297 34.0231 24.312 33.9511 24.3841 33.8893C24.4149 33.8584 24.4458 33.7658 24.4149 33.7143C24.3841 33.6629 24.312 33.632 24.2503 33.6217C24.1988 33.6114 24.1473 33.6526 24.0959 33.6835C23.9621 33.7452 23.8489 33.807 23.7151 33.8687C23.6224 33.9305 23.5298 33.9819 23.4269 34.0334H23.4372ZM30.0859 5.80223L30.1373 5.75077C30.0035 5.5758 29.88 5.39055 29.7462 5.21558C29.7154 5.16412 29.6536 5.12295 29.5918 5.10237C29.4992 5.05091 29.386 5.00974 29.3037 5.12295C29.2419 5.20529 29.2934 5.3185 29.4066 5.40084C29.5507 5.49347 29.6948 5.5861 29.8286 5.66843C29.9109 5.71989 29.9932 5.75077 30.0756 5.80223H30.0859Z" fill="white"/>
<path d="M108.861 24.6057C108.769 24.616 108.717 24.6263 108.686 24.6263C107.791 24.6263 106.885 24.616 105.979 24.6366C105.763 24.6366 105.681 24.5234 105.588 24.3793C105.002 23.4221 104.415 22.4444 103.828 21.4872C103.324 20.6535 102.779 19.8508 102.141 19.1097C101.791 18.698 101.42 18.3172 100.967 18.0085C100.72 17.8438 100.463 17.7203 100.103 17.7203C100.092 18.4922 100.103 19.2538 100.103 20.0257V24.616H97.5605V10.9481C97.6943 10.9378 97.7973 10.9275 97.9002 10.9275H102.871C103.684 10.9275 104.467 11.051 105.187 11.4318C106.772 12.2655 107.42 14.221 106.587 15.7339C106.041 16.7117 105.156 17.2057 104.055 17.3601C103.787 17.3909 103.499 17.3909 103.19 17.4218C103.211 17.4527 103.211 17.5042 103.242 17.5042C103.828 17.8438 104.292 18.3378 104.744 18.8421C105.537 19.7478 106.226 20.7256 106.895 21.7136C107.503 22.5884 108.089 23.4736 108.697 24.3484C108.769 24.4204 108.8 24.5028 108.872 24.616L108.861 24.6057ZM100.123 16.5882C100.185 16.5985 100.206 16.619 100.236 16.619C100.813 16.619 101.41 16.6293 101.986 16.619C102.408 16.6087 102.799 16.4647 103.149 16.2074C103.952 15.6104 104.281 14.8076 104.086 13.8299C103.9 12.883 103.262 12.317 102.336 12.0905C101.626 11.9156 100.905 11.9876 100.185 12.0082C100.164 12.0082 100.154 12.0288 100.113 12.0596C100.123 13.5417 100.123 15.0546 100.123 16.5882Z" fill="white"/>
<path d="M78.7983 24.616V10.9378C78.8807 10.9275 78.9424 10.9172 79.0145 10.9172C80.4554 10.9275 81.8963 10.8967 83.3474 10.9481C84.778 11.0099 86.1263 11.3701 87.3099 12.2243C88.7611 13.2741 89.6153 14.7047 89.8932 16.4647C90.1093 17.8335 90.0373 19.1818 89.4918 20.4786C88.6273 22.5473 87.0938 23.8441 84.881 24.3793C84.1605 24.5542 83.4092 24.6263 82.6682 24.6263C81.4743 24.6366 80.2804 24.6263 79.0865 24.6263C79.0042 24.6366 78.9321 24.6263 78.8189 24.6263L78.7983 24.616ZM81.3405 23.4736C82.0506 23.4633 82.7196 23.5044 83.3886 23.4015C83.79 23.3398 84.1811 23.2266 84.531 23.0413C85.4573 22.5576 86.0543 21.8165 86.4659 20.8903C86.9702 19.7684 87.1143 18.5848 87.0732 17.3704C87.0217 16.2485 86.8056 15.1576 86.2292 14.1695C85.5705 12.9962 84.5928 12.2758 83.2342 12.1317C82.6167 12.0699 81.9992 12.1008 81.3817 12.1008C81.3714 12.1008 81.3508 12.1214 81.3096 12.1523C81.3302 15.9089 81.3302 19.6655 81.3302 23.4942L81.3405 23.4736Z" fill="white"/>
<path d="M52.5433 24.6057H50.0217V17.7615C49.7541 17.6894 45.5241 17.6688 45.0506 17.7409V24.6057H42.5599C42.4879 24.3381 42.4776 11.2569 42.5497 10.9275H45.0403V16.5882H50.0114V10.9275H52.533C52.5433 15.4869 52.5433 20.0257 52.5433 24.6057Z" fill="white"/>
<path d="M127.037 24.616H124.382C123.919 23.0104 123.445 21.4151 122.982 19.8096H119.401C118.937 21.4151 118.474 23.0001 118.001 24.6057H115.397C115.407 24.3484 119.833 11.4318 120.08 10.9378H122.313C123.857 15.4663 125.432 20.0154 127.027 24.616H127.037ZM121.222 13.7475C121.222 13.7475 121.171 13.7475 121.15 13.7372C120.677 15.3737 120.203 17.0101 119.72 18.6774H122.653C122.169 17.0204 121.696 15.3943 121.222 13.7475Z" fill="white"/>
<path d="M66.952 24.6057H64.4201C64.4098 24.4822 64.4098 24.3484 64.4098 24.2352V20.9932C64.4098 20.7668 64.379 20.5815 64.276 20.386C62.8249 17.3601 61.3737 14.3239 59.9225 11.298C59.871 11.1951 59.8299 11.0716 59.7578 10.9275H60.1386C60.8591 10.9275 61.5795 10.9378 62.3 10.9172C62.547 10.9069 62.6808 10.9996 62.7734 11.226C63.7511 13.5211 64.7392 15.7957 65.7272 18.0805C65.7787 18.1834 65.8198 18.307 65.9022 18.4922C66.3036 17.6174 66.6432 16.7837 67.0034 15.9604C67.374 15.1164 67.7239 14.2725 68.0944 13.4491C68.4443 12.6154 68.8046 11.7921 69.1751 10.9481H71.5731C71.5114 11.0922 71.4702 11.1951 71.4187 11.298C69.9778 14.3033 68.5472 17.3189 67.1064 20.3345C67.0034 20.5609 66.952 20.7668 66.952 21.0138C66.9623 22.0739 66.952 23.1545 66.952 24.2146V24.6263V24.6057Z" fill="white"/>
<path d="M24.1883 9.64102C25.9585 10.7526 27.5847 12.7801 28.2537 15.0032C28.1713 14.9826 28.0993 14.9723 28.0375 14.9311C27.8214 14.7768 27.595 14.6224 27.4097 14.4474C26.8848 13.9946 26.2776 13.727 25.588 13.5829C25.5366 13.5726 25.4954 13.5726 25.4439 13.5623C25.4336 13.5623 25.4131 13.5726 25.341 13.5829C25.9791 13.8505 26.5864 14.0975 27.0598 14.643C26.2158 14.468 25.4439 14.2827 24.6309 14.149C23.8281 14.0357 23.0253 13.974 22.1711 13.8917C22.2328 13.7784 22.274 13.6652 22.3357 13.5726C22.6033 13.1609 22.8915 12.7492 23.1797 12.3478C23.3547 12.0802 23.5502 11.8024 23.7149 11.5245C23.7766 11.4318 23.8178 11.3289 23.8487 11.2157C22.7886 12.4302 21.677 13.6138 20.7405 14.9311C20.7199 14.9209 20.689 14.9106 20.6787 14.9003L20.9669 14.3033C21.3786 13.5108 21.9138 12.7904 22.4489 12.0802C22.8195 11.5965 23.19 11.1231 23.5502 10.6188C23.8075 10.2997 23.9928 9.96008 24.1986 9.62044L24.1883 9.64102Z" fill="white"/>
<path d="M16.3151 21.1373C16.2225 21.3328 16.1299 21.5489 16.0269 21.7342C15.6256 22.5164 15.1007 23.206 14.5758 23.9058C14.1847 24.4204 13.7833 24.935 13.4025 25.4599C13.1863 25.7481 13.0114 26.0774 12.8261 26.3862C11.0662 25.357 9.32681 23.1133 8.76074 21.0137C8.89454 21.0755 8.98717 21.1064 9.0695 21.1681C9.24447 21.3019 9.44002 21.4357 9.60469 21.5901C10.1605 22.0841 10.8089 22.3517 11.5293 22.4649H11.6734C11.3338 22.3003 11.025 22.1562 10.7265 22.0121C10.4281 21.8577 10.1708 21.6724 9.9855 21.3843C11.5602 21.8062 13.1555 22.0532 14.8228 22.0944C14.761 22.2179 14.7301 22.3208 14.6787 22.4032C14.4728 22.7222 14.267 23.0207 14.0509 23.3398C13.7936 23.7411 13.5157 24.1322 13.2584 24.5336C13.1966 24.6263 13.1555 24.7189 13.1246 24.8218C14.2053 23.6074 15.3168 22.4238 16.2328 21.0858C16.2637 21.1064 16.2945 21.1167 16.3151 21.1373Z" fill="white"/>
<path d="M11.0248 11.2466C11.0145 11.4318 11.0145 11.6377 10.9939 11.8229C10.9733 12.0493 10.9116 12.2655 10.8807 12.4919C10.7881 13.0991 10.891 13.6858 11.1071 14.2621C11.1174 14.293 11.138 14.3239 11.1792 14.3445C11.1277 13.7167 11.0351 13.0683 11.2924 12.4507C11.7041 14.0048 12.301 15.4766 13.0935 16.9278C12.9494 16.9381 12.8465 16.9484 12.7539 16.9484C12.2599 16.9278 11.7555 16.8866 11.2512 16.8557C10.9013 16.8352 10.5308 16.8249 10.1706 16.794C10.0573 16.794 9.92355 16.8043 9.80005 16.8455C11.4159 17.1336 13.0318 17.5144 14.6682 17.6791C14.6167 17.6894 14.5756 17.71 14.5241 17.7306C13.7213 17.8232 12.9185 17.7923 12.1261 17.71C11.385 17.6277 10.644 17.5247 9.90297 17.4527C9.42953 17.4012 8.9458 17.4012 8.46207 17.3909H8.28711C8.33857 16.4338 8.54441 15.5281 8.85317 14.6532C9.30603 13.4285 10.2735 11.8435 11.0248 11.2569V11.2466Z" fill="white"/>
<path d="M17.1795 27.0346C17.7662 26.3759 18.3219 25.8099 18.8365 25.1821C19.3306 24.5645 19.7834 23.9058 20.2774 23.2266C20.3495 23.3295 20.4215 23.4221 20.4833 23.5353C20.7406 24.0499 20.9876 24.5645 21.2449 25.0688C21.4096 25.3982 21.5845 25.7172 21.7904 26.0157C21.2552 24.4719 20.7714 22.9178 20.0613 21.446C20.0716 21.4357 20.0922 21.4254 20.1128 21.4254C20.1848 21.5078 20.2568 21.5901 20.3186 21.6827C20.792 22.3311 21.142 23.031 21.461 23.7412C21.6874 24.2352 21.883 24.7395 22.0991 25.2438C22.3667 25.8716 22.6446 26.4994 23.0563 27.0758C20.8847 28.105 18.641 28.3623 16.3253 27.8992C16.315 27.8786 16.315 27.8477 16.3047 27.8271C16.4488 27.7551 16.5723 27.6624 16.7164 27.6007C16.9325 27.5184 17.1383 27.4463 17.3545 27.364C18.0029 27.117 18.5175 26.7156 18.9292 26.1598C18.8674 26.1907 18.816 26.2216 18.7645 26.2627C18.4351 26.5097 18.0852 26.7464 17.7044 26.8905C17.5603 26.942 17.4059 26.9729 17.2001 27.0346H17.1795Z" fill="white"/>
<path d="M15.2136 10.0733C15.7694 11.5965 16.2531 13.13 16.9427 14.6121L16.7986 14.468C16.4075 13.9637 16.0987 13.4285 15.8311 12.8521C15.5429 12.2449 15.2856 11.6274 15.0181 10.9996C14.7196 10.31 14.4314 9.61014 13.9683 8.95145C16.1399 7.94282 18.3836 7.67523 20.761 8.16925C20.5346 8.40597 20.2876 8.4883 20.0303 8.56035C19.3407 8.7456 18.7644 9.10583 18.2909 9.61014L18.1468 9.7851C18.1468 9.7851 18.1468 9.81598 18.1366 9.85715C18.4041 9.68218 18.6717 9.50722 18.9393 9.34255C19.2069 9.17787 19.4951 9.06466 19.8245 9.02349C19.2687 9.64102 18.7026 10.2174 18.2086 10.8349C17.7043 11.4524 17.2514 12.1214 16.7574 12.8007C16.6751 12.6875 16.603 12.5743 16.5413 12.4713C16.3251 12.0494 16.1296 11.6274 15.9135 11.2054C15.7591 10.8966 15.5944 10.5879 15.44 10.2791C15.3886 10.1968 15.3371 10.1145 15.2754 10.0321C15.2651 10.0424 15.2445 10.0527 15.2239 10.0527L15.2136 10.0733Z" fill="white"/>
<path d="M25.9899 24.8012C26.0001 24.616 26.0001 24.4101 26.0207 24.2249C26.0413 23.9882 26.1031 23.772 26.1339 23.5353C26.2163 22.9384 26.1134 22.362 25.9075 21.8063C25.8972 21.7754 25.8766 21.7445 25.8149 21.6827C25.8869 22.3723 25.9796 23.0001 25.7326 23.6588C25.465 22.8663 25.2488 22.1047 24.9504 21.3534C24.6519 20.6021 24.302 19.8919 23.9417 19.12H24.2917C24.8269 19.1509 25.3415 19.1921 25.8766 19.2229C26.3295 19.2435 26.7721 19.2538 27.2352 19.2435C25.5885 18.9348 23.952 18.554 22.2744 18.4407V18.379C22.4803 18.3584 22.6861 18.3275 22.8919 18.3172C23.1081 18.3069 23.3036 18.3069 23.5198 18.3069C24.4255 18.3069 25.3312 18.4407 26.2266 18.554C27.0088 18.6569 27.791 18.7495 28.5732 18.7083C28.5938 18.7083 28.6349 18.7186 28.6864 18.7289C28.6349 19.614 28.4497 20.4683 28.1615 21.3122C27.7189 22.5679 26.7309 24.2146 25.959 24.8012H25.9899Z" fill="white"/>
<path d="M13.104 7.24295C15.3991 6.1417 17.7663 5.78148 20.2673 6.12111C20.2879 6.31666 20.2982 6.49163 20.329 6.70776C20.2364 6.70776 20.1644 6.71805 20.0923 6.70776C17.9413 6.42988 15.8726 6.69747 13.8862 7.55171C13.8347 7.5723 13.7833 7.60317 13.7318 7.62376C13.6495 7.67522 13.5774 7.65463 13.4951 7.59288C13.3922 7.47967 13.2584 7.38704 13.104 7.25324V7.24295Z" fill="white"/>
<path d="M23.9415 28.8049C21.6257 29.9164 19.2586 30.2766 16.737 29.937C16.7267 29.7414 16.7061 29.5459 16.6855 29.3401C16.9428 29.3606 17.159 29.3915 17.3751 29.4121C19.31 29.5974 21.1832 29.3298 22.9843 28.5784C23.3239 28.4344 23.5607 28.4344 23.7974 28.7019C23.8077 28.7225 23.8591 28.7534 23.9415 28.7946V28.8049Z" fill="white"/>
<path d="M29.8392 13.5829C29.6642 13.7064 29.5098 13.8093 29.3349 13.9328C29.0261 13.2227 28.6968 12.5434 28.2851 11.9053C27.8734 11.2775 27.4103 10.6908 26.8854 10.135C26.3605 9.58956 25.7738 9.10583 25.146 8.65298C25.1769 8.45743 25.218 8.26188 25.2592 8.02516C27.3794 9.41459 28.8511 11.2672 29.8392 13.5829Z" fill="white"/>
<path d="M8.9564 10.557C9.10049 10.6188 9.2137 10.6599 9.32691 10.7217C9.38866 10.7423 9.42983 10.7937 9.51217 10.8349C8.0404 12.6566 7.20674 14.7047 6.98032 17.0307C6.79506 17.1028 6.59951 17.1748 6.36279 17.2572C6.53776 14.7253 7.40229 12.5331 8.9564 10.557Z" fill="white"/>
<path d="M11.8689 27.3948C11.838 27.6007 11.7968 27.8065 11.7557 28.0432C10.7059 27.3537 9.80018 26.5303 9.03857 25.5834C8.26666 24.6366 7.65943 23.6073 7.19629 22.4752C7.28892 22.4032 7.35067 22.3517 7.43301 22.29C7.50505 22.2385 7.58739 22.1973 7.7006 22.1253C8.14316 23.1854 8.69893 24.1734 9.39879 25.0688C10.1089 25.9539 10.922 26.7156 11.8689 27.3948Z" fill="white"/>
<path d="M30.6621 18.801C30.4769 21.3122 29.6226 23.5147 28.0583 25.5011C27.8833 25.4188 27.7083 25.3364 27.4922 25.2438C28.2229 24.3278 28.8096 23.3604 29.2418 22.3106C29.6844 21.2608 29.9314 20.1595 30.0446 19.0274C30.2299 18.9553 30.4254 18.8833 30.6621 18.801Z" fill="white"/>
<path d="M28.676 27.7242H29.4787C29.5096 27.9506 29.5405 28.1667 29.5714 28.3932C29.2523 28.4961 28.9333 28.4961 28.6245 28.4755C28.5422 28.2182 28.5525 28.0844 28.676 27.7242Z" fill="white"/>
<path d="M8.34906 8.3442H7.54628C7.5154 8.11777 7.47424 7.91193 7.44336 7.67522C7.75212 7.562 8.07118 7.5723 8.41081 7.58259C8.48286 7.8296 8.44169 8.07661 8.34906 8.3442Z" fill="white"/>
<path d="M22.2946 5.73002C22.2329 5.44184 22.1814 5.16396 22.1094 4.87578C22.3358 4.80373 22.5622 4.74198 22.8092 4.66994C22.943 4.9787 22.9533 5.28746 22.9842 5.60652C22.7578 5.71973 22.5931 5.7609 22.2946 5.74031V5.73002Z" fill="white"/>
<path d="M4.3351 21.3843C4.56152 21.5489 4.74678 21.6724 4.95262 21.8165C4.80853 22.0841 4.69532 22.3106 4.56152 22.5576C4.34539 22.4752 4.11897 22.3826 3.90283 22.3003C3.98517 21.9812 4.12926 21.7033 4.34539 21.3843H4.3351Z" fill="white"/>
<path d="M14.1847 31.3882C14.1229 31.0588 14.0818 30.7604 14.02 30.4413C14.2567 30.3075 14.4832 30.2869 14.7302 30.3281C14.7919 30.606 14.8434 30.8736 14.9051 31.172C14.689 31.2441 14.4626 31.3161 14.1847 31.3985V31.3882Z" fill="white"/>
<path d="M32.4736 13.48C32.7103 13.5726 32.9161 13.6549 33.1323 13.7476C33.0499 14.0666 32.9058 14.3445 32.7103 14.6327C32.4633 14.5298 32.2677 14.396 32.0928 14.2004C32.2266 13.9534 32.3398 13.7167 32.4736 13.48Z" fill="white"/>
<path d="M4.64355 21.0035C4.90086 20.7976 5.13757 20.5918 5.37429 20.4065C5.6213 20.5506 5.71393 20.6638 5.83744 20.9417C5.6213 21.127 5.42575 21.3122 5.19933 21.5181C5.02436 21.3534 4.8494 21.1887 4.64355 21.0035Z" fill="white"/>
<path d="M22.614 4.16564C22.3876 4.37148 22.2332 4.44352 21.9245 4.48469C21.8627 4.38177 21.7907 4.27885 21.7186 4.16564C21.6466 4.06272 21.5745 3.95979 21.4922 3.826C21.6774 3.67162 21.8627 3.53782 22.0583 3.38344C22.295 3.60986 22.4596 3.87746 22.6037 4.16564H22.614Z" fill="white"/>
<path d="M14.3701 31.8513C14.6068 31.7484 14.823 31.6558 15.0494 31.5426C15.2141 31.7896 15.3582 32.0057 15.5125 32.2424C15.3273 32.3968 15.142 32.5203 14.9568 32.685C14.72 32.4483 14.5451 32.191 14.3804 31.841L14.3701 31.8513Z" fill="white"/>
<path d="M9.87213 8.00459C9.86184 8.27218 9.81038 8.40598 9.62512 8.6324C9.35753 8.55007 9.07964 8.46773 8.80176 8.38539L8.97672 7.68553C9.29578 7.73699 9.59425 7.8502 9.87213 8.00459Z" fill="white"/>
<path d="M28.0482 28.4035C27.7292 28.2903 27.441 28.177 27.1528 28.0741C27.1528 27.8065 27.2558 27.611 27.3998 27.4051C27.688 27.4978 27.9556 27.5801 28.2232 27.6727C28.1717 27.9094 28.1203 28.1256 28.0482 28.3932V28.4035Z" fill="white"/>
<path d="M31.8354 14.5298C32.0104 14.7047 32.1751 14.8591 32.3809 15.0444C32.1236 15.2502 31.8869 15.456 31.6502 15.6516C31.4031 15.4972 31.3105 15.384 31.187 15.1061C31.4031 14.9209 31.609 14.7356 31.8354 14.5298Z" fill="white"/>
<path d="M30.8165 15.3223C30.9194 15.5178 31.0326 15.6928 31.1458 15.9089C30.8782 16.0736 30.5694 16.1765 30.2607 16.3C30.1063 16.1044 30.0343 15.8883 30.0137 15.6413C30.2813 15.5384 30.5489 15.4355 30.8165 15.3223Z" fill="white"/>
<path d="M26.6688 27.7962C26.4012 27.6007 26.1439 27.4257 25.9072 27.2302C26.0101 26.9523 26.1131 26.8288 26.3601 26.6847C26.5762 26.8494 26.8026 27.0243 27.0394 27.2096C26.9261 27.3846 26.8026 27.5698 26.6688 27.7962Z" fill="white"/>
<path d="M7.02133 20.3962C6.75373 20.4992 6.48614 20.6021 6.20825 20.7153C6.10533 20.53 5.99212 20.3448 5.87891 20.1389C6.1465 19.964 6.44497 19.861 6.75373 19.7478C6.9287 19.9228 6.98016 20.1492 7.02133 20.3962Z" fill="white"/>
<path d="M14.7198 29.8855H14.0303C14.0611 29.5665 14.1023 29.268 14.1332 28.9593C14.3905 28.8975 14.6066 28.949 14.8433 29.0519C14.7919 29.3298 14.7507 29.5974 14.7096 29.8855H14.7198Z" fill="white"/>
<path d="M22.3154 6.16229H22.9946C23.0049 6.48135 22.9432 6.77982 22.902 7.09887C22.655 7.15033 22.4389 7.09887 22.2021 7.01653C22.2227 6.72836 22.2742 6.45047 22.3154 6.16229Z" fill="white"/>
<path d="M10.7062 9.39401C10.4489 9.19846 10.2225 9.02349 9.99609 8.82794C10.1093 8.65298 10.2225 8.47801 10.3666 8.25159C10.6239 8.43684 10.8915 8.61181 11.1694 8.82794C11.0047 9.02349 10.8709 9.18817 10.7062 9.39401Z" fill="white"/>
<path d="M21.7081 3.03351C21.5434 3.20847 21.389 3.35256 21.2346 3.51724C20.9773 3.33198 20.7509 3.15701 20.5039 2.98205C20.5965 2.82767 20.6892 2.69387 20.8024 2.53949C21.1317 2.64241 21.4096 2.81738 21.7081 3.0438V3.03351Z" fill="white"/>
<path d="M15.2964 33.0349C15.4816 32.8496 15.6257 32.6953 15.7801 32.5409C16.0374 32.7261 16.2638 32.9011 16.5109 33.0761C16.4079 33.2304 16.305 33.3848 16.1918 33.5392C15.8933 33.3745 15.6154 33.2099 15.2964 33.0246V33.0349Z" fill="white"/>
<path d="M30.693 27.2713C30.7753 27.436 30.8577 27.5801 30.94 27.7551C30.6827 27.9815 30.3945 28.1153 30.0755 28.2594C29.9211 28.0638 29.9108 27.8477 29.8696 27.6418C30.1372 27.5183 30.4048 27.3948 30.6827 27.2816L30.693 27.2713Z" fill="white"/>
<path d="M6.32172 8.77648C6.23938 8.6221 6.15704 8.4883 6.07471 8.32363C6.33201 8.11778 6.62019 7.9634 6.92895 7.82961C7.08333 8.02515 7.10391 8.08691 7.14508 8.44713C6.87749 8.55005 6.5996 8.65297 6.33201 8.77648H6.32172Z" fill="white"/>
<path d="M4.30438 23.8235H3.77949C3.70744 23.4941 3.71774 23.1751 3.7692 22.856C4.01621 22.8046 4.21176 22.8869 4.4176 22.9795C4.36614 23.2574 4.33526 23.525 4.30438 23.8235Z" fill="white"/>
<path d="M32.7206 12.214C32.9059 12.2243 33.0603 12.2346 33.2455 12.2346C33.3073 12.564 33.3073 12.8933 33.2455 13.2124C32.9985 13.2329 32.803 13.1815 32.6074 13.058C32.6383 12.7698 32.6898 12.4816 32.7309 12.2037L32.7206 12.214Z" fill="white"/>
<path d="M32.6792 10.3615C32.5146 10.4232 32.3808 10.4541 32.2573 10.485C32.0308 10.1659 31.8353 9.87772 31.6191 9.55867C31.8044 9.49692 31.9691 9.45575 32.1646 9.394C32.3396 9.71305 32.5043 10.0115 32.6895 10.3512L32.6792 10.3615Z" fill="white"/>
<path d="M4.56159 11.0201C4.4175 10.8761 4.29399 10.7731 4.1499 10.629C4.33516 10.3409 4.52042 10.0321 4.71597 9.70276C4.84976 9.81597 4.95268 9.89831 5.04531 9.99094C4.88064 10.3306 4.72626 10.6599 4.56159 11.0099V11.0201Z" fill="white"/>
<path d="M18.806 2.48802C18.4046 2.5189 18.0649 2.56007 17.6738 2.59094C17.7047 2.41598 17.7562 2.24101 17.787 2.05576C17.8694 2.04546 17.9311 2.03517 18.0032 2.03517C18.2914 2.04546 18.5589 2.05576 18.878 2.06605C18.8471 2.22043 18.8265 2.34393 18.806 2.48802Z" fill="white"/>
<path d="M31.9692 26.0466C32.1339 25.6966 32.2986 25.3673 32.4633 25.0276C32.6073 25.1614 32.7309 25.2747 32.8749 25.4187C32.6897 25.7275 32.5044 26.0054 32.3089 26.345C32.1751 26.2318 32.0722 26.1495 31.9692 26.0569V26.0466Z" fill="white"/>
<path d="M19.3512 33.4672C19.2998 33.6524 19.2689 33.8171 19.2174 34.0024C18.8675 34.0538 18.5073 33.9921 18.1265 33.9818C18.1573 33.8274 18.1882 33.6936 18.2088 33.5701C18.5999 33.5186 18.9704 33.4981 19.3409 33.4672H19.3512Z" fill="white"/>
<path d="M4.34574 25.6658C4.51041 25.6143 4.63392 25.5834 4.75742 25.5526C4.97356 25.8716 5.1794 26.1598 5.39553 26.4685C5.22057 26.5303 5.05589 26.5818 4.86035 26.6435C4.67509 26.3347 4.48983 26.026 4.33545 25.6761L4.34574 25.6658Z" fill="white"/>
<path d="M31.064 27.0758C31.3007 26.8391 31.5065 26.6332 31.7227 26.3965C31.805 26.4789 31.8976 26.5818 32.0211 26.7156C31.7947 26.9626 31.5786 27.1993 31.3316 27.4669C31.2286 27.3125 31.1463 27.189 31.064 27.0758Z" fill="white"/>
<path d="M20.3602 2.33363C20.2778 2.50859 20.2058 2.64239 20.1337 2.78648C19.825 2.70414 19.5265 2.6218 19.228 2.53947C19.2795 2.39538 19.3207 2.27187 19.3721 2.11749C19.7015 2.17925 20.0102 2.25129 20.3704 2.32333L20.3602 2.33363Z" fill="white"/>
<path d="M17.7972 33.5186C17.7457 33.6627 17.7149 33.7862 17.6634 33.92C17.3238 33.8994 17.015 33.8171 16.6548 33.7142C16.7371 33.5495 16.8092 33.4054 16.8812 33.2819C17.2003 33.3643 17.4679 33.4466 17.7869 33.5289L17.7972 33.5186Z" fill="white"/>
<path d="M4.3348 24.2558C4.41714 24.5748 4.48918 24.8527 4.57152 25.1615C4.43772 25.1923 4.31422 25.2232 4.14954 25.2541C4.01575 24.935 3.91283 24.6469 3.85107 24.2969C4.03633 24.2866 4.18042 24.2763 4.3348 24.266V24.2558Z" fill="white"/>
<path d="M4.99365 9.32196C5.23037 9.06466 5.4465 8.83823 5.69351 8.58093C5.79643 8.73531 5.87877 8.85882 5.95082 8.95145C5.72439 9.17787 5.50826 9.38371 5.26125 9.61014C5.19949 9.54839 5.10687 9.44547 4.99365 9.32196Z" fill="white"/>
<path d="M32.4429 10.8967C32.587 10.8658 32.7002 10.8349 32.8546 10.804C32.9986 11.1128 33.0913 11.4113 33.1633 11.7612C32.9883 11.7715 32.834 11.7715 32.6796 11.7818C32.5973 11.473 32.5149 11.1951 32.4429 10.8967Z" fill="white"/>
</g>
<defs>
<clipPath id="clip0_432_8492">
<rect width="126.171" height="37" fill="white" transform="translate(0.866699)"/>
</clipPath>
</defs>
</svg>
