<svg width="40" height="40" viewBox="0 0 40 40" fill="none" xmlns="http://www.w3.org/2000/svg">
<g clip-path="url(#clip0_19_235)">
<path d="M6 4H30C31.5913 4 33.1174 4.63214 34.2426 5.75736C35.3679 6.88258 36 8.4087 36 10V34C36 35.5913 35.3679 37.1174 34.2426 38.2426C33.1174 39.3679 31.5913 40 30 40H6C4.4087 40 2.88258 39.3679 1.75736 38.2426C0.632141 37.1174 0 35.5913 0 34L0 10C0 8.4087 0.632141 6.88258 1.75736 5.75736C2.88258 4.63214 4.4087 4 6 4Z" fill="#0C1F3A"/>
<g clip-path="url(#clip1_19_235)">
<path d="M8.90506 24.4271L9.67228 18.5132L3.0175 13.7737L9.09789 15.8867L10.5339 13.6263L15.7773 10.2884L27.3349 16.8211L27.934 26.7885L22.7849 34.1293L18.7149 34.7691L20.8197 30.8167V27.0116L19.2893 24.0399L17.7343 22.9834L15.3424 25.5131V28.1901L13.4756 29.9833L11.1042 30.2779L10.0538 30.8882L8.33066 30.3242L7.61267 27.6724L8.90506 25.8077V24.4271Z" fill="white"/>
<path d="M19.5314 13.7231C18.2636 13.4538 16.8769 13.5253 16.8769 13.5253C16.8769 13.5253 16.4214 15.6846 13.5987 16.2529C13.6192 16.2529 17.3282 17.5535 19.5314 13.7231Z" fill="#94A6C3"/>
<path d="M20.6802 33.317C22.2105 32.0879 23.3593 30.3958 23.8886 28.4806C23.9132 28.409 24.1265 28.2828 24.2701 28.1859C24.5081 28.0386 24.7502 27.9166 24.7953 27.7187C24.8897 27.1547 24.9389 26.5654 24.9389 25.9761C24.9389 25.7572 24.7214 25.5341 24.5081 25.3153C24.3399 25.1679 24.1717 24.9954 24.1717 24.8733C23.9337 22.6382 22.9285 20.5505 21.3243 19.0309L21.1561 19.2035C22.7111 20.702 23.7162 22.7392 23.9337 24.8986C23.9583 25.0964 24.147 25.29 24.3399 25.4878C24.5081 25.6352 24.7009 25.8583 24.7009 25.9551C24.7009 26.5191 24.6517 27.0831 24.5573 27.6472C24.5327 27.744 24.3194 27.845 24.1511 27.9418C23.9132 28.0639 23.6957 28.1859 23.6506 28.3838C23.0762 30.4715 21.7592 32.2899 20.0114 33.4685C20.3232 32.7824 21.3038 30.5473 21.8289 29.415L21.7346 25.7825L18.6944 22.7645L16.9712 23.0086L15.0798 26.1529C15.0798 26.1529 15.966 27.3062 14.7188 28.6574C13.5002 29.9833 12.5402 30.2779 12.5402 30.2779L11.6539 29.7854C11.9165 29.4403 12.4458 28.9268 12.852 28.5816C13.5453 27.9923 14.2387 27.9418 14.2387 27.3062C14.2674 25.9761 12.8766 26.3423 12.8766 26.3423L12.3719 26.8348L12.1586 28.6532L11.1083 30.0043L10.9893 29.9791L9.2661 29.5876C9.2661 29.5876 10.3205 29.0236 10.4887 28.3838C10.657 27.7692 10.1523 25.732 10.1277 25.6099C10.1523 25.6352 10.6323 26.0519 10.8457 26.738C11.2272 25.6562 11.7319 24.625 11.8755 24.5281C12.0191 24.4313 13.9556 23.3748 13.9556 23.3748L13.3115 25.1174L13.7915 24.848L14.9403 21.9521C14.9403 21.9521 16.0645 21.3881 16.9015 21.3881C18.4072 21.3628 20.635 19.4729 19.6298 16.0845C19.917 16.2066 24.8938 18.7615 25.7554 23.7705C26.3995 27.6219 24.2701 31.2292 20.6802 33.317Z" fill="#94A6C3"/>
<path d="M14.9854 14.2619C15.5352 13.5969 15.3219 12.6161 15.3219 12.6161L13.7177 15.049C13.6931 15.049 14.288 15.0743 14.9854 14.2619Z" fill="#0C1F3A"/>
<path d="M9.59843 27.5461L9.79127 26.5654C9.79127 26.5654 8.99942 27.9881 8.92967 28.1859C8.85582 28.409 8.97891 28.8005 9.28662 28.7752C9.59843 28.75 9.98 28.2828 9.98 27.9418C9.98 27.4998 9.59843 27.5461 9.59843 27.5461Z" fill="#0C1F3A"/>
<path d="M23.8148 11.93C23.8148 11.93 25.0129 11.9805 26.256 12.1278C23.4538 9.86751 20.7993 9.20666 18.6453 9.20666C15.6789 9.20666 13.6686 10.461 13.5455 10.5326L14.4809 9.00883C14.4809 9.00883 10.7473 8.63842 9.43033 12.6919C9.0939 11.8332 8.78619 10.5789 8.78619 10.5789C8.78619 10.5789 6.84555 12.3257 7.75638 15.2216C5.52855 14.3882 2.34886 13.2307 2.22577 13.2096C2.05756 13.1844 2.00832 13.2601 2.00832 13.2601C2.00832 13.2601 1.95909 13.3317 2.10269 13.458C2.36937 13.6726 7.39533 17.4819 8.49899 18.2186C8.26103 19.1025 8.26103 19.5192 8.49899 19.9359C8.83542 20.4999 8.85594 20.7946 8.81081 21.2113C8.76157 21.628 8.33078 25.2395 8.23641 25.6815C8.14205 26.1234 7.13685 27.6935 7.18198 28.1607C7.23122 28.6279 7.85075 30.6146 8.40463 30.8377C8.81081 30.985 9.816 31.3049 10.4848 31.3049C10.7227 31.3049 10.9402 31.2544 11.0345 31.1576C11.4407 30.7914 11.5597 30.7157 11.8469 30.7157H11.9166C12.0356 30.7157 12.1792 30.7409 12.3474 30.7409C12.729 30.7409 13.2337 30.6651 13.5906 30.3242C14.1158 29.7854 15.0266 29.0488 15.3138 28.7037C15.6748 28.2364 15.8636 27.6009 15.7692 26.9611C15.6953 26.3718 16.0072 25.854 16.3682 25.3405C16.8236 24.726 17.6606 23.6232 17.6606 23.6232C19.314 24.8943 20.3438 26.8348 20.3438 28.9941C20.3438 32.8245 17.0903 35.9182 13.0695 35.9182C12.4459 35.9182 11.851 35.8467 11.252 35.6993C13.0942 36.3602 14.6491 36.5833 15.921 36.5833C18.6248 36.5833 20.0608 35.5773 20.0608 35.5773C20.0608 35.5773 19.5602 36.2423 18.7437 37H18.7684C23.2445 36.3602 25.4231 32.5803 25.4231 32.5803C25.4231 32.5803 25.2549 33.8094 25.0416 34.6428C30.9948 30.0506 29.9896 24.3051 29.965 24.1114C30.0142 24.183 30.6132 24.9196 30.9209 25.3153C31.881 15.1963 23.8148 11.93 23.8148 11.93ZM14.6491 28.0891C14.5548 28.2112 14.1486 28.5816 13.8614 28.851C13.5742 29.1204 13.2624 29.3898 13.0244 29.6381C12.93 29.7349 12.7372 29.7854 12.45 29.7854H11.732C12.0931 29.293 13.1434 28.1649 13.5044 27.9208C13.9352 27.6261 14.1527 27.3315 13.886 26.8179C13.6234 26.3002 12.93 26.4265 12.93 26.4265C12.93 26.4265 13.3362 26.2539 13.6973 26.2539C13.2419 26.1318 12.6675 26.2539 12.4049 26.5233C12.1177 26.7927 12.1669 27.7524 12.0479 28.3627C11.929 29.0025 11.5228 29.3224 10.8991 29.9117C10.5627 30.2316 10.3247 30.3284 10.1319 30.3284C9.72574 30.2569 9.24571 30.1306 8.90927 30.0085C8.67131 29.6886 8.31026 28.6321 8.2159 28.1901C8.28564 27.946 8.57284 27.4283 8.71644 27.1336C9.00364 26.5696 9.17185 26.2497 9.22109 25.9551C9.31545 25.5383 9.62727 22.9581 9.74625 21.8806C10.0581 22.2973 10.4889 22.9876 10.3904 23.4295C11.0838 22.4235 10.5832 21.4386 10.3412 21.0471C10.1278 20.6557 9.84061 19.8686 10.0786 19.0351C10.3165 18.2017 11.1781 15.8909 11.1781 15.8909C11.1781 15.8909 11.4653 16.4086 11.8715 16.3076C12.2777 16.2108 15.5559 11.1513 15.5559 11.1513C15.5559 11.1513 16.4421 13.1381 15.5066 14.5902C14.5507 16.0382 13.6152 16.3076 13.6152 16.3076C13.6152 16.3076 14.9322 16.5517 16.1508 15.6425C16.6513 16.8464 17.1313 18.0965 17.156 18.2691C17.0821 18.4416 16.1261 20.7988 16.0318 20.9461C15.9825 20.9966 15.6502 21.0934 15.4081 21.1439C15.002 21.266 14.764 21.3418 14.6655 21.4133C14.4973 21.5607 13.7301 23.72 13.3731 24.7765C12.9424 24.8985 12.5116 25.1469 12.1997 25.6352C12.368 25.5131 12.8931 25.4373 13.2788 25.391C13.6152 25.3658 14.6409 25.9298 14.9076 26.9863V27.0368C14.9609 27.4241 14.842 27.7945 14.6491 28.0891ZM12.4008 28.3838C12.6182 28.0639 12.5936 27.5251 12.6182 27.3525C12.6428 27.1799 12.688 26.86 12.8808 26.8137C13.0736 26.7632 13.5291 26.839 13.5291 27.1799C13.5291 27.4998 13.1926 27.5714 12.9547 27.7945C12.7823 27.9628 12.4459 28.3333 12.4008 28.3838ZM21.9481 23.6905C22.186 22.4404 22.2106 21.3586 22.1409 20.4747C23.0722 21.7501 23.6466 23.2991 23.8148 24.8943C23.8395 25.0922 24.0282 25.2858 24.221 25.4836C24.3892 25.6309 24.5821 25.8288 24.5821 25.9508C24.5821 26.5149 24.5328 27.0789 24.4385 27.6472C24.4138 27.7187 24.2005 27.845 24.0323 27.9418C23.7943 28.0639 23.5769 28.1859 23.5317 28.3838C23.0066 30.2737 21.8783 31.9447 20.3726 33.1233C22.5963 30.7409 23.6712 26.8095 21.9481 23.6905ZM20.4423 33.3422C21.9973 32.1131 23.1953 30.3958 23.7205 28.4553C23.7451 28.3838 23.9584 28.2575 24.102 28.1607C24.34 28.0386 24.5821 27.8913 24.6272 27.6935C24.7216 27.1294 24.7708 26.5401 24.7708 25.9508C24.7708 25.732 24.5533 25.5089 24.34 25.29C24.221 25.1427 24.0282 24.9701 24.0282 24.848C23.8354 23.0549 23.142 21.3628 22.067 19.9612C21.587 17.0147 19.6751 16.1055 19.6259 16.0803C19.6751 16.156 20.9182 17.9955 20.0567 20.1548C19.1704 22.3394 16.8975 21.9984 16.7046 22.0195C16.5118 22.0195 15.7733 23.0002 14.8379 24.8186C14.7189 24.7681 14.2142 24.646 13.6398 24.747C14.0706 23.5179 14.7189 21.7753 14.8379 21.628C14.8871 21.5775 15.244 21.4807 15.4861 21.4091C15.9415 21.2871 16.1549 21.2113 16.2287 21.1145C16.2779 21.0387 16.5159 20.4747 16.7539 19.8854C16.9713 19.8854 17.5211 19.8349 17.5662 19.8096C17.6155 19.7591 18.0709 18.5595 18.0709 18.4122C18.0709 18.2901 17.1354 15.9077 16.7785 14.9985C16.9467 14.8007 17.1149 14.5566 17.279 14.2872C22.186 14.8301 26.0181 19.1025 26.0181 24.2798C26.0181 28.2575 23.7451 31.7217 20.4423 33.3422Z" fill="#0C1F3A"/>
<path d="M14.0746 20.0832C14.53 19.5445 14.2921 18.5385 13.451 18.3659C13.6684 17.8524 13.9761 16.8211 13.9761 16.8211C13.9761 16.8211 11.535 20.7483 11.3216 20.8241C11.1042 20.8998 10.8908 20.0369 10.8908 20.0369C10.4354 21.8301 11.6581 22.0742 11.8017 21.5102C12.4704 21.3334 13.6192 20.5968 14.0746 20.0832Z" fill="#0C1F3A"/>
<path d="M11.9904 21.0387L13.2335 18.8542C13.2335 18.8542 13.9515 19.2246 13.5905 19.8138C13.1392 20.4999 11.9904 21.0387 11.9904 21.0387Z" fill="#FFD923"/>
<path d="M27.3801 31.1576C27.019 31.6501 26.6128 32.1636 26.1369 32.6561C29.2222 26.5654 26.2805 20.9924 26.1615 20.7735C26.379 20.9966 26.5923 21.2408 26.7852 21.4596C29.1525 24.1577 29.4397 28.2112 27.3801 31.1576Z" fill="#D82122"/>
<path d="M30.252 23.3243C29.173 20.3526 27.6427 17.8229 24.2701 15.5415C21.0166 13.3317 17.521 13.5043 17.3281 13.5295H17.2789C17.3979 13.479 17.5169 13.4538 17.6359 13.4327C18.3785 13.1886 19.3344 12.9907 20.2945 12.8687C22.8341 12.4941 25.3943 13.378 27.1421 15.2721C27.1585 15.289 27.1749 15.3058 27.1913 15.3226C29.1771 17.482 30.2069 20.18 30.252 23.3243Z" fill="#D82122"/>
<path d="M23.5029 11.1682C19.9375 10.4821 17.64 10.823 15.9865 11.4628C15.9373 11.265 15.7691 10.8735 15.6255 10.5536C15.129 11.1682 14.5998 11.9048 14.2674 12.372C13.3566 13.0118 12.9751 13.6263 12.9751 13.6263C13.5002 11.7827 15.0347 10.4105 16.9015 10.0653C17.4266 9.96854 18.001 9.91803 18.6246 9.91803C20.274 9.94328 21.9233 10.36 23.5029 11.1682Z" fill="#D82122"/>
<path d="M10.3164 15.8825C7.5183 15.7856 8.44964 12.4435 8.49888 12.2499C8.49888 12.2752 8.68761 14.8765 10.3164 15.8825Z" fill="#D82122"/>
<path d="M13.0694 9.86752C10.9154 11.1934 11.3462 14.3587 11.3462 14.3587C9.28662 11.1471 12.9012 9.94328 13.0694 9.86752Z" fill="#D82122"/>
<path d="M9.52869 16.7664C9.67229 16.8885 9.81588 17.1115 9.64767 17.4314C9.5533 17.604 9.4097 17.5788 9.19225 17.482C8.90506 17.3346 7.18187 16.3034 5.6269 15.2469C7.39932 15.8867 9.19225 16.5728 9.47945 16.7201C9.47945 16.7201 9.50407 16.7453 9.52869 16.7664Z" fill="white"/>
</g>
<path d="M32.5 15C36.6421 15 40 11.6421 40 7.5C40 3.35786 36.6421 0 32.5 0C28.3579 0 25 3.35786 25 7.5C25 11.6421 28.3579 15 32.5 15Z" fill="black"/>
<path fill-rule="evenodd" clip-rule="evenodd" d="M32.9 1.50002L36.5 7.5L32.6 9.28829L28.7963 7.6L32.3 1.50002L32.4 1.40002H32.5H32.6H32.7H32.8L32.9 1.50002ZM32.5 10.5L36.5 8.5L32.7 13.6C32.7 13.7 32.6 13.7 32.6 13.7H32.5H32.4L32.3 13.6L28.5 8.5L32.5 10.5Z" fill="white"/>
</g>
<defs>
<clipPath id="clip0_19_235">
<rect width="40" height="40" fill="white"/>
</clipPath>
<clipPath id="clip1_19_235">
<rect width="29" height="28" fill="white" transform="translate(2 9)"/>
</clipPath>
</defs>
</svg>
