<svg width="40" height="40" viewBox="0 0 40 40" fill="none" xmlns="http://www.w3.org/2000/svg">
<g clip-path="url(#clip0_19_273)">
<path d="M6 4H30C31.5913 4 33.1174 4.63214 34.2426 5.75736C35.3679 6.88258 36 8.4087 36 10V34C36 35.5913 35.3679 37.1174 34.2426 38.2426C33.1174 39.3679 31.5913 40 30 40H6C4.4087 40 2.88258 39.3679 1.75736 38.2426C0.632141 37.1174 0 35.5913 0 34L0 10C0 8.4087 0.632141 6.88258 1.75736 5.75736C2.88258 4.63214 4.4087 4 6 4Z" fill="url(#paint0_linear_19_273)"/>
<path d="M28.9061 30.9515L21.2651 11.4965C20.8342 10.4907 20.1935 10 19.3491 10H18.6735C17.829 10 17.1884 10.4907 16.7574 11.4965L13.432 19.9728H10.9161C10.1648 19.9789 9.55327 20.6168 9.54745 21.4141V21.4325C9.55327 22.2237 10.1648 22.8677 10.9161 22.8739H12.2672L9.09318 30.9515C9.03494 31.1293 9 31.3133 9 31.5035C9 31.9573 9.13395 32.3131 9.37273 32.5891C9.61151 32.8651 9.95512 33 10.3861 33C10.6715 32.9939 10.9452 32.9019 11.1723 32.724C11.4169 32.5461 11.5858 32.2885 11.7198 31.9941L15.2141 22.8677H17.6368C18.3881 22.8616 18.9996 22.2237 19.0055 21.4264V21.3896C18.9996 20.5984 18.3881 19.9544 17.6368 19.9483H16.3439L19.0113 12.9501L26.2795 31.988C26.4135 32.2824 26.5824 32.54 26.827 32.7179C27.0541 32.8957 27.3336 32.9877 27.6132 32.9939C28.0442 32.9939 28.3819 32.8589 28.6265 32.5829C28.8711 32.3069 28.9993 31.9512 28.9993 31.4973C29.0051 31.3133 28.976 31.1232 28.9061 30.9515Z" fill="white"/>
<path d="M32.5 15C36.6421 15 40 11.6421 40 7.5C40 3.35786 36.6421 0 32.5 0C28.3579 0 25 3.35786 25 7.5C25 11.6421 28.3579 15 32.5 15Z" fill="black"/>
<path fill-rule="evenodd" clip-rule="evenodd" d="M32.9 1.50002L36.5 7.5L32.6 9.28829L28.7963 7.6L32.3 1.50002L32.4 1.40002H32.5H32.6H32.7H32.8L32.9 1.50002ZM32.5 10.5L36.5 8.5L32.7 13.6C32.7 13.7 32.6 13.7 32.6 13.7H32.5H32.4L32.3 13.6L28.5 8.5L32.5 10.5Z" fill="white"/>
</g>
<defs>
<linearGradient id="paint0_linear_19_273" x1="31.3905" y1="10.7607" x2="4.75052" y2="33.0807" gradientUnits="userSpaceOnUse">
<stop stop-color="#B6509E"/>
<stop offset="1" stop-color="#2EBAC6"/>
</linearGradient>
<clipPath id="clip0_19_273">
<rect width="40" height="40" fill="white"/>
</clipPath>
</defs>
</svg>
