<svg width="40" height="40" viewBox="0 0 40 40" fill="none" xmlns="http://www.w3.org/2000/svg">
<g clip-path="url(#clip0_329_4212)">
<path d="M6 4H30C31.5913 4 33.1174 4.63214 34.2426 5.75736C35.3679 6.88258 36 8.4087 36 10V34C36 35.5913 35.3679 37.1174 34.2426 38.2426C33.1174 39.3679 31.5913 40 30 40H6C4.4087 40 2.88258 39.3679 1.75736 38.2426C0.632141 37.1174 0 35.5913 0 34L0 10C0 8.4087 0.632141 6.88258 1.75736 5.75736C2.88258 4.63214 4.4087 4 6 4Z" fill="url(#paint0_radial_329_4212)"/>
<path d="M30.6304 16.1603C30.5477 16.6362 30.4649 16.8638 30.3408 17.1121C30.2166 17.4017 30.0925 17.7121 29.9684 18.3741C29.927 18.6224 29.8856 18.8293 29.8649 18.9948V19.0155C29.8235 19.2845 29.8028 19.4707 29.6994 19.781C29.6166 20.05 29.4718 20.4845 29.1201 20.9396C28.8304 21.3121 28.3546 21.9534 27.7132 22.0362C27.6511 22.0362 27.5477 22.0362 27.4856 22.0155C25.6649 21.0845 24.1132 20.4017 23.5753 20.2569C22.9546 20.0707 23.0373 18.7052 23.0994 17.5052C23.1408 16.9672 23.1615 16.45 23.1408 16.0155C23.058 14.4845 22.7891 12.8293 21.4649 12.0224C20.6787 11.5465 19.6442 11.4017 18.6718 11.4017C18.858 11.319 19.0442 11.1948 19.2718 11.0707C19.8511 10.7396 20.5546 10.3259 21.2787 10.2431C21.5063 10.2224 21.7339 10.2017 21.9615 10.1603C23.3891 9.99482 24.6304 9.84999 25.9339 10.3052C26.5339 10.5121 27.7339 11.1741 28.0442 11.8155C28.2718 12.25 28.6442 12.6017 29.3684 13.2845C29.7615 13.6362 30.0097 13.8431 30.196 14.0086C30.4649 14.2155 30.5063 14.2776 30.5891 14.4224C30.8373 14.919 30.7546 15.4362 30.6304 16.1603Z" fill="white"/>
<path d="M24.0304 22.4293C24.1132 22.45 24.1546 22.5534 24.0925 22.6362C23.9063 22.9259 23.6787 23.3397 23.4098 23.8155C23.2856 24.0431 23.1615 24.2707 23.058 24.4362C22.7063 25.0362 22.6856 25.5534 22.6649 25.9465C22.6442 26.381 22.6235 26.5672 22.3546 26.7328C22.1477 26.8776 21.9201 26.919 20.4304 27.1465C20.1615 27.1879 20.058 27.2293 19.9546 27.2914C19.9339 27.3121 19.8925 27.3121 19.8718 27.3328C19.7891 27.3741 19.7063 27.2914 19.7063 27.2086C19.727 27.0017 19.727 26.7328 19.727 26.381V26.319C19.727 26.0293 19.727 25.781 19.7063 25.5948C19.6856 25.2224 19.6856 25.0569 19.7891 24.8914C19.9132 24.6845 20.0167 24.6224 20.1615 24.519C20.3891 24.3741 20.6994 24.1879 21.1339 23.5672C21.3822 23.2362 21.4235 23.05 21.4649 22.9052C21.4856 22.8431 21.4856 22.8224 21.6718 22.6776C21.858 22.5328 22.458 22.0776 23.2235 22.2017C23.4718 22.2431 23.7408 22.3259 24.0304 22.4293Z" fill="white"/>
<path d="M18.0925 29.2983C18.0512 29.3396 18.0305 29.3603 17.9684 29.3603C17.8029 29.3603 17.6994 29.319 17.6374 29.2362C17.4925 29.05 17.5132 28.6776 17.5339 28.45L18.1753 28.2845C18.2167 28.6362 18.2374 29.1121 18.0925 29.2983Z" fill="white"/>
<path d="M18.1339 27.0224C18.1132 27.1052 18.1132 27.2086 18.1132 27.3328C18.1132 27.3741 18.1132 27.4155 18.1132 27.4569C18.1132 27.5603 18.1132 27.7259 18.1132 27.8086C17.9063 27.8707 17.7408 27.8707 17.5339 27.8707C17.5339 27.8086 17.5339 27.7052 17.5339 27.6431C17.5339 27.6017 17.5339 27.5396 17.5339 27.4983C17.5339 27.4362 17.5339 27.3948 17.5339 27.3328C17.5339 27.2086 17.5339 27.0224 17.5546 26.9603C17.6166 26.9603 17.6787 26.9396 17.7408 26.919C17.8649 26.8983 18.0511 26.8569 18.1546 26.8776C18.1546 26.919 18.1546 26.981 18.1339 27.0224Z" fill="white"/>
<path d="M16.9753 29.1121C16.9546 29.4431 16.8511 29.8362 16.5408 29.8983C16.3959 29.919 16.3339 29.8776 16.2925 29.8362C16.0856 29.65 16.0649 29.0707 16.0856 28.6569C16.2304 28.6569 16.3959 28.6362 16.6028 28.5948C16.727 28.5741 16.8511 28.5328 16.9546 28.5121C16.9753 28.6776 16.9959 28.8845 16.9753 29.1121Z" fill="white"/>
<path d="M16.8305 27.9534L16.1477 28.2017C16.1891 27.9328 16.2305 27.5603 16.2512 27.3121C16.2718 27.1465 16.3132 27.0845 16.3339 27.0638C16.3339 27.0638 16.3546 27.0431 16.3753 27.0431C16.3753 27.0431 16.3753 27.0431 16.396 27.0431H16.4167L16.8512 27.0224C16.8305 27.2293 16.8305 27.6845 16.8305 27.9534Z" fill="white"/>
<path d="M15.7132 27.7465C15.6718 27.85 15.6304 28.1396 15.6098 28.3465L14.7615 28.3259C14.8029 28.0569 14.8856 27.7879 14.9477 27.581C15.0304 27.3741 15.0925 27.2086 15.1753 27.1672C15.258 27.1259 15.4442 27.1052 15.5684 27.2086C15.7546 27.3328 15.796 27.519 15.7132 27.7465Z" fill="white"/>
<path d="M15.4029 30.3741C15.3408 30.4569 15.258 30.519 15.1753 30.519C15.0718 30.5396 15.0098 30.4983 14.9477 30.4569C14.6787 30.2086 14.6994 29.4017 14.7201 29.0086C15.0718 28.9259 15.4649 28.8638 15.6511 28.8431C15.6511 29.1534 15.6718 30.0017 15.4029 30.3741Z" fill="white"/>
<path d="M14.2856 28.2845C14.2442 28.3879 14.2028 28.4914 14.1821 28.5948C14.0787 28.6362 13.7684 28.5948 13.458 28.5327L13.6649 27.1879C14.0166 27.0845 14.4304 27.0638 14.5132 27.1672C14.658 27.3121 14.389 27.9948 14.2856 28.2845Z" fill="white"/>
<path d="M13.8925 30.5603C13.727 30.7672 13.4787 30.8707 13.127 30.85C12.8787 30.85 12.7959 30.7465 12.7546 30.6845C12.5684 30.3741 12.7546 29.65 12.9408 29.1948L14.0994 29.2569C14.1201 29.3397 14.1201 29.4431 14.1201 29.5465C14.1408 29.8983 14.0994 30.3121 13.8925 30.5603Z" fill="white"/>
<path d="M23.4925 20.7741C22.4374 20.4845 22.5408 18.9534 22.6236 17.4638C22.6442 16.9465 22.6856 16.45 22.6649 16.0362C22.5822 14.65 22.3546 13.1396 21.2374 12.4569C20.0374 11.7328 18.0718 11.8983 16.8718 12.0431C16.4374 12.1672 16.0236 12.2707 15.6925 12.25C14.9891 12.2086 14.4305 11.919 13.9339 11.65C13.5615 11.4431 13.2305 11.2569 12.8994 11.2569C12.8787 11.2569 12.858 11.2569 12.858 11.2569C11.927 11.319 11.4925 11.5465 11.0994 11.8983C10.996 11.981 10.8718 12.2293 10.4787 13.3672C10.2718 13.9465 10.2511 14.2569 10.2098 14.5465C10.1684 14.8155 10.1477 15.1052 10.0029 15.5396C9.89942 15.8293 9.81667 16.0776 9.7546 16.3259C9.56839 16.9672 9.40287 17.4845 8.9477 18.1052C8.88563 18.1672 8.82356 18.2914 8.7408 18.3948C8.63736 18.5603 8.51322 18.7672 8.32701 18.9948C8.20287 19.1603 7.93391 19.781 7.9546 19.9672C7.97529 20.2776 8.07874 20.4638 8.18218 20.6707C8.28563 20.8776 8.43046 21.1259 8.45115 21.4776V21.5396C8.49253 22.0776 8.40977 22.3465 7.39598 23.2569C6.7546 23.8362 6.27874 24.3948 5.96839 24.8086C5.9477 24.85 5.96839 24.8914 6.03046 24.8914C6.05115 24.8914 6.05115 24.8914 6.05115 24.8914C6.07184 24.8914 6.09253 24.8914 6.11322 24.8914C6.13391 24.8914 6.1546 24.8914 6.17529 24.8914C6.19598 24.8914 6.21667 24.8914 6.23736 24.8914C6.48563 24.9121 6.73391 25.0155 6.89943 25.2017C6.92011 25.2431 6.98218 25.2431 7.02356 25.2224C7.18908 25.1603 7.37529 25.1603 7.5408 25.181C7.7477 25.2017 7.97529 25.2638 8.12011 25.4086C8.16149 25.45 8.22356 25.4707 8.28563 25.45C8.45115 25.4086 8.63736 25.4086 8.80287 25.4707C8.92701 25.5121 9.05115 25.5948 9.13391 25.6983C9.19598 25.7603 9.29942 25.781 9.38218 25.7396C9.42356 25.719 9.48563 25.6776 9.5477 25.6569C9.77529 25.5741 10.0236 25.6155 10.2305 25.6983C10.3339 25.7396 10.4374 25.7603 10.5408 25.8431C10.7063 25.9672 10.8305 26.1327 10.8925 26.319C10.9339 26.4224 11.0787 26.4638 11.1615 26.381C11.327 26.2569 11.4511 26.2362 11.5753 26.2776C11.6374 26.2983 11.6787 26.3396 11.7201 26.4017C11.7822 26.4845 11.8856 26.5672 11.9684 26.5259C12.3201 26.4224 12.7339 26.4845 13.0443 26.65C13.1477 26.7121 13.2718 26.7948 13.3339 26.919V26.8569C13.3339 26.8362 13.3546 26.8155 13.3753 26.7948L13.4374 26.7741C13.6029 26.7121 14.4718 26.4638 14.8029 26.8155C14.8236 26.8362 14.8443 26.8362 14.8649 26.8155C14.9063 26.7741 14.9477 26.7327 14.9684 26.7327C15.196 26.6086 15.5684 26.5879 15.8167 26.8155C15.858 26.8569 15.9408 26.8362 15.9822 26.7948C16.0029 26.7534 16.0236 26.7327 16.0649 26.7121C16.1477 26.6293 16.2718 26.6086 16.396 26.6086L16.8718 26.5879C16.996 26.5879 17.3684 26.5465 17.4718 26.5259H17.4925C17.5339 26.5259 17.596 26.5052 17.658 26.4845C17.8856 26.4431 18.1546 26.381 18.3615 26.4845C18.5684 26.5879 18.5477 26.8155 18.527 27.0224C18.527 27.1052 18.5063 27.1879 18.5063 27.2707C18.5063 27.3121 18.5063 27.3534 18.5063 27.3948C18.5063 27.581 18.5063 27.7465 18.4856 27.8707L18.5063 27.9741C18.5063 27.9741 18.5063 27.9741 18.5063 27.9948C18.527 28.0776 18.6305 28.1396 18.6925 28.0776C18.858 27.9741 19.0236 27.85 19.0856 27.7672V27.7465C19.0856 27.7259 19.1063 27.6845 19.127 27.6017C19.1477 27.4155 19.1891 27.0638 19.1891 26.3396C19.1891 26.2983 19.1891 26.2776 19.1891 26.2569C19.1891 25.9879 19.1891 25.7603 19.1684 25.5741C19.1477 25.181 19.127 24.8707 19.3339 24.5603C19.5201 24.25 19.7063 24.1465 19.8925 24.0224C20.0994 23.8983 20.327 23.7534 20.7201 23.2155C20.9063 22.9465 20.927 22.8431 20.9477 22.7603C20.9891 22.5534 21.0511 22.4293 21.3615 22.2224C21.6098 22.0362 22.3339 21.4776 23.327 21.6431C23.658 21.7052 24.1753 21.8707 24.7132 22.0776C24.7339 22.0776 24.7546 22.0983 24.7753 22.0983H24.796C25.2718 22.2845 25.7063 22.4914 26.0167 22.6569C26.0787 22.6983 26.1615 22.6776 26.2236 22.6155C26.327 22.4914 26.4305 22.4293 26.5339 22.3465C26.5753 22.3259 26.6167 22.3052 26.6374 22.2845C26.658 22.2845 26.658 22.2638 26.658 22.2638C26.7408 22.2017 26.7408 22.0362 26.6374 21.9948C25.2511 21.3121 23.927 20.8983 23.4925 20.7741ZM13.5201 21.0845C13.1891 22.4914 10.996 24.0638 10.0029 24.0638H9.98218C9.96149 24.0638 9.9408 24.0638 9.9408 24.0638C9.92011 24.0638 9.89942 24.0638 9.87873 24.0431C9.85805 24.0431 9.85805 24.0431 9.83736 24.0431C9.65115 23.981 9.40287 23.8569 9.21667 23.6707C9.09253 23.5465 8.98908 23.381 8.9477 23.2362C8.9477 23.2155 8.92701 23.1741 8.92701 23.1534C8.86494 22.9052 8.80287 22.6155 9.00977 22.119C9.03046 22.0569 9.07184 21.9948 9.09253 21.9327C9.09253 21.9121 9.11322 21.8914 9.11322 21.8707C9.13391 21.8086 9.1546 21.7672 9.17529 21.7259C9.19598 21.6431 9.23736 21.581 9.25805 21.5396C9.25805 21.519 9.27874 21.4983 9.27874 21.4776C9.3408 21.3121 9.3408 21.25 9.36149 21.1879C9.36149 21.1465 9.38218 21.0638 9.40287 20.981C9.46494 20.7121 9.50632 20.4845 9.52701 20.2983C9.56839 19.9465 9.63046 19.6362 9.81667 19.3465C9.85805 19.3052 9.87873 19.2638 9.92011 19.2224C9.9408 19.2017 9.9408 19.2017 9.96149 19.181C9.98218 19.1603 9.98218 19.1603 10.0029 19.1396C10.0443 19.0983 10.1063 19.0776 10.1477 19.0569C10.1684 19.0569 10.1891 19.0362 10.2098 19.0362C10.2511 19.0155 10.2925 19.0155 10.3339 18.9948C10.5201 18.9534 10.727 18.9534 10.9753 18.9741C11.2443 18.9948 11.4925 19.0362 11.6994 19.0983C11.8856 19.1396 12.0511 19.2017 12.1753 19.2638C12.196 19.2638 12.196 19.2845 12.2167 19.2845C12.2374 19.3052 12.258 19.3052 12.2994 19.3259C12.3408 19.3465 12.3615 19.3465 12.4029 19.3672C12.4443 19.3879 12.4856 19.4086 12.527 19.4293L12.5684 19.45C12.7132 19.5121 12.858 19.5948 12.9615 19.6776C13.0236 19.719 13.0649 19.7603 13.1063 19.8017C13.127 19.8224 13.1477 19.8224 13.1477 19.8431C13.1684 19.8638 13.1684 19.8638 13.1891 19.8845C13.6236 20.2569 13.6029 20.7741 13.5201 21.0845ZM14.5546 15.7259L14.5132 15.9741C14.4098 16.5534 14.1822 17.3396 13.3546 17.5465C12.5477 17.7328 12.3615 17.7741 11.8029 17.8155C11.7822 17.8155 11.7822 17.8155 11.7615 17.8155C11.3477 17.8155 10.5408 17.5465 10.396 16.9052C10.3132 16.4914 10.4994 16.181 10.7891 15.6845C10.8305 15.6017 10.8925 15.519 10.9546 15.4155C11.3684 14.7328 11.5132 14.2362 11.6374 13.8431C11.7615 13.45 11.8649 13.1396 12.1339 12.8707C12.196 12.8086 12.258 12.7465 12.3408 12.7052C12.3822 12.6638 12.4443 12.6431 12.5063 12.6017C12.5891 12.5603 12.6718 12.5396 12.7546 12.4983C12.9408 12.4362 13.1477 12.4155 13.3339 12.4155C13.727 12.4155 14.1201 12.519 14.3891 12.7465C14.5132 12.85 14.6994 13.0362 14.8029 13.6362C14.8443 13.9465 14.7615 14.5052 14.5546 15.7259ZM20.4925 17.381C20.2029 17.8776 20.058 18.1465 19.8098 18.3534C19.3132 18.7672 18.7546 18.85 18.2787 18.85C17.9477 18.85 17.658 18.7879 17.4718 18.7672C16.9753 18.6845 16.0856 18.519 15.7753 17.7948C15.7132 17.65 15.7132 17.5672 15.7132 17.4431C15.7132 17.3396 15.7132 17.1328 15.6511 16.6983V16.6776C15.6305 16.4707 15.6098 16.2431 15.6511 15.9534V15.9121C15.8167 15.0431 15.8787 14.919 15.8994 14.8362C15.9822 14.6707 16.1891 14.5879 16.3753 14.6914C16.5408 14.7741 16.6029 14.981 16.5408 15.1465C16.5201 15.1879 16.4787 15.3741 16.3339 16.0569V16.0983C16.2925 16.2845 16.3132 16.4293 16.3339 16.6155V16.6362C16.396 17.1328 16.396 17.3396 16.396 17.4638C16.396 17.4845 16.396 17.5052 16.396 17.5259V17.5465C16.458 17.6914 16.5822 17.7741 16.727 17.8569C16.8305 17.8983 16.9339 17.8155 16.9132 17.7121C16.7684 16.9465 16.7684 16.0569 17.058 15.4983C17.1615 15.3121 17.327 15.0224 17.4925 14.7328C17.5132 14.7121 17.5339 14.6707 17.5339 14.65C17.5546 14.6293 17.5546 14.6086 17.5753 14.5879C17.658 14.4638 17.7201 14.3603 17.7822 14.2569C17.7822 14.2362 17.8029 14.2362 17.8029 14.2155L17.8236 14.1948C17.8443 14.1741 17.8442 14.1534 17.8649 14.1328C17.8649 14.1328 17.8649 14.1121 17.8856 14.1121L17.9063 14.0914C17.9063 14.0707 17.927 14.0707 17.927 14.05C17.9891 13.9672 18.0511 13.8845 18.0925 13.8017C18.1753 13.6983 18.0718 13.5741 17.9684 13.6155C17.6787 13.7396 17.4925 13.8845 17.4511 13.9052C17.3063 14.0293 17.0787 14.0086 16.9546 13.8431C16.8305 13.6983 16.8511 13.4707 17.0167 13.3465C17.2029 13.2017 18.1546 12.519 19.2925 12.8293C20.1201 13.0569 20.5339 13.6983 20.6994 13.9259C20.8236 14.1121 21.2374 14.6914 21.2167 15.519C21.2167 16.119 20.9684 16.5741 20.4925 17.381Z" fill="white"/>
<path d="M13.0856 13.1396C13.0236 13.2845 12.9615 13.45 12.8787 13.6362C12.7132 14.0707 12.5063 14.5672 12.4029 14.7534C12.2373 15.0638 12.1132 15.2707 12.0098 15.4155C11.8856 15.6017 11.8029 15.7465 11.7201 15.9534C11.596 16.3052 11.5753 16.6983 11.658 17.1328C11.4304 17.1121 11.0787 16.9672 11.0373 16.7603C11.0167 16.6155 11.0994 16.4707 11.3477 16.0362C11.3891 15.9534 11.4511 15.85 11.5132 15.7672C11.9477 15.0224 12.1339 14.4638 12.258 14.05C12.4029 13.6155 12.4649 13.4293 12.6925 13.2638C12.8373 13.2017 12.9615 13.1603 13.0856 13.1396Z" fill="white"/>
<path d="M12.6511 28.781C12.4028 29.2776 12.1132 29.7328 11.927 29.9603C11.7615 29.5465 11.4925 28.5741 11.5753 27.8086C11.5753 27.7879 11.5753 27.7672 11.5753 27.7465C11.596 27.4983 11.658 27.2914 11.7822 27.1052C11.8649 26.981 12.0718 26.919 12.2994 26.919C12.4649 26.919 12.6511 26.9603 12.8166 27.0431C12.8994 27.0845 13.0235 27.1879 13.0235 27.4569C13.0649 27.8293 12.8787 28.3259 12.6511 28.781Z" fill="white"/>
<path d="M25.8925 23.2569C25.9132 23.2776 25.9132 23.2983 25.9132 23.319C25.8511 23.4638 25.7477 23.5672 25.6442 23.6914C25.5201 23.8362 25.3752 24.0017 25.2511 24.2707C25.0649 24.6431 25.0028 24.9741 24.9821 25.8431C24.9408 26.8569 24.9821 27.4155 25.0235 27.8293C25.0442 28.2224 25.0649 28.4707 25.0028 28.8638C24.858 29.65 24.527 30.1672 24.0925 30.8293C23.5546 31.6569 23.0166 32.5052 22.1063 32.7741C22.0235 32.7948 22.0235 32.7948 21.7752 32.7948C21.5684 32.7948 21.2166 32.7948 20.5753 32.8155C19.3753 32.8569 18.7753 32.8776 18.2787 32.981C17.7408 33.0845 17.4718 33.2086 17.1821 33.3121C16.9339 33.4155 16.7063 33.4983 16.2718 33.6017C16.0028 33.6638 15.6097 33.7052 14.2649 33.7259C12.858 33.7259 12.0097 33.7259 10.9132 33.6017C9.38215 33.4362 8.61663 33.3327 8.09939 33.0638C6.89939 32.4224 6.38215 31.2638 5.55457 29.3603C5.55457 29.3396 5.57526 29.319 5.59594 29.319C5.63732 29.3396 5.6787 29.3603 5.72008 29.381C5.76146 29.4017 5.80284 29.4017 5.82353 29.4017C5.90629 29.4224 5.98905 29.4224 6.07181 29.4017C6.0925 29.4017 6.0925 29.4017 6.11319 29.381C6.13388 29.381 6.15456 29.381 6.15456 29.4017C6.21663 29.5465 6.29939 29.6707 6.44422 29.7534C6.58905 29.8362 6.75457 29.8362 6.89939 29.8362C7.06491 29.8362 7.23043 29.8155 7.39594 29.7948C7.4787 29.7948 7.56146 29.8362 7.60284 29.8983C7.74767 30.2707 7.93387 30.519 8.22353 30.5603C8.24422 30.5603 8.26491 30.5603 8.2856 30.5603C8.34767 30.5603 8.45112 30.5396 8.57525 30.4569C8.6787 30.3741 8.84422 30.4362 8.92698 30.5396C8.98905 30.6431 9.07181 30.7052 9.15456 30.7672C9.44422 31.0569 10.1477 31.2017 10.727 31.2017C11.0373 31.2017 11.327 31.1603 11.4925 31.0776C11.7408 30.9534 11.7408 30.7879 11.7201 30.7052C11.6994 30.581 11.6787 30.4362 11.658 30.3121C11.658 30.2914 11.6787 30.2914 11.6787 30.3121C11.7201 30.3948 11.7615 30.4776 11.8649 30.4983C11.8856 30.4983 11.8856 30.4983 11.9063 30.4983C12.0718 30.4983 12.3201 30.5603 12.3615 30.7052C12.3821 30.7879 12.4235 30.85 12.4649 30.9327C12.5684 31.0776 12.7546 31.2638 13.1477 31.2845H13.1684C13.6235 31.2845 13.9753 31.1396 14.2028 30.85C14.2235 30.8293 14.2235 30.8086 14.2442 30.7879C14.327 30.6638 14.5753 30.6638 14.6787 30.7672C14.8028 30.8707 14.9477 30.9327 15.1132 30.9327C15.1339 30.9327 15.1753 30.9327 15.1959 30.9327C15.4028 30.9121 15.5684 30.8086 15.7132 30.6224C15.7959 30.4983 15.858 30.3534 15.8994 30.1879C15.9201 30.1465 15.9821 30.1259 16.0235 30.1672C16.1063 30.25 16.2511 30.3327 16.458 30.3327C16.4994 30.3327 16.5615 30.3327 16.6235 30.3121C17.0166 30.2293 17.2235 29.8983 17.3063 29.5465C17.3063 29.5259 17.327 29.5259 17.327 29.5465C17.4304 29.6707 17.6166 29.8155 17.927 29.8155C17.9477 29.8155 17.9684 29.8155 17.9684 29.8155C18.1339 29.8155 18.2787 29.7327 18.3821 29.6086C18.5063 29.4431 18.5477 29.1948 18.5684 28.9672C18.5684 28.9052 18.6097 28.8431 18.6925 28.8017C19.0235 28.6569 19.4373 28.3465 19.5615 28.1396C19.5615 28.1396 19.5615 28.119 19.5821 28.119C19.6028 28.0569 19.6649 28.0155 19.7063 28.0155C19.9753 27.9741 20.0787 27.9121 20.1821 27.8707C20.2649 27.8293 20.327 27.8086 20.5339 27.7672C22.0442 27.5396 22.3339 27.4776 22.6649 27.2707C23.1615 26.9396 23.1821 26.4845 23.2028 26.05C23.2235 25.6776 23.2442 25.2638 23.5339 24.7672C23.6373 24.581 23.7615 24.3741 23.8856 24.1259C24.1132 23.7121 24.4235 23.1328 24.6511 22.8224C24.6925 22.7603 24.7752 22.7396 24.8373 22.781C25.3546 22.9672 25.8097 23.1741 25.8925 23.2569Z" fill="white"/>
<path d="M11.2029 27.7672C11.1408 28.2845 11.0994 28.9879 11.1822 29.8983C11.2029 30.1465 11.2443 30.4155 11.2856 30.6845C11.2236 30.7259 10.996 30.7879 10.6236 30.7672C10.0856 30.7465 9.5477 30.6224 9.38219 30.4362L9.3615 30.4155C9.23736 30.3121 9.13391 30.2293 9.13391 30.0431C9.13391 29.981 9.1546 29.919 9.21667 29.8155C9.25805 29.7741 9.29943 29.7121 9.34081 29.6293C9.42357 29.5052 9.5477 29.3603 9.67184 29.1534C10.0236 28.5741 10.1477 28.3879 10.3132 28.1603C10.3339 28.1397 10.3339 28.119 10.3546 28.0983C10.458 27.9741 10.5615 27.8086 10.7477 27.5397C10.8718 27.3534 10.9753 27.1879 11.0787 27.0638C11.2236 26.8569 11.327 26.7534 11.3891 26.6914C11.3891 26.7741 11.3684 26.8983 11.3477 27.0224C11.2649 27.2707 11.2236 27.4983 11.2029 27.7672Z" fill="white"/>
<path d="M10.9339 19.6155C10.9339 19.6362 10.9339 19.6362 10.9339 19.6155C10.8511 19.719 10.7684 19.8431 10.6649 20.05C10.396 20.6293 10.396 20.9603 10.396 21.2293C10.396 21.3741 10.396 21.4776 10.3546 21.6017C10.3339 21.6845 10.2925 21.7879 10.2305 21.8914C10.0856 22.2431 9.87873 22.6983 9.96149 23.319C9.83735 23.2569 9.65115 23.1121 9.60977 23.05C9.60977 23.0086 9.58908 22.9879 9.58908 22.9465C9.5477 22.7603 9.52701 22.6362 9.63046 22.3465C9.96149 21.6017 10.0029 21.4155 10.0236 21.2086C10.0236 21.1672 10.0443 21.1259 10.0443 21.0638C10.1063 20.7741 10.1477 20.5259 10.1684 20.319C10.2098 20.0086 10.2511 19.8017 10.3546 19.6569C10.396 19.5948 10.4994 19.5741 10.6443 19.5741C10.7063 19.5741 10.7684 19.5741 10.8511 19.5948H10.8718C10.9339 19.6155 10.9339 19.6155 10.9339 19.6155Z" fill="white"/>
<path d="M10.5201 27.0017C10.4994 26.8155 10.4787 26.65 10.3959 26.4638C10.3959 26.4638 10.3753 26.4224 10.3753 26.4017C10.3546 26.381 10.3546 26.3603 10.3339 26.3396L10.3132 26.319C10.2925 26.2983 10.2925 26.2983 10.2718 26.2983L10.2511 26.2776C10.2304 26.2776 10.2304 26.2569 10.2097 26.2569H10.1891C10.0856 26.2155 9.98216 26.1741 9.85802 26.1534C9.83733 26.1534 9.81664 26.1534 9.81664 26.1534C9.79595 26.1534 9.79595 26.1534 9.77526 26.1534H9.75457C9.73388 26.1534 9.71319 26.1741 9.67181 26.1741C9.65112 26.1741 9.65112 26.1948 9.63043 26.1948L9.60974 26.2155C9.58905 26.2362 9.58905 26.2362 9.56836 26.2569L9.54767 26.2776V26.2983C9.50629 26.3603 9.46492 26.4224 9.42354 26.4845C9.32009 26.6293 9.21664 26.7948 9.11319 26.9396C9.00974 27.0845 8.92698 27.2086 8.82354 27.3534C8.76147 27.4362 8.72009 27.4983 8.65802 27.581C8.65802 27.6017 8.63733 27.6017 8.63733 27.6224C8.6994 27.6431 8.76147 27.6431 8.82354 27.6638C8.96836 27.6845 9.11319 27.7052 9.23733 27.7259C9.52698 27.7672 9.83733 27.7879 10.127 27.7672C10.1477 27.7672 10.1477 27.7672 10.1684 27.7672C10.2304 27.6638 10.3339 27.5396 10.4373 27.3741C10.4994 27.2914 10.5615 27.2086 10.6028 27.1259C10.5408 27.1052 10.5201 27.0431 10.5201 27.0017Z" fill="white"/>
<path d="M9.46493 28.2224C9.44424 28.45 9.19596 29.0293 8.80286 29.5879C8.47182 30.0431 8.26493 30.1672 8.22355 30.1672C8.05803 30.1465 7.9132 29.7534 7.78907 29.3603C7.74769 29.1948 7.68562 29.05 7.66493 28.9052C7.58217 28.6155 7.56148 28.2017 7.58217 27.9534C7.9132 28.1397 8.49251 28.181 9.3201 28.181C9.36148 28.2017 9.42355 28.2017 9.46493 28.2224Z" fill="white"/>
<path d="M8.88565 26.3603C8.74082 26.5879 8.59599 26.7948 8.45116 27.0017C8.3684 27.1052 8.30634 27.2086 8.22358 27.3121C8.1822 27.3741 8.12013 27.4362 8.07875 27.4983C7.95461 27.4776 7.85116 27.4362 7.72703 27.4155C7.62358 27.3948 7.54082 27.3534 7.43737 27.3121C7.41668 27.3121 7.39599 27.2914 7.3753 27.2914C7.35461 27.2707 7.33392 27.2293 7.31323 27.2086C7.35461 27.1465 7.3753 27.0638 7.41668 27.0017C7.47875 26.8776 7.54082 26.7534 7.62358 26.6293C7.74772 26.4224 7.89254 26.1948 8.12013 26.05C8.14082 26.05 8.14082 26.0293 8.16151 26.0293C8.24427 25.9879 8.32702 25.9465 8.43047 25.9259C8.45116 25.9259 8.51323 25.9259 8.55461 25.9259H8.5753C8.5753 25.9259 8.5753 25.9259 8.59599 25.9259C8.61668 25.9259 8.63737 25.9465 8.67875 25.9465C8.67875 25.9465 8.69944 25.9465 8.69944 25.9672C8.72013 25.9879 8.74082 25.9879 8.76151 26.0086C8.72013 25.9879 8.80289 26.0707 8.80289 26.05C8.84427 26.1741 8.86496 26.2362 8.88565 26.3603Z" fill="white"/>
<path d="M7.7684 25.7603C7.49944 25.9672 7.31323 26.2569 7.1684 26.5672C7.08565 26.7327 7.00289 26.8983 6.92013 27.0638C6.92013 27.0845 6.89944 27.1052 6.89944 27.1052C6.81668 27.0845 6.73392 27.0638 6.67185 27.0431C6.58909 27.0224 6.50634 26.981 6.42358 26.9603C6.3822 26.9396 6.36151 26.919 6.32013 26.8983C6.40289 26.7534 6.48565 26.6086 6.58909 26.4638C6.71323 26.2776 6.85806 26.0707 7.00289 25.9052C7.06496 25.8431 7.12703 25.7603 7.18909 25.719C7.27185 25.6776 7.35461 25.6776 7.45806 25.6983C7.56151 25.6983 7.66496 25.6983 7.74771 25.7396C7.72703 25.7396 7.74772 25.7603 7.7684 25.7603Z" fill="white"/>
<path d="M7.35458 29.2776C7.33389 29.2983 7.33389 29.2983 7.3132 29.319H7.29251C7.23044 29.319 7.16837 29.3396 7.1063 29.3396C6.98216 29.3396 6.85803 29.3603 6.73389 29.3396C6.67182 29.3396 6.60975 29.319 6.56837 29.2776C6.52699 29.2155 6.5063 29.0914 6.48561 29.0086C6.40285 28.5534 6.40285 28.0983 6.44423 27.6431C6.67182 27.7259 6.9201 27.7879 7.16837 27.8293C7.1063 28.2431 7.20975 28.8431 7.25113 29.0086C7.3132 29.0914 7.33389 29.1948 7.35458 29.2776Z" fill="white"/>
<path d="M6.60979 25.6155C6.40289 25.8638 6.21668 26.1327 6.05116 26.4224C5.9891 26.5259 5.90634 26.65 5.84427 26.7741C5.76151 26.7534 5.67875 26.7121 5.61668 26.6707C5.55461 26.6293 5.49254 26.5879 5.45117 26.5465C5.43048 26.5259 5.3891 26.5052 5.36841 26.4845C5.36841 26.4845 5.34772 26.4845 5.34772 26.4638C5.36841 26.4017 5.40979 26.3603 5.40979 26.319C5.45117 26.2155 5.49254 26.1327 5.55461 26.05C5.65806 25.8845 5.76151 25.719 5.88565 25.5534C5.92703 25.4914 5.96841 25.4293 6.05116 25.4086C6.11323 25.3879 6.19599 25.4086 6.25806 25.4086C6.3822 25.4293 6.50634 25.5121 6.60979 25.6155Z" fill="white"/>
<path d="M5.01664 26.7121C5.01664 26.6914 5.03733 26.6914 5.01664 26.7121C5.0994 26.7948 5.16147 26.8569 5.24423 26.919C5.28561 26.9397 5.3063 26.981 5.34767 27.0017C5.34767 27.0017 5.34767 27.0017 5.34767 27.0224C5.26492 27.3741 5.20285 27.7465 5.20285 28.119C5.20285 28.1397 5.18216 28.1397 5.18216 28.119C5.07871 27.6845 4.95457 26.981 5.01664 26.7121Z" fill="white"/>
<path d="M6.03044 27.4776C5.98906 27.7879 5.96837 28.0983 5.98906 28.4086C5.98906 28.5741 6.00975 28.7396 6.03044 28.9259C5.98906 28.9259 5.94768 28.9259 5.9063 28.9259H5.88561H5.86492C5.82354 28.9052 5.82354 28.9052 5.78216 28.8845C5.74078 28.8638 5.6994 28.8017 5.65802 28.7396C5.57527 28.5948 5.55458 28.4293 5.55458 28.2638C5.53389 27.9534 5.57527 27.6224 5.63733 27.3121C5.67871 27.3327 5.74078 27.3534 5.80285 27.3741C5.88561 27.4155 5.94768 27.4569 6.03044 27.4776Z" fill="white"/>
<path d="M32.5 15C36.6421 15 40 11.6421 40 7.5C40 3.35786 36.6421 0 32.5 0C28.3579 0 25 3.35786 25 7.5C25 11.6421 28.3579 15 32.5 15Z" fill="black"/>
<path fill-rule="evenodd" clip-rule="evenodd" d="M32.9 1.50002L36.5 7.5L32.6 9.28829L28.7963 7.6L32.3 1.50002L32.4 1.40002H32.5H32.6H32.7H32.8L32.9 1.50002ZM32.5 10.5L36.5 8.5L32.7 13.6C32.7 13.7 32.6 13.7 32.6 13.7H32.5H32.4L32.3 13.6L28.5 8.5L32.5 10.5Z" fill="white"/>
</g>
<defs>
<radialGradient id="paint0_radial_329_4212" cx="0" cy="0" r="1" gradientUnits="userSpaceOnUse" gradientTransform="translate(18.0007 23.8805) rotate(90) scale(20.22)">
<stop offset="0.1667" stop-color="#0E4ABF"/>
<stop offset="1" stop-color="#0054F9"/>
</radialGradient>
<clipPath id="clip0_329_4212">
<rect width="40" height="40" fill="white"/>
</clipPath>
</defs>
</svg>
