<svg width="40" height="40" viewBox="0 0 40 40" fill="none" xmlns="http://www.w3.org/2000/svg">
<g clip-path="url(#clip0_19_3371)">
<path d="M6 4H30C31.5913 4 33.1174 4.63214 34.2426 5.75736C35.3679 6.88258 36 8.4087 36 10V34C36 35.5913 35.3679 37.1174 34.2426 38.2426C33.1174 39.3679 31.5913 40 30 40H6C4.4087 40 2.88258 39.3679 1.75736 38.2426C0.632141 37.1174 0 35.5913 0 34L0 10C0 8.4087 0.632141 6.88258 1.75736 5.75736C2.88258 4.63214 4.4087 4 6 4Z" fill="#005ADC"/>
<g clip-path="url(#clip1_19_3371)">
<path fill-rule="evenodd" clip-rule="evenodd" d="M7.60615 14.6861C7.60615 14.6861 5.23144 12.8167 5.06813 17.4337C4.90481 21.0118 4.90922 27.9591 6.59094 31.2415C7.30159 32.4762 8.25059 32.098 10.0162 30.8676C11.5522 29.7503 17.1094 24.7072 19.4621 22.4943C21.8147 20.2814 26.5862 13.934 27.5793 18.2467C27.9722 20.0596 28.4577 21.5987 28.0869 25.6201C27.9722 26.8592 27.4337 27.7982 24.9795 26.1201C23.1256 24.9463 21.3645 23.6855 21.3645 23.6855C21.3645 23.6855 21.0246 23.0855 20.2213 24.0594C19.5901 24.8376 19.2723 25.0289 20.2831 25.6201C21.2983 26.2114 26.4317 29.6981 28.4003 30.2416C30.0247 30.7067 30.9516 30.698 31.0002 27.5548C30.9913 25.0593 30.8457 17.9163 29.9231 14.873C29.2257 12.9775 28.2017 12.1167 25.9903 14.247C23.7789 16.3773 16.8049 23.0377 12.9912 26.0549C10.462 27.9243 9.38057 29.6112 8.42715 26.494C7.75623 24.1333 6.88668 16.786 9.63216 18.1859C11.3492 18.9945 12.2055 18.9902 11.5346 19.4988C10.8637 20.0031 8.93476 21.7465 8.93476 21.7465C8.93476 21.7465 8.33887 22.2204 8.61695 23.2464C8.89503 23.9637 8.89503 24.3202 10.3914 22.9334C11.8877 21.5465 12.9912 20.4987 12.9912 20.4987C12.9912 20.4987 13.2295 20.1292 13.9402 20.8118C14.6508 21.4943 14.7656 21.6856 14.7656 21.6856C14.7656 21.6856 14.9554 22.1943 15.7146 21.3117C16.4782 20.4292 16.9682 19.8901 15.5248 19.0641C14.0859 18.2293 7.60615 14.6861 7.60615 14.6861Z" fill="white"/>
</g>
<path d="M32.5 15C36.6421 15 40 11.6421 40 7.5C40 3.35786 36.6421 0 32.5 0C28.3579 0 25 3.35786 25 7.5C25 11.6421 28.3579 15 32.5 15Z" fill="black"/>
<path fill-rule="evenodd" clip-rule="evenodd" d="M32.9 1.50002L36.5 7.5L32.6 9.28829L28.7963 7.6L32.3 1.50002L32.4 1.40002H32.5H32.6H32.7H32.8L32.9 1.50002ZM32.5 10.5L36.5 8.5L32.7 13.6C32.7 13.7 32.6 13.7 32.6 13.7H32.5H32.4L32.3 13.6L28.5 8.5L32.5 10.5Z" fill="white"/>
</g>
<defs>
<clipPath id="clip0_19_3371">
<rect width="40" height="40" fill="white"/>
</clipPath>
<clipPath id="clip1_19_3371">
<rect width="26" height="19" fill="white" transform="translate(5 13)"/>
</clipPath>
</defs>
</svg>
