<svg width="118" height="117" viewBox="0 0 118 117" fill="none" xmlns="http://www.w3.org/2000/svg">
<path d="M10.6768 48.1896C10.6768 27.1928 27.6981 10.1715 48.6949 10.1715H60.6586C81.6555 10.1715 98.6768 27.1928 98.6768 48.1896V60.1534C98.6768 81.1502 81.6555 98.1715 60.6586 98.1715H48.6949C27.6981 98.1715 10.6768 81.1502 10.6768 60.1534V48.1896Z" fill="#303D48" fill-opacity="0.32"/>
<g clip-path="url(#clip0_1931_7105)">
<path d="M58.1149 70.9462C68.8222 70.9462 77.5022 62.2662 77.5022 51.5589C77.5022 40.8515 68.8222 32.1715 58.1149 32.1715C47.4076 32.1715 38.7275 40.8515 38.7275 51.5589C38.7275 62.2662 47.4076 70.9462 58.1149 70.9462Z" stroke="#F3FBFD" stroke-width="2.67618" stroke-miterlimit="10"/>
<path d="M50.1807 60.3806L67.0068 43.5189" stroke="#F3FBFD" stroke-width="2.67618" stroke-miterlimit="10"/>
<path d="M64.0532 62.3013C65.6838 62.3013 67.0057 60.9793 67.0057 59.3487C67.0057 57.718 65.6838 56.3961 64.0532 56.3961C62.4225 56.3961 61.1006 57.718 61.1006 59.3487C61.1006 60.9793 62.4225 62.3013 64.0532 62.3013Z" stroke="#F3FBFD" stroke-width="2.67618" stroke-miterlimit="10"/>
<path d="M53.2758 47.5387C54.9065 47.5387 56.2284 46.2168 56.2284 44.5861C56.2284 42.9555 54.9065 41.6335 53.2758 41.6335C51.6452 41.6335 50.3232 42.9555 50.3232 44.5861C50.3232 46.2168 51.6452 47.5387 53.2758 47.5387Z" stroke="#F3FBFD" stroke-width="2.67618" stroke-miterlimit="10"/>
<path d="M32.2509 77.8222L42.4129 67.6602" stroke="#E0FB92" stroke-width="2.67618" stroke-miterlimit="10"/>
<path d="M37.9542 63.4796L33.2959 68.1379" stroke="#E0FB92" stroke-width="2.67618" stroke-miterlimit="10"/>
<path d="M46.2303 71.7809L37.6773 80.334" stroke="#E0FB92" stroke-width="2.67618" stroke-miterlimit="10"/>
</g>
<defs>
<clipPath id="clip0_1931_7105">
<rect width="56" height="56" fill="white" transform="translate(26.6768 26.1715)"/>
</clipPath>
</defs>
</svg>
