<svg width="40" height="40" viewBox="0 0 40 40" fill="none" xmlns="http://www.w3.org/2000/svg">
<path d="M6 4H30C33.3 4 36 6.7 36 10V34C36 37.3 33.3 40 30 40H6C2.7 40 0 37.3 0 34V10C0 6.6 2.7 4 6 4Z" fill="#F7931A"/>
<path d="M24.3 21.5C25 21.2 25.6 20.7 26 20.1C26.4 19.5 26.7 18.8 26.8 18.1C27 17 26.7 15.8 26.1 14.9C25.5 14 24.5 13.3 23.4 13.1L21.5 12.7L22 9.7L19.9 9.3L19.4 12.3L17.4 11.9L17.9 8.9L15.8 8.5L15.3 11.5L11.1 10.7L10.7 13.3L12.9 13.7L12.8 14.2L10.6 27.3L8.89997 27L8.09998 29.9L12.1 30.7L11.6 33.8L13.7 34.2L14.2 31.1L16.2 31.5L15.7 34.6L17.8 35L18.3 31.9L21.4 32.5C22.1 32.6 22.8 32.6 23.5 32.4C24.2 32.2 24.8 31.9 25.4 31.5C26 31.1 26.5 30.5 26.8 29.9C27.2 29.3 27.4 28.6 27.5 27.9C27.7 26.6 27.5 25.3 27 24.2C26.5 22.9 25.5 22 24.3 21.5ZM17.1 13.9L20.9 14.6C21.6 14.8 22.3 15.2 22.7 15.8C23.1 16.4 23.3 17.2 23.1 17.9C23.1 18.3 22.9 18.6 22.7 18.9C22.5 19.2 22.3 19.5 22 19.7C21.7 19.9 21.4 20.1 21 20.2C20.6 20.3 20.3 20.3 19.9 20.2L16.1 19.5L17.1 13.9ZM22.5 26.7C22.5 27.1 22.3 27.4 22.1 27.7C21.9 28 21.7 28.3 21.4 28.5C21.1 28.7 20.8 28.9 20.4 29C20 29.1 19.7 29.1 19.3 29L14.6 28.1L15.7 21.9L20.4 22.8C21.1 23 21.8 23.4 22.2 24C22.6 24.6 22.8 25.4 22.6 26.1L22.5 26.7Z" fill="#F8F8F8"/>
</svg>
