<svg width="40" height="40" viewBox="0 0 40 40" fill="none" xmlns="http://www.w3.org/2000/svg">
<g clip-path="url(#clip0_19_119)">
<path d="M6 4H30C31.5913 4 33.1174 4.63214 34.2426 5.75736C35.3679 6.88258 36 8.4087 36 10V34C36 35.5913 35.3679 37.1174 34.2426 38.2426C33.1174 39.3679 31.5913 40 30 40H6C4.4087 40 2.88258 39.3679 1.75736 38.2426C0.632141 37.1174 0 35.5913 0 34L0 10C0 8.4087 0.632141 6.88258 1.75736 5.75736C2.88258 4.63214 4.4087 4 6 4Z" fill="#197EFD"/>
<path d="M17.4085 22.6356L9.55846 31.3856C9.49448 31.4614 9.4561 31.5554 9.44879 31.6543C9.44148 31.7531 9.46563 31.8518 9.51777 31.9361C9.56992 32.0204 9.64739 32.0861 9.73912 32.1237C9.83084 32.1614 9.93212 32.169 10.0285 32.1456L16.7385 30.2256C16.9313 30.1729 17.1014 30.0581 17.2225 29.8991C17.3436 29.74 17.4089 29.5455 17.4085 29.3456V22.6356Z" fill="white"/>
<path d="M18.5785 22.6356L26.4085 31.3856C26.4724 31.4614 26.5108 31.5554 26.5181 31.6543C26.5254 31.7531 26.5013 31.8518 26.4492 31.9361C26.397 32.0204 26.3195 32.0861 26.2278 32.1237C26.1361 32.1614 26.0348 32.169 25.9385 32.1456L19.2285 30.2256C19.0356 30.1729 18.8655 30.0581 18.7444 29.8991C18.6233 29.74 18.558 29.5455 18.5585 29.3456L18.5785 22.6356Z" fill="white"/>
<path d="M17.3484 18.8556C17.3519 18.6599 17.2979 18.4674 17.193 18.3021C17.0881 18.1368 16.937 18.0059 16.7584 17.9256L5.40843 12.2756C5.3518 12.2464 5.28689 12.2374 5.22443 12.25C5.16197 12.2627 5.1057 12.2962 5.0649 12.3452C5.0241 12.3942 5.00122 12.4556 5.00005 12.5193C4.99887 12.583 5.01947 12.6452 5.05843 12.6956L14.0584 24.8256L17.3084 21.2156L17.3484 18.8556Z" fill="white"/>
<path d="M30.5384 12.0257L19.2284 17.7157C19.0543 17.8017 18.9072 17.934 18.8032 18.098C18.6991 18.262 18.6421 18.4515 18.6384 18.6457V21.1157L21.8384 24.7157L30.8884 12.4657C30.9275 12.4143 30.9483 12.3514 30.9477 12.2869C30.947 12.2224 30.9248 12.16 30.8846 12.1095C30.8445 12.059 30.7886 12.0233 30.7259 12.0081C30.6632 11.993 30.5972 11.9991 30.5384 12.0257Z" fill="white"/>
<path d="M32.5 15C36.6421 15 40 11.6421 40 7.5C40 3.35786 36.6421 0 32.5 0C28.3579 0 25 3.35786 25 7.5C25 11.6421 28.3579 15 32.5 15Z" fill="black"/>
<path d="M33.2859 5.10421C33.4908 5.0603 33.7748 5.04859 33.8392 5.04859C33.9036 5.04859 33.9606 5.01493 33.747 4.90662C33.5318 4.79977 33.1805 4.69586 32.8629 4.6578C32.5453 4.61975 31.8003 4.63585 31.8633 4.75733C31.8633 4.75733 31.9789 4.99004 32.0096 5.34131C32.0389 5.69258 32.0858 6.39805 32.2907 6.68491C32.1765 6.25315 32.1633 5.78772 32.1384 5.5872C32.1253 5.47597 32.1223 5.28423 32.115 5.173C32.1136 5.14372 32.1472 5.14372 32.1575 5.17007C32.1882 5.2535 32.2438 5.394 32.2599 5.47597C32.3024 5.68526 32.3258 5.92237 32.3214 5.9897C32.317 6.05849 32.3755 6.08776 32.478 5.9897C32.5805 5.89163 32.9024 5.61355 33.0488 5.53597C33.1952 5.4584 33.3957 5.34131 33.463 5.2974C33.5318 5.2535 33.6708 5.173 33.463 5.20812C33.2479 5.24471 33.0708 5.35156 32.9537 5.39254C32.9303 5.40132 32.9361 5.35888 32.9537 5.34131C33.021 5.27252 33.1557 5.13202 33.2859 5.10421Z" fill="#0F0F10" fill-opacity="0.15"/>
<path d="M31.8107 4.23045C31.8151 4.24655 31.8297 4.25533 31.8458 4.2524C32.0171 4.21581 32.9436 4.04603 33.9081 4.47926C33.9227 4.48658 33.9403 4.47926 33.9476 4.46462L33.9842 4.38559C33.9915 4.37095 33.9842 4.35193 33.9695 4.34607C33.3943 4.08701 32.8367 4.03725 32.4679 4.04164C32.1342 4.04603 31.8941 4.0914 31.8136 4.11043C31.7975 4.11482 31.7873 4.13092 31.7917 4.14702L31.8107 4.23045Z" fill="#0F0F10" fill-opacity="0.15"/>
<path d="M29.8991 5.91362C29.7103 6.17122 29.362 6.83131 29.4981 6.83424C29.4981 6.83424 29.7586 6.84595 30.0792 6.99231C30.3997 7.13721 31.0378 7.44164 31.3891 7.40358C30.9573 7.29235 30.5431 7.0772 30.3572 6.99963C30.2533 6.95718 30.085 6.86644 29.984 6.81667C29.9577 6.8035 29.9738 6.77423 30.0031 6.77862C30.0909 6.79326 30.2402 6.81228 30.3192 6.83863C30.5226 6.90303 30.7407 6.99816 30.7978 7.03622C30.8549 7.07427 30.909 7.03768 30.8739 6.9001C30.8388 6.76252 30.7539 6.34685 30.7568 6.18C30.7597 6.01461 30.7554 5.7819 30.751 5.7014C30.7466 5.6209 30.7436 5.4599 30.6719 5.65749C30.5987 5.86239 30.6046 6.07023 30.5841 6.19317C30.5797 6.21659 30.5461 6.19171 30.5387 6.16829C30.5124 6.07608 30.4538 5.88874 30.4934 5.76141C30.5548 5.56089 30.6836 5.30768 30.7144 5.25207C30.7451 5.19645 30.7436 5.12912 30.5461 5.26378C30.3485 5.39843 30.0879 5.65602 29.8991 5.91362Z" fill="#0F0F10" fill-opacity="0.15"/>
<path d="M28.9287 6.60003L29.0121 6.62199C29.0282 6.62638 29.0443 6.61759 29.0487 6.60149C29.0999 6.43464 29.4044 5.54184 30.2533 4.91248C30.2664 4.90223 30.2694 4.88467 30.2591 4.87003L30.2079 4.79978C30.1976 4.78661 30.1786 4.78368 30.1655 4.79393C29.659 5.16861 29.3429 5.63258 29.1658 5.95604C29.0063 6.24876 28.9302 6.48148 28.9053 6.56051C28.9023 6.57954 28.9111 6.59564 28.9287 6.60003Z" fill="#0F0F10" fill-opacity="0.15"/>
<path d="M31.6085 8.57588C31.2909 8.8891 30.8928 9.1306 30.7303 9.25208C30.6411 9.3194 30.4757 9.416 30.382 9.47747C30.3571 9.49357 30.3396 9.4643 30.3586 9.44235C30.4157 9.37502 30.5093 9.25647 30.5723 9.20085C30.7333 9.06034 30.9265 8.9213 30.9879 8.89203C31.0494 8.86275 31.0465 8.79689 30.9104 8.75737C30.7743 8.71639 30.3732 8.57442 30.2327 8.4866C30.0922 8.39879 29.8917 8.28316 29.82 8.24511C29.7483 8.20705 29.6092 8.12655 29.7424 8.28901C29.88 8.45733 30.0615 8.55832 30.1551 8.64028C30.1742 8.65638 30.1347 8.67248 30.1112 8.66516C30.019 8.64175 29.8288 8.59345 29.7395 8.49392C29.6004 8.33731 29.4497 8.09582 29.4175 8.04166C29.3867 7.98605 29.3267 7.95238 29.3399 8.19242C29.3531 8.43245 29.438 8.78811 29.5624 9.0823C29.6853 9.37648 30.0703 10.0161 30.1449 9.90192C30.1449 9.90192 30.2898 9.68531 30.5796 9.48479C30.8709 9.28574 31.4592 8.89642 31.6085 8.57588Z" fill="#0F0F10" fill-opacity="0.15"/>
<path d="M28.8893 8.26567C28.8878 8.24957 28.8732 8.23639 28.8571 8.23786L28.7707 8.24518C28.7546 8.24664 28.7414 8.26128 28.7429 8.27738C28.8029 8.90527 29.0371 9.41461 29.223 9.73221C29.3913 10.0205 29.5508 10.205 29.6064 10.2664C29.6182 10.2796 29.6372 10.2796 29.6504 10.2679L29.7118 10.2079C29.7235 10.1962 29.7235 10.1786 29.7133 10.1669C29.5977 10.0381 28.9903 9.31655 28.8893 8.26567Z" fill="#0F0F10" fill-opacity="0.15"/>
<path d="M31.6702 10.6045C31.4667 10.6528 31.1828 10.6704 31.1184 10.6718C31.0554 10.6733 30.9969 10.7084 31.2135 10.8109C31.4301 10.9133 31.7843 11.0085 32.1019 11.0407C32.4195 11.0729 33.1645 11.0392 33.0987 10.9192C33.0987 10.9192 32.9772 10.6894 32.9391 10.3381C32.9011 9.98834 32.8396 9.28434 32.6288 9.0004C32.7532 9.42924 32.7752 9.89467 32.8045 10.0937C32.8206 10.205 32.8279 10.3952 32.8367 10.5079C32.8396 10.5372 32.8045 10.5387 32.7942 10.5109C32.762 10.4274 32.7035 10.2898 32.6845 10.2079C32.6376 10 32.6083 9.76294 32.6113 9.69562C32.6142 9.62683 32.5557 9.59902 32.4561 9.69854C32.3551 9.79807 32.0405 10.0835 31.8956 10.1654C31.7507 10.2474 31.5531 10.3689 31.4857 10.4143C31.4184 10.4596 31.2808 10.5431 31.4872 10.5035C31.7009 10.4626 31.8765 10.3513 31.9936 10.3074C32.017 10.2986 32.0112 10.3411 31.9951 10.3586C31.9322 10.4289 31.799 10.5738 31.6702 10.6045Z" fill="#0F0F10" fill-opacity="0.15"/>
<path d="M33.1644 11.4461C33.16 11.43 33.1439 11.4212 33.1292 11.4256C32.9595 11.4666 32.0359 11.6568 31.0626 11.2441C31.048 11.2382 31.0304 11.2441 31.0231 11.2602L30.988 11.3392C30.9806 11.3539 30.988 11.3729 31.0041 11.3788C31.5851 11.6246 32.1442 11.6627 32.5131 11.6495C32.8468 11.6378 33.0853 11.5866 33.1658 11.5661C33.1819 11.5617 33.1922 11.5456 33.1878 11.528L33.1644 11.4461Z" fill="#0F0F10" fill-opacity="0.15"/>
<path d="M35.0641 9.81998C35.2544 9.56384 35.6071 8.90668 35.471 8.90082C35.471 8.90082 35.2105 8.88765 34.8914 8.73982C34.5709 8.592 33.9357 8.28464 33.5844 8.32123C34.0162 8.43539 34.4274 8.65347 34.6133 8.73104C34.7172 8.77349 34.8841 8.8657 34.9851 8.91546C35.0114 8.92863 34.9953 8.9579 34.9661 8.95351C34.8782 8.93888 34.7289 8.91839 34.6499 8.89204C34.4465 8.82618 34.2299 8.72958 34.1728 8.69152C34.1157 8.65347 34.0615 8.69006 34.0952 8.82764C34.1289 8.96522 34.2123 9.38235 34.2079 9.54774C34.2035 9.71313 34.2064 9.94585 34.2108 10.0263C34.2152 10.1068 34.2167 10.2678 34.2884 10.0703C34.363 9.86535 34.3572 9.65751 34.3791 9.53603C34.3835 9.51261 34.4172 9.5375 34.423 9.56091C34.4494 9.65312 34.505 9.84047 34.4655 9.9678C34.4026 10.1683 34.2723 10.4201 34.2401 10.4757C34.2094 10.5313 34.2094 10.5986 34.4084 10.4654C34.6119 10.3322 34.8738 10.0761 35.0641 9.81998Z" fill="#0F0F10" fill-opacity="0.15"/>
<path d="M36.039 9.13798L35.9556 9.11603C35.9395 9.11163 35.9234 9.12042 35.919 9.13652C35.8663 9.30337 35.5575 10.1932 34.7042 10.8182C34.691 10.8285 34.6881 10.846 34.6969 10.8607L34.7466 10.9309C34.7569 10.9441 34.7759 10.947 34.7891 10.9382C35.2984 10.5665 35.616 10.1054 35.7946 9.78197C35.9556 9.48925 36.0332 9.258 36.058 9.17896C36.0654 9.15993 36.0566 9.14383 36.039 9.13798Z" fill="#0F0F10" fill-opacity="0.15"/>
<path d="M34.6236 6.21804C34.6485 6.20194 34.666 6.23122 34.647 6.25317C34.5899 6.32196 34.4977 6.44051 34.4348 6.49613C34.2753 6.6381 34.0835 6.77715 34.022 6.80788C33.9606 6.83862 33.965 6.90302 34.1011 6.94253C34.2372 6.98205 34.6397 7.1211 34.7802 7.20745C34.9207 7.29527 35.1227 7.40943 35.1959 7.44602C35.2676 7.48261 35.4081 7.56311 35.2734 7.40065C35.1344 7.2338 34.9529 7.13281 34.8578 7.05231C34.8387 7.03621 34.8783 7.02011 34.9017 7.02596C34.9939 7.04938 35.1842 7.09622 35.2749 7.19428C35.4154 7.34942 35.5691 7.58945 35.5998 7.64361C35.632 7.69776 35.6906 7.73143 35.6759 7.49286C35.6613 7.25282 35.572 6.89716 35.4476 6.60444C35.3232 6.31172 34.9324 5.67504 34.8592 5.79067C34.8592 5.79067 34.7173 6.00875 34.4275 6.21073C34.1347 6.41417 33.5493 6.80788 33.4029 7.12988C33.7191 6.81374 34.1143 6.56931 34.2753 6.44637C34.366 6.37904 34.5299 6.28098 34.6236 6.21804Z" fill="#0F0F10" fill-opacity="0.15"/>
<path d="M36.2703 7.40506C36.2059 6.77863 35.9673 6.27076 35.7785 5.95315C35.6072 5.66628 35.4462 5.48333 35.3906 5.42186C35.3789 5.40869 35.3599 5.40869 35.3467 5.4204L35.2852 5.48187C35.2735 5.49358 35.2735 5.51114 35.2838 5.52285C35.4023 5.65165 36.0141 6.36882 36.1239 7.4197C36.1254 7.4358 36.14 7.44751 36.1561 7.44604L36.2424 7.43726C36.26 7.4358 36.2717 7.42116 36.2703 7.40506Z" fill="#0F0F10" fill-opacity="0.15"/>
<path d="M34.8549 4.07907C34.8769 3.98101 34.893 3.85367 34.8915 3.75561C34.8915 3.74098 34.8783 3.72927 34.8637 3.73073L34.6559 3.75122C34.6427 3.75268 34.6339 3.76293 34.6325 3.7761C34.631 3.85806 34.6178 3.94149 34.5988 4.0176C34.5959 4.03077 34.6032 4.04541 34.6178 4.04833L34.8242 4.09663C34.8374 4.10249 34.852 4.09371 34.8549 4.07907Z" fill="white"/>
<path d="M34.6048 4.13615C34.5843 4.13176 34.5638 4.14347 34.5565 4.1625C34.5111 4.29422 34.4628 4.38497 34.4628 4.38497C34.4628 4.38497 34.6575 4.56646 34.6897 4.51377C34.7072 4.48596 34.7643 4.38058 34.8126 4.22982C34.8199 4.20641 34.8067 4.18299 34.7833 4.17713L34.6048 4.13615Z" fill="white"/>
<path d="M34.7906 3.28292C34.7848 3.26975 34.7687 3.26243 34.7541 3.26828L34.5506 3.34293C34.5345 3.34878 34.5272 3.36635 34.5345 3.38245C34.5579 3.43367 34.5799 3.49075 34.6018 3.55662C34.6106 3.58442 34.6179 3.6137 34.6223 3.64151C34.6253 3.65614 34.6384 3.66639 34.6531 3.66492L34.855 3.64443C34.8711 3.64297 34.8829 3.62833 34.8814 3.61223C34.8668 3.48197 34.836 3.37513 34.7906 3.28292Z" fill="white"/>
<path d="M34.4613 3.2419C34.473 3.26093 34.495 3.26825 34.5155 3.26093L34.6765 3.20238C34.7057 3.19214 34.716 3.15555 34.6969 3.13067C34.6369 3.05163 34.5667 2.9843 34.4891 2.9199C34.4715 2.90527 34.4452 2.90527 34.4291 2.92137L34.331 3.00918C34.312 3.02675 34.3105 3.05748 34.3296 3.07651C34.3749 3.12042 34.4189 3.17457 34.4613 3.2419Z" fill="white"/>
<path d="M34.3369 2.80723C34.2505 2.756 34.151 2.70916 34.05 2.67111C34.028 2.66233 34.0032 2.67257 33.9929 2.69307L33.9432 2.79259C33.9314 2.81601 33.9417 2.84528 33.9666 2.85406C34.0559 2.89065 34.1364 2.92871 34.189 2.96383C34.1905 2.9653 34.192 2.9653 34.1934 2.96676C34.211 2.97847 34.233 2.97701 34.2491 2.96237L34.3427 2.87894C34.3661 2.85992 34.3632 2.82333 34.3369 2.80723Z" fill="white"/>
<path d="M33.548 2.51888C33.4968 2.50424 33.4456 2.70915 33.5261 2.71793C33.5861 2.72525 33.6915 2.75452 33.8056 2.79257C33.8261 2.79989 33.8481 2.79111 33.8569 2.77208L33.9081 2.66963C33.9198 2.64621 33.9081 2.6184 33.8832 2.61108C33.6973 2.55107 33.548 2.51888 33.548 2.51888Z" fill="white"/>
<path d="M30.3046 3.75709C30.3763 3.79808 30.4407 3.85077 30.4992 3.90346C30.5095 3.9137 30.5256 3.91224 30.5358 3.90199L30.6793 3.74539C30.6895 3.73514 30.6881 3.71904 30.6778 3.70879C30.6032 3.64147 30.5007 3.56536 30.4144 3.51999C30.4012 3.51267 30.3851 3.51852 30.3792 3.5317L30.2958 3.72343C30.2885 3.7366 30.2929 3.75124 30.3046 3.75709Z" fill="white"/>
<path d="M30.754 4.20206C30.754 4.20206 31.0072 4.12156 30.978 4.06741C30.9619 4.03814 30.8975 3.93715 30.7906 3.82152C30.7745 3.80396 30.7467 3.80396 30.7306 3.82152L30.6062 3.95618C30.5916 3.97228 30.5916 3.99569 30.6062 4.01179C30.6969 4.11571 30.754 4.20206 30.754 4.20206Z" fill="white"/>
<path d="M30.2826 3.45858C30.1625 3.40881 30.0528 3.38393 29.9503 3.37808C29.9357 3.37661 29.9225 3.38686 29.9196 3.40296L29.8859 3.61811C29.883 3.63421 29.8947 3.65031 29.9123 3.65177C29.9679 3.65616 30.0294 3.66495 30.0967 3.67812C30.1259 3.68397 30.1538 3.69129 30.1816 3.70154C30.1962 3.70593 30.2108 3.70007 30.2182 3.68544L30.3001 3.49956C30.3045 3.48199 30.2972 3.46443 30.2826 3.45858Z" fill="white"/>
<path d="M29.7733 3.3839C29.6753 3.39708 29.5816 3.42635 29.4879 3.46148C29.466 3.47026 29.4543 3.49221 29.4586 3.51417L29.4879 3.64296C29.4938 3.66931 29.5201 3.68395 29.545 3.67663C29.6065 3.65906 29.6738 3.64589 29.7543 3.64296C29.7763 3.6415 29.7938 3.6254 29.7982 3.60491L29.826 3.43513C29.8304 3.40586 29.8041 3.37951 29.7733 3.3839Z" fill="white"/>
<path d="M29.1763 3.88738C29.2509 3.82737 29.3256 3.77615 29.3812 3.74687C29.3826 3.74541 29.3841 3.74541 29.3856 3.74395C29.4046 3.73516 29.4134 3.71321 29.409 3.69418L29.3812 3.57124C29.3739 3.54197 29.3402 3.52733 29.3138 3.54197C29.226 3.59173 29.1382 3.65759 29.0548 3.72638C29.0372 3.74102 29.0328 3.76736 29.046 3.78639L29.1089 3.87713C29.125 3.89909 29.1558 3.90348 29.1763 3.88738Z" fill="white"/>
<path d="M28.9216 3.84347C28.7781 3.9752 28.6771 4.08936 28.6771 4.08936C28.6391 4.12595 28.7928 4.27231 28.8411 4.20645C28.8762 4.15815 28.9538 4.07911 29.043 4.00008C29.0591 3.98544 29.0621 3.96202 29.0504 3.94446L28.986 3.85079C28.9699 3.82883 28.9406 3.82591 28.9216 3.84347Z" fill="white"/>
<path d="M28.2307 7.45128C28.3024 7.41176 28.3814 7.38249 28.4575 7.36053C28.4707 7.35614 28.4795 7.34297 28.4751 7.32833L28.4151 7.12489C28.4107 7.11172 28.396 7.10294 28.3829 7.10733C28.2863 7.1366 28.1692 7.1849 28.0843 7.23613C28.0711 7.24344 28.0682 7.26101 28.077 7.27272L28.1985 7.44396C28.2058 7.45567 28.2189 7.4586 28.2307 7.45128Z" fill="white"/>
<path d="M28.5365 7.0693C28.5131 7.0737 28.4984 7.09858 28.5058 7.12053L28.557 7.29617C28.5628 7.31666 28.5833 7.32836 28.6038 7.32544C28.7399 7.29909 28.8438 7.29617 28.8438 7.29617C28.8438 7.29617 28.9053 7.03711 28.8438 7.03564C28.8102 7.03418 28.6902 7.0371 28.5365 7.0693Z" fill="white"/>
<path d="M27.935 7.73377C27.9686 7.6884 28.0067 7.6401 28.052 7.58887C28.0711 7.56692 28.093 7.54643 28.1164 7.52887C28.1282 7.51862 28.1296 7.50252 28.1208 7.48935L28.0037 7.32396C27.995 7.31079 27.9759 7.30786 27.9628 7.3181C27.8574 7.39568 27.7798 7.47617 27.7213 7.56106C27.7125 7.57277 27.7154 7.59034 27.7257 7.59912L27.891 7.73963C27.9057 7.74841 27.9247 7.74694 27.935 7.73377Z" fill="white"/>
<path d="M27.7124 8.09381C27.7373 8.10259 27.7651 8.08796 27.771 8.06161C27.7871 8.00014 27.812 7.93574 27.85 7.86549C27.8603 7.84646 27.8559 7.82304 27.8398 7.80841L27.708 7.69717C27.6846 7.67668 27.648 7.68546 27.6363 7.71474C27.5968 7.80548 27.5734 7.90061 27.5558 8.00014C27.5514 8.02209 27.5646 8.04551 27.5866 8.05137L27.7124 8.09381Z" fill="white"/>
<path d="M27.5355 8.18892C27.5325 8.28991 27.5428 8.39968 27.5589 8.50506C27.5618 8.52848 27.5838 8.54458 27.6072 8.54312L27.7184 8.5358C27.7448 8.53433 27.7638 8.51092 27.7609 8.48457C27.7492 8.38944 27.7418 8.30016 27.7462 8.23722C27.7462 8.23576 27.7462 8.23429 27.7462 8.23137C27.7477 8.21087 27.7345 8.19185 27.7155 8.18453L27.5969 8.14501C27.5662 8.13769 27.5355 8.15818 27.5355 8.18892Z" fill="white"/>
<path d="M27.676 9.01737C27.6891 9.0686 27.8926 9.01152 27.8604 8.93687C27.837 8.88126 27.8092 8.77441 27.7872 8.65732C27.7828 8.63683 27.7638 8.6222 27.7433 8.62366L27.6291 8.63098C27.6042 8.63244 27.5852 8.65586 27.5911 8.6822C27.6306 8.87101 27.676 9.01737 27.676 9.01737Z" fill="white"/>
<path d="M30.1171 10.9508C30.0981 11.0489 30.0835 11.1762 30.0878 11.2743C30.0878 11.2889 30.101 11.3006 30.1171 11.2992L30.325 11.2743C30.3381 11.2728 30.3469 11.2611 30.3469 11.2479C30.3469 11.166 30.3586 11.0825 30.3747 11.0064C30.3776 10.9933 30.3689 10.9786 30.3557 10.9757L30.1479 10.9318C30.1332 10.9289 30.12 10.9376 30.1171 10.9508Z" fill="white"/>
<path d="M30.3662 10.8878C30.3867 10.8922 30.4072 10.8805 30.4145 10.86C30.4569 10.7268 30.5037 10.6361 30.5037 10.6361C30.5037 10.6361 30.3062 10.459 30.274 10.5117C30.2579 10.5395 30.2022 10.6463 30.1569 10.7986C30.1496 10.822 30.1642 10.8454 30.1876 10.8498L30.3662 10.8878Z" fill="white"/>
<path d="M30.1992 11.747C30.2065 11.7602 30.2211 11.766 30.2358 11.7616L30.4378 11.6826C30.4539 11.6768 30.4612 11.6592 30.4539 11.6431C30.429 11.5919 30.4056 11.5348 30.3821 11.4704C30.3719 11.4426 30.3646 11.4148 30.3587 11.3855C30.3558 11.3709 30.3426 11.3606 30.3265 11.3621L30.1245 11.387C30.1084 11.3884 30.0967 11.4031 30.0997 11.4192C30.1172 11.548 30.1524 11.6548 30.1992 11.747Z" fill="white"/>
<path d="M30.5285 11.7792C30.5168 11.7601 30.4934 11.7528 30.4729 11.7616L30.3134 11.8245C30.2841 11.8363 30.2753 11.8714 30.2943 11.8963C30.3558 11.9738 30.429 12.0397 30.5066 12.1026C30.5241 12.1173 30.5505 12.1158 30.5666 12.0997L30.6632 12.009C30.6822 11.9914 30.6822 11.9607 30.6632 11.9416C30.6178 11.8992 30.5724 11.8465 30.5285 11.7792Z" fill="white"/>
<path d="M30.6632 12.211C30.751 12.2607 30.852 12.3046 30.953 12.3412C30.975 12.3485 30.9998 12.3383 31.0101 12.3178L31.0569 12.2168C31.0686 12.1934 31.0569 12.1641 31.032 12.1553C30.9428 12.1202 30.8608 12.0836 30.8066 12.05C30.8052 12.0485 30.8037 12.0485 30.8023 12.047C30.7847 12.0353 30.7613 12.0383 30.7466 12.0514L30.6544 12.1378C30.6325 12.1597 30.6369 12.1963 30.6632 12.211Z" fill="white"/>
<path d="M31.458 12.4818C31.5092 12.4949 31.5561 12.2886 31.4756 12.2813C31.4156 12.2754 31.3087 12.2491 31.1946 12.2125C31.1741 12.2066 31.1521 12.2154 31.1433 12.2344L31.095 12.3383C31.0848 12.3618 31.0965 12.3896 31.1214 12.3969C31.3087 12.4525 31.458 12.4818 31.458 12.4818Z" fill="white"/>
<path d="M34.6486 11.2611C34.5784 11.2187 34.5125 11.1675 34.4554 11.1133C34.4452 11.1031 34.4291 11.1045 34.4188 11.1148L34.2739 11.2699C34.2637 11.2802 34.2651 11.2963 34.2754 11.3065C34.35 11.3738 34.4525 11.4514 34.5388 11.4982C34.552 11.5056 34.5681 11.4997 34.574 11.4865L34.6589 11.2948C34.6647 11.2816 34.6603 11.2685 34.6486 11.2611Z" fill="white"/>
<path d="M34.2023 10.8132C34.2023 10.8132 33.9491 10.8923 33.9783 10.9464C33.9944 10.9757 34.0574 11.0767 34.1642 11.1938C34.1803 11.2113 34.2081 11.2113 34.2242 11.1938L34.3486 11.0591C34.3633 11.043 34.3633 11.0196 34.3486 11.0035C34.2579 10.901 34.2023 10.8132 34.2023 10.8132Z" fill="white"/>
<path d="M34.6692 11.5597C34.7892 11.6109 34.899 11.6358 34.9999 11.6431C35.0146 11.6446 35.0278 11.6343 35.0307 11.6197L35.0658 11.406C35.0687 11.3899 35.057 11.3738 35.0395 11.3723C34.9838 11.3679 34.9224 11.3592 34.855 11.346C34.8258 11.3401 34.798 11.3328 34.7702 11.3226C34.7555 11.3167 34.7409 11.324 34.7336 11.3387L34.6516 11.5245C34.6472 11.5363 34.6545 11.5538 34.6692 11.5597Z" fill="white"/>
<path d="M35.1785 11.6372C35.2766 11.624 35.3702 11.5962 35.4639 11.5611C35.4858 11.5538 35.4976 11.5304 35.4932 11.5084L35.4654 11.3796C35.4595 11.3533 35.4332 11.3386 35.4083 11.346C35.3468 11.3635 35.2795 11.3752 35.199 11.3782C35.177 11.3796 35.1595 11.3942 35.1551 11.4162L35.1273 11.586C35.1214 11.6153 35.1478 11.6416 35.1785 11.6372Z" fill="white"/>
<path d="M35.7785 11.1382C35.7024 11.1967 35.6292 11.2494 35.5736 11.2772C35.5721 11.2787 35.5706 11.2787 35.5692 11.2801C35.5501 11.2889 35.5414 11.3094 35.5458 11.3299L35.5721 11.4528C35.578 11.4821 35.6116 11.4982 35.6394 11.4821C35.7272 11.4323 35.8165 11.3679 35.9 11.3006C35.9175 11.286 35.9219 11.2596 35.9087 11.2406L35.8458 11.1484C35.8297 11.1264 35.799 11.1221 35.7785 11.1382Z" fill="white"/>
<path d="M36.0318 11.1836C36.1752 11.0518 36.2777 10.9391 36.2777 10.9391C36.3157 10.9026 36.162 10.7562 36.1152 10.8221C36.0801 10.8704 36.0025 10.9479 35.9118 11.027C35.8957 11.0416 35.8927 11.065 35.9044 11.0826L35.9688 11.1777C35.9835 11.1982 36.0127 11.2011 36.0318 11.1836Z" fill="white"/>
<path d="M36.7871 7.51426C36.7153 7.55378 36.6378 7.58452 36.5617 7.60647C36.5485 7.61086 36.5397 7.62404 36.5441 7.63867L36.6056 7.84211C36.61 7.85529 36.6246 7.86407 36.6378 7.85968C36.7329 7.82894 36.8515 7.78064 36.9349 7.72942C36.9481 7.7221 36.951 7.70453 36.9422 7.69283L36.8193 7.52305C36.8119 7.51134 36.7988 7.50841 36.7871 7.51426Z" fill="white"/>
<path d="M36.4854 7.89921C36.5088 7.89482 36.5234 7.86994 36.5161 7.84652L36.4634 7.67088C36.4576 7.65039 36.4371 7.63869 36.4166 7.64308C36.2805 7.67088 36.1766 7.67381 36.1766 7.67381C36.1766 7.67381 36.1165 7.93287 36.1795 7.93434C36.2102 7.9358 36.3302 7.93287 36.4854 7.89921Z" fill="white"/>
<path d="M37.0796 7.23175C37.0474 7.27712 37.0079 7.32542 36.964 7.37665C36.9449 7.3986 36.923 7.41909 36.901 7.43812C36.8893 7.44836 36.8879 7.46446 36.8966 7.47764L37.0152 7.64302C37.024 7.6562 37.043 7.65912 37.0562 7.64888C37.1601 7.57131 37.2377 7.48934 37.2947 7.40446C37.3035 7.39275 37.3006 7.37518 37.2889 7.3664L37.122 7.22736C37.1089 7.21565 37.0898 7.21711 37.0796 7.23175Z" fill="white"/>
<path d="M37.2993 6.86872C37.2744 6.85994 37.2466 6.87457 37.2408 6.90092C37.2247 6.96239 37.2013 7.02679 37.1632 7.09851C37.153 7.11753 37.1573 7.14095 37.1749 7.15559L37.3066 7.26536C37.33 7.28585 37.3666 7.2756 37.3783 7.2478C37.4164 7.15559 37.4398 7.06045 37.4559 6.96239C37.4603 6.94044 37.4471 6.91848 37.4252 6.91116L37.2993 6.86872Z" fill="white"/>
<path d="M37.4762 6.77217C37.4777 6.67118 37.466 6.5614 37.4499 6.45602C37.4469 6.43261 37.425 6.41651 37.4016 6.41797L37.2903 6.42529C37.264 6.42675 37.245 6.45017 37.2479 6.47651C37.2611 6.57165 37.2684 6.66093 37.264 6.72387C37.264 6.72533 37.264 6.72679 37.264 6.72972C37.2625 6.75021 37.2757 6.76924 37.2947 6.77656L37.4147 6.81461C37.4455 6.82339 37.4762 6.8029 37.4762 6.77217Z" fill="white"/>
<path d="M37.33 5.94521C37.3168 5.89398 37.1134 5.95253 37.1456 6.02717C37.169 6.08133 37.1968 6.18817 37.2202 6.30672C37.2246 6.32721 37.2437 6.34185 37.2642 6.34039L37.3783 6.33307C37.4032 6.3316 37.4222 6.30672 37.4164 6.28184C37.3769 6.09011 37.33 5.94521 37.33 5.94521Z" fill="white"/>
<path d="M37.892 5.38469C37.9739 5.37005 38.0354 5.36859 37.9769 5.33492C37.9183 5.30126 37.6227 5.17393 37.6227 5.17393C37.3812 5.07733 37.2626 4.67191 37.1792 4.54603C37.0943 4.42016 37.0577 4.22258 36.9655 4.16988C36.7489 4.04401 36.7211 4.26941 36.5191 4.00303C36.3742 3.81423 36.2176 3.51272 35.9805 3.40734C35.7448 3.30196 35.5824 3.52736 35.5824 3.52736C35.5092 3.60346 35.6219 3.58736 35.6892 3.55224C35.7566 3.51711 35.7727 3.63566 35.8107 3.7308C35.8488 3.82593 35.8927 3.90058 35.9497 3.97083C36.0068 4.04109 35.9307 4.03962 35.8751 4.00303C35.8195 3.96498 35.7448 3.83618 35.6409 3.78495C35.537 3.73373 35.5663 3.91814 35.7024 4.00596C35.8385 4.09378 35.9146 4.2738 35.9732 4.46114C36.0317 4.64849 35.9937 4.85486 36.0112 5.10953C36.0288 5.3642 36.2176 5.53251 36.4664 5.8106C36.7152 6.08869 36.8469 6.33897 36.8645 6.57754C36.8748 6.71365 36.7986 6.91417 36.645 7.07224C36.5045 7.21567 36.1751 7.31227 36.0068 7.35911C35.8385 7.40595 35.72 7.38545 35.7975 7.42351C35.8751 7.46303 36.3274 7.42058 36.5601 7.35179C36.7928 7.28446 36.9699 7.04443 37.0343 6.7883C37.1411 6.36678 36.8748 5.8589 36.5396 5.5252C36.2044 5.19149 36.1429 4.94121 36.1488 4.85486C36.1547 4.7685 36.2234 4.68801 36.2469 4.8051C36.2717 4.92218 36.2922 5.05245 36.5615 5.37005C36.8308 5.68766 37.0826 5.72278 37.1894 5.75059C37.2963 5.7784 37.4031 5.7784 37.4295 5.86329C37.4558 5.94818 37.6797 6.48533 37.5597 7.01955C37.4924 7.32105 37.3841 7.53328 37.128 7.77185C36.8718 8.01042 36.4357 8.0675 36.1093 8.06457C35.7829 8.06165 35.5136 7.96505 35.4097 7.93431C35.3072 7.90211 35.2911 7.83332 35.3643 7.85528C35.5151 7.90211 35.8429 7.91382 35.9849 7.92553C36.0098 7.92699 36.0302 7.90797 36.0302 7.88308V7.73965C36.0302 7.71916 36.0141 7.7016 35.9922 7.70013C35.9102 7.69281 35.6834 7.67232 35.3292 7.45717C34.8901 7.18933 34.3646 6.77805 33.7441 6.85562C33.4001 6.89807 33.3445 7.11322 33.1264 7.28007C33.0781 7.31666 32.9786 7.42058 32.8762 7.53182C32.863 7.50254 32.8513 7.46888 32.8396 7.43083C32.8805 7.12932 33.1601 6.69755 33.2801 6.52338C33.4221 6.31848 33.8216 5.9716 34.0749 5.80036C34.3281 5.62911 34.9194 4.9617 34.9779 4.85193C35.0365 4.74216 35.0072 4.93682 35.0116 5.03488C35.016 5.13295 35.0555 5.08318 35.0555 5.08318C35.0555 5.08318 35.2501 4.71728 35.3292 4.23136C35.4067 3.74544 35.3336 3.24927 34.7686 2.576C34.2022 1.90274 33.3591 2.05349 33.2421 2.0491C33.125 2.04471 33.3152 1.82956 33.3445 1.75199C33.3738 1.67442 33.4031 1.62026 33.3445 1.65393C33.286 1.68759 33.0269 1.87786 33.0269 1.87786C32.822 2.03886 32.4122 1.9364 32.2614 1.94665C32.1107 1.95689 31.9204 1.88957 31.8282 1.94226C31.6101 2.06667 31.7916 2.20278 31.4594 2.24523C31.2223 2.2745 30.8842 2.25986 30.6749 2.41062C30.4656 2.56137 30.5783 2.81604 30.5783 2.81604C30.6075 2.91703 30.6485 2.81165 30.6529 2.737C30.6573 2.66089 30.7671 2.70627 30.8681 2.7209C30.9691 2.73554 31.0554 2.73554 31.1447 2.7209C31.234 2.70627 31.1945 2.77213 31.1344 2.8014C31.0744 2.83067 30.9237 2.83067 30.8271 2.89361C30.7305 2.95655 30.9047 3.02534 31.0496 2.95215C31.1945 2.87897 31.3877 2.90386 31.5794 2.94776C31.7711 2.99167 31.9307 3.12779 32.159 3.24049C32.3873 3.35319 32.6273 3.27415 32.9932 3.19951C33.3591 3.12486 33.6416 3.13657 33.8568 3.24049C33.9797 3.29903 34.1158 3.46735 34.1744 3.67957C34.2271 3.87277 34.1451 4.20648 34.1012 4.37479C34.0573 4.54311 33.9797 4.63532 34.0529 4.58848C34.1261 4.54164 34.3164 4.1289 34.3749 3.89326C34.4334 3.65908 34.3149 3.38392 34.1261 3.19951C33.8158 2.89507 33.2435 2.87019 32.7854 2.99167C32.3273 3.11315 32.0814 3.04144 32.0097 2.99167C31.938 2.94337 31.9028 2.84385 32.0155 2.8819C32.1282 2.91996 32.2526 2.96679 32.661 2.89361C33.0693 2.82043 33.2274 2.61991 33.305 2.54234C33.3826 2.46477 33.4367 2.3711 33.5231 2.39159C33.6094 2.41062 34.1861 2.48819 34.5886 2.85995C34.8154 3.07071 34.9442 3.26976 35.0233 3.61078C35.1009 3.95181 34.9311 4.35723 34.7642 4.63824C34.5988 4.91926 34.3793 5.10367 34.3003 5.17685C34.2212 5.25004 34.1524 5.22808 34.208 5.17685C34.3237 5.07001 34.4993 4.79192 34.5813 4.6763C34.5959 4.65581 34.5886 4.628 34.5666 4.61629L34.4437 4.54311C34.4247 4.53286 34.4027 4.53872 34.3895 4.55482C34.3412 4.62214 34.211 4.80802 33.8465 5.00561C33.3943 5.25004 32.7752 5.49885 32.5293 6.07405C32.3932 6.39312 32.5512 6.54973 32.5864 6.82196C32.5937 6.87904 32.6288 7.00345 32.6698 7.13957C32.4093 6.98881 32.1399 6.48094 32.039 6.27603C31.9292 6.0521 31.8223 5.53398 31.796 5.22954C31.7697 4.92511 31.4755 4.08353 31.4096 3.97961C31.3437 3.8757 31.4974 3.99571 31.5852 4.03816C31.6731 4.0806 31.6496 4.02352 31.6496 4.02352C31.6496 4.02352 31.4257 3.67518 31.0393 3.36929C30.6529 3.06339 30.1846 2.88483 29.3196 3.05022C28.456 3.21561 28.1765 4.02645 28.115 4.12598C28.0535 4.2255 27.9584 3.95473 27.9057 3.8918C27.8515 3.82886 27.8193 3.77617 27.8208 3.8435C27.8223 3.91082 27.8618 4.22989 27.8618 4.22989C27.9028 4.48749 27.613 4.79485 27.5471 4.93243C27.4813 5.06855 27.3305 5.20174 27.332 5.30858C27.3349 5.55886 27.5413 5.46811 27.4154 5.7784C27.3261 5.99941 27.1475 6.28774 27.1768 6.54387C27.2061 6.80001 27.4856 6.82342 27.4856 6.82342C27.5881 6.84684 27.5164 6.75903 27.452 6.71951C27.3876 6.67853 27.4813 6.60535 27.5427 6.52338C27.6071 6.44288 27.6496 6.36678 27.6803 6.28189C27.711 6.197 27.7506 6.26286 27.7462 6.33019C27.7418 6.39751 27.6686 6.52777 27.6774 6.6434C27.6862 6.75903 27.8296 6.64047 27.8369 6.47801C27.8442 6.31555 27.9599 6.15894 28.0916 6.01404C28.2233 5.86915 28.4209 5.79596 28.6302 5.65107C28.8395 5.50617 28.8893 5.25882 29.002 4.90169C29.1147 4.54603 29.2625 4.306 29.4586 4.16842C29.5698 4.09085 29.7821 4.0528 29.9972 4.10549C30.1919 4.15379 30.4422 4.38796 30.568 4.50944C30.6939 4.62946 30.7363 4.74362 30.7305 4.65581C30.7246 4.56799 30.4583 4.20062 30.2812 4.03523C30.1055 3.86984 29.8084 3.83911 29.5537 3.91375C29.1366 4.0367 28.8351 4.52408 28.718 4.98219C28.6009 5.44177 28.418 5.62033 28.3404 5.65985C28.2628 5.69937 28.1589 5.68034 28.2467 5.6013C28.3345 5.5208 28.437 5.43591 28.5731 5.04366C28.7092 4.65142 28.6112 4.41577 28.5804 4.30893C28.5497 4.20208 28.4955 4.11134 28.5555 4.04401C28.6156 3.97669 28.9639 3.51272 29.4835 3.34294C29.7777 3.24781 30.0148 3.23171 30.3514 3.33123C30.688 3.42929 30.9573 3.77617 31.1213 4.05865C31.2852 4.34113 31.3394 4.62214 31.3642 4.72752C31.3891 4.8329 31.3379 4.8812 31.3189 4.80802C31.2823 4.65434 31.1257 4.36601 31.0642 4.23721C31.0539 4.21526 31.0261 4.20648 31.0042 4.21965L30.8812 4.29137C30.8637 4.30307 30.8564 4.32503 30.8651 4.34406C30.9003 4.4187 30.9983 4.62361 30.9925 5.03781C30.9852 5.553 30.8988 6.21456 31.2823 6.70926C31.4945 6.98442 31.7082 6.92295 31.9629 7.0254C32.0243 7.05029 32.1809 7.08688 32.3419 7.11908L32.197 7.22446C31.9058 7.30203 31.474 7.27715 31.2837 7.26105C31.0349 7.24056 30.5358 7.06346 30.2621 6.92881C29.987 6.79415 29.1161 6.6112 28.9917 6.61559C28.8673 6.61852 29.0503 6.54826 29.1337 6.49557C29.2156 6.44288 29.1542 6.4341 29.1542 6.4341C29.1542 6.4341 28.74 6.44581 28.2789 6.61852C27.8179 6.79123 27.4227 7.10151 27.1197 7.92699C26.8138 8.75247 27.3642 9.4111 27.4169 9.51502C27.471 9.61894 27.19 9.56039 27.108 9.57356C27.0261 9.58674 26.9646 9.5882 27.0231 9.62186C27.0817 9.65553 27.3759 9.78579 27.3759 9.78579C27.6174 9.88385 27.7315 10.2907 27.815 10.4166C27.8984 10.5425 27.9335 10.7415 28.0257 10.7957C28.2423 10.923 28.2701 10.6976 28.4707 10.9655C28.6141 11.1557 28.7692 11.4572 29.0034 11.5655C29.2391 11.6724 29.403 11.4485 29.403 11.4485C29.4762 11.3724 29.3649 11.3884 29.2961 11.4236C29.2288 11.4572 29.2127 11.3387 29.1761 11.245C29.1381 11.1499 29.0956 11.0752 29.0385 11.005C28.9815 10.9347 29.059 10.9362 29.1147 10.9742C29.1703 11.0123 29.2449 11.1426 29.3474 11.1953C29.4498 11.2479 29.4235 11.0635 29.2888 10.9742C29.1542 10.885 29.0781 10.7049 29.0224 10.5176C28.9654 10.3303 29.0049 10.1239 28.9888 9.86921C28.9727 9.61454 28.7853 9.44477 28.5394 9.16375C28.2936 8.88274 28.1633 8.63246 28.1472 8.39389C28.1384 8.25777 28.216 8.05726 28.3711 7.90065C28.5131 7.75868 28.8439 7.66501 29.0107 7.61963C29.1776 7.57426 29.2976 7.59622 29.22 7.5567C29.1425 7.51718 28.6902 7.5567 28.4575 7.6211C28.2248 7.6855 28.0447 7.92114 27.9774 8.17727C27.8662 8.59733 28.1282 9.10813 28.4619 9.44477C28.7941 9.7814 28.8541 10.0317 28.8468 10.118C28.8395 10.2044 28.7707 10.2834 28.7473 10.1678C28.7239 10.0507 28.7034 9.92044 28.437 9.60137C28.1706 9.2823 27.9189 9.24425 27.812 9.21644C27.7052 9.18717 27.5983 9.18717 27.572 9.10228C27.5486 9.01593 27.329 8.47731 27.4534 7.94309C27.5237 7.64159 27.632 7.43083 27.8911 7.19372C28.1487 6.95661 28.5848 6.90392 28.9112 6.90831C29.2376 6.91271 29.5069 7.01223 29.6094 7.04443C29.7118 7.07663 29.7279 7.14688 29.6547 7.12347C29.504 7.07517 29.1761 7.06053 29.0342 7.04736C29.0093 7.04443 28.9888 7.06492 28.9888 7.0898L28.9873 7.23324C28.9873 7.25373 29.0034 7.27129 29.0239 7.27422C29.1059 7.28154 29.3327 7.30349 29.684 7.52303C30.1216 7.7938 30.6441 8.20947 31.2647 8.13775C31.6101 8.09824 31.6672 7.88308 31.8867 7.7177C31.9014 7.70745 31.9204 7.68989 31.9409 7.6694C31.9599 7.70306 31.9804 7.73965 31.9994 7.77478C31.9058 8.04116 31.7228 8.33681 31.6335 8.47439C31.496 8.68222 31.1037 9.03788 30.8549 9.21498C30.6046 9.39208 30.0294 10.0727 29.9738 10.1824C29.9182 10.2922 29.9431 10.0975 29.9357 10.0009C29.9284 9.90288 29.8904 9.9541 29.8904 9.9541C29.8904 9.9541 29.703 10.3244 29.6357 10.8118C29.5684 11.2992 29.6533 11.7939 30.2329 12.454C30.8139 13.1141 31.654 12.9443 31.7711 12.9472C31.8882 12.9501 31.7023 13.1682 31.676 13.2472C31.6482 13.3263 31.6204 13.3804 31.6774 13.3453C31.7345 13.3102 31.9892 13.1141 31.9892 13.1141C32.1912 12.9487 32.6025 13.0423 32.7532 13.0292C32.904 13.016 33.0942 13.0789 33.1864 13.0248C33.4016 12.896 33.2172 12.7628 33.548 12.7145C33.7836 12.6794 34.1232 12.6867 34.3295 12.5315C34.5359 12.3764 34.4173 12.1247 34.4173 12.1247C34.3851 12.0237 34.3471 12.1305 34.3442 12.2066C34.3427 12.2827 34.23 12.2403 34.129 12.2271C34.028 12.2154 33.9402 12.2169 33.8524 12.233C33.7631 12.2491 33.8012 12.1832 33.8612 12.1525C33.9212 12.1217 34.0705 12.1188 34.1656 12.0529C34.2607 11.9871 34.0851 11.9227 33.9431 11.9988C33.7997 12.0749 33.6065 12.0544 33.4148 12.0149C33.223 11.9754 33.0606 11.8422 32.8293 11.7353C32.5981 11.6285 32.3595 11.7119 31.9951 11.7953C31.6306 11.8788 31.3481 11.8729 31.1315 11.7734C31.0086 11.7163 30.8681 11.5524 30.8051 11.3416C30.748 11.1499 30.8227 10.8147 30.8622 10.6449C30.9017 10.4752 30.9778 10.3815 30.9061 10.4298C30.8344 10.4781 30.6529 10.8952 30.6002 11.1309C30.5475 11.3665 30.6719 11.6387 30.8651 11.8188C31.1827 12.1159 31.755 12.129 32.2102 11.9973C32.6654 11.8656 32.9127 11.9329 32.9859 11.9798C33.0591 12.0266 33.0957 12.1247 32.9815 12.0895C32.8674 12.0544 32.743 12.009 32.3361 12.091C31.9292 12.1729 31.7755 12.3764 31.6994 12.4569C31.6233 12.5374 31.5721 12.6311 31.4842 12.6135C31.3979 12.5959 30.8198 12.5315 30.4085 12.1686C30.1772 11.9637 30.0426 11.7661 29.9577 11.4265C29.8713 11.0869 30.0338 10.6786 30.1933 10.3932C30.3529 10.1092 30.568 9.91898 30.6456 9.84433C30.7232 9.76969 30.792 9.79018 30.7378 9.84287C30.6236 9.95264 30.4539 10.2337 30.3763 10.3522C30.3631 10.3727 30.3704 10.4005 30.3924 10.4122L30.5168 10.4825C30.5358 10.4927 30.5578 10.4869 30.5695 10.4693C30.6163 10.4005 30.7422 10.2117 31.1022 10.0068C31.5486 9.75212 32.1634 9.49014 32.3946 8.91054C32.5234 8.58855 32.3624 8.43487 32.3214 8.1641C32.3156 8.12458 32.2951 8.0514 32.2687 7.96651C32.32 7.96505 32.38 7.97237 32.4385 7.98115C32.6493 8.19337 32.8454 8.56952 32.9259 8.73784C33.0342 8.96177 33.1381 9.48136 33.1616 9.78579C33.185 10.0917 33.4748 10.9333 33.5406 11.0386C33.6065 11.144 33.4528 11.0225 33.365 10.9786C33.2772 10.9347 33.3006 10.9933 33.3006 10.9933C33.3006 10.9933 33.5216 11.3431 33.9065 11.6504C34.2915 11.9578 34.7584 12.1393 35.6234 11.9798C36.4884 11.8202 36.7723 11.0108 36.8352 10.9113C36.8967 10.8118 36.9904 11.0826 37.0431 11.147C37.0972 11.2114 37.1294 11.2626 37.128 11.1953C37.1265 11.1279 37.0899 10.8089 37.0899 10.8089C37.0504 10.5513 37.3416 10.2454 37.409 10.1092C37.4748 9.97313 37.6271 9.84141 37.6271 9.73456C37.6271 9.48428 37.4178 9.57356 37.5466 9.26474C37.6373 9.0452 37.8173 8.75686 37.7895 8.50073C37.7617 8.2446 37.4851 8.21679 37.4851 8.21679C37.3826 8.19191 37.4529 8.27973 37.5173 8.32071C37.5817 8.36169 37.488 8.43487 37.4251 8.51537C37.3621 8.59587 37.3197 8.67197 37.289 8.75686C37.2582 8.84175 37.2187 8.77589 37.2246 8.70857C37.229 8.64124 37.3021 8.51098 37.2948 8.39535C37.2875 8.27973 37.1426 8.39828 37.1338 8.55928C37.1265 8.72174 37.0094 8.87835 36.8777 9.02178C36.746 9.16521 36.5484 9.23839 36.3376 9.38183C36.1268 9.52526 36.0771 9.77262 35.9615 10.1283C35.8458 10.4839 35.6965 10.7225 35.5004 10.8586C35.3892 10.9362 35.1755 10.9713 34.9618 10.9172C34.7671 10.8674 34.5183 10.6318 34.3925 10.5103C34.2681 10.3888 34.2256 10.2761 34.2315 10.3625C34.2359 10.4488 34.5022 10.8191 34.6764 10.986C34.8506 11.1528 35.1491 11.185 35.4024 11.1118C35.8209 10.9918 36.1254 10.5059 36.2439 10.0478C36.364 9.58966 36.5484 9.4111 36.6259 9.37305C36.7035 9.33499 36.8074 9.35256 36.7181 9.43306C36.6303 9.51209 36.5279 9.59698 36.3888 9.98923C36.2498 10.3815 36.3464 10.6171 36.3771 10.7225C36.4064 10.8293 36.4606 10.9216 36.4005 10.9874C36.3405 11.0533 35.9893 11.5158 35.4682 11.6826C35.174 11.7763 34.9355 11.7909 34.6003 11.69C34.2651 11.589 33.9973 11.2406 33.8348 10.9581C33.6724 10.6757 33.6197 10.3932 33.5948 10.2878C33.5699 10.1824 33.6226 10.1341 33.6402 10.2088C33.6753 10.3625 33.8304 10.6523 33.8919 10.781C33.9021 10.803 33.93 10.8118 33.9519 10.7986L34.0763 10.7269C34.0939 10.7152 34.1012 10.6932 34.0924 10.6742C34.0573 10.5996 33.9607 10.3932 33.968 9.97899C33.9783 9.46379 34.0675 8.8037 33.6885 8.30607C33.4777 8.02945 33.264 8.09092 33.0108 7.98554C32.9581 7.96358 32.8308 7.93138 32.6932 7.90211C32.702 7.86698 32.7313 7.83039 32.7678 7.7938C33.0547 7.69281 33.5362 7.71623 33.7382 7.73233C33.987 7.75136 34.4876 7.9226 34.7628 8.05579C35.0379 8.18898 35.9117 8.36315 36.0361 8.35876C36.1605 8.35437 35.9776 8.42609 35.8956 8.48024C35.8136 8.53293 35.8751 8.54318 35.8751 8.54318C35.8751 8.54318 36.2893 8.52854 36.7489 8.35144C37.2085 8.17434 37.6007 7.86113 37.8978 7.03419C38.1949 6.20578 37.6402 5.553 37.5861 5.44909C37.529 5.34224 37.81 5.39786 37.892 5.38469ZM36.9801 4.7085C36.9465 4.72313 36.9128 4.63678 36.8982 4.59726C36.8835 4.55774 36.7767 4.47578 36.7767 4.47578C36.7606 4.43626 36.7767 4.38211 36.8396 4.38357C36.9143 4.38357 36.9231 4.467 36.9553 4.53286C36.9875 4.59726 37.0211 4.69093 36.9801 4.7085ZM32.1663 2.21449C32.1253 2.20717 32.0009 2.2584 32.0009 2.2584C31.9585 2.25255 31.9204 2.21156 31.9526 2.15741C31.9907 2.09301 32.0668 2.12814 32.14 2.13253C32.2131 2.13692 32.3097 2.15595 32.3053 2.19985C32.2995 2.23645 32.2073 2.22181 32.1663 2.21449ZM27.7359 5.14612C27.7096 5.17832 27.6935 5.31297 27.6935 5.31297C27.6671 5.3481 27.613 5.36127 27.5808 5.30565C27.5427 5.24125 27.6101 5.19149 27.6496 5.13002C27.6891 5.06855 27.752 4.99244 27.7886 5.01878C27.8208 5.04074 27.7637 5.11392 27.7359 5.14612ZM28.0155 10.2571C28.0491 10.2424 28.0828 10.3288 28.096 10.3698C28.1106 10.4093 28.216 10.4927 28.216 10.4927C28.2321 10.5337 28.216 10.5864 28.1516 10.5849C28.0769 10.5835 28.0696 10.5015 28.0374 10.4356C28.0067 10.3668 27.9745 10.2746 28.0155 10.2571ZM32.8469 12.7569C32.8879 12.7628 33.0123 12.7086 33.0123 12.7086C33.0547 12.7145 33.0942 12.7525 33.0635 12.8082C33.0269 12.8726 32.9508 12.8404 32.8776 12.8374C32.8044 12.8345 32.7064 12.8184 32.7108 12.773C32.7122 12.7379 32.8044 12.7496 32.8469 12.7569ZM37.2246 9.88678C37.2509 9.85458 37.2685 9.72139 37.2685 9.72139C37.2948 9.68773 37.349 9.67455 37.3812 9.72871C37.4178 9.79311 37.3504 9.84141 37.3109 9.90288C37.2699 9.96435 37.207 10.039 37.1704 10.0126C37.1397 9.99216 37.1982 9.91898 37.2246 9.88678Z" fill="white"/>
</g>
<defs>
<clipPath id="clip0_19_119">
<rect width="40" height="40" fill="white"/>
</clipPath>
</defs>
</svg>
