<svg width="40" height="40" viewBox="0 0 40 40" fill="none" xmlns="http://www.w3.org/2000/svg">
<g clip-path="url(#clip0_19_200)">
<path d="M6 4H30C31.5913 4 33.1174 4.63214 34.2426 5.75736C35.3679 6.88258 36 8.4087 36 10V34C36 35.5913 35.3679 37.1174 34.2426 38.2426C33.1174 39.3679 31.5913 40 30 40H6C4.4087 40 2.88258 39.3679 1.75736 38.2426C0.632141 37.1174 0 35.5913 0 34L0 10C0 8.4087 0.632141 6.88258 1.75736 5.75736C2.88258 4.63214 4.4087 4 6 4Z" fill="#197EFD"/>
<path d="M17.4085 22.6356L9.55846 31.3856C9.49448 31.4614 9.4561 31.5554 9.44879 31.6543C9.44148 31.7531 9.46563 31.8518 9.51777 31.9361C9.56992 32.0204 9.64739 32.0861 9.73912 32.1237C9.83084 32.1614 9.93212 32.169 10.0285 32.1456L16.7385 30.2256C16.9313 30.1729 17.1014 30.0581 17.2225 29.8991C17.3436 29.74 17.4089 29.5455 17.4085 29.3456V22.6356Z" fill="white"/>
<path d="M18.5785 22.6356L26.4085 31.3856C26.4724 31.4614 26.5108 31.5554 26.5181 31.6543C26.5254 31.7531 26.5013 31.8518 26.4492 31.9361C26.397 32.0204 26.3195 32.0861 26.2278 32.1237C26.1361 32.1614 26.0348 32.169 25.9385 32.1456L19.2285 30.2256C19.0356 30.1729 18.8655 30.0581 18.7444 29.8991C18.6233 29.74 18.558 29.5455 18.5585 29.3456L18.5785 22.6356Z" fill="white"/>
<path d="M17.3484 18.8556C17.3519 18.6599 17.2979 18.4674 17.193 18.3021C17.0881 18.1368 16.937 18.0059 16.7584 17.9256L5.40843 12.2756C5.3518 12.2464 5.28689 12.2374 5.22443 12.25C5.16197 12.2627 5.1057 12.2962 5.0649 12.3452C5.0241 12.3942 5.00122 12.4556 5.00005 12.5193C4.99887 12.583 5.01947 12.6452 5.05843 12.6956L14.0584 24.8256L17.3084 21.2156L17.3484 18.8556Z" fill="white"/>
<path d="M30.5384 12.0257L19.2284 17.7157C19.0543 17.8017 18.9072 17.934 18.8032 18.098C18.6991 18.262 18.6421 18.4515 18.6384 18.6457V21.1157L21.8384 24.7157L30.8884 12.4657C30.9275 12.4143 30.9483 12.3514 30.9477 12.2869C30.947 12.2224 30.9248 12.16 30.8846 12.1095C30.8445 12.059 30.7886 12.0233 30.7259 12.0081C30.6632 11.993 30.5972 11.9991 30.5384 12.0257Z" fill="white"/>
<path d="M32.5 15C36.6421 15 40 11.6421 40 7.5C40 3.35786 36.6421 0 32.5 0C28.3579 0 25 3.35786 25 7.5C25 11.6421 28.3579 15 32.5 15Z" fill="black"/>
<path fill-rule="evenodd" clip-rule="evenodd" d="M32.9 1.50002L36.5 7.5L32.6 9.28829L28.7963 7.6L32.3 1.50002L32.4 1.40002H32.5H32.6H32.7H32.8L32.9 1.50002ZM32.5 10.5L36.5 8.5L32.7 13.6C32.7 13.7 32.6 13.7 32.6 13.7H32.5H32.4L32.3 13.6L28.5 8.5L32.5 10.5Z" fill="white"/>
</g>
<defs>
<clipPath id="clip0_19_200">
<rect width="40" height="40" fill="white"/>
</clipPath>
</defs>
</svg>
