<svg width="40" height="40" viewBox="0 0 40 40" fill="none" xmlns="http://www.w3.org/2000/svg">
<g clip-path="url(#clip0_329_4221)">
<path d="M6 4H30C31.5913 4 33.1174 4.63214 34.2426 5.75736C35.3679 6.88258 36 8.4087 36 10V34C36 35.5913 35.3679 37.1174 34.2426 38.2426C33.1174 39.3679 31.5913 40 30 40H6C4.4087 40 2.88258 39.3679 1.75736 38.2426C0.632141 37.1174 0 35.5913 0 34L0 10C0 8.4087 0.632141 6.88258 1.75736 5.75736C2.88258 4.63214 4.4087 4 6 4Z" fill="#CD0124"/>
<circle cx="17.5" cy="21.5" r="13.5" fill="white"/>
<path d="M20.9867 22.7467C20.9867 22.5333 20.9867 22.4267 20.7733 22.32C20.0267 21.7867 19.1733 21.2533 18.4267 20.72C18.3477 20.6673 18.2549 20.6391 18.16 20.6391C18.0651 20.6391 17.9723 20.6673 17.8933 20.72L15.5467 22.4267C15.4487 22.4766 15.3667 22.5531 15.3102 22.6474C15.2536 22.7417 15.2246 22.85 15.2267 22.96C15.2217 23.19 15.1473 23.413 15.0133 23.6C14.9606 23.6789 14.9324 23.7717 14.9324 23.8667C14.9324 23.9616 14.9606 24.0544 15.0133 24.1333C15.8667 25.84 16.6133 27.5467 17.4667 29.2533C17.7867 29.7867 18 30.4267 18.32 31.0667C18.4267 30.96 18.4267 30.8533 18.5333 30.7467C19.4933 28.6133 20.3467 26.48 21.3067 24.3467C21.4133 24.1333 21.4133 24.0267 21.2 23.92C21.0801 23.7523 20.9987 23.5601 20.9619 23.3572C20.925 23.1544 20.9334 22.9459 20.9867 22.7467Z" fill="#CD0124"/>
<path d="M17.36 19.9733C15.2267 18.48 13.0934 16.9867 11.0667 15.6L10.96 15.7067C11.0667 15.92 11.0667 16.0267 11.1734 16.24L13.4134 21.04C13.6267 21.4667 13.7334 21.8933 14.3734 22C14.5577 22.0166 14.7429 21.9796 14.9067 21.8933C15.5467 21.36 16.2934 20.9333 16.9334 20.4L17.36 19.9733Z" fill="#CD0124"/>
<path d="M18 6C14.8355 6 11.7421 6.93838 9.11088 8.69649C6.4797 10.4546 4.42894 12.9534 3.21793 15.8771C2.00693 18.8007 1.69008 22.0177 2.30744 25.1214C2.92481 28.2251 4.44866 31.0761 6.6863 33.3137C8.92394 35.5513 11.7749 37.0752 14.8786 37.6926C17.9823 38.3099 21.1993 37.9931 24.1229 36.7821C27.0466 35.5711 29.5454 33.5203 31.3035 30.8891C33.0616 28.2579 34 25.1645 34 22C34 17.7565 32.3143 13.6869 29.3137 10.6863C26.3131 7.68571 22.2435 6 18 6V6ZM26.64 15.28C26.4267 15.28 26.32 15.3867 26.2133 15.6C25.36 17.7333 24.4 19.8667 23.5467 22V22.4267C23.6319 22.607 23.6772 22.8036 23.6795 23.003C23.6818 23.2024 23.6411 23.4 23.5601 23.5823C23.4791 23.7645 23.3597 23.9271 23.2101 24.0591C23.0606 24.191 22.8843 24.2891 22.6933 24.3467C22.5867 24.3467 22.48 24.4533 22.3733 24.6667C21.4133 26.8 20.4533 29.04 19.6 31.1733C19.5473 31.2523 19.5191 31.3451 19.5191 31.44C19.5191 31.5349 19.5473 31.6277 19.6 31.7067C19.7993 31.9802 19.8881 32.319 19.8485 32.6551C19.809 32.9913 19.644 33.3002 19.3867 33.52C19.1631 33.7409 18.867 33.8734 18.5533 33.893C18.2396 33.9126 17.9294 33.818 17.68 33.6267C17.5468 33.5357 17.4329 33.4194 17.3447 33.2844C17.2565 33.1493 17.1958 32.9982 17.1661 32.8397C17.1363 32.6812 17.1382 32.5184 17.1715 32.3605C17.2047 32.2027 17.2688 32.053 17.36 31.92C17.4123 31.8214 17.4397 31.7116 17.4397 31.6C17.4397 31.4884 17.4123 31.3786 17.36 31.28C16.2933 29.1467 15.3333 27.0133 14.2667 24.88C14.2181 24.7716 14.1444 24.6763 14.0517 24.6021C13.9589 24.5279 13.8498 24.4769 13.7333 24.4533C13.516 24.4172 13.3106 24.329 13.1348 24.1962C12.9589 24.0635 12.8178 23.8901 12.7235 23.691C12.6292 23.4919 12.5844 23.2729 12.5931 23.0527C12.6018 22.8325 12.6636 22.6177 12.7733 22.4267C12.8261 22.3477 12.8542 22.2549 12.8542 22.16C12.8542 22.0651 12.8261 21.9723 12.7733 21.8933C11.8133 19.76 10.8533 17.7333 9.78667 15.6C9.78667 15.4933 9.68001 15.3867 9.36001 15.3867C9.04631 15.3426 8.7577 15.1907 8.54364 14.9572C8.32958 14.7237 8.20339 14.423 8.18667 14.1067C8.20639 13.8103 8.30608 13.5249 8.47513 13.2807C8.64417 13.0365 8.87625 12.8428 9.14667 12.72C9.43375 12.6088 9.75064 12.6012 10.0427 12.6986C10.3348 12.7959 10.5837 12.9921 10.7467 13.2533C10.8533 13.4667 10.96 13.4667 11.28 13.4667H24.8267C25.04 13.4667 25.2533 13.4667 25.36 13.1467C25.5055 12.8954 25.7355 12.7039 26.0089 12.6063C26.2824 12.5086 26.5816 12.5111 26.8533 12.6133C27.1183 12.7137 27.3492 12.8873 27.5192 13.1139C27.6892 13.3406 27.7912 13.6109 27.8133 13.8933C27.8173 14.227 27.7009 14.5508 27.4853 14.8055C27.2698 15.0602 26.9697 15.2287 26.64 15.28Z" fill="#CD0124"/>
<path d="M18 19.2267C18.079 19.2794 18.1718 19.3076 18.2667 19.3076C18.3616 19.3076 18.4544 19.2794 18.5334 19.2267C20.56 17.7333 22.5867 16.3467 24.5067 14.8533C24.6134 14.7467 24.72 14.7467 24.72 14.64V14.5333H11.28C11.4021 14.5781 11.5117 14.6512 11.6 14.7467L18 19.2267Z" fill="#CD0124"/>
<path d="M19.0667 19.9733C19.92 20.6133 20.7733 21.1467 21.6267 21.68C21.84 21.7867 22.16 21.68 22.48 21.68C22.5867 21.68 22.6933 21.4667 22.6933 21.36C23.44 19.6533 24.1867 17.84 24.9333 16.1333C24.9333 16.0267 25.04 15.92 25.04 15.8133H24.9333C23.12 17.0933 21.0933 18.48 19.0667 19.9733Z" fill="#CD0124"/>
<path d="M32.5 15C36.6421 15 40 11.6421 40 7.5C40 3.35786 36.6421 0 32.5 0C28.3579 0 25 3.35786 25 7.5C25 11.6421 28.3579 15 32.5 15Z" fill="black"/>
<path fill-rule="evenodd" clip-rule="evenodd" d="M32.9 1.50002L36.5 7.5L32.6 9.28829L28.7963 7.6L32.3 1.50002L32.4 1.40002H32.5H32.6H32.7H32.8L32.9 1.50002ZM32.5 10.5L36.5 8.5L32.7 13.6C32.7 13.7 32.6 13.7 32.6 13.7H32.5H32.4L32.3 13.6L28.5 8.5L32.5 10.5Z" fill="white"/>
</g>
<defs>
<clipPath id="clip0_329_4221">
<rect width="40" height="40" fill="white"/>
</clipPath>
</defs>
</svg>
