<svg width="40" height="40" viewBox="0 0 40 40" fill="none" xmlns="http://www.w3.org/2000/svg">
<g clip-path="url(#clip0_19_3399)">
<path d="M6 4H30C31.5913 4 33.1174 4.63214 34.2426 5.75736C35.3679 6.88258 36 8.4087 36 10V34C36 35.5913 35.3679 37.1174 34.2426 38.2426C33.1174 39.3679 31.5913 40 30 40H6C4.4087 40 2.88258 39.3679 1.75736 38.2426C0.632141 37.1174 0 35.5913 0 34L0 10C0 8.4087 0.632141 6.88258 1.75736 5.75736C2.88258 4.63214 4.4087 4 6 4V4Z" fill="#F5AC37"/>
<g clip-path="url(#clip1_19_3399)">
<path d="M18.75 23.85H26C26.16 23.85 26.23 23.85 26.24 23.63C26.3 22.8378 26.3 22.0422 26.24 21.25C26.2537 21.216 26.2573 21.1789 26.2503 21.1429C26.2434 21.107 26.2262 21.0738 26.2008 21.0474C26.1755 21.021 26.143 21.0025 26.1074 20.9941C26.0718 20.9856 26.0345 20.9877 26 21H11.6C11.42 21 11.37 21.07 11.37 21.25V23.53C11.37 23.82 11.37 23.82 11.66 23.82L18.75 23.85ZM25.42 18.37C25.4398 18.3116 25.4398 18.2484 25.42 18.19C25.308 17.9064 25.1673 17.635 25 17.38C24.7534 16.9508 24.4582 16.5515 24.12 16.19C23.9634 15.973 23.7784 15.7779 23.57 15.61C22.5575 14.6777 21.3316 14.0081 20 13.66C19.3447 13.5051 18.6734 13.4279 18 13.43H11.57C11.39 13.43 11.37 13.51 11.37 13.68V18.23C11.37 18.42 11.37 18.47 11.6 18.47H25.34C25.34 18.47 25.46 18.47 25.48 18.37H25.42ZM25.42 26.52C25.2178 26.49 25.0122 26.49 24.81 26.52H11.61C11.43 26.52 11.37 26.52 11.37 26.77V31.22C11.37 31.42 11.37 31.48 11.61 31.48H17.71C17.9986 31.5019 18.2888 31.4783 18.57 31.41C19.4598 31.3424 20.3336 31.1366 21.16 30.8C21.4634 30.6816 21.7548 30.5342 22.03 30.36H22.11C23.5658 29.5366 24.7269 28.2775 25.43 26.76C25.43 26.76 25.52 26.57 25.43 26.52H25.42ZM9 33.78V26.7C9 26.53 9 26.5 8.81 26.5H6.2C6.06 26.5 6 26.5 6 26.3V23.86H8.76C8.92 23.86 8.98 23.86 8.98 23.65V21.24C8.98 21.08 8.98 21.05 8.79 21.05H6.2C6.06 21.05 6 21.05 6 20.84V18.59C6 18.44 6 18.41 6.19 18.41H8.75C8.93 18.41 8.98 18.41 8.98 18.16V11.26C9 11.05 9 11 9.22 11H18.15C18.7983 11.0273 19.4435 11.1041 20.08 11.23C21.4002 11.4967 22.6608 12.0016 23.8 12.72C24.5722 13.2069 25.2781 13.7918 25.9 14.46C26.3714 14.9891 26.7963 15.5579 27.17 16.16C27.5504 16.7916 27.8622 17.4621 28.1 18.16C28.1124 18.2433 28.1571 18.3184 28.2245 18.369C28.2919 18.4195 28.3765 18.4414 28.46 18.43H30.59C30.86 18.43 30.86 18.43 30.88 18.72V20.82C30.88 21.02 30.8 21.07 30.61 21.07H29C28.83 21.07 28.79 21.07 28.8 21.31C28.86 22.0888 28.86 22.8712 28.8 23.65C28.8 23.87 28.8 23.89 29.02 23.89H30.9C30.99 24.01 30.9 24.12 30.9 24.24C30.9201 24.3893 30.9201 24.5407 30.9 24.69V26.2C30.9 26.42 30.85 26.48 30.67 26.48H28.39C28.3121 26.468 28.2325 26.4861 28.1675 26.5307C28.1025 26.5753 28.0569 26.643 28.04 26.72C27.5155 28.2026 26.6606 29.5465 25.54 30.65C25.1345 31.0406 24.7072 31.4079 24.26 31.75C23.79 32.04 23.32 32.35 22.84 32.59C21.9459 33.0407 20.9984 33.3767 20.02 33.59C19.1043 33.7682 18.1728 33.852 17.24 33.84H9V33.78Z" fill="#FEFEFD"/>
</g>
<path d="M32.5 15C36.6421 15 40 11.6421 40 7.5C40 3.35786 36.6421 0 32.5 0C28.3579 0 25 3.35786 25 7.5C25 11.6421 28.3579 15 32.5 15Z" fill="black"/>
<path d="M33.2859 5.1042C33.4908 5.06029 33.7748 5.04858 33.8392 5.04858C33.9036 5.04858 33.9607 5.01492 33.747 4.90661C33.5318 4.79977 33.1805 4.69585 32.8629 4.6578C32.5453 4.61974 31.8004 4.63584 31.8633 4.75732C31.8633 4.75732 31.9789 4.99004 32.0096 5.34131C32.0389 5.69257 32.0858 6.39804 32.2907 6.68491C32.1765 6.25314 32.1633 5.78771 32.1384 5.58719C32.1253 5.47596 32.1223 5.28422 32.115 5.17299C32.1136 5.14372 32.1472 5.14372 32.1575 5.17006C32.1882 5.25349 32.2438 5.394 32.2599 5.47596C32.3024 5.68526 32.3258 5.92236 32.3214 5.98969C32.317 6.05848 32.3756 6.08775 32.478 5.98969C32.5805 5.89163 32.9025 5.61354 33.0488 5.53597C33.1952 5.45839 33.3957 5.34131 33.463 5.2974C33.5318 5.25349 33.6709 5.17299 33.463 5.20812C33.2479 5.24471 33.0708 5.35155 32.9537 5.39253C32.9303 5.40131 32.9361 5.35887 32.9537 5.34131C33.021 5.27251 33.1557 5.13201 33.2859 5.1042Z" fill="#0F0F10" fill-opacity="0.15"/>
<path d="M31.8107 4.23044C31.8151 4.24654 31.8297 4.25532 31.8458 4.25239C32.0171 4.2158 32.9436 4.04602 33.9081 4.47925C33.9227 4.48657 33.9403 4.47925 33.9476 4.46462L33.9842 4.38558C33.9915 4.37095 33.9842 4.35192 33.9696 4.34606C33.3943 4.087 32.8367 4.03724 32.4679 4.04163C32.1342 4.04602 31.8941 4.09139 31.8136 4.11042C31.7975 4.11481 31.7873 4.13091 31.7917 4.14701L31.8107 4.23044Z" fill="#0F0F10" fill-opacity="0.15"/>
<path d="M29.8991 5.91361C29.7103 6.17121 29.362 6.8313 29.4981 6.83423C29.4981 6.83423 29.7586 6.84594 30.0792 6.9923C30.3997 7.1372 31.0378 7.44163 31.3891 7.40358C30.9573 7.29234 30.5431 7.07719 30.3573 6.99962C30.2533 6.95717 30.085 6.86643 29.984 6.81667C29.9577 6.80349 29.9738 6.77422 30.0031 6.77861C30.0909 6.79325 30.2402 6.81228 30.3192 6.83862C30.5226 6.90302 30.7407 6.99816 30.7978 7.03621C30.8549 7.07426 30.909 7.03767 30.8739 6.90009C30.8388 6.76251 30.7539 6.34685 30.7568 6.17999C30.7597 6.0146 30.7554 5.78189 30.751 5.70139C30.7466 5.62089 30.7436 5.45989 30.6719 5.65748C30.5987 5.86239 30.6046 6.07022 30.5841 6.19317C30.5797 6.21658 30.5461 6.1917 30.5387 6.16828C30.5124 6.07608 30.4538 5.88873 30.4934 5.7614C30.5548 5.56088 30.6836 5.30768 30.7144 5.25206C30.7451 5.19644 30.7436 5.12911 30.5461 5.26377C30.3485 5.39842 30.0879 5.65602 29.8991 5.91361Z" fill="#0F0F10" fill-opacity="0.15"/>
<path d="M28.9287 6.60002L29.0121 6.62198C29.0282 6.62637 29.0443 6.61759 29.0487 6.60149C29.0999 6.43463 29.4044 5.54183 30.2533 4.91247C30.2664 4.90223 30.2694 4.88466 30.2591 4.87003L30.2079 4.79977C30.1977 4.7866 30.1786 4.78367 30.1655 4.79392C29.659 5.16861 29.3429 5.63257 29.1658 5.95603C29.0063 6.24876 28.9302 6.48147 28.9053 6.56051C28.9024 6.57953 28.9111 6.59563 28.9287 6.60002Z" fill="#0F0F10" fill-opacity="0.15"/>
<path d="M31.6085 8.57588C31.2909 8.88909 30.8928 9.13059 30.7304 9.25207C30.6411 9.31939 30.4757 9.41599 30.382 9.47746C30.3571 9.49356 30.3396 9.46429 30.3586 9.44234C30.4157 9.37501 30.5093 9.25646 30.5723 9.20084C30.7333 9.06033 30.9265 8.92129 30.9879 8.89202C31.0494 8.86275 31.0465 8.79688 30.9104 8.75736C30.7743 8.71638 30.3732 8.57441 30.2327 8.4866C30.0922 8.39878 29.8917 8.28315 29.82 8.2451C29.7483 8.20704 29.6092 8.12655 29.7424 8.28901C29.88 8.45732 30.0615 8.55831 30.1552 8.64028C30.1742 8.65637 30.1347 8.67247 30.1112 8.66516C30.019 8.64174 29.8288 8.59344 29.7395 8.49391C29.6004 8.33731 29.4497 8.09581 29.4175 8.04166C29.3868 7.98604 29.3267 7.95237 29.3399 8.19241C29.3531 8.43244 29.438 8.7881 29.5624 9.08229C29.6853 9.37648 30.0703 10.0161 30.1449 9.90191C30.1449 9.90191 30.2898 9.6853 30.5796 9.48478C30.8709 9.28573 31.4592 8.89641 31.6085 8.57588Z" fill="#0F0F10" fill-opacity="0.15"/>
<path d="M28.8893 8.26566C28.8878 8.24956 28.8732 8.23639 28.8571 8.23785L28.7707 8.24517C28.7546 8.24663 28.7415 8.26127 28.7429 8.27737C28.8029 8.90526 29.0371 9.4146 29.223 9.73221C29.3913 10.0205 29.5508 10.205 29.6064 10.2664C29.6182 10.2796 29.6372 10.2796 29.6504 10.2679L29.7118 10.2079C29.7235 10.1962 29.7235 10.1786 29.7133 10.1669C29.5977 10.0381 28.9903 9.31654 28.8893 8.26566Z" fill="#0F0F10" fill-opacity="0.15"/>
<path d="M31.6702 10.6045C31.4667 10.6528 31.1828 10.6704 31.1184 10.6718C31.0554 10.6733 30.9969 10.7084 31.2135 10.8109C31.4301 10.9133 31.7843 11.0085 32.1019 11.0407C32.4195 11.0729 33.1645 11.0392 33.0987 10.9192C33.0987 10.9192 32.9772 10.6894 32.9391 10.3381C32.9011 9.98833 32.8396 9.28433 32.6288 9.00039C32.7532 9.42923 32.7752 9.89466 32.8045 10.0937C32.8206 10.2049 32.8279 10.3952 32.8367 10.5079C32.8396 10.5372 32.8045 10.5387 32.7942 10.5108C32.762 10.4274 32.7035 10.2898 32.6845 10.2079C32.6376 10 32.6083 9.76293 32.6113 9.69561C32.6142 9.62682 32.5557 9.59901 32.4561 9.69853C32.3551 9.79806 32.0405 10.0835 31.8956 10.1654C31.7507 10.2474 31.5531 10.3689 31.4858 10.4142C31.4184 10.4596 31.2808 10.543 31.4872 10.5035C31.7009 10.4625 31.8765 10.3513 31.9936 10.3074C32.017 10.2986 32.0112 10.3411 31.9951 10.3586C31.9322 10.4289 31.799 10.5738 31.6702 10.6045Z" fill="#0F0F10" fill-opacity="0.15"/>
<path d="M33.1644 11.4461C33.16 11.43 33.1439 11.4212 33.1292 11.4256C32.9595 11.4666 32.0359 11.6568 31.0626 11.2441C31.048 11.2382 31.0304 11.2441 31.0231 11.2602L30.988 11.3392C30.9806 11.3539 30.988 11.3729 31.0041 11.3787C31.5851 11.6246 32.1442 11.6627 32.5131 11.6495C32.8468 11.6378 33.0853 11.5866 33.1658 11.5661C33.1819 11.5617 33.1922 11.5456 33.1878 11.528L33.1644 11.4461Z" fill="#0F0F10" fill-opacity="0.15"/>
<path d="M35.0641 9.81997C35.2544 9.56383 35.6071 8.90667 35.471 8.90081C35.471 8.90081 35.2105 8.88764 34.8914 8.73982C34.5709 8.59199 33.9357 8.28463 33.5844 8.32122C34.0162 8.43538 34.4274 8.65346 34.6133 8.73104C34.7172 8.77348 34.8841 8.86569 34.9851 8.91545C35.0114 8.92862 34.9953 8.9579 34.9661 8.95351C34.8782 8.93887 34.729 8.91838 34.6499 8.89203C34.4465 8.82617 34.2299 8.72957 34.1728 8.69152C34.1157 8.65346 34.0615 8.69005 34.0952 8.82763C34.1289 8.96521 34.2123 9.38235 34.2079 9.54773C34.2035 9.71312 34.2064 9.94584 34.2108 10.0263C34.2152 10.1068 34.2167 10.2678 34.2884 10.0702C34.363 9.86534 34.3572 9.65751 34.3791 9.53603C34.3835 9.51261 34.4172 9.53749 34.4231 9.56091C34.4494 9.65311 34.505 9.84046 34.4655 9.96779C34.4026 10.1683 34.2723 10.4201 34.2401 10.4757C34.2094 10.5313 34.2094 10.5986 34.4084 10.4654C34.6119 10.3322 34.8739 10.0761 35.0641 9.81997Z" fill="#0F0F10" fill-opacity="0.15"/>
<path d="M36.039 9.13797L35.9556 9.11602C35.9395 9.11163 35.9234 9.12041 35.919 9.13651C35.8663 9.30336 35.5575 10.1932 34.7042 10.8182C34.691 10.8285 34.6881 10.846 34.6969 10.8607L34.7466 10.9309C34.7569 10.9441 34.7759 10.947 34.7891 10.9382C35.2984 10.5665 35.616 10.1054 35.7946 9.78196C35.9556 9.48924 36.0332 9.25799 36.058 9.17895C36.0654 9.15993 36.0566 9.14383 36.039 9.13797Z" fill="#0F0F10" fill-opacity="0.15"/>
<path d="M34.6236 6.21804C34.6485 6.20194 34.666 6.23121 34.647 6.25316C34.5899 6.32195 34.4977 6.44051 34.4348 6.49612C34.2753 6.63809 34.0835 6.77714 34.0221 6.80787C33.9606 6.83861 33.965 6.90301 34.1011 6.94253C34.2372 6.98205 34.6397 7.12109 34.7802 7.20744C34.9207 7.29526 35.1227 7.40942 35.1959 7.44601C35.2676 7.4826 35.4081 7.5631 35.2734 7.40064C35.1344 7.23379 34.9529 7.1328 34.8578 7.0523C34.8388 7.0362 34.8783 7.0201 34.9017 7.02595C34.9939 7.04937 35.1842 7.09621 35.2749 7.19427C35.4154 7.34941 35.5691 7.58945 35.5998 7.6436C35.632 7.69775 35.6906 7.73142 35.6759 7.49285C35.6613 7.25281 35.572 6.89716 35.4476 6.60443C35.3232 6.31171 34.9324 5.67503 34.8592 5.79066C34.8592 5.79066 34.7173 6.00874 34.4275 6.21072C34.1348 6.41416 33.5493 6.80787 33.4029 7.12987C33.7191 6.81373 34.1143 6.5693 34.2753 6.44636C34.366 6.37903 34.5299 6.28097 34.6236 6.21804Z" fill="#0F0F10" fill-opacity="0.15"/>
<path d="M36.2703 7.40505C36.2059 6.77863 35.9673 6.27075 35.7785 5.95315C35.6072 5.66628 35.4462 5.48332 35.3906 5.42185C35.3789 5.40868 35.3599 5.40868 35.3467 5.42039L35.2852 5.48186C35.2735 5.49357 35.2735 5.51113 35.2838 5.52284C35.4023 5.65164 36.0141 6.36881 36.1239 7.41969C36.1254 7.43579 36.14 7.4475 36.1561 7.44604L36.2425 7.43725C36.26 7.43579 36.2717 7.42115 36.2703 7.40505Z" fill="#0F0F10" fill-opacity="0.15"/>
<path d="M34.8549 4.07906C34.8769 3.981 34.893 3.85367 34.8915 3.7556C34.8915 3.74097 34.8783 3.72926 34.8637 3.73072L34.6559 3.75121C34.6427 3.75268 34.6339 3.76292 34.6325 3.77609C34.631 3.85806 34.6178 3.94148 34.5988 4.01759C34.5959 4.03076 34.6032 4.0454 34.6178 4.04833L34.8242 4.09663C34.8374 4.10248 34.852 4.0937 34.8549 4.07906Z" fill="white"/>
<path d="M34.6048 4.13615C34.5843 4.13175 34.5638 4.14346 34.5565 4.16249C34.5111 4.29422 34.4628 4.38496 34.4628 4.38496C34.4628 4.38496 34.6575 4.56645 34.6897 4.51376C34.7072 4.48595 34.7643 4.38057 34.8126 4.22982C34.8199 4.2064 34.8068 4.18298 34.7833 4.17713L34.6048 4.13615Z" fill="white"/>
<path d="M34.7906 3.28291C34.7848 3.26974 34.7687 3.26242 34.7541 3.26828L34.5506 3.34292C34.5345 3.34877 34.5272 3.36634 34.5345 3.38244C34.5579 3.43366 34.5799 3.49075 34.6018 3.55661C34.6106 3.58442 34.6179 3.61369 34.6223 3.6415C34.6253 3.65613 34.6384 3.66638 34.6531 3.66492L34.855 3.64443C34.8711 3.64296 34.8829 3.62833 34.8814 3.61223C34.8668 3.48196 34.836 3.37512 34.7906 3.28291Z" fill="white"/>
<path d="M34.4613 3.24189C34.473 3.26092 34.495 3.26824 34.5155 3.26092L34.6765 3.20237C34.7057 3.19213 34.716 3.15554 34.6969 3.13066C34.6369 3.05162 34.5667 2.9843 34.4891 2.9199C34.4715 2.90526 34.4452 2.90526 34.4291 2.92136L34.331 3.00918C34.312 3.02674 34.3106 3.05748 34.3296 3.0765C34.3749 3.12041 34.4189 3.17457 34.4613 3.24189Z" fill="white"/>
<path d="M34.3369 2.80722C34.2505 2.75599 34.151 2.70916 34.05 2.6711C34.028 2.66232 34.0032 2.67257 33.9929 2.69306L33.9432 2.79258C33.9315 2.816 33.9417 2.84527 33.9666 2.85406C34.0559 2.89065 34.1364 2.9287 34.189 2.96383C34.1905 2.96529 34.192 2.96529 34.1934 2.96675C34.211 2.97846 34.233 2.977 34.2491 2.96236L34.3427 2.87894C34.3661 2.85991 34.3632 2.82332 34.3369 2.80722Z" fill="white"/>
<path d="M33.548 2.51887C33.4968 2.50423 33.4456 2.70914 33.5261 2.71792C33.5861 2.72524 33.6915 2.75451 33.8056 2.79256C33.8261 2.79988 33.8481 2.7911 33.8569 2.77207L33.9081 2.66962C33.9198 2.6462 33.9081 2.61839 33.8832 2.61108C33.6973 2.55107 33.548 2.51887 33.548 2.51887Z" fill="white"/>
<path d="M30.3046 3.75709C30.3763 3.79807 30.4407 3.85076 30.4993 3.90345C30.5095 3.91369 30.5256 3.91223 30.5358 3.90198L30.6793 3.74538C30.6895 3.73513 30.6881 3.71903 30.6778 3.70879C30.6032 3.64146 30.5007 3.56535 30.4144 3.51998C30.4012 3.51266 30.3851 3.51852 30.3792 3.53169L30.2958 3.72342C30.2885 3.7366 30.2929 3.75123 30.3046 3.75709Z" fill="white"/>
<path d="M30.754 4.20206C30.754 4.20206 31.0072 4.12156 30.978 4.0674C30.9619 4.03813 30.8975 3.93714 30.7906 3.82151C30.7745 3.80395 30.7467 3.80395 30.7306 3.82151L30.6062 3.95617C30.5916 3.97227 30.5916 3.99569 30.6062 4.01178C30.6969 4.1157 30.754 4.20206 30.754 4.20206Z" fill="white"/>
<path d="M30.2826 3.45857C30.1625 3.4088 30.0528 3.38392 29.9503 3.37807C29.9357 3.3766 29.9225 3.38685 29.9196 3.40295L29.8859 3.6181C29.883 3.6342 29.8947 3.6503 29.9123 3.65176C29.9679 3.65616 30.0294 3.66494 30.0967 3.67811C30.126 3.68396 30.1538 3.69128 30.1816 3.70153C30.1962 3.70592 30.2108 3.70006 30.2182 3.68543L30.3001 3.49955C30.3045 3.48199 30.2972 3.46442 30.2826 3.45857Z" fill="white"/>
<path d="M29.7733 3.3839C29.6753 3.39707 29.5816 3.42634 29.4879 3.46147C29.466 3.47025 29.4543 3.4922 29.4587 3.51416L29.4879 3.64296C29.4938 3.6693 29.5201 3.68394 29.545 3.67662C29.6065 3.65906 29.6738 3.64588 29.7543 3.64296C29.7763 3.64149 29.7938 3.62539 29.7982 3.6049L29.826 3.43512C29.8304 3.40585 29.8041 3.37951 29.7733 3.3839Z" fill="white"/>
<path d="M29.1763 3.88737C29.2509 3.82736 29.3256 3.77614 29.3812 3.74687C29.3826 3.7454 29.3841 3.7454 29.3856 3.74394C29.4046 3.73516 29.4134 3.7132 29.409 3.69417L29.3812 3.57123C29.3739 3.54196 29.3402 3.52732 29.3138 3.54196C29.226 3.59172 29.1382 3.65758 29.0548 3.72637C29.0372 3.74101 29.0328 3.76736 29.046 3.78638L29.1089 3.87713C29.125 3.89908 29.1558 3.90347 29.1763 3.88737Z" fill="white"/>
<path d="M28.9216 3.84346C28.7781 3.97519 28.6771 4.08935 28.6771 4.08935C28.6391 4.12594 28.7928 4.2723 28.8411 4.20644C28.8762 4.15814 28.9538 4.07911 29.043 4.00007C29.0591 3.98543 29.0621 3.96202 29.0504 3.94445L28.986 3.85078C28.9699 3.82883 28.9406 3.8259 28.9216 3.84346Z" fill="white"/>
<path d="M28.2307 7.45126C28.3024 7.41175 28.3814 7.38247 28.4575 7.36052C28.4707 7.35613 28.4795 7.34296 28.4751 7.32832L28.4151 7.12488C28.4107 7.1117 28.396 7.10292 28.3829 7.10731C28.2863 7.13659 28.1692 7.18488 28.0843 7.23611C28.0711 7.24343 28.0682 7.26099 28.077 7.2727L28.1985 7.44395C28.2058 7.45565 28.2189 7.45858 28.2307 7.45126Z" fill="white"/>
<path d="M28.5365 7.0693C28.5131 7.07369 28.4984 7.09857 28.5058 7.12052L28.557 7.29616C28.5628 7.31665 28.5833 7.32836 28.6038 7.32543C28.7399 7.29908 28.8439 7.29616 28.8439 7.29616C28.8439 7.29616 28.9053 7.0371 28.8439 7.03563C28.8102 7.03417 28.6902 7.0371 28.5365 7.0693Z" fill="white"/>
<path d="M27.935 7.73376C27.9686 7.68839 28.0067 7.64009 28.052 7.58887C28.0711 7.56691 28.093 7.54642 28.1164 7.52886C28.1282 7.51861 28.1296 7.50251 28.1208 7.48934L28.0037 7.32395C27.995 7.31078 27.9759 7.30785 27.9628 7.3181C27.8574 7.39567 27.7798 7.47617 27.7213 7.56106C27.7125 7.57277 27.7154 7.59033 27.7257 7.59911L27.891 7.73962C27.9057 7.7484 27.9247 7.74694 27.935 7.73376Z" fill="white"/>
<path d="M27.7124 8.0938C27.7373 8.10259 27.7651 8.08795 27.771 8.06161C27.7871 8.00013 27.812 7.93573 27.85 7.86548C27.8603 7.84645 27.8559 7.82304 27.8398 7.8084L27.708 7.69716C27.6846 7.67667 27.648 7.68546 27.6363 7.71473C27.5968 7.80547 27.5734 7.90061 27.5558 8.00013C27.5514 8.02209 27.5646 8.04551 27.5866 8.05136L27.7124 8.0938Z" fill="white"/>
<path d="M27.5355 8.18891C27.5325 8.2899 27.5428 8.39967 27.5589 8.50505C27.5618 8.52847 27.5838 8.54457 27.6072 8.54311L27.7184 8.53579C27.7448 8.53433 27.7638 8.51091 27.7609 8.48456C27.7492 8.38943 27.7418 8.30015 27.7462 8.23721C27.7462 8.23575 27.7462 8.23428 27.7462 8.23136C27.7477 8.21087 27.7345 8.19184 27.7155 8.18452L27.5969 8.145C27.5662 8.13769 27.5355 8.15818 27.5355 8.18891Z" fill="white"/>
<path d="M27.676 9.01736C27.6891 9.06859 27.8926 9.01151 27.8604 8.93687C27.837 8.88125 27.8092 8.7744 27.7872 8.65731C27.7828 8.63682 27.7638 8.62219 27.7433 8.62365L27.6291 8.63097C27.6043 8.63243 27.5852 8.65585 27.5911 8.6822C27.6306 8.871 27.676 9.01736 27.676 9.01736Z" fill="white"/>
<path d="M30.1171 10.9508C30.0981 11.0489 30.0835 11.1762 30.0878 11.2743C30.0878 11.2889 30.101 11.3006 30.1171 11.2992L30.325 11.2743C30.3381 11.2728 30.3469 11.2611 30.3469 11.2479C30.3469 11.166 30.3586 11.0825 30.3747 11.0064C30.3776 10.9933 30.3689 10.9786 30.3557 10.9757L30.1479 10.9318C30.1332 10.9289 30.12 10.9376 30.1171 10.9508Z" fill="white"/>
<path d="M30.3662 10.8878C30.3867 10.8922 30.4072 10.8805 30.4145 10.86C30.4569 10.7268 30.5038 10.6361 30.5038 10.6361C30.5038 10.6361 30.3062 10.459 30.274 10.5117C30.2579 10.5395 30.2022 10.6463 30.1569 10.7985C30.1496 10.822 30.1642 10.8454 30.1876 10.8498L30.3662 10.8878Z" fill="white"/>
<path d="M30.1992 11.747C30.2065 11.7602 30.2211 11.766 30.2358 11.7616L30.4378 11.6826C30.4539 11.6768 30.4612 11.6592 30.4539 11.6431C30.429 11.5919 30.4056 11.5348 30.3821 11.4704C30.3719 11.4426 30.3646 11.4148 30.3587 11.3855C30.3558 11.3709 30.3426 11.3606 30.3265 11.3621L30.1245 11.387C30.1084 11.3884 30.0967 11.4031 30.0997 11.4192C30.1172 11.548 30.1524 11.6548 30.1992 11.747Z" fill="white"/>
<path d="M30.5285 11.7792C30.5168 11.7601 30.4934 11.7528 30.4729 11.7616L30.3134 11.8245C30.2841 11.8363 30.2753 11.8714 30.2943 11.8963C30.3558 11.9738 30.429 12.0397 30.5066 12.1026C30.5241 12.1173 30.5505 12.1158 30.5666 12.0997L30.6632 12.009C30.6822 11.9914 30.6822 11.9607 30.6632 11.9416C30.6178 11.8992 30.5724 11.8465 30.5285 11.7792Z" fill="white"/>
<path d="M30.6632 12.211C30.751 12.2607 30.852 12.3046 30.953 12.3412C30.975 12.3485 30.9998 12.3383 31.0101 12.3178L31.0569 12.2168C31.0686 12.1934 31.0569 12.1641 31.032 12.1553C30.9428 12.1202 30.8608 12.0836 30.8067 12.05C30.8052 12.0485 30.8037 12.0485 30.8023 12.047C30.7847 12.0353 30.7613 12.0382 30.7466 12.0514L30.6544 12.1378C30.6325 12.1597 30.6369 12.1963 30.6632 12.211Z" fill="white"/>
<path d="M31.458 12.4818C31.5093 12.4949 31.5561 12.2886 31.4756 12.2813C31.4156 12.2754 31.3087 12.2491 31.1946 12.2125C31.1741 12.2066 31.1521 12.2154 31.1433 12.2344L31.095 12.3383C31.0848 12.3618 31.0965 12.3896 31.1214 12.3969C31.3087 12.4525 31.458 12.4818 31.458 12.4818Z" fill="white"/>
<path d="M34.6486 11.2611C34.5784 11.2187 34.5125 11.1675 34.4554 11.1133C34.4452 11.1031 34.4291 11.1045 34.4188 11.1148L34.2739 11.2699C34.2637 11.2802 34.2651 11.2963 34.2754 11.3065C34.35 11.3738 34.4525 11.4514 34.5388 11.4982C34.552 11.5055 34.5681 11.4997 34.574 11.4865L34.6589 11.2948C34.6647 11.2816 34.6603 11.2684 34.6486 11.2611Z" fill="white"/>
<path d="M34.2023 10.8132C34.2023 10.8132 33.9491 10.8922 33.9783 10.9464C33.9944 10.9757 34.0574 11.0767 34.1642 11.1938C34.1803 11.2113 34.2081 11.2113 34.2242 11.1938L34.3486 11.0591C34.3633 11.043 34.3633 11.0196 34.3486 11.0035C34.2579 10.901 34.2023 10.8132 34.2023 10.8132Z" fill="white"/>
<path d="M34.6692 11.5597C34.7892 11.6109 34.899 11.6358 34.9999 11.6431C35.0146 11.6446 35.0278 11.6343 35.0307 11.6197L35.0658 11.406C35.0687 11.3899 35.057 11.3738 35.0395 11.3723C34.9838 11.3679 34.9224 11.3591 34.855 11.346C34.8258 11.3401 34.798 11.3328 34.7702 11.3226C34.7555 11.3167 34.7409 11.324 34.7336 11.3387L34.6516 11.5245C34.6472 11.5362 34.6545 11.5538 34.6692 11.5597Z" fill="white"/>
<path d="M35.1785 11.6372C35.2766 11.624 35.3702 11.5962 35.4639 11.5611C35.4859 11.5538 35.4976 11.5304 35.4932 11.5084L35.4654 11.3796C35.4595 11.3533 35.4332 11.3386 35.4083 11.3459C35.3468 11.3635 35.2795 11.3752 35.199 11.3781C35.177 11.3796 35.1595 11.3942 35.1551 11.4162L35.1273 11.586C35.1214 11.6152 35.1478 11.6416 35.1785 11.6372Z" fill="white"/>
<path d="M35.7785 11.1381C35.7024 11.1967 35.6292 11.2494 35.5736 11.2772C35.5721 11.2787 35.5706 11.2787 35.5692 11.2801C35.5501 11.2889 35.5414 11.3094 35.5458 11.3299L35.5721 11.4528C35.578 11.4821 35.6116 11.4982 35.6394 11.4821C35.7272 11.4323 35.8165 11.3679 35.9 11.3006C35.9175 11.286 35.9219 11.2596 35.9087 11.2406L35.8458 11.1484C35.8297 11.1264 35.799 11.122 35.7785 11.1381Z" fill="white"/>
<path d="M36.0318 11.1836C36.1752 11.0518 36.2777 10.9391 36.2777 10.9391C36.3157 10.9025 36.162 10.7562 36.1152 10.822C36.0801 10.8703 36.0025 10.9479 35.9118 11.027C35.8957 11.0416 35.8927 11.065 35.9044 11.0826L35.9688 11.1777C35.9835 11.1982 36.0127 11.2011 36.0318 11.1836Z" fill="white"/>
<path d="M36.7871 7.51426C36.7154 7.55377 36.6378 7.58451 36.5617 7.60646C36.5485 7.61086 36.5397 7.62403 36.5441 7.63866L36.6056 7.84211C36.61 7.85528 36.6246 7.86406 36.6378 7.85967C36.7329 7.82893 36.8515 7.78064 36.9349 7.72941C36.9481 7.72209 36.951 7.70453 36.9422 7.69282L36.8193 7.52304C36.812 7.51133 36.7988 7.5084 36.7871 7.51426Z" fill="white"/>
<path d="M36.4854 7.8992C36.5088 7.89481 36.5234 7.86993 36.5161 7.84651L36.4634 7.67088C36.4576 7.65039 36.4371 7.63868 36.4166 7.64307C36.2805 7.67088 36.1766 7.6738 36.1766 7.6738C36.1766 7.6738 36.1166 7.93286 36.1795 7.93433C36.2102 7.93579 36.3302 7.93286 36.4854 7.8992Z" fill="white"/>
<path d="M37.0796 7.23174C37.0474 7.27711 37.0079 7.32541 36.964 7.37664C36.9449 7.39859 36.923 7.41908 36.901 7.43811C36.8893 7.44836 36.8879 7.46446 36.8966 7.47763L37.0152 7.64302C37.024 7.65619 37.043 7.65912 37.0562 7.64887C37.1601 7.5713 37.2377 7.48934 37.2947 7.40445C37.3035 7.39274 37.3006 7.37517 37.2889 7.36639L37.122 7.22735C37.1089 7.21564 37.0898 7.2171 37.0796 7.23174Z" fill="white"/>
<path d="M37.2993 6.86871C37.2744 6.85993 37.2466 6.87456 37.2408 6.90091C37.2247 6.96238 37.2013 7.02678 37.1632 7.0985C37.153 7.11753 37.1573 7.14094 37.1749 7.15558L37.3066 7.26535C37.3301 7.28584 37.3666 7.2756 37.3784 7.24779C37.4164 7.15558 37.4398 7.06044 37.4559 6.96238C37.4603 6.94043 37.4471 6.91847 37.4252 6.91116L37.2993 6.86871Z" fill="white"/>
<path d="M37.4762 6.77216C37.4777 6.67117 37.466 6.5614 37.4499 6.45602C37.4469 6.4326 37.425 6.4165 37.4016 6.41796L37.2903 6.42528C37.264 6.42674 37.245 6.45016 37.2479 6.47651C37.2611 6.57164 37.2684 6.66092 37.264 6.72386C37.264 6.72532 37.264 6.72679 37.264 6.72971C37.2625 6.7502 37.2757 6.76923 37.2947 6.77655L37.4147 6.8146C37.4455 6.82338 37.4762 6.80289 37.4762 6.77216Z" fill="white"/>
<path d="M37.33 5.9452C37.3168 5.89397 37.1134 5.95252 37.1456 6.02716C37.169 6.08132 37.1968 6.18816 37.2202 6.30671C37.2246 6.32721 37.2437 6.34184 37.2642 6.34038L37.3783 6.33306C37.4032 6.3316 37.4222 6.30671 37.4164 6.28183C37.3769 6.0901 37.33 5.9452 37.33 5.9452Z" fill="white"/>
<path d="M37.892 5.38468C37.9739 5.37004 38.0354 5.36858 37.9769 5.33492C37.9183 5.30125 37.6227 5.17392 37.6227 5.17392C37.3812 5.07732 37.2626 4.6719 37.1792 4.54603C37.0943 4.42016 37.0577 4.22257 36.9655 4.16988C36.7489 4.04401 36.7211 4.2694 36.5191 4.00302C36.3742 3.81422 36.2176 3.51271 35.9805 3.40733C35.7448 3.30195 35.5824 3.52735 35.5824 3.52735C35.5092 3.60346 35.6219 3.58736 35.6892 3.55223C35.7566 3.5171 35.7727 3.63566 35.8107 3.73079C35.8488 3.82593 35.8927 3.90057 35.9498 3.97083C36.0068 4.04108 35.9307 4.03962 35.8751 4.00302C35.8195 3.96497 35.7448 3.83617 35.6409 3.78495C35.537 3.73372 35.5663 3.91813 35.7024 4.00595C35.8385 4.09377 35.9146 4.27379 35.9732 4.46114C36.0317 4.64848 35.9937 4.85485 36.0112 5.10952C36.0288 5.36419 36.2176 5.53251 36.4664 5.81059C36.7152 6.08868 36.847 6.33896 36.8645 6.57753C36.8748 6.71365 36.7987 6.91416 36.645 7.07223C36.5045 7.21567 36.1751 7.31227 36.0068 7.3591C35.8385 7.40594 35.72 7.38545 35.7975 7.4235C35.8751 7.46302 36.3274 7.42057 36.5601 7.35178C36.7928 7.28446 36.9699 7.04442 37.0343 6.78829C37.1411 6.36677 36.8748 5.85889 36.5396 5.52519C36.2044 5.19148 36.1429 4.9412 36.1488 4.85485C36.1547 4.7685 36.2234 4.688 36.2469 4.80509C36.2717 4.92218 36.2922 5.05244 36.5615 5.37004C36.8309 5.68765 37.0826 5.72278 37.1894 5.75059C37.2963 5.77839 37.4031 5.77839 37.4295 5.86328C37.4558 5.94817 37.6797 6.48532 37.5597 7.01954C37.4924 7.32105 37.3841 7.53327 37.128 7.77184C36.8718 8.01041 36.4357 8.06749 36.1093 8.06457C35.7829 8.06164 35.5136 7.96504 35.4097 7.9343C35.3072 7.9021 35.2911 7.83331 35.3643 7.85527C35.5151 7.9021 35.8429 7.91381 35.9849 7.92552C36.0098 7.92699 36.0303 7.90796 36.0303 7.88308V7.73964C36.0303 7.71915 36.0142 7.70159 35.9922 7.70012C35.9102 7.69281 35.6834 7.67232 35.3292 7.45716C34.8901 7.18932 34.3647 6.77805 33.7441 6.85562C33.4001 6.89806 33.3445 7.11321 33.1264 7.28007C33.0781 7.31666 32.9786 7.42057 32.8762 7.53181C32.863 7.50254 32.8513 7.46887 32.8396 7.43082C32.8805 7.12931 33.1601 6.69755 33.2801 6.52338C33.4221 6.31847 33.8217 5.97159 34.0749 5.80035C34.3281 5.6291 34.9194 4.96169 34.9779 4.85192C35.0365 4.74215 35.0072 4.93681 35.0116 5.03488C35.016 5.13294 35.0555 5.08318 35.0555 5.08318C35.0555 5.08318 35.2501 4.71727 35.3292 4.23135C35.4067 3.74543 35.3336 3.24926 34.7686 2.576C34.2022 1.90273 33.3591 2.05349 33.2421 2.04909C33.125 2.0447 33.3152 1.82955 33.3445 1.75198C33.3738 1.67441 33.4031 1.62025 33.3445 1.65392C33.286 1.68758 33.0269 1.87785 33.0269 1.87785C32.822 2.03885 32.4122 1.9364 32.2614 1.94664C32.1107 1.95689 31.9204 1.88956 31.8282 1.94225C31.6101 2.06666 31.7916 2.20277 31.4594 2.24522C31.2223 2.27449 30.8842 2.25986 30.6749 2.41061C30.4656 2.56136 30.5783 2.81603 30.5783 2.81603C30.6075 2.91702 30.6485 2.81164 30.6529 2.737C30.6573 2.66089 30.7671 2.70626 30.8681 2.7209C30.9691 2.73553 31.0554 2.73553 31.1447 2.7209C31.234 2.70626 31.1945 2.77212 31.1344 2.80139C31.0744 2.83067 30.9237 2.83067 30.8271 2.8936C30.7305 2.95654 30.9047 3.02533 31.0496 2.95215C31.1945 2.87897 31.3877 2.90385 31.5794 2.94776C31.7711 2.99166 31.9307 3.12778 32.159 3.24048C32.3873 3.35318 32.6273 3.27414 32.9932 3.1995C33.3591 3.12485 33.6416 3.13656 33.8568 3.24048C33.9797 3.29902 34.1158 3.46734 34.1744 3.67957C34.2271 3.87276 34.1451 4.20647 34.1012 4.37478C34.0573 4.5431 33.9797 4.63531 34.0529 4.58847C34.1261 4.54164 34.3164 4.1289 34.3749 3.89325C34.4334 3.65907 34.3149 3.38391 34.1261 3.1995C33.8158 2.89507 33.2435 2.87018 32.7854 2.99166C32.3273 3.11314 32.0814 3.04143 32.0097 2.99166C31.938 2.94337 31.9028 2.84384 32.0155 2.88189C32.1282 2.91995 32.2527 2.96678 32.661 2.8936C33.0694 2.82042 33.2274 2.61991 33.305 2.54233C33.3826 2.46476 33.4367 2.37109 33.5231 2.39158C33.6094 2.41061 34.1861 2.48818 34.5886 2.85994C34.8154 3.0707 34.9442 3.26975 35.0233 3.61078C35.1009 3.9518 34.9311 4.35722 34.7642 4.63824C34.5988 4.91925 34.3793 5.10367 34.3003 5.17685C34.2212 5.25003 34.1524 5.22807 34.208 5.17685C34.3237 5.07 34.4993 4.79192 34.5813 4.67629C34.5959 4.6558 34.5886 4.62799 34.5666 4.61628L34.4437 4.5431C34.4247 4.53285 34.4027 4.53871 34.3895 4.55481C34.3412 4.62214 34.211 4.80801 33.8465 5.0056C33.3943 5.25003 32.7752 5.49884 32.5293 6.07404C32.3932 6.39311 32.5512 6.54972 32.5864 6.82195C32.5937 6.87903 32.6288 7.00344 32.6698 7.13956C32.4093 6.98881 32.14 6.48093 32.039 6.27602C31.9292 6.05209 31.8223 5.53397 31.796 5.22954C31.7697 4.9251 31.4755 4.08352 31.4096 3.97961C31.3437 3.87569 31.4974 3.99571 31.5852 4.03815C31.6731 4.0806 31.6496 4.02352 31.6496 4.02352C31.6496 4.02352 31.4257 3.67517 31.0393 3.36928C30.6529 3.06338 30.1846 2.88482 29.3196 3.05021C28.456 3.2156 28.1765 4.02644 28.115 4.12597C28.0535 4.22549 27.9584 3.95473 27.9057 3.89179C27.8516 3.82885 27.8194 3.77616 27.8208 3.84349C27.8223 3.91082 27.8618 4.22989 27.8618 4.22989C27.9028 4.48748 27.613 4.79484 27.5471 4.93242C27.4813 5.06854 27.3305 5.20173 27.332 5.30857C27.3349 5.55885 27.5413 5.46811 27.4154 5.77839C27.3261 5.9994 27.1476 6.28773 27.1768 6.54387C27.2061 6.8 27.4856 6.82342 27.4856 6.82342C27.5881 6.84684 27.5164 6.75902 27.452 6.7195C27.3876 6.67852 27.4813 6.60534 27.5427 6.52338C27.6071 6.44288 27.6496 6.36677 27.6803 6.28188C27.711 6.19699 27.7506 6.26285 27.7462 6.33018C27.7418 6.3975 27.6686 6.52777 27.6774 6.64339C27.6862 6.75902 27.8296 6.64046 27.8369 6.478C27.8442 6.31554 27.9599 6.15893 28.0916 6.01404C28.2233 5.86914 28.4209 5.79596 28.6302 5.65106C28.8395 5.50616 28.8893 5.25881 29.002 4.90169C29.1147 4.54603 29.2625 4.30599 29.4586 4.16841C29.5698 4.09084 29.7821 4.05279 29.9972 4.10548C30.1919 4.15378 30.4422 4.38796 30.568 4.50944C30.6939 4.62945 30.7363 4.74362 30.7305 4.6558C30.7246 4.56798 30.4583 4.20061 30.2812 4.03522C30.1055 3.86984 29.8084 3.8391 29.5537 3.91374C29.1366 4.03669 28.8351 4.52407 28.718 4.98219C28.6009 5.44176 28.418 5.62032 28.3404 5.65984C28.2628 5.69936 28.1589 5.68033 28.2467 5.6013C28.3345 5.5208 28.437 5.43591 28.5731 5.04366C28.7092 4.65141 28.6112 4.41577 28.5804 4.30892C28.5497 4.20208 28.4955 4.11133 28.5556 4.04401C28.6156 3.97668 28.9639 3.51271 29.4835 3.34293C29.7777 3.2478 30.0148 3.2317 30.3514 3.33122C30.688 3.42929 30.9574 3.77616 31.1213 4.05864C31.2852 4.34112 31.3394 4.62214 31.3642 4.72752C31.3891 4.8329 31.3379 4.8812 31.3189 4.80801C31.2823 4.65433 31.1257 4.366 31.0642 4.2372C31.0539 4.21525 31.0261 4.20647 31.0042 4.21964L30.8812 4.29136C30.8637 4.30307 30.8564 4.32502 30.8651 4.34405C30.9003 4.41869 30.9983 4.6236 30.9925 5.0378C30.9852 5.553 30.8988 6.21455 31.2823 6.70926C31.4945 6.98442 31.7082 6.92294 31.9629 7.0254C32.0243 7.05028 32.1809 7.08687 32.3419 7.11907L32.197 7.22445C31.9058 7.30202 31.474 7.27714 31.2837 7.26104C31.0349 7.24055 30.5358 7.06345 30.2621 6.9288C29.987 6.79415 29.1161 6.61119 28.9917 6.61558C28.8673 6.61851 29.0503 6.54826 29.1337 6.49557C29.2156 6.44288 29.1542 6.43409 29.1542 6.43409C29.1542 6.43409 28.74 6.4458 28.2789 6.61851C27.8179 6.79122 27.4227 7.1015 27.1197 7.92699C26.8138 8.75247 27.3642 9.41109 27.4169 9.51501C27.471 9.61893 27.19 9.56038 27.108 9.57356C27.0261 9.58673 26.9646 9.58819 27.0231 9.62186C27.0817 9.65552 27.3759 9.78578 27.3759 9.78578C27.6174 9.88384 27.7315 10.2907 27.815 10.4166C27.8984 10.5425 27.9335 10.7415 28.0257 10.7957C28.2423 10.923 28.2701 10.6976 28.4707 10.9655C28.6141 11.1557 28.7692 11.4572 29.0034 11.5655C29.2391 11.6724 29.403 11.4485 29.403 11.4485C29.4762 11.3723 29.3649 11.3884 29.2961 11.4236C29.2288 11.4572 29.2127 11.3387 29.1761 11.245C29.1381 11.1499 29.0956 11.0752 29.0385 11.005C28.9815 10.9347 29.059 10.9362 29.1147 10.9742C29.1703 11.0123 29.2449 11.1426 29.3474 11.1952C29.4498 11.2479 29.4235 11.0635 29.2888 10.9742C29.1542 10.885 29.0781 10.7049 29.0224 10.5176C28.9654 10.3302 29.0049 10.1239 28.9888 9.86921C28.9727 9.61454 28.7853 9.44476 28.5395 9.16374C28.2936 8.88273 28.1633 8.63245 28.1472 8.39388C28.1384 8.25776 28.216 8.05725 28.3711 7.90064C28.5131 7.75867 28.8439 7.665 29.0107 7.61963C29.1776 7.57425 29.2976 7.59621 29.22 7.55669C29.1425 7.51717 28.6902 7.55669 28.4575 7.62109C28.2248 7.68549 28.0447 7.92113 27.9774 8.17726C27.8662 8.59732 28.1282 9.10813 28.4619 9.44476C28.7941 9.78139 28.8541 10.0317 28.8468 10.118C28.8395 10.2044 28.7707 10.2834 28.7473 10.1678C28.7239 10.0507 28.7034 9.92043 28.437 9.60136C28.1706 9.2823 27.9189 9.24424 27.812 9.21643C27.7052 9.18716 27.5983 9.18716 27.572 9.10227C27.5486 9.01592 27.329 8.47731 27.4534 7.94309C27.5237 7.64158 27.632 7.43082 27.8911 7.19371C28.1487 6.95661 28.5848 6.90392 28.9112 6.90831C29.2376 6.9127 29.5069 7.01222 29.6094 7.04442C29.7118 7.07662 29.7279 7.14688 29.6547 7.12346C29.504 7.07516 29.1761 7.06052 29.0342 7.04735C29.0093 7.04442 28.9888 7.06491 28.9888 7.0898L28.9873 7.23323C28.9873 7.25372 29.0034 7.27128 29.0239 7.27421C29.1059 7.28153 29.3327 7.30348 29.684 7.52303C30.1216 7.7938 30.6441 8.20946 31.2647 8.13775C31.6101 8.09823 31.6672 7.88308 31.8867 7.71769C31.9014 7.70744 31.9204 7.68988 31.9409 7.66939C31.9599 7.70305 31.9804 7.73964 31.9994 7.77477C31.9058 8.04115 31.7228 8.3368 31.6335 8.47438C31.496 8.68221 31.1037 9.03787 30.8549 9.21497C30.6046 9.39207 30.0294 10.0726 29.9738 10.1824C29.9182 10.2922 29.9431 10.0975 29.9357 10.0009C29.9284 9.90287 29.8904 9.9541 29.8904 9.9541C29.8904 9.9541 29.703 10.3244 29.6357 10.8118C29.5684 11.2992 29.6533 11.7939 30.2329 12.454C30.8139 13.114 31.654 12.9443 31.7711 12.9472C31.8882 12.9501 31.7023 13.1682 31.676 13.2472C31.6482 13.3263 31.6204 13.3804 31.6775 13.3453C31.7345 13.3102 31.9892 13.114 31.9892 13.114C32.1912 12.9487 32.6025 13.0423 32.7532 13.0292C32.904 13.016 33.0942 13.0789 33.1864 13.0248C33.4016 12.896 33.2172 12.7628 33.548 12.7145C33.7836 12.6794 34.1232 12.6867 34.3295 12.5315C34.5359 12.3764 34.4173 12.1246 34.4173 12.1246C34.3851 12.0237 34.3471 12.1305 34.3442 12.2066C34.3427 12.2827 34.23 12.2403 34.129 12.2271C34.028 12.2154 33.9402 12.2169 33.8524 12.2329C33.7631 12.249 33.8012 12.1832 33.8612 12.1525C33.9212 12.1217 34.0705 12.1188 34.1656 12.0529C34.2607 11.9871 34.0851 11.9227 33.9431 11.9988C33.7997 12.0749 33.6065 12.0544 33.4148 12.0149C33.223 11.9754 33.0606 11.8422 32.8293 11.7353C32.5981 11.6285 32.3595 11.7119 31.9951 11.7953C31.6306 11.8788 31.3481 11.8729 31.1315 11.7734C31.0086 11.7163 30.8681 11.5524 30.8051 11.3416C30.7481 11.1499 30.8227 10.8147 30.8622 10.6449C30.9017 10.4751 30.9778 10.3815 30.9061 10.4298C30.8344 10.4781 30.6529 10.8952 30.6002 11.1308C30.5475 11.3665 30.6719 11.6387 30.8651 11.8187C31.1827 12.1159 31.755 12.129 32.2102 11.9973C32.6654 11.8656 32.9127 11.9329 32.9859 11.9797C33.0591 12.0266 33.0957 12.1246 32.9815 12.0895C32.8674 12.0544 32.743 12.009 32.3361 12.091C31.9292 12.1729 31.7755 12.3764 31.6994 12.4569C31.6233 12.5374 31.5721 12.6311 31.4843 12.6135C31.3979 12.5959 30.8198 12.5315 30.4085 12.1686C30.1772 11.9636 30.0426 11.7661 29.9577 11.4265C29.8713 11.0869 30.0338 10.6786 30.1933 10.3932C30.3529 10.1092 30.568 9.91897 30.6456 9.84433C30.7232 9.76968 30.792 9.79017 30.7378 9.84286C30.6236 9.95263 30.4539 10.2336 30.3763 10.3522C30.3631 10.3727 30.3704 10.4005 30.3924 10.4122L30.5168 10.4825C30.5358 10.4927 30.5578 10.4869 30.5695 10.4693C30.6163 10.4005 30.7422 10.2117 31.1022 10.0068C31.5487 9.75212 32.1634 9.49013 32.3946 8.91054C32.5234 8.58854 32.3624 8.43486 32.3214 8.16409C32.3156 8.12457 32.2951 8.05139 32.2688 7.9665C32.32 7.96504 32.38 7.97236 32.4385 7.98114C32.6493 8.19336 32.8454 8.56951 32.9259 8.73783C33.0342 8.96176 33.1381 9.48135 33.1616 9.78578C33.185 10.0917 33.4748 10.9333 33.5406 11.0386C33.6065 11.144 33.4528 11.0225 33.365 10.9786C33.2772 10.9347 33.3006 10.9933 33.3006 10.9933C33.3006 10.9933 33.5216 11.3431 33.9065 11.6504C34.2915 11.9578 34.7584 12.1393 35.6234 11.9797C36.4884 11.8202 36.7723 11.0108 36.8352 10.9113C36.8967 10.8118 36.9904 11.0825 37.0431 11.1469C37.0972 11.2113 37.1294 11.2626 37.128 11.1952C37.1265 11.1279 37.0899 10.8088 37.0899 10.8088C37.0504 10.5513 37.3417 10.2454 37.409 10.1092C37.4748 9.97312 37.6271 9.8414 37.6271 9.73455C37.6271 9.48428 37.4178 9.57356 37.5466 9.26473C37.6373 9.04519 37.8173 8.75686 37.7895 8.50072C37.7617 8.24459 37.4851 8.21678 37.4851 8.21678C37.3826 8.1919 37.4529 8.27972 37.5173 8.3207C37.5817 8.36168 37.488 8.43486 37.4251 8.51536C37.3621 8.59586 37.3197 8.67197 37.289 8.75686C37.2582 8.84175 37.2187 8.77588 37.2246 8.70856C37.229 8.64123 37.3021 8.51097 37.2948 8.39534C37.2875 8.27972 37.1426 8.39827 37.1338 8.55927C37.1265 8.72173 37.0094 8.87834 36.8777 9.02177C36.746 9.16521 36.5484 9.23839 36.3376 9.38182C36.1268 9.52526 36.0771 9.77261 35.9615 10.1283C35.8458 10.4839 35.6965 10.7225 35.5004 10.8586C35.3892 10.9362 35.1755 10.9713 34.9618 10.9172C34.7671 10.8674 34.5183 10.6318 34.3925 10.5103C34.2681 10.3888 34.2256 10.2761 34.2315 10.3624C34.2359 10.4488 34.5022 10.8191 34.6764 10.9859C34.8506 11.1528 35.1492 11.185 35.4024 11.1118C35.821 10.9918 36.1254 10.5059 36.2439 10.0478C36.364 9.58966 36.5484 9.41109 36.6259 9.37304C36.7035 9.33499 36.8074 9.35255 36.7182 9.43305C36.6303 9.51208 36.5279 9.59697 36.3888 9.98922C36.2498 10.3815 36.3464 10.6171 36.3771 10.7225C36.4064 10.8293 36.4606 10.9215 36.4005 10.9874C36.3405 11.0533 35.9893 11.5158 35.4682 11.6826C35.174 11.7763 34.9355 11.7909 34.6003 11.6899C34.2651 11.589 33.9973 11.2406 33.8348 10.9581C33.6724 10.6757 33.6197 10.3932 33.5948 10.2878C33.5699 10.1824 33.6226 10.1341 33.6402 10.2088C33.6753 10.3624 33.8304 10.6522 33.8919 10.781C33.9022 10.803 33.93 10.8118 33.9519 10.7986L34.0763 10.7269C34.0939 10.7152 34.1012 10.6932 34.0924 10.6742C34.0573 10.5996 33.9607 10.3932 33.968 9.97898C33.9783 9.46378 34.0675 8.80369 33.6885 8.30606C33.4777 8.02944 33.264 8.09091 33.0108 7.98553C32.9581 7.96358 32.8308 7.93138 32.6932 7.9021C32.702 7.86698 32.7313 7.83039 32.7678 7.7938C33.0547 7.69281 33.5362 7.71622 33.7382 7.73232C33.987 7.75135 34.4876 7.92259 34.7628 8.05578C35.0379 8.18897 35.9117 8.36314 36.0361 8.35875C36.1605 8.35436 35.9776 8.42608 35.8956 8.48023C35.8136 8.53292 35.8751 8.54317 35.8751 8.54317C35.8751 8.54317 36.2893 8.52853 36.7489 8.35143C37.2085 8.17434 37.6007 7.86112 37.8978 7.03418C38.1949 6.20577 37.6402 5.553 37.5861 5.44908C37.529 5.34224 37.81 5.39785 37.892 5.38468ZM36.9801 4.70849C36.9465 4.72312 36.9128 4.63677 36.8982 4.59725C36.8835 4.55774 36.7767 4.47577 36.7767 4.47577C36.7606 4.43626 36.7767 4.3821 36.8396 4.38357C36.9143 4.38357 36.9231 4.46699 36.9553 4.53285C36.9875 4.59725 37.0211 4.69093 36.9801 4.70849ZM32.1663 2.21448C32.1253 2.20717 32.0009 2.25839 32.0009 2.25839C31.9585 2.25254 31.9204 2.21156 31.9526 2.1574C31.9907 2.093 32.0668 2.12813 32.14 2.13252C32.2131 2.13691 32.3097 2.15594 32.3053 2.19985C32.2995 2.23644 32.2073 2.2218 32.1663 2.21448ZM27.7359 5.14611C27.7096 5.17831 27.6935 5.31296 27.6935 5.31296C27.6671 5.34809 27.613 5.36126 27.5808 5.30564C27.5427 5.24125 27.6101 5.19148 27.6496 5.13001C27.6891 5.06854 27.752 4.99243 27.7886 5.01878C27.8208 5.04073 27.7637 5.11391 27.7359 5.14611ZM28.0155 10.2571C28.0491 10.2424 28.0828 10.3288 28.096 10.3698C28.1106 10.4093 28.216 10.4927 28.216 10.4927C28.2321 10.5337 28.216 10.5864 28.1516 10.5849C28.0769 10.5835 28.0696 10.5015 28.0374 10.4356C28.0067 10.3668 27.9745 10.2746 28.0155 10.2571ZM32.8469 12.7569C32.8879 12.7628 33.0123 12.7086 33.0123 12.7086C33.0547 12.7145 33.0942 12.7525 33.0635 12.8082C33.0269 12.8726 32.9508 12.8404 32.8776 12.8374C32.8044 12.8345 32.7064 12.8184 32.7108 12.773C32.7122 12.7379 32.8044 12.7496 32.8469 12.7569ZM37.2246 9.88677C37.2509 9.85457 37.2685 9.72138 37.2685 9.72138C37.2948 9.68772 37.349 9.67455 37.3812 9.7287C37.4178 9.7931 37.3504 9.8414 37.3109 9.90287C37.2699 9.96434 37.207 10.039 37.1704 10.0126C37.1397 9.99215 37.1982 9.91897 37.2246 9.88677Z" fill="white"/>
</g>
<defs>
<clipPath id="clip0_19_3399">
<rect width="40" height="40" fill="white"/>
</clipPath>
<clipPath id="clip1_19_3399">
<rect width="24.91" height="22.8" fill="white" transform="translate(6 11)"/>
</clipPath>
</defs>
</svg>
