<svg width="418" height="418" viewBox="0 0 418 418" fill="none" xmlns="http://www.w3.org/2000/svg">
<circle cx="209" cy="209" r="208.25" stroke="#E0FB92" stroke-width="1.5"/>
<path d="M208.999 116.91H118.09V208.409C168.297 208.409 208.998 249.375 208.998 299.909V299.91H299.909V208.416C249.701 208.416 208.999 167.45 208.999 116.916C208.999 116.914 208.999 116.912 208.999 116.91Z" fill="#E0FB92"/>
<path d="M328.47 193.151C328.763 193.444 329.237 193.444 329.53 193.151L334.303 188.378C334.596 188.085 334.596 187.61 334.303 187.317C334.01 187.024 333.536 187.024 333.243 187.317L329 191.56L324.757 187.317C324.464 187.024 323.99 187.024 323.697 187.317C323.404 187.61 323.404 188.085 323.697 188.378L328.47 193.151ZM226.054 91.8955C282.505 91.8955 328.25 137.002 328.25 192.621L329.75 192.621C329.75 136.153 283.313 90.3955 226.054 90.3955L226.054 91.8955Z" fill="#8366F4"/>
<path d="M89.0792 235.475C88.7863 235.182 88.3114 235.182 88.0185 235.475L83.2455 240.248C82.9526 240.541 82.9526 241.016 83.2455 241.308C83.5384 241.601 84.0133 241.601 84.3062 241.308L88.5488 237.066L92.7915 241.308C93.0844 241.601 93.5592 241.601 93.8521 241.308C94.145 241.016 94.145 240.541 93.8521 240.248L89.0792 235.475ZM191.495 336.73C135.043 336.73 89.2988 291.624 89.2988 236.005H87.7988C87.7988 292.473 134.235 338.23 191.495 338.23V336.73Z" fill="#8366F4"/>
</svg>
