<svg width="117" height="118" viewBox="0 0 117 118" fill="none" xmlns="http://www.w3.org/2000/svg">
<path d="M10.0811 48.5045C10.0811 27.5076 27.1024 10.4863 48.0992 10.4863H60.0629C81.0598 10.4863 98.0811 27.5076 98.0811 48.5045V60.4682C98.0811 81.465 81.0598 98.4863 60.0629 98.4863H48.0992C27.1024 98.4863 10.0811 81.465 10.0811 60.4682V48.5045Z" fill="#303D48" fill-opacity="0.32"/>
<g clip-path="url(#clip0_1931_7128)">
<mask id="path-3-inside-1_1931_7128" fill="white">
<path d="M53.8701 78.4865L46.6302 78.4865C35.5418 78.4865 29.0805 67.7369 29.0805 54.4939C29.0805 41.2509 35.5418 30.4863 46.6302 30.4863L53.8701 30.4863"/>
</mask>
<path d="M46.6302 30.4863L46.6302 27.8101L46.6302 30.4863ZM53.8701 75.8103L46.6302 75.8103L46.6302 81.1627L53.8701 81.1627L53.8701 75.8103ZM46.6302 75.8103C42.0757 75.8103 38.4669 73.6507 35.8988 69.9348C33.2811 66.1471 31.7567 60.7196 31.7567 54.4939L26.4043 54.4939C26.4043 61.5111 28.1106 68.08 31.4956 72.9779C34.9302 77.9475 40.0963 81.1627 46.6302 81.1627L46.6302 75.8103ZM31.7567 54.4939C31.7567 48.2681 33.2811 42.8364 35.8994 39.0446C38.4682 35.3245 42.0772 33.1625 46.6302 33.1625L46.6302 27.8101C40.0948 27.8101 34.9289 31.0305 31.495 36.0033C28.1106 40.9046 26.4043 47.4767 26.4043 54.4939L31.7567 54.4939ZM46.6302 33.1625L53.8701 33.1625L53.8701 27.8101L46.6302 27.8101L46.6302 33.1625Z" fill="#F3FBFD" mask="url(#path-3-inside-1_1931_7128)"/>
<path d="M50.0811 44.3809V65.8546" stroke="#F3FBFD" stroke-width="2.67618"/>
<path d="M56.3975 48.1704V65.8547" stroke="#F3FBFD" stroke-width="2.67618"/>
<path d="M62.7119 56.6606L62.7119 65.8547" stroke="#F3FBFD" stroke-width="2.67618"/>
<path d="M61.0811 48.4863L78.0811 64.4863" stroke="#E0FB92" stroke-width="2.67618"/>
<path d="M70.0811 64.4043L78.2864 64.6916L77.9991 56.4863" stroke="#E0FB92" stroke-width="2.67618" stroke-miterlimit="10"/>
<path d="M63.9761 70.7809C60.9187 74.8878 56.8536 77.2234 52.5836 77.2234C48.3135 77.2234 44.2484 74.9035 41.191 70.7809C38.1337 66.674 36.1865 60.9211 36.1865 54.4786C36.1865 48.0361 38.1166 42.299 41.174 38.192C44.2484 34.0694 48.2964 31.7495 52.5665 31.7495C56.8366 31.7495 60.9017 34.0694 63.959 38.192" stroke="#F3FBFD" stroke-width="2.67618"/>
</g>
<defs>
<clipPath id="clip0_1931_7128">
<rect width="56" height="56" fill="white" transform="translate(26.0811 26.4863)"/>
</clipPath>
</defs>
</svg>
