<svg width="40" height="40" viewBox="0 0 40 40" fill="none" xmlns="http://www.w3.org/2000/svg">
<path d="M6 4H30C31.5913 4 33.1174 4.63214 34.2426 5.75736C35.3679 6.88258 36 8.4087 36 10V34C36 35.5913 35.3679 37.1174 34.2426 38.2426C33.1174 39.3679 31.5913 40 30 40H6C4.4087 40 2.88258 39.3679 1.75736 38.2426C0.632141 37.1174 0 35.5913 0 34L0 10C0 8.4087 0.632141 6.88258 1.75736 5.75736C2.88258 4.63214 4.4087 4 6 4Z" fill="#BEA335"/>
<path d="M16.9002 31.9972H11.2999V23.0952H9V20.9146H11.3001V12.0132H17.8253C17.8253 12.0132 27 11.2241 27 21.8381C27 32.4521 18.225 31.9972 16.9002 31.9972ZM17.6758 15.7072H14.9754V20.9149H19.0256V23.0953H14.9754V28.3033H17.5497C18.5126 28.3033 23.3568 27.9056 23.3645 21.7661C23.3723 15.6266 18.3696 15.7071 17.6758 15.7071V15.7072Z" fill="white"/>
</svg>
