<svg width="40" height="40" viewBox="0 0 40 40" fill="none" xmlns="http://www.w3.org/2000/svg">
<g clip-path="url(#clip0_19_3333)">
<path d="M6 4H30C31.5913 4 33.1174 4.63214 34.2426 5.75736C35.3679 6.88258 36 8.4087 36 10V34C36 35.5913 35.3679 37.1174 34.2426 38.2426C33.1174 39.3679 31.5913 40 30 40H6C4.4087 40 2.88258 39.3679 1.75736 38.2426C0.632141 37.1174 0 35.5913 0 34L0 10C0 8.4087 0.632141 6.88258 1.75736 5.75736C2.88258 4.63214 4.4087 4 6 4Z" fill="#7866D5"/>
<path d="M25.2352 13.4794C25.8363 13.5551 26.4625 13.6056 27.0636 13.7065C28.2408 13.9336 28.6415 14.5392 28.4411 15.7503C28.391 16.2045 28.0404 16.5578 27.5896 16.6335C27.3141 16.6839 27.0135 16.7092 26.738 16.6839C22.8308 16.6839 18.9487 16.7092 15.0416 16.7092C14.4655 16.7092 13.8644 16.7596 13.2884 16.8606C11.3598 17.1633 10.6084 17.9708 10.4582 19.9389C10.383 20.8473 10.383 20.8473 11.3097 20.8473H26.8382C26.9885 20.8473 27.1387 20.8473 27.289 20.8473C27.5395 20.8473 27.7649 20.923 27.9903 21.0491C28.6916 21.5033 28.5163 22.2351 28.4912 22.8911C28.4662 23.421 28.1406 23.7238 27.5896 23.8247C27.3642 23.8752 27.1387 23.8752 26.8883 23.8752C21.5785 23.8752 16.2688 23.8752 10.9591 23.8752C10.383 23.8752 10.383 23.8752 10.4331 24.4555C10.4582 24.9854 10.5083 25.5153 10.6335 26.0452C10.884 27.004 11.46 27.6096 12.4368 27.8871C13.4887 28.1899 14.5907 28.2404 15.6677 28.2656C19.4496 28.2656 23.2566 28.2656 27.0636 28.2656C27.5395 28.2656 27.9903 28.3161 28.2908 28.7703C28.7667 29.5272 28.5163 30.5113 27.7649 30.9907C27.6647 31.0664 27.5645 31.1169 27.4393 31.1421C26.6128 31.4197 25.7612 31.4701 24.8846 31.4954C21.303 31.571 17.7465 31.571 14.19 31.4954C13.088 31.4701 11.986 31.344 10.909 31.1169C8.37936 30.587 7.10202 29.2749 6.67624 26.7012C6.57606 26.1208 6.52597 25.5153 6.45083 24.9097V20.2165C6.50092 19.7623 6.55101 19.2829 6.6011 18.8287C6.9267 15.927 8.22909 14.4887 11.0593 13.8327C12.0611 13.6056 13.113 13.5551 14.1149 13.4542L25.2352 13.4794Z" fill="white"/>
<path d="M19.5248 32C17.7215 32 15.9432 31.9748 14.165 31.9495C13.0379 31.9243 11.9108 31.7981 10.8088 31.5458C8.07881 30.9655 6.67624 29.502 6.22541 26.7769C6.15028 26.3479 6.10018 25.919 6.07514 25.5153C6.05009 25.3386 6.02505 25.162 6 24.9602V20.166L6.05009 19.7118C6.07514 19.3838 6.12523 19.081 6.15028 18.7782C6.50092 15.6746 7.95358 14.085 10.9841 13.4037C11.7856 13.2271 12.562 13.1514 13.3384 13.0757C13.5889 13.0505 13.8394 13.0252 14.0898 13H25.3104C25.4857 13.0252 25.6861 13.0505 25.8614 13.0505C26.2872 13.1009 26.713 13.1262 27.1638 13.2271C28.5914 13.5046 29.1424 14.3121 28.8919 15.7756C28.8168 16.4064 28.3159 16.9363 27.6397 17.0372C27.3391 17.0876 27.0386 17.1129 26.713 17.1129C22.8308 17.1381 18.9237 17.1633 15.0416 17.1633C14.4906 17.1633 13.9145 17.2138 13.3635 17.3147C11.6353 17.5923 11.0593 18.2231 10.909 19.9894C10.909 20.1408 10.8839 20.2922 10.8839 20.4183C10.9841 20.4183 11.1595 20.4183 11.3097 20.4183H27.289C27.6146 20.4183 27.9402 20.5193 28.2157 20.6707C29.0673 21.2258 28.9921 22.0584 28.942 22.664C28.942 22.7397 28.917 22.8406 28.917 22.9163C28.8669 23.6228 28.4411 24.1023 27.6647 24.2537C27.3892 24.3041 27.1387 24.3041 26.8883 24.3041H10.9841C10.9591 24.3041 10.909 24.3041 10.8839 24.3041C10.8839 24.3293 10.8839 24.3546 10.8839 24.3798V24.405C10.909 24.9349 10.9591 25.4396 11.0843 25.9442C11.2847 26.7264 11.7606 27.2058 12.562 27.4329C13.639 27.7357 14.741 27.7862 15.6928 27.7862C18.6482 27.8114 21.6537 27.8114 24.5841 27.8114H27.0886C27.4643 27.8114 28.2408 27.8114 28.6916 28.5432C28.9921 29.0226 29.0673 29.5777 28.942 30.1076C28.8168 30.6374 28.4912 31.0916 28.0153 31.3944C27.8901 31.4701 27.7398 31.5458 27.5896 31.5963C26.6629 31.8991 25.7111 31.9495 24.9097 31.9748C23.1314 31.9748 21.3281 32 19.5248 32ZM6.90165 24.8845C6.9267 25.0611 6.95174 25.2377 6.95174 25.4143C7.00184 25.8181 7.05193 26.2218 7.10202 26.6255C7.50275 28.9973 8.62982 30.158 10.9841 30.6627C12.0361 30.8898 13.113 31.0159 14.19 31.0412C17.7215 31.1169 21.3281 31.1169 24.8846 31.0412C25.6109 31.0159 26.4875 30.9655 27.289 30.7131C27.3641 30.6879 27.4393 30.6375 27.5144 30.6122C27.7649 30.4356 27.9653 30.1833 28.0404 29.8805C28.1155 29.5777 28.0654 29.2749 27.8901 28.9973C27.7398 28.7703 27.5395 28.6946 27.0636 28.6946H24.559C21.6537 28.6946 18.6231 28.6946 15.6677 28.6693C14.6659 28.6693 13.4887 28.6189 12.3116 28.2656C11.1845 27.9628 10.4832 27.2311 10.2077 26.0956C10.0825 25.5405 10.0073 24.9602 10.0073 24.405V24.3798C9.9823 24.0266 9.95725 23.7742 10.1576 23.5471C10.358 23.3201 10.6335 23.3201 10.9841 23.3201H26.9133C27.1137 23.3201 27.3391 23.3201 27.5395 23.2696C27.9402 23.1939 28.0404 23.0173 28.0654 22.7649C28.0654 22.664 28.0905 22.5883 28.0905 22.4874C28.1406 21.8566 28.1406 21.5538 27.7899 21.3267C27.6647 21.251 27.4894 21.2005 27.3391 21.2005H11.3097C10.7587 21.2005 10.4331 21.2005 10.1827 20.9482C9.93221 20.6959 9.9823 20.3426 10.0073 19.8127C10.1827 17.6428 11.0843 16.6587 13.2132 16.3307C13.8143 16.2297 14.4154 16.1793 15.0416 16.1541C18.9487 16.1541 22.8308 16.1288 26.738 16.1288C27.0135 16.1288 27.264 16.1288 27.5144 16.0784C27.7649 16.0531 27.9653 15.8513 27.9903 15.5989C28.1656 14.5896 27.9152 14.2616 26.9634 14.0598C26.5627 13.9841 26.1619 13.9336 25.7612 13.9084C25.5859 13.8831 25.3855 13.8579 25.2102 13.8579H14.1399C13.8895 13.8831 13.639 13.9084 13.3885 13.9336C12.6121 14.0093 11.8858 14.0598 11.1344 14.2364C8.50459 14.8924 7.35248 16.1793 7.05193 18.9044C7.02688 19.2072 6.97679 19.51 6.95174 19.838L6.90165 20.2669V24.8845Z" fill="white"/>
<path d="M32.5 15C36.6421 15 40 11.6421 40 7.5C40 3.35786 36.6421 0 32.5 0C28.3579 0 25 3.35786 25 7.5C25 11.6421 28.3579 15 32.5 15Z" fill="black"/>
<path fill-rule="evenodd" clip-rule="evenodd" d="M32.9 1.50002L36.5 7.5L32.6 9.28829L28.7963 7.6L32.3 1.50002L32.4 1.40002H32.5H32.6H32.7H32.8L32.9 1.50002ZM32.5 10.5L36.5 8.5L32.7 13.6C32.7 13.7 32.6 13.7 32.6 13.7H32.5H32.4L32.3 13.6L28.5 8.5L32.5 10.5Z" fill="white"/>
</g>
<defs>
<clipPath id="clip0_19_3333">
<rect width="40" height="40" fill="white"/>
</clipPath>
</defs>
</svg>
