<svg width="40" height="40" viewBox="0 0 40 40" fill="none" xmlns="http://www.w3.org/2000/svg">
<rect y="4" width="36" height="36" rx="6" fill="#6075D6"/>
<path d="M17.6367 8.85715L9.2735 23.17C9.2735 23.17 17.2451 19.2846 17.6367 19.137V8.85715Z" fill="#F8F8F8"/>
<path d="M9.2746 23.0178L17.6378 27.3766V18.9848C17.2462 19.1323 9.2746 23.0178 9.2746 23.0178Z" fill="#D2D8EC"/>
<path d="M17.6367 18.9848V27.3766L25.9999 23.0178C25.9999 23.0178 18.0283 19.1323 17.6367 18.9848Z" fill="#C4C8DA"/>
<path d="M25.999 23.17L17.6358 8.85715V19.137C18.0273 19.2846 25.999 23.17 25.999 23.17Z" fill="#D0D6EA"/>
<path d="M17.6359 28.3067L9.27271 23.6833L17.6359 35.1429V28.3067Z" fill="#F8F8F8"/>
<path d="M17.6367 28.3067L25.9999 23.6833L17.6367 35.1429V28.3067Z" fill="#D2D8EC"/>
</svg>
