<svg width="40" height="40" viewBox="0 0 40 40" fill="none" xmlns="http://www.w3.org/2000/svg">
<g clip-path="url(#clip0_329_4250)">
<path d="M6 4H30C31.5913 4 33.1174 4.63214 34.2426 5.75736C35.3679 6.88258 36 8.4087 36 10V34C36 35.5913 35.3679 37.1174 34.2426 38.2426C33.1174 39.3679 31.5913 40 30 40H6C4.4087 40 2.88258 39.3679 1.75736 38.2426C0.632141 37.1174 0 35.5913 0 34L0 10C0 8.4087 0.632141 6.88258 1.75736 5.75736C2.88258 4.63214 4.4087 4 6 4Z" fill="#00EF8B"/>
<path d="M18 37C26.2843 37 33 30.2843 33 22C33 13.7157 26.2843 7 18 7C9.71573 7 3 13.7157 3 22C3 30.2843 9.71573 37 18 37Z" fill="#00EF8B"/>
<path d="M24.57 19.66H20.34V23.89H24.57V19.66Z" fill="white"/>
<path d="M16.11 25.48C16.11 26.35 15.39 27.07 14.52 27.07C13.65 27.07 12.93 26.35 12.93 25.48C12.93 24.61 13.65 23.89 14.52 23.89H16.11V19.66H14.52C11.31 19.66 8.70001 22.27 8.70001 25.48C8.70001 28.69 11.31 31.3 14.52 31.3C17.73 31.3 20.34 28.69 20.34 25.48V23.89H16.11V25.48Z" fill="white"/>
<path d="M21.93 17.53H26.7V13.3H21.93C18.72 13.3 16.11 15.91 16.11 19.12V19.66H20.34V19.12C20.34 18.25 21.06 17.53 21.93 17.53Z" fill="white"/>
<path d="M20.34 19.66H16.11V23.89H20.34V19.66Z" fill="#16FF99"/>
<path d="M32.5 15C36.6421 15 40 11.6421 40 7.5C40 3.35786 36.6421 0 32.5 0C28.3579 0 25 3.35786 25 7.5C25 11.6421 28.3579 15 32.5 15Z" fill="black"/>
<path fill-rule="evenodd" clip-rule="evenodd" d="M32.9 1.50002L36.5 7.5L32.6 9.28829L28.7963 7.6L32.3 1.50002L32.4 1.40002H32.5H32.6H32.7H32.8L32.9 1.50002ZM32.5 10.5L36.5 8.5L32.7 13.6C32.7 13.7 32.6 13.7 32.6 13.7H32.5H32.4L32.3 13.6L28.5 8.5L32.5 10.5Z" fill="white"/>
</g>
<defs>
<clipPath id="clip0_329_4250">
<rect width="40" height="40" fill="white"/>
</clipPath>
</defs>
</svg>
