<svg width="118" height="117" viewBox="0 0 118 117" fill="none" xmlns="http://www.w3.org/2000/svg">
<path d="M11.4771 51.5983C11.4771 29.1217 29.6979 10.9009 52.1745 10.9009H64.9813C87.4579 10.9009 105.679 29.1217 105.679 51.5983V64.4052C105.679 86.8817 87.4579 105.103 64.9813 105.103H52.1745C29.6979 105.103 11.4771 86.8817 11.4771 64.4052V51.5983Z" fill="#303D48" fill-opacity="0.32"/>
<g clip-path="url(#clip0_1931_7152)">
<path d="M56.9818 79.4112L83.6051 52.4106L72.4345 39.8037H41.5105L30.3398 52.4106L56.9818 79.4112Z" stroke="#F3FBFD" stroke-width="2.67618"/>
<path d="M83.6046 52.096L31.7051 52.0959" stroke="#F3FBFD" stroke-width="2.67618"/>
<path d="M41.2661 39.9567L49.269 52.0957L57.5263 41.8585L65.5096 52.0957L73.3619 39.9568" stroke="#F3FBFD" stroke-width="2.67618"/>
<path d="M65.8498 52.0959L56.9723 75.3142L48.0947 52.0959" stroke="#F3FBFD" stroke-width="2.67618"/>
<path d="M28.6045 35.5219C30.9716 35.5219 32.8864 37.4366 32.8864 39.8038C32.8864 37.4366 34.8011 35.5219 37.1683 35.5219C34.8011 35.5219 32.8864 33.6071 32.8864 31.24C32.8864 33.6071 30.9716 35.5219 28.6045 35.5219V35.5219Z" stroke="#E0FB92" stroke-width="2.67618"/>
<path d="M76.7759 69.777C79.143 69.777 81.0578 71.6918 81.0578 74.0589C81.0578 71.6918 82.9725 69.777 85.3397 69.777C82.9725 69.777 81.0578 67.8623 81.0578 65.4951C81.0578 67.8623 79.143 69.777 76.7759 69.777V69.777Z" stroke="#E0FB92" stroke-width="2.67618"/>
</g>
<defs>
<clipPath id="clip0_1931_7152">
<rect width="59.9465" height="59.9465" fill="white" transform="translate(28.6045 28.0286)"/>
</clipPath>
</defs>
</svg>
