<svg width="40" height="40" viewBox="0 0 40 40" fill="none" xmlns="http://www.w3.org/2000/svg">
<rect y="4" width="36" height="36" rx="6" fill="#F5F6F8"/>
<path d="M20.0756 15.891C20.5305 15.7936 21.1608 15.7676 21.3037 15.7676C21.4467 15.7676 21.5734 15.6928 21.099 15.4524C20.6214 15.2152 19.8417 14.9846 19.1366 14.9001C18.4316 14.8156 16.7778 14.8514 16.9175 15.121C16.9175 15.121 17.1742 15.6376 17.2424 16.4174C17.3074 17.1971 17.4114 18.7632 17.8663 19.4C17.6128 18.4415 17.5836 17.4083 17.5284 16.9632C17.4991 16.7163 17.4926 16.2907 17.4764 16.0437C17.4731 15.9788 17.5479 15.9788 17.5706 16.0372C17.6388 16.2224 17.7623 16.5343 17.798 16.7163C17.8922 17.1809 17.9442 17.7072 17.9345 17.8567C17.9247 18.0094 18.0547 18.0744 18.2821 17.8567C18.5096 17.639 19.2243 17.0217 19.5492 16.8495C19.8741 16.6773 20.3193 16.4174 20.4687 16.3199C20.6214 16.2224 20.9301 16.0437 20.4687 16.1217C19.9911 16.2029 19.598 16.4401 19.3381 16.5311C19.2861 16.5506 19.2991 16.4564 19.3381 16.4174C19.4875 16.2647 19.7864 15.9528 20.0756 15.891Z" fill="#0F0F10" fill-opacity="0.15"/>
<path d="M16.8006 13.9514C16.8103 13.9871 16.8428 14.0066 16.8786 14.0001C17.2587 13.9189 19.3153 13.542 21.4564 14.5037C21.4889 14.5199 21.5279 14.5037 21.5441 14.4712L21.6254 14.2958C21.6416 14.2633 21.6254 14.221 21.5929 14.208C20.316 13.633 19.0781 13.5225 18.2594 13.5322C17.5186 13.542 16.9858 13.6427 16.8071 13.685C16.7713 13.6947 16.7486 13.7304 16.7583 13.7662L16.8006 13.9514Z" fill="#0F0F10" fill-opacity="0.15"/>
<path d="M12.5574 17.6877C12.1382 18.2596 11.365 19.7249 11.6671 19.7314C11.6671 19.7314 12.2455 19.7574 12.957 20.0823C13.6685 20.4039 15.0851 21.0797 15.8649 20.9952C14.9064 20.7483 13.9869 20.2707 13.5743 20.0985C13.3436 20.0043 12.97 19.8029 12.7458 19.6924C12.6873 19.6631 12.7231 19.5982 12.7881 19.6079C12.983 19.6404 13.3144 19.6826 13.4898 19.7411C13.9415 19.8841 14.4256 20.0953 14.5523 20.1797C14.679 20.2642 14.7992 20.183 14.7212 19.8776C14.6432 19.5722 14.4548 18.6495 14.4613 18.2791C14.4678 17.9119 14.458 17.3953 14.4483 17.2166C14.4386 17.0379 14.4321 16.6806 14.2729 17.1192C14.1104 17.574 14.1234 18.0354 14.0779 18.3083C14.0682 18.3603 13.9934 18.3051 13.9772 18.2531C13.9187 18.0484 13.7887 17.6325 13.8765 17.3498C14.0129 16.9047 14.2988 16.3427 14.3671 16.2192C14.4353 16.0957 14.4321 15.9463 13.9934 16.2452C13.5548 16.5441 12.9765 17.1159 12.5574 17.6877Z" fill="#0F0F10" fill-opacity="0.15"/>
<path d="M10.4033 19.2115L10.5884 19.2603C10.6242 19.27 10.6599 19.2505 10.6697 19.2148C10.7834 18.8444 11.4592 16.8625 13.3436 15.4654C13.3729 15.4427 13.3794 15.4037 13.3566 15.3712L13.2429 15.2152C13.2202 15.186 13.1779 15.1795 13.1487 15.2022C12.0245 16.034 11.3227 17.0639 10.9296 17.782C10.5755 18.4318 10.4065 18.9484 10.3513 19.1238C10.3448 19.166 10.3643 19.2018 10.4033 19.2115Z" fill="#0F0F10" fill-opacity="0.15"/>
<path d="M16.3522 23.5977C15.6472 24.293 14.7634 24.8291 14.4028 25.0987C14.2046 25.2482 13.8375 25.4626 13.6295 25.5991C13.5743 25.6348 13.5353 25.5699 13.5776 25.5211C13.7043 25.3717 13.9122 25.1085 14.0519 24.985C14.4093 24.6731 14.8382 24.3645 14.9746 24.2995C15.1111 24.2345 15.1046 24.0883 14.8024 24.0006C14.5003 23.9096 13.61 23.5945 13.2981 23.3995C12.9862 23.2046 12.5411 22.9479 12.3819 22.8634C12.2227 22.7789 11.9141 22.6003 12.2097 22.9609C12.5151 23.3345 12.918 23.5587 13.1259 23.7407C13.1682 23.7764 13.0805 23.8121 13.0285 23.7959C12.8238 23.7439 12.4014 23.6367 12.2032 23.4158C11.8946 23.0681 11.5599 22.532 11.4884 22.4118C11.4202 22.2883 11.287 22.2136 11.3162 22.7465C11.3455 23.2793 11.5339 24.0688 11.8101 24.7219C12.083 25.3749 12.9375 26.7947 13.1032 26.5413C13.1032 26.5413 13.4248 26.0605 14.0682 25.6153C14.7147 25.1735 16.0208 24.3092 16.3522 23.5977Z" fill="#0F0F10" fill-opacity="0.15"/>
<path d="M10.3155 22.9089C10.3123 22.8732 10.2798 22.8439 10.2441 22.8472L10.0524 22.8634C10.0166 22.8667 9.98738 22.8992 9.99063 22.9349C10.1238 24.3287 10.6437 25.4594 11.0563 26.1644C11.4299 26.8045 11.7841 27.2139 11.9076 27.3503C11.9335 27.3796 11.9758 27.3796 12.005 27.3536L12.1415 27.2204C12.1675 27.1944 12.1675 27.1554 12.1447 27.1294C11.8881 26.8435 10.5397 25.2417 10.3155 22.9089Z" fill="#0F0F10" fill-opacity="0.15"/>
<path d="M16.4887 28.1008C16.0371 28.2081 15.4067 28.247 15.2638 28.2503C15.1241 28.2535 14.9941 28.3315 15.475 28.559C15.9558 28.7864 16.7421 28.9976 17.4471 29.069C18.1522 29.1405 19.8059 29.0658 19.6597 28.7994C19.6597 28.7994 19.39 28.2893 19.3056 27.5095C19.2211 26.733 19.0846 25.1702 18.6168 24.5399C18.8929 25.4919 18.9417 26.5251 19.0067 26.9669C19.0424 27.2139 19.0586 27.6362 19.0781 27.8864C19.0846 27.9514 19.0067 27.9546 18.9839 27.8929C18.9124 27.7077 18.7825 27.4023 18.7402 27.2204C18.6363 26.759 18.5713 26.2327 18.5778 26.0832C18.5843 25.9305 18.4543 25.8688 18.2334 26.0897C18.0092 26.3106 17.3107 26.9442 16.989 27.1261C16.6674 27.3081 16.2287 27.5777 16.0793 27.6785C15.9298 27.7792 15.6244 27.9644 16.0825 27.8767C16.5569 27.7857 16.9468 27.5388 17.2067 27.4413C17.2587 27.4218 17.2457 27.516 17.2099 27.555C17.0702 27.711 16.7746 28.0326 16.4887 28.1008Z" fill="#0F0F10" fill-opacity="0.15"/>
<path d="M19.8059 29.969C19.7962 29.9333 19.7604 29.9138 19.7279 29.9235C19.3511 30.0145 17.3009 30.4369 15.1403 29.5207C15.1078 29.5077 15.0689 29.5207 15.0526 29.5564L14.9746 29.7319C14.9584 29.7643 14.9746 29.8066 15.0104 29.8196C16.3002 30.3654 17.5414 30.4499 18.3601 30.4206C19.1009 30.3947 19.6305 30.2809 19.8092 30.2355C19.8449 30.2257 19.8677 30.19 19.8579 30.151L19.8059 29.969Z" fill="#0F0F10" fill-opacity="0.15"/>
<path d="M24.0231 26.3594C24.4455 25.7908 25.2285 24.332 24.9264 24.319C24.9264 24.319 24.348 24.2897 23.6397 23.9616C22.9282 23.6334 21.5181 22.9511 20.7384 23.0324C21.6968 23.2858 22.6098 23.7699 23.0224 23.9421C23.2531 24.0363 23.6235 24.241 23.8477 24.3515C23.9062 24.3807 23.8704 24.4457 23.8054 24.4359C23.6105 24.4035 23.2791 24.358 23.1037 24.2995C22.652 24.1533 22.1712 23.9388 22.0445 23.8544C21.9178 23.7699 21.7976 23.8511 21.8723 24.1565C21.947 24.4619 22.1322 25.3879 22.1225 25.755C22.1127 26.1222 22.1192 26.6388 22.129 26.8175C22.1387 26.9962 22.1419 27.3536 22.3012 26.9149C22.4669 26.4601 22.4539 25.9987 22.5026 25.7291C22.5123 25.6771 22.5871 25.7323 22.6001 25.7843C22.6585 25.989 22.782 26.4049 22.6943 26.6875C22.5546 27.1326 22.2654 27.6915 22.1939 27.8149C22.1257 27.9384 22.1257 28.0878 22.5676 27.7922C23.0192 27.4965 23.6008 26.9279 24.0231 26.3594Z" fill="#0F0F10" fill-opacity="0.15"/>
<path d="M26.187 24.8453L26.0018 24.7966C25.9661 24.7868 25.9303 24.8063 25.9206 24.8421C25.8036 25.2125 25.1181 27.1879 23.2239 28.5752C23.1946 28.5979 23.1882 28.6369 23.2076 28.6694L23.3181 28.8254C23.3409 28.8546 23.3831 28.8611 23.4123 28.8416C24.543 28.0164 25.248 26.9929 25.6444 26.2749C26.0018 25.6251 26.174 25.1117 26.2292 24.9363C26.2455 24.8941 26.226 24.8583 26.187 24.8453Z" fill="#0F0F10" fill-opacity="0.15"/>
<path d="M23.0452 18.3635C23.1004 18.3278 23.1394 18.3928 23.0972 18.4415C22.9705 18.5942 22.7658 18.8574 22.6261 18.9808C22.2719 19.296 21.8463 19.6047 21.7098 19.6729C21.5734 19.7411 21.5831 19.8841 21.8853 19.9718C22.1875 20.0595 23.0809 20.3682 23.3928 20.5599C23.7047 20.7548 24.1531 21.0082 24.3156 21.0895C24.4748 21.1707 24.7867 21.3494 24.4878 20.9887C24.1791 20.6184 23.7762 20.3942 23.565 20.2155C23.5228 20.1797 23.6105 20.144 23.6625 20.157C23.8672 20.209 24.2896 20.3129 24.491 20.5306C24.8029 20.875 25.1441 21.4079 25.2123 21.5281C25.2838 21.6483 25.4137 21.723 25.3812 21.1934C25.3487 20.6606 25.1506 19.8711 24.8744 19.2213C24.5982 18.5715 23.7307 17.1581 23.5683 17.4148C23.5683 17.4148 23.2531 17.8989 22.6098 18.3473C21.96 18.7989 20.6604 19.6729 20.3355 20.3877C21.0373 19.6859 21.9145 19.1433 22.2719 18.8704C22.4734 18.7209 22.8373 18.5032 23.0452 18.3635Z" fill="#0F0F10" fill-opacity="0.15"/>
<path d="M26.7003 20.9985C26.5574 19.6079 26.0278 18.4805 25.6087 17.7755C25.2285 17.1387 24.8711 16.7325 24.7477 16.5961C24.7217 16.5668 24.6795 16.5668 24.6502 16.5928L24.5138 16.7293C24.4878 16.7553 24.4878 16.7943 24.5105 16.8203C24.7737 17.1062 26.1318 18.6982 26.3754 21.031C26.3787 21.0667 26.4112 21.0927 26.4469 21.0895L26.6386 21.07C26.6776 21.0667 26.7036 21.0342 26.7003 20.9985Z" fill="#0F0F10" fill-opacity="0.15"/>
<path d="M23.5585 14.4062C23.6073 14.1885 23.643 13.9059 23.6398 13.6882C23.6398 13.6557 23.6105 13.6297 23.578 13.633L23.1167 13.6785C23.0874 13.6817 23.0679 13.7044 23.0647 13.7337C23.0614 13.9156 23.0322 14.1008 22.99 14.2698C22.9835 14.299 22.9997 14.3315 23.0322 14.338L23.4903 14.4452C23.5196 14.4582 23.552 14.4387 23.5585 14.4062Z" fill="#424242"/>
<path d="M23.003 14.5329C22.9575 14.5232 22.912 14.5492 22.8957 14.5914C22.795 14.8838 22.6878 15.0853 22.6878 15.0853C22.6878 15.0853 23.1199 15.4882 23.1914 15.3712C23.2304 15.3095 23.3571 15.0755 23.4643 14.7409C23.4806 14.6889 23.4513 14.6369 23.3993 14.6239L23.003 14.5329Z" fill="#424242"/>
<path d="M23.4156 12.6388C23.4026 12.6095 23.3669 12.5933 23.3344 12.6063L22.8828 12.772C22.847 12.785 22.8308 12.824 22.847 12.8597C22.899 12.9734 22.9477 13.1001 22.9965 13.2463C23.016 13.3081 23.0322 13.3731 23.042 13.4348C23.0484 13.4673 23.0777 13.49 23.1102 13.4868L23.5585 13.4413C23.5943 13.438 23.6203 13.4055 23.617 13.3698C23.5845 13.0806 23.5163 12.8435 23.4156 12.6388Z" fill="#424242"/>
<path d="M22.6845 12.5478C22.7105 12.59 22.7593 12.6063 22.8048 12.59L23.1621 12.4601C23.2271 12.4373 23.2499 12.3561 23.2076 12.3009C23.0744 12.1254 22.9185 11.976 22.7463 11.833C22.7073 11.8005 22.6488 11.8005 22.6131 11.8363L22.3954 12.0312C22.3531 12.0702 22.3499 12.1384 22.3921 12.1807C22.4928 12.2781 22.5903 12.3983 22.6845 12.5478Z" fill="#424242"/>
<path d="M22.4084 11.5828C22.2167 11.4691 21.9958 11.3652 21.7716 11.2807C21.7229 11.2612 21.6676 11.2839 21.6449 11.3294L21.5344 11.5504C21.5084 11.6023 21.5312 11.6673 21.5864 11.6868C21.7846 11.768 21.9633 11.8525 22.0802 11.9305C22.0835 11.9337 22.0867 11.9337 22.09 11.937C22.129 11.963 22.1777 11.9597 22.2135 11.9272L22.4214 11.742C22.4734 11.6998 22.4669 11.6186 22.4084 11.5828Z" fill="#424242"/>
<path d="M20.6572 10.9428C20.5435 10.9103 20.4297 11.3652 20.6084 11.3847C20.7417 11.4009 20.9756 11.4659 21.229 11.5504C21.2745 11.5666 21.3232 11.5471 21.3427 11.5049L21.4564 11.2774C21.4824 11.2254 21.4564 11.1637 21.4012 11.1475C20.9886 11.0143 20.6572 10.9428 20.6572 10.9428Z" fill="#424242"/>
<path d="M13.4573 13.6915C13.6165 13.7824 13.7595 13.8994 13.8895 14.0164C13.9122 14.0391 13.9479 14.0358 13.9707 14.0131L14.2891 13.6655C14.3118 13.6427 14.3086 13.607 14.2858 13.5842C14.1201 13.4348 13.8927 13.2658 13.701 13.1651C13.6718 13.1489 13.636 13.1619 13.623 13.1911L13.4378 13.6167C13.4216 13.646 13.4313 13.6785 13.4573 13.6915Z" fill="#424242"/>
<path d="M14.4548 14.6792C14.4548 14.6792 15.0169 14.5005 14.9519 14.3802C14.9161 14.3153 14.7732 14.0911 14.536 13.8344C14.5003 13.7954 14.4385 13.7954 14.4028 13.8344L14.1266 14.1333C14.0941 14.1691 14.0941 14.221 14.1266 14.2568C14.3281 14.4875 14.4548 14.6792 14.4548 14.6792Z" fill="#424242"/>
<path d="M13.4086 13.0287C13.1422 12.9182 12.8985 12.863 12.6711 12.85C12.6386 12.8467 12.6094 12.8694 12.6029 12.9052L12.5281 13.3828C12.5216 13.4185 12.5476 13.4543 12.5866 13.4575C12.7101 13.4673 12.8465 13.4868 12.996 13.516C13.061 13.529 13.1227 13.5452 13.1844 13.568C13.2169 13.5777 13.2494 13.5647 13.2657 13.5322L13.4476 13.1196C13.4573 13.0806 13.4411 13.0416 13.4086 13.0287Z" fill="#424242"/>
<path d="M12.278 12.863C12.0603 12.8922 11.8523 12.9572 11.6444 13.0352C11.5957 13.0546 11.5697 13.1034 11.5794 13.1521L11.6444 13.438C11.6574 13.4965 11.7159 13.529 11.7711 13.5128C11.9076 13.4738 12.057 13.4445 12.2357 13.438C12.2845 13.4348 12.3234 13.399 12.3332 13.3536L12.3949 12.9767C12.4047 12.9117 12.3462 12.8532 12.278 12.863Z" fill="#424242"/>
<path d="M10.9523 13.9806C11.118 13.8474 11.2837 13.7337 11.4072 13.6687C11.4105 13.6655 11.4137 13.6655 11.417 13.6622C11.4592 13.6427 11.4787 13.594 11.4689 13.5517L11.4072 13.2788C11.391 13.2138 11.3162 13.1814 11.2578 13.2138C11.0628 13.3243 10.8679 13.4705 10.6827 13.6232C10.6437 13.6557 10.6339 13.7142 10.6632 13.7564L10.8029 13.9579C10.8386 14.0066 10.9069 14.0164 10.9523 13.9806Z" fill="#424242"/>
<path d="M10.387 13.8831C10.0686 14.1756 9.84442 14.429 9.84442 14.429C9.75995 14.5102 10.1011 14.8351 10.2083 14.6889C10.2863 14.5817 10.4585 14.4062 10.6567 14.2308C10.6924 14.1983 10.6989 14.1463 10.6729 14.1073L10.53 13.8994C10.4942 13.8507 10.4292 13.8442 10.387 13.8831Z" fill="#424242"/>
<path d="M8.85348 21.892C9.01268 21.8042 9.18813 21.7393 9.35708 21.6905C9.38632 21.6808 9.40581 21.6515 9.39607 21.6191L9.26286 21.1674C9.25311 21.1382 9.22062 21.1187 9.19138 21.1285C8.97694 21.1934 8.71702 21.3006 8.52858 21.4144C8.49934 21.4306 8.49284 21.4696 8.51233 21.4956L8.782 21.8757C8.79825 21.9017 8.82749 21.9082 8.85348 21.892Z" fill="#424242"/>
<path d="M9.53252 21.044C9.48054 21.0537 9.44805 21.109 9.46429 21.1577L9.57801 21.5476C9.591 21.5931 9.63649 21.6191 9.68198 21.6126C9.98413 21.5541 10.2148 21.5476 10.2148 21.5476C10.2148 21.5476 10.3513 20.9725 10.2148 20.9693C10.1401 20.966 9.87367 20.9725 9.53252 21.044Z" fill="#424242"/>
<path d="M8.19717 22.519C8.2719 22.4183 8.35637 22.3111 8.45709 22.1974C8.49933 22.1486 8.54807 22.1032 8.60005 22.0642C8.62604 22.0414 8.62929 22.0057 8.6098 21.9764L8.34988 21.6093C8.33038 21.5801 8.28815 21.5736 8.2589 21.5963C8.02497 21.7685 7.85278 21.9472 7.72282 22.1356C7.70332 22.1616 7.70982 22.2006 7.73256 22.2201L8.0997 22.532C8.13219 22.5515 8.17443 22.5483 8.19717 22.519Z" fill="#424242"/>
<path d="M7.70333 23.3183C7.75857 23.3378 7.8203 23.3053 7.83329 23.2468C7.86903 23.1104 7.92427 22.9674 8.00874 22.8114C8.03148 22.7692 8.02174 22.7172 7.986 22.6847L7.69359 22.4378C7.6416 22.3923 7.56038 22.4118 7.53438 22.4768C7.44666 22.6782 7.39468 22.8894 7.35569 23.1104C7.34594 23.1591 7.37518 23.2111 7.42392 23.2241L7.70333 23.3183Z" fill="#424242"/>
<path d="M7.31022 23.5295C7.30372 23.7537 7.32646 23.9973 7.3622 24.2313C7.3687 24.2833 7.41744 24.319 7.46942 24.3157L7.71635 24.2995C7.77483 24.2963 7.81707 24.2443 7.81057 24.1858C7.78458 23.9746 7.76833 23.7764 7.77808 23.6367C7.77808 23.6335 7.77808 23.6302 7.77808 23.6237C7.78133 23.5782 7.75209 23.536 7.70985 23.5197L7.44668 23.432C7.37845 23.4158 7.31022 23.4613 7.31022 23.5295Z" fill="#424242"/>
<path d="M7.62212 25.3684C7.65136 25.4821 8.10297 25.3554 8.03149 25.1897C7.97951 25.0663 7.91778 24.8291 7.86904 24.5692C7.85929 24.5237 7.81706 24.4912 7.77157 24.4944L7.51815 24.5107C7.46291 24.5139 7.42068 24.5659 7.43367 24.6244C7.5214 25.0435 7.62212 25.3684 7.62212 25.3684Z" fill="#424242"/>
<path d="M13.0415 29.6604C12.9992 29.8781 12.9667 30.1607 12.9765 30.3784C12.9765 30.4109 13.0057 30.4369 13.0415 30.4336L13.5028 30.3784C13.5321 30.3752 13.5515 30.3492 13.5515 30.3199C13.5515 30.138 13.5775 29.9528 13.6133 29.7838C13.6198 29.7546 13.6003 29.7221 13.571 29.7156L13.1097 29.6181C13.0772 29.6116 13.048 29.6311 13.0415 29.6604Z" fill="#424242"/>
<path d="M13.5938 29.5207C13.6393 29.5304 13.6848 29.5044 13.701 29.4589C13.7952 29.1633 13.8992 28.9618 13.8992 28.9618C13.8992 28.9618 13.4606 28.5687 13.3891 28.6857C13.3534 28.7474 13.2299 28.9846 13.1292 29.3225C13.1129 29.3745 13.1454 29.4264 13.1974 29.4362L13.5938 29.5207Z" fill="#424242"/>
<path d="M13.2234 31.4278C13.2397 31.4571 13.2722 31.4701 13.3047 31.4603L13.753 31.2849C13.7888 31.2719 13.805 31.2329 13.7888 31.1972C13.7335 31.0834 13.6815 30.9567 13.6296 30.8138C13.6068 30.752 13.5906 30.6903 13.5776 30.6253C13.5711 30.5928 13.5418 30.5701 13.5061 30.5734L13.0577 30.6286C13.022 30.6318 12.996 30.6643 13.0025 30.7001C13.0415 30.986 13.1195 31.2232 13.2234 31.4278Z" fill="#424242"/>
<path d="M13.9544 31.4993C13.9285 31.4571 13.8765 31.4408 13.831 31.4603L13.4768 31.6C13.4119 31.626 13.3924 31.704 13.4346 31.7592C13.5711 31.9314 13.7335 32.0776 13.9057 32.2174C13.9447 32.2498 14.0032 32.2466 14.0389 32.2109L14.2534 32.0094C14.2956 31.9704 14.2956 31.9022 14.2534 31.86C14.1526 31.7657 14.0519 31.6488 13.9544 31.4993Z" fill="#424242"/>
<path d="M14.2534 32.4578C14.4483 32.5682 14.6725 32.6657 14.8967 32.7469C14.9454 32.7632 15.0006 32.7404 15.0234 32.695L15.1274 32.4708C15.1533 32.4188 15.1274 32.3538 15.0721 32.3343C14.8739 32.2563 14.692 32.1751 14.5718 32.1004C14.5685 32.0971 14.5653 32.0971 14.562 32.0939C14.523 32.0679 14.471 32.0744 14.4386 32.1036L14.2339 32.2953C14.1851 32.3441 14.1949 32.4253 14.2534 32.4578Z" fill="#424242"/>
<path d="M16.0176 33.0588C16.1313 33.0881 16.2353 32.63 16.0566 32.6137C15.9233 32.6007 15.6862 32.5422 15.4327 32.461C15.3873 32.448 15.3385 32.4675 15.319 32.5098L15.2118 32.7404C15.1891 32.7924 15.2151 32.8542 15.2703 32.8704C15.6862 32.9939 16.0176 33.0588 16.0176 33.0588Z" fill="#424242"/>
<path d="M23.1004 30.3492C22.9445 30.2549 22.7983 30.1412 22.6716 30.021C22.6488 29.9983 22.6131 30.0015 22.5903 30.0243L22.2687 30.3687C22.246 30.3914 22.2492 30.4271 22.2719 30.4499C22.4376 30.5993 22.6651 30.7715 22.8568 30.8755C22.886 30.8918 22.9217 30.8788 22.9347 30.8495L23.1232 30.4239C23.1362 30.3947 23.1264 30.3654 23.1004 30.3492Z" fill="#424242"/>
<path d="M22.1095 29.355C22.1095 29.355 21.5474 29.5304 21.6124 29.6506C21.6481 29.7156 21.7878 29.9398 22.025 30.1997C22.0607 30.2387 22.1225 30.2387 22.1582 30.1997L22.4344 29.9008C22.4669 29.8651 22.4669 29.8131 22.4344 29.7773C22.2329 29.5499 22.1095 29.355 22.1095 29.355Z" fill="#424242"/>
<path d="M23.1459 31.012C23.4123 31.1257 23.656 31.1809 23.8802 31.1972C23.9127 31.2004 23.9419 31.1777 23.9484 31.1452L24.0264 30.6708C24.0329 30.6351 24.0069 30.5993 23.9679 30.5961C23.8445 30.5863 23.708 30.5668 23.5585 30.5376C23.4936 30.5246 23.4318 30.5084 23.3701 30.4856C23.3376 30.4726 23.3051 30.4889 23.2889 30.5214L23.1069 30.934C23.0972 30.96 23.1134 30.999 23.1459 31.012Z" fill="#424242"/>
<path d="M24.2766 31.1842C24.4943 31.1549 24.7022 31.0932 24.9101 31.0152C24.9589 30.999 24.9849 30.947 24.9751 30.8982L24.9134 30.6123C24.9004 30.5539 24.8419 30.5214 24.7867 30.5376C24.6502 30.5766 24.5008 30.6026 24.3221 30.6091C24.2733 30.6123 24.2343 30.6448 24.2246 30.6936L24.1629 31.0704C24.1499 31.1354 24.2083 31.1939 24.2766 31.1842Z" fill="#424242"/>
<path d="M25.6087 30.0762C25.4397 30.2062 25.2773 30.3232 25.1538 30.3849C25.1505 30.3882 25.1473 30.3882 25.1441 30.3914C25.1018 30.4109 25.0823 30.4564 25.0921 30.5019L25.1505 30.7748C25.1635 30.8398 25.2383 30.8755 25.3 30.8398C25.4949 30.7293 25.6931 30.5863 25.8783 30.4369C25.9173 30.4044 25.9271 30.3459 25.8978 30.3037L25.7581 30.099C25.7224 30.0503 25.6541 30.0405 25.6087 30.0762Z" fill="#424242"/>
<path d="M26.1707 30.177C26.4891 29.8846 26.7166 29.6344 26.7166 29.6344C26.801 29.5532 26.4599 29.2283 26.3559 29.3745C26.2779 29.4817 26.1057 29.6539 25.9043 29.8293C25.8686 29.8618 25.8621 29.9138 25.8881 29.9528L26.031 30.164C26.0635 30.2095 26.1285 30.216 26.1707 30.177Z" fill="#424242"/>
<path d="M27.8472 22.0317C27.688 22.1194 27.5158 22.1876 27.3469 22.2364C27.3176 22.2461 27.2981 22.2754 27.3079 22.3078L27.4444 22.7595C27.4541 22.7887 27.4866 22.8082 27.5158 22.7985C27.727 22.7302 27.9902 22.623 28.1754 22.5093C28.2046 22.493 28.2111 22.4541 28.1916 22.4281L27.9187 22.0512C27.9025 22.0252 27.8732 22.0187 27.8472 22.0317Z" fill="#424242"/>
<path d="M27.178 22.8862C27.2299 22.8764 27.2624 22.8212 27.2462 22.7692L27.1292 22.3793C27.1162 22.3338 27.0707 22.3078 27.0253 22.3176C26.7231 22.3793 26.4924 22.3858 26.4924 22.3858C26.4924 22.3858 26.3592 22.9609 26.4989 22.9642C26.5671 22.9674 26.8336 22.9609 27.178 22.8862Z" fill="#424242"/>
<path d="M28.497 21.4046C28.4256 21.5053 28.3378 21.6126 28.2404 21.7263C28.1981 21.775 28.1494 21.8205 28.1006 21.8627C28.0747 21.8855 28.0714 21.9212 28.0909 21.9505L28.3541 22.3176C28.3736 22.3468 28.4158 22.3533 28.445 22.3306C28.6757 22.1584 28.8479 21.9765 28.9746 21.788C28.9941 21.762 28.9876 21.723 28.9616 21.7035L28.5912 21.3949C28.562 21.3689 28.5198 21.3721 28.497 21.4046Z" fill="#424242"/>
<path d="M28.9844 20.5989C28.9292 20.5794 28.8674 20.6119 28.8544 20.6703C28.8187 20.8068 28.7667 20.9498 28.6822 21.109C28.6595 21.1512 28.6693 21.2032 28.7082 21.2357L29.0007 21.4793C29.0526 21.5248 29.1339 21.5021 29.1599 21.4404C29.2443 21.2357 29.2963 21.0245 29.3321 20.8068C29.3418 20.7581 29.3126 20.7093 29.2638 20.6931L28.9844 20.5989Z" fill="#424242"/>
<path d="M29.3775 20.3844C29.3808 20.1602 29.3548 19.9166 29.319 19.6826C29.3126 19.6307 29.2638 19.5949 29.2118 19.5982L28.9649 19.6144C28.9064 19.6177 28.8642 19.6696 28.8707 19.7281C28.8999 19.9393 28.9162 20.1375 28.9064 20.2772C28.9064 20.2805 28.9064 20.2837 28.9064 20.2902C28.9032 20.3357 28.9324 20.3779 28.9747 20.3942L29.2411 20.4787C29.3093 20.4981 29.3775 20.4527 29.3775 20.3844Z" fill="#424242"/>
<path d="M29.0526 18.5487C29.0234 18.435 28.5718 18.565 28.6432 18.7307C28.6952 18.8509 28.757 19.0881 28.8089 19.3512C28.8187 19.3967 28.8609 19.4292 28.9064 19.426L29.1598 19.4097C29.2151 19.4065 29.2573 19.3512 29.2443 19.296C29.1566 18.8704 29.0526 18.5487 29.0526 18.5487Z" fill="#424242"/>
<path d="M30.3002 17.3044C30.4822 17.2719 30.6186 17.2686 30.4887 17.1939C30.3587 17.1192 29.7024 16.8365 29.7024 16.8365C29.1663 16.6221 28.9032 15.7221 28.718 15.4427C28.5295 15.1633 28.4483 14.7246 28.2436 14.6077C27.7628 14.3283 27.701 14.8286 27.2527 14.2373C26.931 13.8182 26.5834 13.1489 26.057 12.9149C25.5339 12.681 25.1733 13.1814 25.1733 13.1814C25.0108 13.3503 25.261 13.3146 25.4105 13.2366C25.5599 13.1586 25.5957 13.4218 25.6801 13.633C25.7646 13.8442 25.8621 14.0099 25.9888 14.1658C26.1155 14.3218 25.9466 14.3185 25.8231 14.2373C25.6996 14.1528 25.5339 13.8669 25.3033 13.7532C25.0726 13.6395 25.1376 14.0488 25.4397 14.2438C25.7419 14.4387 25.9108 14.8384 26.0408 15.2542C26.1707 15.6701 26.0863 16.1282 26.1253 16.6935C26.1642 17.2589 26.5834 17.6325 27.1357 18.2498C27.688 18.8671 27.9804 19.4227 28.0194 19.9523C28.0422 20.2545 27.8732 20.6996 27.5321 21.0505C27.2202 21.3689 26.4891 21.5833 26.1155 21.6873C25.7419 21.7913 25.4787 21.7458 25.6509 21.8302C25.8231 21.918 26.827 21.8237 27.3436 21.671C27.8602 21.5216 28.2534 20.9887 28.3963 20.4202C28.6335 19.4845 28.0422 18.357 27.2982 17.6163C26.5541 16.8755 26.4177 16.3199 26.4307 16.1282C26.4437 15.9365 26.5964 15.7578 26.6483 16.0177C26.7036 16.2777 26.7491 16.5668 27.3469 17.2719C27.9447 17.9769 28.5035 18.0549 28.7407 18.1166C28.9779 18.1783 29.2151 18.1783 29.2736 18.3668C29.332 18.5552 29.8291 19.7476 29.5627 20.9335C29.4133 21.6028 29.1728 22.0739 28.6043 22.6035C28.0357 23.1331 27.0675 23.2598 26.3429 23.2533C25.6184 23.2468 25.0206 23.0324 24.7899 22.9641C24.5625 22.8927 24.5267 22.74 24.6892 22.7887C25.0238 22.8927 25.7516 22.9187 26.0668 22.9447C26.122 22.9479 26.1675 22.9057 26.1675 22.8504V22.532C26.1675 22.4865 26.1318 22.4476 26.083 22.4443C25.9011 22.4281 25.3975 22.3826 24.6112 21.905C23.6365 21.3104 22.4701 20.3974 21.0925 20.5696C20.329 20.6638 20.2055 21.1415 19.7214 21.5118C19.6142 21.5931 19.3933 21.8237 19.1659 22.0707C19.1366 22.0057 19.1106 21.931 19.0846 21.8465C19.1756 21.1772 19.7962 20.2187 20.0626 19.8321C20.3777 19.3772 21.2647 18.6072 21.8268 18.2271C22.3889 17.8469 23.7015 16.3654 23.8315 16.1217C23.9614 15.878 23.8964 16.3102 23.9062 16.5278C23.9159 16.7455 24.0037 16.6351 24.0037 16.6351C24.0037 16.6351 24.4358 15.8228 24.6112 14.7441C24.7834 13.6655 24.621 12.564 23.3668 11.0695C22.1095 9.57495 20.238 9.9096 19.9781 9.89985C19.7182 9.8901 20.1406 9.4125 20.2055 9.2403C20.2705 9.0681 20.3355 8.94789 20.2055 9.02261C20.0756 9.09734 19.5005 9.51971 19.5005 9.51971C19.0456 9.87711 18.1359 9.64968 17.8013 9.67242C17.4666 9.69516 17.0443 9.54571 16.8396 9.66267C16.3555 9.93884 16.7583 10.241 16.0208 10.3352C15.4945 10.4002 14.744 10.3677 14.2793 10.7024C13.8147 11.037 14.0649 11.6023 14.0649 11.6023C14.1299 11.8265 14.2209 11.5926 14.2306 11.4269C14.2404 11.2579 14.484 11.3587 14.7082 11.3911C14.9324 11.4236 15.1241 11.4236 15.3223 11.3911C15.5205 11.3587 15.4327 11.5049 15.2995 11.5698C15.1663 11.6348 14.8317 11.6348 14.6172 11.7745C14.4028 11.9142 14.7894 12.0669 15.1111 11.9045C15.4327 11.742 15.8616 11.7973 16.2872 11.8947C16.7129 11.9922 17.067 12.2944 17.5738 12.5445C18.0807 12.7947 18.6135 12.6193 19.4258 12.4536C20.238 12.2879 20.8651 12.3139 21.3427 12.5445C21.6156 12.6745 21.9178 13.0481 22.0477 13.5193C22.1647 13.9481 21.9828 14.6889 21.8853 15.0625C21.7878 15.4362 21.6156 15.6409 21.7781 15.5369C21.9405 15.4329 22.3629 14.5167 22.4929 13.9936C22.6228 13.4738 22.3596 12.863 21.9405 12.4536C21.2517 11.7778 19.9814 11.7225 18.9644 11.9922C17.9475 12.2619 17.4016 12.1027 17.2424 11.9922C17.0832 11.885 17.0053 11.6641 17.2554 11.7485C17.5056 11.833 17.7818 11.937 18.6883 11.7745C19.5947 11.6121 19.9456 11.167 20.1178 10.9948C20.29 10.8226 20.4102 10.6146 20.6019 10.6601C20.7936 10.7024 22.0737 10.8746 22.9672 11.6998C23.4708 12.1677 23.7567 12.6095 23.9322 13.3666C24.1044 14.1236 23.7275 15.0235 23.3571 15.6474C22.99 16.2712 22.5026 16.6805 22.3272 16.843C22.1517 17.0055 21.999 16.9567 22.1225 16.843C22.3791 16.6058 22.769 15.9885 22.951 15.7318C22.9835 15.6863 22.9672 15.6246 22.9185 15.5986L22.6456 15.4362C22.6033 15.4134 22.5546 15.4264 22.5253 15.4622C22.4181 15.6116 22.129 16.0242 21.32 16.4629C20.316 17.0055 18.9417 17.5578 18.3958 18.8346C18.0937 19.5429 18.4446 19.8906 18.5226 20.4949C18.5388 20.6216 18.6168 20.8978 18.7078 21.1999C18.1294 20.8653 17.5316 19.7379 17.3074 19.283C17.0637 18.7859 16.8266 17.6358 16.7681 16.96C16.7096 16.2842 16.0566 14.416 15.9103 14.1853C15.7641 13.9546 16.1053 14.221 16.3002 14.3153C16.4952 14.4095 16.4432 14.2828 16.4432 14.2828C16.4432 14.2828 15.9461 13.5095 15.0883 12.8305C14.2306 12.1514 13.1909 11.755 11.2708 12.1222C9.35383 12.4893 8.73327 14.2893 8.59681 14.5102C8.46035 14.7311 8.24916 14.1301 8.1322 13.9904C8.01199 13.8507 7.94051 13.7337 7.94376 13.8831C7.94701 14.0326 8.03473 14.7409 8.03473 14.7409C8.1257 15.3127 7.4824 15.995 7.33619 16.3004C7.18998 16.6026 6.85534 16.8982 6.85858 17.1354C6.86508 17.691 7.32319 17.4896 7.04378 18.1783C6.84559 18.6689 6.44921 19.309 6.51419 19.8776C6.57917 20.4462 7.19973 20.4981 7.19973 20.4981C7.42716 20.5501 7.26796 20.3552 7.125 20.2675C6.98205 20.1765 7.18998 20.014 7.32644 19.8321C7.4694 19.6534 7.56362 19.4845 7.63185 19.296C7.70008 19.1076 7.7878 19.2538 7.77806 19.4032C7.76831 19.5527 7.60586 19.8418 7.62535 20.0985C7.64485 20.3552 7.96325 20.092 7.9795 19.7314C7.99574 19.3707 8.25241 19.0231 8.54482 18.7014C8.83724 18.3798 9.27585 18.2173 9.74046 17.8957C10.2051 17.574 10.3155 17.0249 10.5657 16.2322C10.8159 15.4427 11.144 14.9098 11.5794 14.6044C11.8263 14.4322 12.2974 14.3478 12.775 14.4647C13.2072 14.5719 13.7627 15.0918 14.0422 15.3614C14.3216 15.6279 14.4158 15.8813 14.4028 15.6863C14.3898 15.4914 13.7985 14.6759 13.4054 14.3088C13.0155 13.9416 12.3559 13.8734 11.7906 14.0391C10.8646 14.312 10.1953 15.3939 9.9354 16.4109C9.67548 17.4311 9.26936 17.8275 9.09716 17.9152C8.92496 18.0029 8.69428 17.9607 8.88922 17.7852C9.08416 17.6065 9.31159 17.4181 9.61375 16.5473C9.91591 15.6766 9.69823 15.1535 9.63 14.9163C9.56177 14.6792 9.44155 14.4777 9.57476 14.3283C9.70797 14.1788 10.4812 13.1489 11.6346 12.772C12.2877 12.5608 12.814 12.5251 13.5613 12.746C14.3086 12.9637 14.9064 13.7337 15.2703 14.3608C15.6342 14.9878 15.7544 15.6116 15.8096 15.8456C15.8649 16.0795 15.7511 16.1867 15.7089 16.0242C15.6277 15.6831 15.28 15.043 15.1436 14.7571C15.1208 14.7084 15.0591 14.6889 15.0104 14.7181L14.7375 14.8773C14.6985 14.9033 14.6822 14.9521 14.7017 14.9943C14.7797 15.16 14.9974 15.6149 14.9844 16.5343C14.9681 17.678 14.7764 19.1466 15.6277 20.2447C16.0988 20.8555 16.5731 20.7191 17.1385 20.9465C17.2749 21.0017 17.6226 21.083 17.98 21.1544L17.6583 21.3884C17.0118 21.5606 16.0533 21.5053 15.6309 21.4696C15.0786 21.4241 13.9707 21.031 13.3631 20.7321C12.7523 20.4332 10.8191 20.027 10.543 20.0368C10.2668 20.0433 10.6729 19.8873 10.8581 19.7704C11.0401 19.6534 10.9036 19.6339 10.9036 19.6339C10.9036 19.6339 9.98414 19.6599 8.9607 20.0433C7.93726 20.4267 7.06002 21.1155 6.38748 22.9479C5.70843 24.7803 6.93006 26.2424 7.04703 26.4731C7.16724 26.7038 6.54343 26.5738 6.36149 26.6031C6.17954 26.6323 6.04308 26.6355 6.17304 26.7103C6.303 26.785 6.95606 27.0742 6.95606 27.0742C7.49214 27.2918 7.74557 28.1951 7.93076 28.4745C8.11595 28.7539 8.19393 29.1958 8.39862 29.316C8.87947 29.5986 8.94121 29.0983 9.38632 29.6929C9.70472 30.1152 10.0491 30.7845 10.569 31.025C11.0921 31.2621 11.4559 30.765 11.4559 30.765C11.6184 30.5961 11.3715 30.6318 11.2188 30.7098C11.0693 30.7845 11.0336 30.5214 10.9523 30.3134C10.8679 30.1022 10.7737 29.9365 10.6469 29.7806C10.5202 29.6246 10.6924 29.6279 10.8159 29.7124C10.9394 29.7968 11.1051 30.086 11.3325 30.203C11.5599 30.3199 11.5014 29.9105 11.2025 29.7124C10.9036 29.5142 10.7347 29.1145 10.6112 28.6987C10.4845 28.2828 10.5722 27.8247 10.5365 27.2593C10.5007 26.694 10.0849 26.3171 9.53902 25.6933C8.99319 25.0695 8.70403 24.5139 8.66829 23.9843C8.64879 23.6822 8.82099 23.2371 9.16539 22.8894C9.48054 22.5743 10.2148 22.3663 10.5852 22.2656C10.9556 22.1649 11.222 22.2136 11.0498 22.1259C10.8776 22.0382 9.87367 22.1259 9.35708 22.2689C8.84049 22.4118 8.44086 22.9349 8.2914 23.5035C8.04448 24.436 8.62605 25.5699 9.36683 26.3171C10.1044 27.0644 10.2376 27.62 10.2213 27.8117C10.2051 28.0034 10.0524 28.1788 10.0004 27.9221C9.9484 27.6622 9.90291 27.3731 9.31159 26.6648C8.72027 25.9565 8.16144 25.872 7.92426 25.8103C7.68708 25.7453 7.44991 25.7453 7.39142 25.5569C7.33944 25.3652 6.85209 24.1695 7.12825 22.9836C7.28421 22.3143 7.52463 21.8465 8.09971 21.3201C8.67154 20.7938 9.63974 20.6768 10.3643 20.6866C11.0888 20.6963 11.6866 20.9173 11.9141 20.9887C12.1415 21.0602 12.1772 21.2162 12.0148 21.1642C11.6801 21.057 10.9523 21.0245 10.6372 20.9952C10.582 20.9887 10.5365 21.0342 10.5365 21.0895L10.5332 21.4079C10.5332 21.4534 10.569 21.4923 10.6144 21.4988C10.7964 21.5151 11.3 21.5638 12.0798 22.0512C13.0512 22.6522 14.2111 23.575 15.5887 23.4158C16.3555 23.328 16.4822 22.8504 16.9695 22.4833C17.002 22.4606 17.0443 22.4216 17.0897 22.3761C17.132 22.4508 17.1775 22.532 17.2197 22.61C17.0118 23.2013 16.6056 23.8576 16.4074 24.163C16.102 24.6244 15.2313 25.4139 14.679 25.807C14.1234 26.2002 12.8465 27.711 12.7231 27.9546C12.5996 28.1983 12.6548 27.7662 12.6386 27.5518C12.6223 27.3341 12.5379 27.4478 12.5379 27.4478C12.5379 27.4478 12.122 28.2698 11.9725 29.3517C11.8231 30.4336 12.0115 31.5318 13.2981 32.9971C14.588 34.4624 16.4529 34.0855 16.7129 34.092C16.9728 34.0985 16.5602 34.5826 16.5017 34.7581C16.4399 34.9335 16.3782 35.0537 16.5049 34.9758C16.6316 34.8978 17.197 34.4624 17.197 34.4624C17.6453 34.0953 18.5583 34.3032 18.8929 34.274C19.2276 34.2447 19.65 34.3844 19.8547 34.2642C20.3323 33.9783 19.9229 33.6827 20.6572 33.5754C21.1803 33.4975 21.934 33.5137 22.3921 33.1693C22.8502 32.8249 22.5871 32.2661 22.5871 32.2661C22.5156 32.0419 22.4311 32.2791 22.4246 32.448C22.4214 32.617 22.1712 32.5228 21.947 32.4935C21.7228 32.4675 21.5279 32.4708 21.333 32.5065C21.1348 32.5423 21.2192 32.396 21.3525 32.3278C21.4857 32.2596 21.8171 32.2531 22.0282 32.1069C22.2394 31.9607 21.8496 31.8177 21.5344 31.9867C21.216 32.1556 20.7871 32.1101 20.3615 32.0224C19.9359 31.9347 19.5752 31.639 19.0619 31.4018C18.5485 31.1647 18.019 31.3499 17.21 31.5351C16.4009 31.7203 15.7739 31.7073 15.293 31.4863C15.0201 31.3596 14.7082 30.9957 14.5685 30.5279C14.4418 30.1022 14.6075 29.3582 14.6952 28.9813C14.7829 28.6044 14.9519 28.3965 14.7927 28.5037C14.6335 28.6109 14.2306 29.5369 14.1136 30.06C13.9967 30.5831 14.2728 31.1874 14.7017 31.587C15.4067 32.2466 16.6771 32.2758 17.6876 31.9834C18.698 31.691 19.2471 31.8405 19.4095 31.9444C19.572 32.0484 19.6532 32.2661 19.3998 32.1881C19.1464 32.1101 18.8702 32.0094 17.967 32.1914C17.0637 32.3733 16.7226 32.8249 16.5537 33.0036C16.3847 33.1823 16.271 33.3902 16.076 33.3513C15.8844 33.3123 14.601 33.1693 13.688 32.3636C13.1747 31.9087 12.8758 31.4701 12.6873 30.7163C12.4956 29.9625 12.8563 29.0561 13.2104 28.4225C13.5646 27.7922 14.0422 27.3698 14.2144 27.2041C14.3866 27.0384 14.5393 27.0839 14.419 27.2009C14.1656 27.4445 13.7887 28.0684 13.6165 28.3315C13.5873 28.377 13.6035 28.4387 13.6523 28.4647L13.9284 28.6207C13.9707 28.6434 14.0194 28.6304 14.0454 28.5914C14.1494 28.4387 14.4288 28.0196 15.2281 27.5648C16.219 26.9994 17.5836 26.4179 18.0969 25.1312C18.3829 24.4165 18.0255 24.0753 17.9345 23.4742C17.9215 23.3865 17.876 23.2241 17.8175 23.0356C17.9312 23.0324 18.0644 23.0486 18.1944 23.0681C18.6623 23.5392 19.0976 24.3742 19.2763 24.7479C19.5168 25.245 19.7474 26.3984 19.7994 27.0742C19.8514 27.7532 20.4947 29.6214 20.6409 29.8553C20.7871 30.0892 20.446 29.8196 20.251 29.7221C20.0561 29.6246 20.1081 29.7546 20.1081 29.7546C20.1081 29.7546 20.5987 30.5311 21.4532 31.2134C22.3077 31.8957 23.3441 32.2986 25.2643 31.9444C27.1844 31.5903 27.8147 29.7936 27.9545 29.5727C28.0909 29.3517 28.2989 29.9528 28.4158 30.0957C28.536 30.2387 28.6075 30.3524 28.6043 30.203C28.601 30.0535 28.5198 29.3452 28.5198 29.3452C28.4321 28.7734 29.0786 28.0943 29.2281 27.7922C29.3743 27.49 29.7122 27.1976 29.7122 26.9604C29.7122 26.4049 29.2476 26.603 29.5335 25.9175C29.7349 25.4302 30.1345 24.7901 30.0728 24.2215C30.0111 23.6529 29.397 23.5912 29.397 23.5912C29.1696 23.536 29.3255 23.7309 29.4685 23.8219C29.6115 23.9129 29.4035 24.0753 29.2638 24.254C29.1241 24.4327 29.0299 24.6017 28.9617 24.7901C28.8934 24.9785 28.8057 24.8323 28.8187 24.6829C28.8284 24.5334 28.9909 24.2443 28.9746 23.9876C28.9584 23.7309 28.6367 23.9941 28.6173 24.3515C28.601 24.7121 28.3411 25.0598 28.0487 25.3782C27.7563 25.6966 27.3176 25.859 26.8498 26.1774C26.3819 26.4958 26.2715 27.0449 26.0148 27.8344C25.7581 28.6239 25.4267 29.1535 24.9914 29.4557C24.7444 29.6279 24.2701 29.7059 23.7957 29.5856C23.3636 29.4752 22.8113 28.9521 22.5318 28.6824C22.2557 28.4128 22.1615 28.1626 22.1745 28.3543C22.1842 28.546 22.7755 29.368 23.1622 29.7384C23.5488 30.1087 24.2116 30.1802 24.7737 30.0178C25.7029 29.7513 26.3787 28.6727 26.6419 27.6557C26.9083 26.6388 27.3176 26.2424 27.4898 26.1579C27.662 26.0735 27.8927 26.1124 27.6945 26.2911C27.4996 26.4666 27.2722 26.655 26.9635 27.5258C26.6548 28.3965 26.8693 28.9196 26.9375 29.1535C27.0025 29.3907 27.1227 29.5954 26.9895 29.7416C26.8563 29.8878 26.0765 30.9145 24.9199 31.2849C24.2668 31.4928 23.7372 31.5253 22.9932 31.3011C22.2492 31.0769 21.6546 30.3037 21.294 29.6766C20.9333 29.0496 20.8164 28.4225 20.7611 28.1886C20.7059 27.9546 20.8229 27.8474 20.8619 28.0131C20.9398 28.3543 21.2842 28.9976 21.4207 29.2835C21.4434 29.3322 21.5052 29.3517 21.5539 29.3225L21.8301 29.1633C21.869 29.1373 21.8853 29.0885 21.8658 29.0463C21.7878 28.8806 21.5734 28.4225 21.5896 27.503C21.6124 26.3594 21.8106 24.8941 20.9691 23.7894C20.5012 23.1753 20.0269 23.3118 19.4648 23.0779C19.3478 23.0291 19.0651 22.9577 18.7597 22.8927C18.7792 22.8147 18.8442 22.7335 18.9254 22.6522C19.5622 22.4281 20.6312 22.48 21.0795 22.5158C21.6319 22.558 22.743 22.9382 23.3538 23.2338C23.9647 23.5295 25.9043 23.9161 26.1805 23.9064C26.4567 23.8966 26.0505 24.0558 25.8686 24.176C25.6866 24.293 25.8231 24.3157 25.8231 24.3157C25.8231 24.3157 26.7426 24.2832 27.7628 23.8901C28.783 23.497 29.6537 22.8017 30.3132 20.966C30.9728 19.1271 29.7414 17.678 29.6212 17.4473C29.4945 17.2101 30.1183 17.3336 30.3002 17.3044ZM28.2761 15.8033C28.2014 15.8358 28.1267 15.6441 28.0942 15.5564C28.0617 15.4687 27.8245 15.2867 27.8245 15.2867C27.7888 15.199 27.8245 15.0788 27.9642 15.082C28.1299 15.082 28.1494 15.2672 28.2209 15.4134C28.2924 15.5564 28.3671 15.7643 28.2761 15.8033ZM17.5901 10.267C17.4991 10.2507 17.223 10.3645 17.223 10.3645C17.1287 10.3515 17.0443 10.2605 17.1157 10.1403C17.2002 9.99732 17.3692 10.0753 17.5316 10.085C17.6941 10.0948 17.9085 10.137 17.8987 10.2345C17.8858 10.3157 17.6811 10.2832 17.5901 10.267ZM7.75531 16.7748C7.69683 16.8462 7.66109 17.1452 7.66109 17.1452C7.60261 17.2231 7.4824 17.2524 7.41092 17.1289C7.32644 16.986 7.4759 16.8755 7.56362 16.739C7.65135 16.6026 7.79105 16.4336 7.87228 16.4921C7.94376 16.5408 7.81704 16.7033 7.75531 16.7748ZM8.37588 28.1203C8.4506 28.0878 8.52533 28.2795 8.55457 28.3705C8.58706 28.4582 8.82099 28.6434 8.82099 28.6434C8.85673 28.7344 8.82099 28.8514 8.67803 28.8481C8.51233 28.8449 8.49609 28.6629 8.42461 28.5167C8.35638 28.364 8.2849 28.1593 8.37588 28.1203ZM19.1009 33.6697C19.1919 33.6827 19.468 33.5624 19.468 33.5624C19.5622 33.5754 19.65 33.6599 19.5817 33.7834C19.5005 33.9263 19.3316 33.8549 19.1691 33.8484C19.0067 33.8419 18.789 33.8061 18.7987 33.7054C18.802 33.6274 19.0067 33.6534 19.1009 33.6697ZM28.8187 27.2983C28.8772 27.2269 28.9162 26.9312 28.9162 26.9312C28.9746 26.8565 29.0949 26.8272 29.1663 26.9474C29.2476 27.0904 29.0981 27.1976 29.0104 27.3341C28.9194 27.4705 28.7797 27.6362 28.6985 27.5778C28.6303 27.5323 28.7602 27.3698 28.8187 27.2983Z" fill="#424242"/>
</svg>
