<svg width="155" height="155" viewBox="0 0 155 155" fill="none" xmlns="http://www.w3.org/2000/svg">
<path d="M29.9492 70.5736C29.9492 48.0971 48.1701 29.8762 70.6466 29.8762H83.4535C105.93 29.8762 124.151 48.0971 124.151 70.5736V83.3805C124.151 105.857 105.93 124.078 83.4535 124.078H70.6466C48.1701 124.078 29.9492 105.857 29.9492 83.3805V70.5736Z" fill="#303D48" fill-opacity="0.5"/>
<g clip-path="url(#clip0_1937_11236)">
<path d="M80.7341 94.9341C92.196 94.9341 101.488 85.6423 101.488 74.1804C101.488 62.7185 92.196 53.4268 80.7341 53.4268C69.2722 53.4268 59.9805 62.7185 59.9805 74.1804C59.9805 85.6423 69.2722 94.9341 80.7341 94.9341Z" stroke="#F3FBFD" stroke-width="2.67618" stroke-miterlimit="10"/>
<path d="M72.2383 83.6239L90.2502 65.574" stroke="#F3FBFD" stroke-width="2.67618" stroke-miterlimit="10"/>
<path d="M87.0864 85.6799C88.832 85.6799 90.2471 84.2649 90.2471 82.5193C90.2471 80.7737 88.832 79.3586 87.0864 79.3586C85.3409 79.3586 83.9258 80.7737 83.9258 82.5193C83.9258 84.2649 85.3409 85.6799 87.0864 85.6799Z" stroke="#F3FBFD" stroke-width="2.67618" stroke-miterlimit="10"/>
<path d="M75.5513 69.877C77.2968 69.877 78.7119 68.4619 78.7119 66.7163C78.7119 64.9707 77.2968 63.5557 75.5513 63.5557C73.8057 63.5557 72.3906 64.9707 72.3906 66.7163C72.3906 68.4619 73.8057 69.877 75.5513 69.877Z" stroke="#F3FBFD" stroke-width="2.67618" stroke-miterlimit="10"/>
<path d="M53.0485 102.295L63.9266 91.4165" stroke="#F3FBFD" stroke-width="2.67618" stroke-miterlimit="10"/>
<path d="M59.1495 86.9412L54.1629 91.9278" stroke="#F3FBFD" stroke-width="2.67618" stroke-miterlimit="10"/>
<path d="M68.0105 95.8276L58.8547 104.983" stroke="#F3FBFD" stroke-width="2.67618" stroke-miterlimit="10"/>
</g>
<circle cx="116.49" cy="106.814" r="13.9162" fill="#E0FB92"/>
<path d="M109 106.76H123.879" stroke="#141414" stroke-width="1.60571"/>
<path d="M116.441 99.3206V114.2" stroke="#141414" stroke-width="1.60571"/>
<defs>
<clipPath id="clip0_1937_11236">
<rect width="59.9465" height="59.9465" fill="white" transform="translate(47.0781 47.0039)"/>
</clipPath>
</defs>
</svg>
