<svg width="154" height="154" viewBox="0 0 154 154" fill="none" xmlns="http://www.w3.org/2000/svg">
<path d="M29.5117 69.8886C29.5117 47.412 47.7326 29.1912 70.2091 29.1912H83.016C105.493 29.1912 123.713 47.412 123.713 69.8886V82.6955C123.713 105.172 105.493 123.393 83.016 123.393H70.2091C47.7326 123.393 29.5117 105.172 29.5117 82.6955V69.8886Z" fill="#303D48" fill-opacity="0.5"/>
<g clip-path="url(#clip0_1937_11153)">
<mask id="path-4-inside-1_1937_11153" fill="white">
<path d="M87.4593 81.6802V84.6726C87.4593 88.9742 82.3569 92.4608 76.0711 92.4608C69.7852 92.4608 64.6758 88.9742 64.6758 84.6726V81.6802"/>
</mask>
<path d="M84.7831 81.6802V84.6726H90.1355V81.6802H84.7831ZM84.7831 84.6726C84.7831 85.6812 84.1868 86.8939 82.612 87.9706C81.0502 89.0384 78.7452 89.7846 76.0711 89.7846V95.137C79.6828 95.137 83.0719 94.1399 85.6329 92.389C88.1807 90.647 90.1355 87.9655 90.1355 84.6726H84.7831ZM76.0711 89.7846C73.3969 89.7846 71.0897 89.0383 69.5258 87.97C67.9484 86.8924 67.352 85.6797 67.352 84.6726H61.9996C61.9996 87.9671 63.9579 90.6484 66.5067 92.3896C69.069 94.14 72.4595 95.137 76.0711 95.137V89.7846ZM67.352 84.6726V81.6802H61.9996V84.6726H67.352Z" fill="#F3FBFD" mask="url(#path-4-inside-1_1937_11153)"/>
<path d="M86.1181 69.2369C86.1181 70.8169 85.1827 72.3967 83.3653 73.6395C81.5543 74.878 78.9784 75.6871 76.0679 75.6871C73.1574 75.6871 70.5815 74.878 68.7706 73.6395C66.9532 72.3967 66.0178 70.8169 66.0178 69.2369C66.0178 67.657 66.9532 66.0772 68.7706 64.8344C70.5815 63.5959 73.1574 62.7868 76.0679 62.7868C78.9784 62.7868 81.5543 63.5959 83.3653 64.8344C85.1827 66.0772 86.1181 67.657 86.1181 69.2369Z" stroke="#F3FBFD" stroke-width="2.67618"/>
<mask id="path-7-inside-2_1937_11153" fill="white">
<path d="M87.4593 76.9167V79.9092C87.4593 84.2107 82.3569 87.6974 76.0711 87.6974C69.7852 87.6974 64.6758 84.2107 64.6758 79.9092V76.9167"/>
</mask>
<path d="M84.7831 76.9167V79.9092H90.1355V76.9167H84.7831ZM84.7831 79.9092C84.7831 80.9178 84.1868 82.1304 82.612 83.2072C81.0502 84.2749 78.7452 85.0212 76.0711 85.0212V90.3736C79.6828 90.3736 83.0719 89.3765 85.6329 87.6256C88.1807 85.8836 90.1355 83.2021 90.1355 79.9092H84.7831ZM76.0711 85.0212C73.3969 85.0212 71.0897 84.2749 69.5258 83.2066C67.9484 82.129 67.352 80.9163 67.352 79.9092H61.9996C61.9996 83.2036 63.9579 85.885 66.5067 87.6262C69.069 89.3766 72.4595 90.3736 76.0711 90.3736V85.0212ZM67.352 79.9092V76.9167H61.9996V79.9092H67.352Z" fill="#F3FBFD" mask="url(#path-7-inside-2_1937_11153)"/>
<mask id="path-9-inside-3_1937_11153" fill="white">
<path d="M87.4593 71.7505V74.7429C87.4593 79.0445 82.3569 82.5311 76.0711 82.5311C69.7852 82.5311 64.6758 79.0445 64.6758 74.7429V71.7505"/>
</mask>
<path d="M84.7831 71.7505V74.7429H90.1355V71.7505H84.7831ZM84.7831 74.7429C84.7831 75.7515 84.1868 76.9642 82.612 78.0409C81.0502 79.1087 78.7452 79.8549 76.0711 79.8549V85.2073C79.6828 85.2073 83.0719 84.2102 85.6329 82.4593C88.1807 80.7173 90.1355 78.0359 90.1355 74.7429H84.7831ZM76.0711 79.8549C73.3969 79.8549 71.0897 79.1086 69.5258 78.0403C67.9484 76.9628 67.352 75.75 67.352 74.7429H61.9996C61.9996 78.0374 63.9579 80.7187 66.5067 82.4599C69.069 84.2103 72.4595 85.2073 76.0711 85.2073V79.8549ZM67.352 74.7429V71.7505H61.9996V74.7429H67.352Z" fill="#F3FBFD" mask="url(#path-9-inside-3_1937_11153)"/>
<path d="M47.707 77.4308C47.707 61.4311 60.4761 48.4597 76.2265 48.4597C86.7045 48.4597 95.8639 54.2009 100.821 62.7562" stroke="#F3FBFD" stroke-width="2.67618" stroke-miterlimit="10"/>
<path d="M93.207 62.0686L101.612 64.639L103.588 56.0751" stroke="#F3FBFD" stroke-width="2.67618" stroke-miterlimit="10"/>
<path d="M104.446 76.3606C104.446 91.6937 91.7404 104.125 76.0688 104.125C66.2732 104.125 57.6386 99.2691 52.5391 91.8853" stroke="#F3FBFD" stroke-width="2.67618" stroke-miterlimit="10"/>
<path d="M60.2305 92.564L51.8258 89.9936L49.8495 98.5574" stroke="#F3FBFD" stroke-width="2.67618" stroke-miterlimit="10"/>
</g>
<circle cx="116.053" cy="106.129" r="13.9162" fill="#E0FB92"/>
<path d="M108.562 106.075H123.442" stroke="#141414" stroke-width="1.60571"/>
<path d="M116.004 98.6355V113.515" stroke="#141414" stroke-width="1.60571"/>
<defs>
<clipPath id="clip0_1937_11153">
<rect width="59.9465" height="59.9465" fill="white" transform="translate(46.6406 46.3188)"/>
</clipPath>
</defs>
</svg>
