<svg width="154" height="155" viewBox="0 0 154 155" fill="none" xmlns="http://www.w3.org/2000/svg">
<path d="M29.043 70.598C29.043 48.1215 47.2638 29.9006 69.7404 29.9006H82.5473C105.024 29.9006 123.245 48.1215 123.245 70.598V83.4049C123.245 105.881 105.024 124.102 82.5473 124.102H69.7404C47.2638 124.102 29.043 105.881 29.043 83.4049V70.598Z" fill="#303D48" fill-opacity="0.5"/>
<g clip-path="url(#clip0_1937_11199)">
<path d="M74.5521 98.411L101.175 71.4104L90.0048 58.8035H59.0808L47.9102 71.4104L74.5521 98.411Z" stroke="#F3FBFD" stroke-width="2.67618"/>
<path d="M101.177 71.0956L49.2773 71.0956" stroke="#F3FBFD" stroke-width="2.67618"/>
<path d="M58.8359 58.9563L66.8388 71.0954L75.0961 60.8581L83.0795 71.0954L90.9317 58.9564" stroke="#F3FBFD" stroke-width="2.67618"/>
<path d="M83.4192 71.0956L74.5416 94.3138L65.6641 71.0956" stroke="#F3FBFD" stroke-width="2.67618"/>
<path d="M46.1719 54.5216C48.539 54.5216 50.4538 56.4364 50.4538 58.8035C50.4538 56.4364 52.3685 54.5216 54.7357 54.5216C52.3685 54.5216 50.4538 52.6069 50.4538 50.2397C50.4538 52.6069 48.539 54.5216 46.1719 54.5216V54.5216Z" stroke="#F3FBFD" stroke-width="2.67618"/>
<path d="M94.3438 88.7768C96.7109 88.7768 98.6256 90.6915 98.6256 93.0587C98.6256 90.6915 100.54 88.7768 102.908 88.7768C100.54 88.7768 98.6256 86.862 98.6256 84.4949C98.6256 86.862 96.7109 88.7768 94.3438 88.7768V88.7768Z" stroke="#F3FBFD" stroke-width="2.67618"/>
</g>
<circle cx="114.584" cy="106.838" r="13.9162" fill="#E0FB92"/>
<path d="M107.094 106.784H121.973" stroke="#141414" stroke-width="1.60571"/>
<path d="M114.535 99.3448V114.224" stroke="#141414" stroke-width="1.60571"/>
<defs>
<clipPath id="clip0_1937_11199">
<rect width="59.9465" height="59.9465" fill="white" transform="translate(46.1719 47.0282)"/>
</clipPath>
</defs>
</svg>
