<svg width="155" height="155" viewBox="0 0 155 155" fill="none" xmlns="http://www.w3.org/2000/svg">
<path d="M29.9492 70.598C29.9492 48.1215 48.1701 29.9006 70.6466 29.9006H83.4535C105.93 29.9006 124.151 48.1215 124.151 70.598V83.4049C124.151 105.881 105.93 124.102 83.4535 124.102H70.6466C48.1701 124.102 29.9492 105.881 29.9492 83.4049V70.598Z" fill="#303D48" fill-opacity="0.5"/>
<g clip-path="url(#clip0_1937_11221)">
<path d="M82.1974 63.7022C84.5096 66.7241 87.7147 69.1966 90.004 72.2872C96.2997 80.7577 97.8335 93.0171 89.5232 100.835C86.1007 104.052 81.2816 105.803 75.2721 105.391C69.2626 104.979 64.7297 102.575 61.7879 98.9236C58.331 94.6197 57.2093 88.9765 57.7702 83.5736C58.2624 78.7202 60.0938 72.1842 63.711 68.6815C64.4092 70.3985 64.89 72.0583 66.2407 73.4777L68.0378 75.3664L68.221 72.768C68.2324 72.5963 68.2439 72.3902 68.2553 72.1498C68.759 63.3817 71.5519 52.8851 80.4575 49.1649C80.1942 50.2066 79.9195 51.5458 79.7478 53.0339C79.37 56.4221 79.6676 60.0622 81.6594 62.9582C81.8425 63.2214 82.0257 63.4733 82.2088 63.7136L82.1974 63.7022Z" stroke="#F3FBFD" stroke-width="2.67618"/>
<circle cx="77.0527" cy="94.1291" r="11.5076" stroke="#F3FBFD" stroke-width="2.67618"/>
</g>
<circle cx="116.49" cy="106.838" r="13.9162" fill="#E0FB92"/>
<path d="M109 106.784H123.879" stroke="#141414" stroke-width="1.60571"/>
<path d="M116.441 99.3448V114.224" stroke="#141414" stroke-width="1.60571"/>
<defs>
<clipPath id="clip0_1937_11221">
<rect width="59.9465" height="59.9465" fill="white" transform="translate(47.0781 47.0282)"/>
</clipPath>
</defs>
</svg>
