<svg width="154" height="154" viewBox="0 0 154 154" fill="none" xmlns="http://www.w3.org/2000/svg">
<path d="M29.3516 69.8883C29.3516 47.4118 47.5724 29.1909 70.049 29.1909H82.8559C105.332 29.1909 123.553 47.4118 123.553 69.8883V82.6952C123.553 105.172 105.332 123.393 82.8559 123.393H70.049C47.5724 123.393 29.3516 105.172 29.3516 82.6952V69.8883Z" fill="#303D48" fill-opacity="0.5"/>
<g clip-path="url(#clip0_1937_11175)">
<mask id="path-4-inside-1_1937_11175" fill="white">
<path d="M76.2266 101.984L68.4764 101.984C56.6066 101.984 49.69 90.4763 49.69 76.3001C49.69 62.1238 56.6066 50.6006 68.4764 50.6006L76.2266 50.6006"/>
</mask>
<path d="M68.4764 50.6006L68.4764 47.9244L68.4764 50.6006ZM76.2266 99.3074L68.4764 99.3074L68.4764 104.66L76.2266 104.66L76.2266 99.3074ZM68.4764 99.3074C63.5312 99.3074 59.6132 96.9583 56.8336 92.9364C54.0043 88.8426 52.3661 82.9924 52.3661 76.3001L47.0138 76.3001C47.0138 83.7839 48.8339 90.7755 52.4304 95.9794C56.0765 101.255 61.5518 104.66 68.4764 104.66L68.4764 99.3074ZM52.3661 76.3001C52.3661 69.6076 54.0043 63.753 56.8342 59.6549C59.6145 55.6284 63.5327 53.2768 68.4764 53.2768L68.4764 47.9244C61.5503 47.9244 56.0752 51.3344 52.4298 56.6136C48.8339 61.8211 47.0138 68.8162 47.0138 76.3001L52.3661 76.3001ZM68.4764 53.2768L76.2266 53.2768L76.2266 47.9244L68.4764 47.9244L68.4764 53.2768Z" fill="#F3FBFD" mask="url(#path-4-inside-1_1937_11175)"/>
<path d="M72.1719 65.4741V88.4612" stroke="#F3FBFD" stroke-width="2.67618"/>
<path d="M78.9336 69.5308V88.4613" stroke="#F3FBFD" stroke-width="2.67618"/>
<path d="M85.6914 78.6194L85.6914 88.4614" stroke="#F3FBFD" stroke-width="2.67618"/>
<path d="M83.9453 69.8689L102.143 86.9965" stroke="#F3FBFD" stroke-width="2.67618"/>
<path d="M93.5781 86.9087L102.362 87.2162L102.054 78.4326" stroke="#F3FBFD" stroke-width="2.67618" stroke-miterlimit="10"/>
<path d="M87.0488 93.7349C83.776 98.1313 79.4244 100.631 74.8534 100.631C70.2824 100.631 65.9308 98.1481 62.658 93.7349C59.3852 89.3386 57.3008 83.1803 57.3008 76.2838C57.3008 69.3872 59.3669 63.2458 62.6397 58.8494C65.9308 54.4363 70.2641 51.9529 74.8351 51.9529C79.4061 51.9529 83.7577 54.4363 87.0305 58.8494" stroke="#F3FBFD" stroke-width="2.67618"/>
</g>
<circle cx="115.893" cy="106.129" r="13.9162" fill="#E0FB92"/>
<path d="M108.402 106.075H123.281" stroke="#141414" stroke-width="1.60571"/>
<path d="M115.844 98.6357V113.515" stroke="#141414" stroke-width="1.60571"/>
<defs>
<clipPath id="clip0_1937_11175">
<rect width="59.9465" height="59.9465" fill="white" transform="translate(46.4805 46.3186)"/>
</clipPath>
</defs>
</svg>
