<svg width="144" height="145" viewBox="0 0 144 145" fill="none" xmlns="http://www.w3.org/2000/svg">
<path d="M27.4375 66.007C27.4375 45.0102 44.4588 27.9889 65.4556 27.9889H77.4194C98.4162 27.9889 115.438 45.0102 115.438 66.007V77.9708C115.438 98.9676 98.4162 115.989 77.4194 115.989H65.4556C44.4588 115.989 27.4375 98.9676 27.4375 77.9708V66.007Z" fill="#303D48" fill-opacity="0.5"/>
<g clip-path="url(#clip0_1937_11129)">
<path d="M87.1649 68.2228C87.1649 70.9916 85.5247 73.6379 82.5881 75.6463C79.6574 77.6505 75.5395 78.9303 70.9301 78.9303C66.3207 78.9303 62.2027 77.6505 59.2721 75.6463C56.3354 73.6379 54.6953 70.9916 54.6953 68.2228C54.6953 65.454 56.3354 62.8077 59.2721 60.7993C62.2027 58.7951 66.3207 57.5153 70.9301 57.5153C75.5395 57.5153 79.6574 58.7951 82.5881 60.7993C85.5247 62.8077 87.1649 65.454 87.1649 68.2228Z" stroke="#F3FBFD" stroke-width="2.5"/>
<path d="M71.2327 63.0314H65.8594V68.4047C68.827 68.4047 71.2327 70.8104 71.2327 73.778L76.6061 73.7781L76.6061 68.4051C73.6385 68.4051 71.2327 65.999 71.2327 63.0314Z" stroke="#F3FBFD" stroke-width="2.5"/>
<mask id="path-6-inside-1_1937_11129" fill="white">
<path d="M88.414 69.3102V73.9045C88.414 80.5089 80.5802 85.8621 70.9293 85.8621C61.2784 85.8621 53.4336 80.5089 53.4336 73.9045V69.3102"/>
</mask>
<path d="M85.914 69.3102V73.9045H90.914V69.3102H85.914ZM85.914 73.9045C85.914 76.1398 84.5901 78.4431 81.8797 80.2962C79.1816 82.141 75.3168 83.3621 70.9293 83.3621V88.3621C76.1926 88.3621 81.0702 86.9066 84.7017 84.4237C88.321 81.9492 90.914 78.2737 90.914 73.9045H85.914ZM70.9293 83.3621C66.5417 83.3621 62.6737 82.1409 59.9725 80.2956C57.2587 78.4418 55.9336 76.1384 55.9336 73.9045H50.9336C50.9336 78.2751 53.5309 81.9505 57.1522 84.4243C60.7861 86.9067 65.6659 88.3621 70.9293 88.3621V83.3621ZM55.9336 73.9045V69.3102H50.9336V73.9045H55.9336Z" fill="#F3FBFD" mask="url(#path-6-inside-1_1937_11129)"/>
<path d="M44.4336 73.0527C44.4336 58.1063 56.3621 45.9889 71.0755 45.9889C80.8637 45.9889 89.4201 51.3521 94.0506 59.3441" stroke="#F3FBFD" stroke-width="2.5" stroke-miterlimit="10"/>
<path d="M86.9375 58.7018L94.7889 61.103L96.6351 53.1029" stroke="#F3FBFD" stroke-width="2.5" stroke-miterlimit="10"/>
<path d="M97.4347 72.0529C97.4347 86.3765 85.5658 97.989 70.926 97.989C61.7753 97.989 53.7092 93.4532 48.9453 86.5555" stroke="#F3FBFD" stroke-width="2.5" stroke-miterlimit="10"/>
<path d="M56.1328 87.1896L48.2814 84.7884L46.4352 92.7885" stroke="#F3FBFD" stroke-width="2.5" stroke-miterlimit="10"/>
</g>
<circle cx="109.309" cy="99.8613" r="13" fill="#E0FB92"/>
<path d="M102.309 99.8112H116.208" stroke="#141414" stroke-width="1.5"/>
<path d="M109.258 92.8615V106.761" stroke="#141414" stroke-width="1.5"/>
<defs>
<clipPath id="clip0_1937_11129">
<rect width="56" height="56" fill="white" transform="translate(43.4375 43.9889)"/>
</clipPath>
</defs>
</svg>
