<svg width="40" height="40" viewBox="0 0 40 40" fill="none" xmlns="http://www.w3.org/2000/svg">
<path d="M6 4H30C31.5913 4 33.1174 4.63214 34.2426 5.75736C35.3679 6.88258 36 8.4087 36 10V34C36 35.5913 35.3679 37.1174 34.2426 38.2426C33.1174 39.3679 31.5913 40 30 40H6C4.4087 40 2.88258 39.3679 1.75736 38.2426C0.632141 37.1174 0 35.5913 0 34L0 10C0 8.4087 0.632141 6.88258 1.75736 5.75736C2.88258 4.63214 4.4087 4 6 4Z" fill="#345D9D"/>
<g clip-path="url(#clip0_19_3385)">
<path d="M17.4093 27.0685L18.6215 22.177L21.4913 21.0534L22.2052 18.1787L22.1808 18.1073L19.3559 19.2134L21.3913 11H15.6187L12.9568 21.7186L10.7343 22.5887L10 25.5524L12.2207 24.6831L10.6519 31H26.0151L27 27.0685H17.4093Z" fill="white"/>
</g>
<defs>
<clipPath id="clip0_19_3385">
<rect width="17" height="20" fill="white" transform="translate(10 11)"/>
</clipPath>
</defs>
</svg>
