<svg width="40" height="40" viewBox="0 0 40 40" fill="none" xmlns="http://www.w3.org/2000/svg">
<g clip-path="url(#clip0_19_3342)">
<path d="M6 4H30C31.5913 4 33.1174 4.63214 34.2426 5.75736C35.3679 6.88258 36 8.4087 36 10V34C36 35.5913 35.3679 37.1174 34.2426 38.2426C33.1174 39.3679 31.5913 40 30 40H6C4.4087 40 2.88258 39.3679 1.75736 38.2426C0.632141 37.1174 0 35.5913 0 34L0 10C0 8.4087 0.632141 6.88258 1.75736 5.75736C2.88258 4.63214 4.4087 4 6 4Z" fill="url(#paint0_linear_19_3342)"/>
<g clip-path="url(#clip1_19_3342)">
<path fill-rule="evenodd" clip-rule="evenodd" d="M13.6902 14.725V27.1H24.0027L13.6902 14.725Z" fill="url(#paint1_linear_19_3342)"/>
<path fill-rule="evenodd" clip-rule="evenodd" d="M3.37775 27.1H13.6902V14.725L3.37775 27.1Z" fill="white"/>
<path fill-rule="evenodd" clip-rule="evenodd" d="M5.29999 30.4C6.24049 31.6458 7.35424 32.7595 8.59999 33.7H28.4C29.6457 32.7595 30.7595 31.6458 31.7 30.4H5.29999Z" fill="#FC9965"/>
<path fill-rule="evenodd" clip-rule="evenodd" d="M8.60001 33.7C11.3555 35.7708 14.7875 37 18.5 37C22.2125 37 25.6445 35.7708 28.4 33.7H8.60001Z" fill="#FF2D55"/>
<path fill-rule="evenodd" clip-rule="evenodd" d="M24.1347 21.325V30.4H31.7L24.1347 21.325Z" fill="url(#paint2_linear_19_3342)"/>
<path fill-rule="evenodd" clip-rule="evenodd" d="M24.1347 27.1H3.37775C3.88925 28.2797 4.541 29.3852 5.3 30.4H24.143V27.1H24.1347Z" fill="#FFBC5B"/>
<path fill-rule="evenodd" clip-rule="evenodd" d="M16.5778 30.4H24.1348V21.325L16.5778 30.4Z" fill="white"/>
<path d="M24.1347 18.85C26.4129 18.85 28.2597 17.0032 28.2597 14.725C28.2597 12.4468 26.4129 10.6 24.1347 10.6C21.8566 10.6 20.0097 12.4468 20.0097 14.725C20.0097 17.0032 21.8566 18.85 24.1347 18.85Z" fill="#FFC95B"/>
<path d="M13.6902 12.25C14.8293 12.25 15.7527 11.3266 15.7527 10.1875C15.7527 9.04841 14.8293 8.125 13.6902 8.125C12.5512 8.125 11.6277 9.04841 11.6277 10.1875C11.6277 11.3266 12.5512 12.25 13.6902 12.25Z" fill="#FFC95B"/>
</g>
<path d="M32.5 15C36.6421 15 40 11.6421 40 7.5C40 3.35786 36.6421 0 32.5 0C28.3579 0 25 3.35786 25 7.5C25 11.6421 28.3579 15 32.5 15Z" fill="black"/>
<path fill-rule="evenodd" clip-rule="evenodd" d="M32.9 1.50002L36.5 7.5L32.6 9.28829L28.7963 7.6L32.3 1.50002L32.4 1.40002H32.5H32.6H32.7H32.8L32.9 1.50002ZM32.5 10.5L36.5 8.5L32.7 13.6C32.7 13.7 32.6 13.7 32.6 13.7H32.5H32.4L32.3 13.6L28.5 8.5L32.5 10.5Z" fill="white"/>
</g>
<defs>
<linearGradient id="paint0_linear_19_3342" x1="30.7278" y1="9.2722" x2="5.2722" y2="34.7278" gradientUnits="userSpaceOnUse">
<stop stop-color="#FF2D55"/>
<stop offset="1" stop-color="#FFBC5B"/>
</linearGradient>
<linearGradient id="paint1_linear_19_3342" x1="18.843" y1="14.725" x2="18.843" y2="27.1" gradientUnits="userSpaceOnUse">
<stop stop-color="#A524B3"/>
<stop offset="1" stop-color="#FF2D55"/>
</linearGradient>
<linearGradient id="paint2_linear_19_3342" x1="27.9148" y1="21.325" x2="27.9148" y2="30.4" gradientUnits="userSpaceOnUse">
<stop stop-color="#A524B3"/>
<stop offset="1" stop-color="#FF2D55"/>
</linearGradient>
<clipPath id="clip0_19_3342">
<rect width="40" height="40" fill="white"/>
</clipPath>
<clipPath id="clip1_19_3342">
<rect width="33" height="33" fill="white" transform="translate(2 4)"/>
</clipPath>
</defs>
</svg>
