<svg width="40" height="40" viewBox="0 0 40 40" fill="none" xmlns="http://www.w3.org/2000/svg">
<g clip-path="url(#clip0_329_1160)">
<path d="M6 4H30C31.5913 4 33.1174 4.63214 34.2426 5.75736C35.3679 6.88258 36 8.4087 36 10V34C36 35.5913 35.3679 37.1174 34.2426 38.2426C33.1174 39.3679 31.5913 40 30 40H6C4.4087 40 2.88258 39.3679 1.75736 38.2426C0.632141 37.1174 0 35.5913 0 34L0 10C0 8.4087 0.632141 6.88258 1.75736 5.75736C2.88258 4.63214 4.4087 4 6 4Z" fill="#8247E5"/>
<path d="M24.1723 17.724C23.7337 17.4629 23.1697 17.4629 22.6684 17.724L19.1593 19.8783L16.7781 21.2493L13.3316 23.4036C12.893 23.6647 12.329 23.6647 11.8277 23.4036L9.13316 21.7062C8.69452 21.4451 8.3812 20.9228 8.3812 20.3353V17.0712C8.3812 16.549 8.63185 16.0267 9.13316 15.7003L11.8277 14.0682C12.2663 13.8071 12.8303 13.8071 13.3316 14.0682L16.0261 15.7656C16.4648 16.0267 16.7781 16.549 16.7781 17.1365V19.2908L19.1593 17.8546V15.635C19.1593 15.1128 18.9086 14.5905 18.4073 14.2641L13.3943 11.1958C12.9556 10.9347 12.3916 10.9347 11.8903 11.1958L6.75196 14.3294C6.25065 14.5905 6 15.1128 6 15.635V21.7715C6 22.2938 6.25065 22.816 6.75196 23.1424L11.8277 26.2107C12.2663 26.4718 12.8303 26.4718 13.3316 26.2107L16.7781 24.1217L19.1593 22.6855L22.6057 20.5964C23.0444 20.3353 23.6084 20.3353 24.1097 20.5964L26.8042 22.2285C27.2428 22.4896 27.5561 23.0119 27.5561 23.5994V26.8635C27.5561 27.3858 27.3055 27.908 26.8042 28.2344L24.1723 29.8665C23.7337 30.1276 23.1697 30.1276 22.6684 29.8665L19.9739 28.2344C19.5352 27.9733 19.2219 27.451 19.2219 26.8635V24.7745L16.8407 26.2107V28.365C16.8407 28.8872 17.0914 29.4095 17.5927 29.7359L22.6684 32.8042C23.107 33.0653 23.671 33.0653 24.1723 32.8042L29.248 29.7359C29.6867 29.4748 30 28.9525 30 28.365V22.1632C30 21.6409 29.7493 21.1187 29.248 20.7923L24.1723 17.724Z" fill="white"/>
<path d="M32.5 15C36.6421 15 40 11.6421 40 7.5C40 3.35786 36.6421 0 32.5 0C28.3579 0 25 3.35786 25 7.5C25 11.6421 28.3579 15 32.5 15Z" fill="black"/>
<path fill-rule="evenodd" clip-rule="evenodd" d="M32.9 1.50002L36.5 7.5L32.6 9.28829L28.7963 7.6L32.3 1.50002L32.4 1.40002H32.5H32.6H32.7H32.8L32.9 1.50002ZM32.5 10.5L36.5 8.5L32.7 13.6C32.7 13.7 32.6 13.7 32.6 13.7H32.5H32.4L32.3 13.6L28.5 8.5L32.5 10.5Z" fill="white"/>
</g>
<defs>
<clipPath id="clip0_329_1160">
<rect width="40" height="40" fill="white"/>
</clipPath>
</defs>
</svg>
