<svg width="117" height="118" viewBox="0 0 117 118" fill="none" xmlns="http://www.w3.org/2000/svg">
<path d="M10.2412 48.5046C10.2412 27.5077 27.2625 10.4865 48.2593 10.4865H60.2231C81.2199 10.4865 98.2412 27.5077 98.2412 48.5046V60.4683C98.2412 81.4652 81.2199 98.4865 60.2231 98.4865H48.2593C27.2625 98.4865 10.2412 81.4652 10.2412 60.4683V48.5046Z" fill="#303D48" fill-opacity="0.32"/>
<g clip-path="url(#clip0_1931_7083)">
<mask id="path-3-inside-1_1931_7083" fill="white">
<path d="M64.3725 59.5197V62.3151C64.3725 66.3335 59.606 69.5905 53.734 69.5905C47.862 69.5905 43.0889 66.3335 43.0889 62.3151V59.5197"/>
</mask>
<path d="M61.6963 59.5197V62.3151H67.0487V59.5197H61.6963ZM61.6963 62.3151C61.6963 63.1821 61.1839 64.2665 59.7448 65.2505C58.3188 66.2255 56.2012 66.9144 53.734 66.9144V72.2667C57.1388 72.2667 60.3405 71.327 62.7657 69.6689C65.1778 68.0197 67.0487 65.4664 67.0487 62.3151H61.6963ZM53.734 66.9144C51.2667 66.9144 49.147 66.2254 47.719 65.2499C46.2774 64.2651 45.7651 63.1806 45.7651 62.3151H40.4127C40.4127 65.4679 42.2869 68.0211 44.6999 69.6695C47.1264 71.3271 50.3293 72.2667 53.734 72.2667V66.9144ZM45.7651 62.3151V59.5197H40.4127V62.3151H45.7651Z" fill="#F3FBFD" mask="url(#path-3-inside-1_1931_7083)"/>
<path d="M63.0336 47.8957C63.0336 49.3341 62.1821 50.7857 60.5004 51.9358C58.8252 53.0814 56.4367 53.8331 53.7332 53.8331C51.0298 53.8331 48.6413 53.0814 46.966 51.9358C45.2843 50.7857 44.4328 49.3341 44.4328 47.8957C44.4328 46.4574 45.2843 45.0058 46.966 43.8557C48.6413 42.71 51.0298 41.9583 53.7332 41.9583C56.4367 41.9583 58.8252 42.71 60.5004 43.8557C62.1821 45.0058 63.0336 46.4574 63.0336 47.8957Z" stroke="#F3FBFD" stroke-width="2.67618"/>
<mask id="path-6-inside-2_1931_7083" fill="white">
<path d="M64.3725 55.0699V57.8654C64.3725 61.8838 59.606 65.1408 53.734 65.1408C47.862 65.1408 43.0889 61.8838 43.0889 57.8654V55.0699"/>
</mask>
<path d="M61.6963 55.0699V57.8654H67.0487V55.0699H61.6963ZM61.6963 57.8654C61.6963 58.7324 61.1839 59.8168 59.7448 60.8008C58.3188 61.7758 56.2012 62.4647 53.734 62.4647V67.817C57.1388 67.817 60.3405 66.8773 62.7657 65.2192C65.1778 63.57 67.0487 61.0167 67.0487 57.8654H61.6963ZM53.734 62.4647C51.2667 62.4647 49.147 61.7757 47.719 60.8002C46.2774 59.8154 45.7651 58.7309 45.7651 57.8654H40.4127C40.4127 61.0182 42.2869 63.5714 44.6999 65.2198C47.1264 66.8774 50.3293 67.817 53.734 67.817V62.4647ZM45.7651 57.8654V55.0699H40.4127V57.8654H45.7651Z" fill="#F3FBFD" mask="url(#path-6-inside-2_1931_7083)"/>
<mask id="path-8-inside-3_1931_7083" fill="white">
<path d="M64.3725 50.2438V53.0392C64.3725 57.0576 59.606 60.3147 53.734 60.3147C47.862 60.3147 43.0889 57.0576 43.0889 53.0392V50.2438"/>
</mask>
<path d="M61.6963 50.2438V53.0392H67.0487V50.2438H61.6963ZM61.6963 53.0392C61.6963 53.9062 61.1839 54.9907 59.7448 55.9746C58.3188 56.9496 56.2012 57.6385 53.734 57.6385V62.9909C57.1388 62.9909 60.3405 62.0512 62.7657 60.393C65.1778 58.7438 67.0487 56.1905 67.0487 53.0392H61.6963ZM53.734 57.6385C51.2667 57.6385 49.147 56.9496 47.719 55.974C46.2774 54.9893 45.7651 53.9047 45.7651 53.0392H40.4127C40.4127 56.1921 42.2869 58.7452 44.6999 60.3936C47.1264 62.0512 50.3293 62.9909 53.734 62.9909V57.6385ZM45.7651 53.0392V50.2438H40.4127V53.0392H45.7651Z" fill="#F3FBFD" mask="url(#path-8-inside-3_1931_7083)"/>
<path d="M27.2393 55.5503C27.2393 40.6038 39.1677 28.4865 53.8811 28.4865C63.6694 28.4865 72.2258 33.8497 76.8563 41.8417" stroke="#F3FBFD" stroke-width="2.67618" stroke-miterlimit="10"/>
<path d="M69.7412 41.1993L77.5926 43.6005L79.4388 35.6004" stroke="#F3FBFD" stroke-width="2.67618" stroke-miterlimit="10"/>
<path d="M80.2403 54.5504C80.2403 68.8741 68.3715 80.4866 53.7317 80.4866C44.5809 80.4866 36.5148 75.9507 31.751 69.0531" stroke="#E0FB92" stroke-width="2.67618" stroke-miterlimit="10"/>
<path d="M38.9385 69.6871L31.0871 67.286L29.2409 75.286" stroke="#E0FB92" stroke-width="2.67618" stroke-miterlimit="10"/>
</g>
<defs>
<clipPath id="clip0_1931_7083">
<rect width="56" height="56" fill="white" transform="translate(26.2412 26.4865)"/>
</clipPath>
</defs>
</svg>
