<svg width="40" height="40" viewBox="0 0 40 40" fill="none" xmlns="http://www.w3.org/2000/svg">
<g clip-path="url(#clip0_19_3360)">
<path d="M6 4H30C31.5913 4 33.1174 4.63214 34.2426 5.75736C35.3679 6.88258 36 8.4087 36 10V34C36 35.5913 35.3679 37.1174 34.2426 38.2426C33.1174 39.3679 31.5913 40 30 40H6C4.4087 40 2.88258 39.3679 1.75736 38.2426C0.632141 37.1174 0 35.5913 0 34L0 10C0 8.4087 0.632141 6.88258 1.75736 5.75736C2.88258 4.63214 4.4087 4 6 4Z" fill="#0C0808"/>
<g clip-path="url(#clip1_19_3360)">
<path d="M6.18881 12H13.5611L18.5097 19.9256L22.6401 12H30.6359C30.6359 12 27.4485 17.7513 25.6483 20.9777C23.9182 20.7517 22.2738 20.1126 20.8399 19.1151C20.8399 19.1151 23.4038 22.2168 32.3426 24.8353C23.0687 24.508 16.1251 18.9593 13.2494 16.0135C13.5533 17.5175 14.2703 18.9047 15.3146 20.0269C10.5296 17.1746 6.18881 12 6.18881 12Z" fill="url(#paint0_linear_19_3360)"/>
<path d="M23.848 24.3287L18.5253 34C18.5253 34 14.8782 27.5239 13.1247 24.2742C14.4417 24.9911 15.8679 25.4899 17.3408 25.7627C13.8027 24.3755 10.2568 21.3829 6.52393 17.2448C10.6621 20.4088 14.1768 22.248 19.6086 24.4924C18.5877 23.5728 17.7382 22.4895 17.0836 21.2816C19.2501 22.4818 21.5101 23.5027 23.8403 24.3287H23.848Z" fill="url(#paint1_linear_19_3360)"/>
</g>
<path d="M32.5 15C36.6421 15 40 11.6421 40 7.5C40 3.35786 36.6421 0 32.5 0C28.3579 0 25 3.35786 25 7.5C25 11.6421 28.3579 15 32.5 15Z" fill="black"/>
<path fill-rule="evenodd" clip-rule="evenodd" d="M32.9 1.50002L36.5 7.5L32.6 9.28829L28.7963 7.6L32.3 1.50002L32.4 1.40002H32.5H32.6H32.7H32.8L32.9 1.50002ZM32.5 10.5L36.5 8.5L32.7 13.6C32.7 13.7 32.6 13.7 32.6 13.7H32.5H32.4L32.3 13.6L28.5 8.5L32.5 10.5Z" fill="white"/>
</g>
<defs>
<linearGradient id="paint0_linear_19_3360" x1="18.4477" y1="12.3635" x2="18.4477" y2="25.191" gradientUnits="userSpaceOnUse">
<stop stop-color="#7D0753"/>
<stop offset="1" stop-color="#F55D0E"/>
</linearGradient>
<linearGradient id="paint1_linear_19_3360" x1="15.7448" y1="17.2448" x2="15.7448" y2="34" gradientUnits="userSpaceOnUse">
<stop stop-color="#7D0753"/>
<stop offset="1" stop-color="#F55D0E"/>
</linearGradient>
<clipPath id="clip0_19_3360">
<rect width="40" height="40" fill="white"/>
</clipPath>
<clipPath id="clip1_19_3360">
<rect width="26.1537" height="22" fill="white" transform="translate(6.18881 12)"/>
</clipPath>
</defs>
</svg>
