<svg width="40" height="40" viewBox="0 0 40 40" fill="none" xmlns="http://www.w3.org/2000/svg">
<g clip-path="url(#clip0_329_4239)">
<path d="M6 4H30C31.5913 4 33.1174 4.63214 34.2426 5.75736C35.3679 6.88258 36 8.4087 36 10V34C36 35.5913 35.3679 37.1174 34.2426 38.2426C33.1174 39.3679 31.5913 40 30 40H6C4.4087 40 2.88258 39.3679 1.75736 38.2426C0.632141 37.1174 0 35.5913 0 34L0 10C0 8.4087 0.632141 6.88258 1.75736 5.75736C2.88258 4.63214 4.4087 4 6 4Z" fill="black"/>
<path d="M11.5861 10.5819L18.3598 18.5183L22.9066 15.8437C22.9066 15.8437 17.421 8.50771 15.9582 9.02625C14.5827 9.55025 11.5861 10.5819 11.5861 10.5819Z" fill="white"/>
<path d="M22.902 15.8345C22.902 15.8345 23.9336 14.0224 24.4467 11.6043C24.4467 11.6043 29.5939 13.673 27.618 18.853L22.902 15.8345Z" fill="white"/>
<path d="M27.7919 18.8676L28.2231 24.3041L30.1935 24.0476C30.1935 24.0476 30.7066 23.8729 30.6247 22.9286C30.5374 21.8915 30.3682 19.7355 30.3682 19.7355C30.3682 19.7355 30.4555 19.217 29.2547 19.0477C27.7919 18.7803 27.7919 18.8676 27.7919 18.8676Z" fill="white"/>
<path d="M28.2176 24.3041L24.2712 27.4972L26.0725 31.0342C26.0725 31.0342 26.5037 32.4152 27.7864 30.8596C28.9872 29.3039 29.5003 29.0474 29.413 28.0977C29.3366 27.1479 29.0746 24.9045 28.2176 24.3041Z" fill="white"/>
<path d="M24.1893 27.4918L18.7856 25.0737L14.0696 34.6531C14.0696 34.6531 13.7257 35.3409 14.9265 35.4282C16.1274 35.6029 18.0978 36.0341 19.1295 34.997C20.1611 34.0527 24.1893 27.4918 24.1893 27.4918Z" fill="white"/>
<path d="M18.7856 24.9919L18.2725 18.6056L6.60808 19.3862C6.60808 19.3862 5.92033 19.4735 6.00767 20.7671C6.095 22.492 6.26421 24.3915 6.26421 24.3915C6.26421 24.3915 6.17687 25.1665 7.72158 25.2539C9.26629 25.3357 18.6164 25.3357 18.7856 24.9919Z" fill="white"/>
<path d="M32.5 15C36.6421 15 40 11.6421 40 7.5C40 3.35786 36.6421 0 32.5 0C28.3579 0 25 3.35786 25 7.5C25 11.6421 28.3579 15 32.5 15Z" fill="black"/>
<path fill-rule="evenodd" clip-rule="evenodd" d="M32.9 1.50002L36.5 7.5L32.6 9.28829L28.7963 7.6L32.3 1.50002L32.4 1.40002H32.5H32.6H32.7H32.8L32.9 1.50002ZM32.5 10.5L36.5 8.5L32.7 13.6C32.7 13.7 32.6 13.7 32.6 13.7H32.5H32.4L32.3 13.6L28.5 8.5L32.5 10.5Z" fill="white"/>
</g>
<defs>
<clipPath id="clip0_329_4239">
<rect width="40" height="40" fill="white"/>
</clipPath>
</defs>
</svg>
