<svg width="40" height="40" viewBox="0 0 40 40" fill="none" xmlns="http://www.w3.org/2000/svg">
<g clip-path="url(#clip0_19_257)">
<path d="M6 4H30C31.5913 4 33.1174 4.63214 34.2426 5.75736C35.3679 6.88258 36 8.4087 36 10V34C36 35.5913 35.3679 37.1174 34.2426 38.2426C33.1174 39.3679 31.5913 40 30 40H6C4.4087 40 2.88258 39.3679 1.75736 38.2426C0.632141 37.1174 0 35.5913 0 34L0 10C0 8.4087 0.632141 6.88258 1.75736 5.75736C2.88258 4.63214 4.4087 4 6 4Z" fill="#18075A"/>
<path d="M12.3168 17.7303C12.1784 17.5544 11.9699 17.4562 11.747 17.4562H7.1384C7.10066 17.4562 7.0665 17.4414 7.03775 17.4173C7.01438 17.3933 7 17.3636 7 17.3285V14.1289C7 14.0938 7.01438 14.066 7.03775 14.0401C7.0665 14.0104 7.09886 13.9956 7.1384 14.0012H12.0076C13.2353 14.0012 14.2957 14.5196 15.189 15.5547L16.3736 17.0433L14.0675 19.9392L12.3168 17.7303ZM20.8294 15.5398C21.7191 14.5159 22.7832 14.0012 24.0252 14.0012H28.88C28.9142 13.9956 28.9465 14.0104 28.9699 14.0308C28.9932 14.0549 29.004 14.0901 28.9986 14.1289V17.3285C28.9986 17.3636 28.9896 17.3914 28.9699 17.4173C28.9465 17.447 28.9124 17.4618 28.88 17.4562H24.2714C24.0521 17.4507 23.8436 17.5544 23.7016 17.7303L20.3063 21.9871L23.716 26.2735C23.8544 26.4346 24.0575 26.5327 24.2678 26.529H28.8764C28.9106 26.5234 28.9483 26.5438 28.9663 26.5679C28.9861 26.5975 29.0004 26.6364 28.995 26.6716V29.8711C28.995 29.9063 28.9861 29.934 28.9663 29.96C28.9429 29.9896 28.9088 30.0044 28.8764 29.9988H24.0252C22.7832 29.9988 21.7281 29.4804 20.8437 28.4454L18.0182 24.894L15.1926 28.4454C14.3029 29.4786 13.2388 29.9988 11.9968 29.9988H7.1366C7.10245 30.0044 7.06471 29.984 7.04673 29.96C7.02337 29.9303 7.01258 29.8915 7.01797 29.8563V26.6567C7.01797 26.6216 7.02696 26.5938 7.04673 26.5679C7.0701 26.5382 7.10425 26.5234 7.1366 26.529H11.7452C11.9645 26.529 12.173 26.4253 12.315 26.255L15.6492 22.0611L20.8276 15.5398H20.8294Z" fill="#00D1FF"/>
<path d="M32.5 15C36.6421 15 40 11.6421 40 7.5C40 3.35786 36.6421 0 32.5 0C28.3579 0 25 3.35786 25 7.5C25 11.6421 28.3579 15 32.5 15Z" fill="black"/>
<path fill-rule="evenodd" clip-rule="evenodd" d="M32.9 1.50002L36.5 7.5L32.6 9.28829L28.7963 7.6L32.3 1.50002L32.4 1.40002H32.5H32.6H32.7H32.8L32.9 1.50002ZM32.5 10.5L36.5 8.5L32.7 13.6C32.7 13.7 32.6 13.7 32.6 13.7H32.5H32.4L32.3 13.6L28.5 8.5L32.5 10.5Z" fill="white"/>
</g>
<defs>
<clipPath id="clip0_19_257">
<rect width="40" height="40" fill="white"/>
</clipPath>
</defs>
</svg>
