<svg width="110" height="110" viewBox="0 0 110 110" fill="none" xmlns="http://www.w3.org/2000/svg">
<path d="M10.936 49.0071C10.936 28.0103 27.9573 10.989 48.9542 10.989H60.9179C81.9147 10.989 98.936 28.0103 98.936 49.0071V60.9709C98.936 81.9677 81.9147 98.989 60.9179 98.989H48.9542C27.9573 98.989 10.936 81.9677 10.936 60.9709V49.0071Z" fill="#303D48" fill-opacity="0.32"/>
<g clip-path="url(#clip0_1931_7044)">
<path d="M70.6654 51.2229C70.6654 53.9917 69.0252 56.638 66.0886 58.6464C63.1579 60.6506 59.04 61.9305 54.4306 61.9305C49.8212 61.9305 45.7032 60.6506 42.7726 58.6464C39.8359 56.638 38.1958 53.9917 38.1958 51.2229C38.1958 48.4541 39.8359 45.8078 42.7726 43.7995C45.7032 41.7952 49.8212 40.5154 54.4306 40.5154C59.04 40.5154 63.1579 41.7952 66.0886 43.7995C69.0252 45.8078 70.6654 48.4541 70.6654 51.2229Z" stroke="#F3FBFD" stroke-width="2.5"/>
<path d="M54.7352 46.0315H49.3618V51.4048C52.3294 51.4048 54.7351 53.8106 54.7351 56.7782L60.1085 56.7782L60.1085 51.4053C57.1409 51.4053 54.7352 48.9992 54.7352 46.0315Z" stroke="#F3FBFD" stroke-width="2.5"/>
<mask id="path-5-inside-1_1931_7044" fill="white">
<path d="M71.9145 52.3103V56.9047C71.9145 63.5091 64.0806 68.8622 54.4297 68.8622C44.7788 68.8622 36.9341 63.5091 36.9341 56.9047V52.3103"/>
</mask>
<path d="M69.4145 52.3103V56.9047H74.4145V52.3103H69.4145ZM69.4145 56.9047C69.4145 59.1399 68.0906 61.4432 65.3802 63.2963C62.6821 65.1411 58.8173 66.3622 54.4297 66.3622V71.3622C59.6931 71.3622 64.5707 69.9068 68.2022 67.4238C71.8215 64.9493 74.4145 61.2738 74.4145 56.9047H69.4145ZM54.4297 66.3622C50.0421 66.3622 46.1742 65.141 43.473 63.2958C40.7592 61.4419 39.4341 59.1385 39.4341 56.9047H34.4341C34.4341 61.2752 37.0314 64.9506 40.6526 67.4244C44.2866 69.9068 49.1664 71.3622 54.4297 71.3622V66.3622ZM39.4341 56.9047V52.3103H34.4341V56.9047H39.4341Z" fill="#F3FBFD" mask="url(#path-5-inside-1_1931_7044)"/>
<path d="M27.9341 56.0528C27.9341 41.1064 39.8625 28.989 54.576 28.989C64.3642 28.989 72.9206 34.3523 77.5511 42.3443" stroke="#F3FBFD" stroke-width="2.5" stroke-miterlimit="10"/>
<path d="M70.436 41.7019L78.2874 44.1031L80.1336 36.103" stroke="#F3FBFD" stroke-width="2.5" stroke-miterlimit="10"/>
<path d="M80.9352 55.053C80.9352 69.3766 69.0663 80.9891 54.4265 80.9891C45.2758 80.9891 37.2096 76.4533 32.4458 69.5557" stroke="#E0FB92" stroke-width="2.5" stroke-miterlimit="10"/>
<path d="M39.6333 70.1897L31.7819 67.7885L29.9357 75.7886" stroke="#E0FB92" stroke-width="2.5" stroke-miterlimit="10"/>
</g>
<defs>
<clipPath id="clip0_1931_7044">
<rect width="56" height="56" fill="white" transform="translate(26.936 26.989)"/>
</clipPath>
</defs>
</svg>
