<svg width="40" height="40" viewBox="0 0 40 40" fill="none" xmlns="http://www.w3.org/2000/svg">
<path d="M6 4H30C33.3 4 36 6.7 36 10V34C36 37.3 33.3 40 30 40H6C2.7 40 0 37.3 0 34V10C0 6.6 2.7 4 6 4Z" fill="#EB0029"/>
<path d="M16.9 34.4C13.7 26.3 10.5 18.4 7.30005 10.3C7.70005 10.3 8.20005 10.5 8.40005 10.5C11.2 10.9 13.7 11.6 16.5 12C19.3 12.4 22.1 13.1 24.8 13.5C25.2 13.5 25.7 13.7 26.1 14.1C27.4 15.4 28.9001 16.7 30.2001 17.9C30.2001 17.9 30.2 17.9 30.4 18.1C25.7 23.5 21.2 29 16.9 34.4ZM16.7 30.8C16.7 30.8 16.9 30.8 16.7 30.8C16.9 29.5 17.1 28.2 17.1 27.2C17.3 24.9 17.7 22.7 18 20.4C18 20.2 18 20.2 17.8 20C15.5 18.1 13.3 16.2 11 14.2C10.5 13.7 10.1 13.5 9.70005 13C12 19 14.4 25 16.7 30.8ZM18 30.8C18 30.8 18.2 31 18 30.8C21.2 27 24.4 23.1 27.6 19.1C24.8 19.5 22.3 20.2 19.5 20.6C19.3 20.6 19.3 20.8 19.3 21C19.3 21.4 19.1 22.1 19.1 22.5C18.9 23.8 18.9 25.1 18.7 26.3C18.5 27.4 18.5 28.6 18.3 29.7C18.2 30.1 18.2 30.5 18 30.8ZM23.8 14.7C19.3 13.9 15 13 10.8 12.4C13.4 14.5 16.1 16.9 18.7 19C20.4 17.5 22.1 16 23.8 14.7ZM20.4 19.2C23 18.8 25.5 18.3 27.9 17.9C27 17 26 16.2 25.1 15.3C23.6 16.4 22.1 17.7 20.4 19.2Z" fill="white"/>
</svg>
