<svg width="40" height="40" viewBox="0 0 40 40" fill="none" xmlns="http://www.w3.org/2000/svg">
<g clip-path="url(#clip0_19_35)">
<path d="M6 4H30C33.3 4 36 6.7 36 10V34C36 37.3 33.3 40 30 40H6C2.7 40 0 37.3 0 34V10C0 6.6 2.7 4 6 4Z" fill="#2775CA"/>
<path d="M32.5 15C36.6421 15 40 11.6421 40 7.5C40 3.35786 36.6421 0 32.5 0C28.3579 0 25 3.35786 25 7.5C25 11.6421 28.3579 15 32.5 15Z" fill="black"/>
<path fill-rule="evenodd" clip-rule="evenodd" d="M32.9 1.50002L36.5 7.5L32.6 9.28829L28.7963 7.6L32.3 1.50002L32.4 1.40002H32.5H32.6H32.7H32.8L32.9 1.50002ZM32.5 10.5L36.5 8.5L32.7 13.6C32.7 13.7 32.6 13.7 32.6 13.7H32.5H32.4L32.3 13.6L28.5 8.5L32.5 10.5Z" fill="white"/>
<path d="M22.7 24.7C22.7 22.2 21.2 21.4 18.2 21C16.1 20.7 15.6 20.1 15.6 19.2C15.6 18.3 16.3 17.6 17.7 17.6C19 17.6 19.7 18 20 19.1C20.1 19.3 20.3 19.5 20.5 19.5H21.6C21.9 19.5 22.1 19.3 22.1 19V18.9C21.8 17.3 20.5 16.1 18.9 16V14.3C18.9 14 18.7 13.8 18.3 13.7H17.2C16.9 13.7 16.7 13.9 16.6 14.3V15.9C14.5 16.2 13.1 17.6 13.1 19.4C13.1 21.7 14.5 22.7 17.5 23C19.5 23.4 20.1 23.8 20.1 24.9C20.1 26 19.1 26.8 17.8 26.8C16 26.8 15.3 26 15.1 25C15 24.7 14.8 24.6 14.6 24.6H13.4C13.1 24.6 12.9 24.8 12.9 25.1V25.2C13.2 27 14.3 28.3 16.7 28.6V30.3C16.7 30.6 16.9 30.8 17.3 30.9H18.4C18.7 30.9 18.9 30.7 19 30.3V28.6C21.3 28.1 22.7 26.6 22.7 24.7Z" fill="white"/>
<path d="M14.4 32.2C8.89999 30.2 6 24 8.1 18.6C9.2 15.6 11.5 13.4 14.4 12.3C14.7 12.2 14.8 11.9 14.8 11.6V10.6C14.8 10.3 14.7 10.1 14.4 10C14.3 10 14.2 10 14.1 10.1C7.4 12.2 3.7 19.4 5.8 26.1C7.1 30.1 10.1 33.1 14.1 34.4C14.4 34.5 14.7 34.4 14.7 34.1C14.8 34 14.8 34 14.8 33.8V32.8C14.8 32.6 14.6 32.3 14.4 32.2ZM21.9 10C21.6 9.9 21.3 10 21.3 10.3C21.2 10.4 21.2 10.4 21.2 10.6V11.6C21.2 11.9 21.4 12.2 21.6 12.3C27.1 14.3 30 20.5 27.9 25.9C26.8 28.9 24.5 31.1 21.6 32.2C21.3 32.3 21.2 32.6 21.2 32.9V33.9C21.2 34.2 21.3 34.4 21.6 34.5C21.7 34.5 21.8 34.5 21.9 34.4C28.6 32.3 32.3 25.1 30.2 18.4C28.9 14.4 25.8 11.3 21.9 10Z" fill="white"/>
</g>
<defs>
<clipPath id="clip0_19_35">
<rect width="40" height="40" fill="white"/>
</clipPath>
</defs>
</svg>
