<svg width="40" height="40" viewBox="0 0 40 40" fill="none" xmlns="http://www.w3.org/2000/svg">
<g clip-path="url(#clip0_19_3480)">
<path d="M6 4H30C33.3 4 36 6.7 36 10V34C36 37.3 33.3 40 30 40H6C2.7 40 0 37.3 0 34V10C0 6.6 2.7 4 6 4Z" fill="#50AF95"/>
<path d="M20.5 23.1C20.3 23.1 19.6 23.2 17.8 23.2C16.4 23.2 15.4 23.2 15.1 23.1C9.8 22.9 5.8 21.9 5.8 20.8C5.8 19.7 9.8 18.8 15.1 18.5V22.1C15.4 22.1 16.4 22.2 17.8 22.2C19.5 22.2 20.3 22.1 20.4 22.1V18.5C25.7 18.7 29.7 19.7 29.7 20.8C29.8 22 25.8 22.9 20.5 23.1ZM20.5 18.2V15H27.9V10H7.7V15H15.1V18.2C9.1 18.5 4.5 19.7 4.5 21.1C4.5 22.5 9 23.7 15.1 24V34.4H20.5V24C26.5 23.7 31.1 22.5 31.1 21.1C31.1 19.7 26.5 18.5 20.5 18.2Z" fill="white"/>
<path d="M32.5 15C36.6421 15 40 11.6421 40 7.5C40 3.35786 36.6421 0 32.5 0C28.3579 0 25 3.35786 25 7.5C25 11.6421 28.3579 15 32.5 15Z" fill="black"/>
<path fill-rule="evenodd" clip-rule="evenodd" d="M32.9 1.50002L36.5 7.5L32.6 9.28829L28.7963 7.6L32.3 1.50002L32.4 1.40002H32.5H32.6H32.7H32.8L32.9 1.50002ZM32.5 10.5L36.5 8.5L32.7 13.6C32.7 13.7 32.6 13.7 32.6 13.7H32.5H32.4L32.3 13.6L28.5 8.5L32.5 10.5Z" fill="white"/>
</g>
<defs>
<clipPath id="clip0_19_3480">
<rect width="40" height="40" fill="white"/>
</clipPath>
</defs>
</svg>
