<svg width="40" height="40" viewBox="0 0 40 40" fill="none" xmlns="http://www.w3.org/2000/svg">
<g clip-path="url(#clip0_19_213)">
<path d="M6 4H30C31.5913 4 33.1174 4.63214 34.2426 5.75736C35.3679 6.88258 36 8.4087 36 10V34C36 35.5913 35.3679 37.1174 34.2426 38.2426C33.1174 39.3679 31.5913 40 30 40H6C4.4087 40 2.88258 39.3679 1.75736 38.2426C0.632141 37.1174 0 35.5913 0 34L0 10C0 8.4087 0.632141 6.88258 1.75736 5.75736C2.88258 4.63214 4.4087 4 6 4V4Z" fill="#F09242"/>
<path fill-rule="evenodd" clip-rule="evenodd" d="M10.7761 32.8081C12.9136 34.2367 15.4266 34.9995 17.9976 35C19.7052 35.0003 21.3961 34.6642 22.9738 34.0109C24.5514 33.3576 25.9849 32.3998 27.1924 31.1924C28.3998 29.9849 29.3576 28.5514 30.0109 26.9738C30.6642 25.3961 31.0003 23.7052 31 21.9976C30.9995 19.4266 30.2367 16.9136 28.8081 14.7761C27.3795 12.6386 25.3491 10.9727 22.9738 9.98909C20.5984 9.00545 17.9848 8.74821 15.4632 9.24989C12.9417 9.75157 10.6255 10.9897 8.80759 12.8076C6.98966 14.6255 5.75157 16.9417 5.24989 19.4632C4.74821 21.9848 5.00545 24.5984 5.98909 26.9738C6.97274 29.3491 8.63861 31.3795 10.7761 32.8081ZM11.3454 12.0369C13.314 10.7196 15.629 10.0156 17.9976 10.0137C19.5719 10.0125 21.1311 10.3215 22.5858 10.9233C24.0406 11.525 25.3625 12.4076 26.476 13.5206C27.5894 14.6336 28.4725 15.9552 29.0749 17.4097C29.6772 18.8643 29.9869 20.4233 29.9863 21.9976C29.9853 24.3662 29.2822 26.6814 27.9658 28.6506C26.6493 30.6197 24.7787 32.1544 22.5902 33.0606C20.4018 33.9668 17.9938 34.2039 15.6707 33.7419C13.3475 33.2799 11.2135 32.1396 9.53828 30.465C7.86306 28.7905 6.72189 26.6569 6.25898 24.3339C5.79607 22.011 6.03222 19.6029 6.93757 17.4141C7.84292 15.2253 9.37684 13.3541 11.3454 12.0369ZM18.0071 11.8703C15.4828 11.8703 13.0499 12.8149 11.1871 14.5184L10.4565 13.8045C12.5114 11.9101 15.2039 10.8583 17.9988 10.8583C20.7937 10.8583 23.4862 11.9101 25.5411 13.8045L24.8272 14.5184C22.9643 12.8149 20.5314 11.8703 18.0071 11.8703ZM25.4864 15.1704L26.2003 14.4565V14.4399C28.0947 16.4947 29.1465 19.1873 29.1465 21.9821C29.1465 24.777 28.0947 27.4696 26.2003 29.5244L25.4864 28.8105C27.1898 26.9477 28.1345 24.5148 28.1345 21.9905C28.1345 19.4662 27.1898 17.0333 25.4864 15.1704ZM10.5184 28.8177C8.81695 26.9552 7.87353 24.5238 7.87353 22.0012C7.87353 19.4786 8.81695 17.0471 10.5184 15.1847L9.8045 14.4708C7.91007 16.5257 6.8583 19.2182 6.8583 22.0131C6.8583 24.808 7.91007 27.5005 9.8045 29.5554L10.5184 28.8177ZM17.9976 32.125C20.5219 32.125 22.9548 31.1803 24.8177 29.4768L25.5482 30.1907C23.4934 32.0852 20.8008 33.1369 18.006 33.1369C15.2111 33.1369 12.5185 32.0852 10.4637 30.1907L11.1776 29.4768C13.0404 31.1803 15.4733 32.125 17.9976 32.125ZM22.507 19.618C22.3643 18.1283 21.0793 17.6286 19.454 17.4763V15.425H18.1975V17.4382H17.1933V15.425H15.9464V17.4906H13.3978V18.8351C13.3978 18.8351 14.3258 18.8184 14.3115 18.8351C14.4789 18.8167 14.6468 18.8639 14.78 18.9669C14.9132 19.0699 15.0012 19.2206 15.0254 19.3872V25.0412C15.0219 25.0999 15.0065 25.1574 14.9804 25.2101C14.9542 25.2628 14.9178 25.3098 14.8731 25.3482C14.8294 25.3873 14.7781 25.4171 14.7225 25.436C14.6669 25.4548 14.6081 25.4621 14.5495 25.4576C14.5662 25.4719 13.6357 25.4576 13.6357 25.4576L13.3978 26.9592H15.9226V29.058H17.179V26.9901H18.1832V29.0485H19.4421V26.9735C21.5647 26.845 23.0448 26.3214 23.2305 24.3344C23.3804 22.7353 22.6284 22.0214 21.4267 21.7335C22.1572 21.3742 22.6094 20.7079 22.507 19.618ZM20.7461 24.087C20.7461 25.52 18.4919 25.4871 17.4633 25.4721C17.3714 25.4707 17.2893 25.4695 17.2195 25.4695V22.6996C17.3067 22.6999 17.413 22.6975 17.5337 22.6948H17.5337C18.5911 22.6715 20.7461 22.6238 20.7461 24.087ZM20.1631 20.1843C20.1631 21.4895 18.2978 21.4564 17.4358 21.4411C17.3548 21.4397 17.2827 21.4384 17.2219 21.4384V18.9207C17.2929 18.9207 17.3793 18.9185 17.4771 18.9159C18.3559 18.8931 20.1631 18.8461 20.1631 20.1843Z" fill="white"/>
<path d="M32.5 15C36.6421 15 40 11.6421 40 7.5C40 3.35786 36.6421 0 32.5 0C28.3579 0 25 3.35786 25 7.5C25 11.6421 28.3579 15 32.5 15Z" fill="black"/>
<path fill-rule="evenodd" clip-rule="evenodd" d="M32.9 1.50002L36.5 7.5L32.6 9.28829L28.7963 7.6L32.3 1.50002L32.4 1.40002H32.5H32.6H32.7H32.8L32.9 1.50002ZM32.5 10.5L36.5 8.5L32.7 13.6C32.7 13.7 32.6 13.7 32.6 13.7H32.5H32.4L32.3 13.6L28.5 8.5L32.5 10.5Z" fill="white"/>
</g>
<defs>
<clipPath id="clip0_19_213">
<rect width="40" height="40" fill="white"/>
</clipPath>
</defs>
</svg>
