<svg width="99" height="99" viewBox="0 0 99 99" fill="none" xmlns="http://www.w3.org/2000/svg">
<path d="M0 42.7704C0 19.149 19.149 0 42.7704 0H56.2296C79.851 0 99 19.149 99 42.7704V56.2296C99 79.851 79.851 99 56.2296 99H42.7704C19.149 99 0 79.851 0 56.2296V42.7704Z" fill="#3418D8"/>
<path d="M70.0131 48.5734C71.4017 48.5734 72.0741 46.9831 71.0433 46.1086L51.2008 29.2292C50.6187 28.7296 49.7219 28.7296 49.1398 29.2292L29.2883 46.1086C28.2664 46.9831 28.9298 48.5734 30.3281 48.5734H33.7333V63.1875H31.2139C30.1244 63.1875 29.2405 64.0087 29.2405 65.0216C29.2405 66.0345 30.1238 66.8545 31.2139 66.8545H69.1202C70.2104 66.8545 71.0936 66.0339 71.0936 65.0216C71.0936 64.0093 70.2104 63.1875 69.1202 63.1875H66.5983V48.5734H70.0131ZM42.9734 60.0734C42.9734 61.0641 42.1218 61.8547 41.0555 61.8547C40.5269 61.8547 40.0518 61.6547 39.7024 61.339C39.362 61.0138 39.1466 60.5639 39.1466 60.0734V50.4303C39.1466 49.4396 39.9983 48.6483 41.0555 48.6483C41.5932 48.6483 42.0683 48.849 42.4177 49.1646C42.7581 49.4899 42.9734 49.9385 42.9734 50.4303V60.0734ZM52.0879 60.0734C52.0879 61.0641 51.2272 61.8547 50.17 61.8547C49.6413 61.8547 49.1572 61.6547 48.8078 61.339C48.4674 61.0138 48.2521 60.5639 48.2521 60.0734V50.4303C48.2521 49.4396 49.1037 48.6483 50.17 48.6483C50.6986 48.6483 51.1828 48.849 51.5231 49.1646C51.8726 49.4899 52.0879 49.9385 52.0879 50.4303V60.0734ZM52.9305 42.2691C52.5811 42.5943 52.1059 42.7944 51.5773 42.7944H48.7543C47.6963 42.7944 46.8363 41.9948 46.8363 41.0124C46.8363 40.5212 47.0517 40.0798 47.4017 39.7551C47.7421 39.4299 48.2263 39.2298 48.7549 39.2298H51.5779C52.6359 39.2298 53.4959 40.0295 53.4959 41.0118C53.4959 41.503 53.2799 41.9444 52.9305 42.2691ZM61.1933 60.0734C61.1933 61.0641 60.3326 61.8547 59.2754 61.8547C58.7467 61.8547 58.2626 61.6547 57.9222 61.339C57.5728 61.0138 57.3581 60.5639 57.3581 60.0734V50.4303C57.3581 49.4396 58.2181 48.6483 59.276 48.6483C59.8047 48.6483 60.2888 48.849 60.6292 49.1646C60.9786 49.4899 61.1933 49.9385 61.1933 50.4303V60.0734Z" stroke="#F3FBFD" stroke-width="2"/>
</svg>
