<svg width="99" height="99" viewBox="0 0 99 99" fill="none" xmlns="http://www.w3.org/2000/svg">
<path d="M0 42.7704C0 19.149 19.149 0 42.7704 0H56.2296C79.851 0 99 19.149 99 42.7704V56.2296C99 79.851 79.851 99 56.2296 99H42.7704C19.149 99 0 79.851 0 56.2296V42.7704Z" fill="#3418D8"/>
<circle cx="49" cy="53.1455" r="3" fill="#3418D8"/>
<path d="M44 52.1455L30.793 48.5M45 57.1455L33.5 66.1455M52.793 57.1455L62.793 69M54.293 50L65.5 41" stroke="#F3FBFD" stroke-width="2"/>
<path d="M49.793 47L50.793 41" stroke="#F3FBFD" stroke-width="2"/>
<circle cx="51.293" cy="38.5" r="2.5" stroke="#F3FBFD" stroke-width="2"/>
<path d="M45.793 48L33.793 32.5" stroke="#F3FBFD" stroke-width="2"/>
<circle cx="32.793" cy="30" r="3" stroke="#F3FBFD" stroke-width="2"/>
<circle cx="28.793" cy="48" r="2" stroke="#F3FBFD" stroke-width="2"/>
<circle cx="64.293" cy="70.5" r="2.5" stroke="#F3FBFD" stroke-width="2"/>
<circle cx="30" cy="69.1455" r="4" stroke="#F3FBFD" stroke-width="2"/>
<circle cx="68.293" cy="38.5" r="4.5" stroke="#F3FBFD" stroke-width="2"/>
<circle cx="49.5" cy="52.6455" r="5.5" stroke="#F3FBFD" stroke-width="2"/>
</svg>
