<svg width="99" height="99" viewBox="0 0 99 99" fill="none" xmlns="http://www.w3.org/2000/svg">
<path d="M0 42.7704C0 19.149 19.149 0 42.7704 0H56.2296C79.851 0 99 19.149 99 42.7704V56.2296C99 79.851 79.851 99 56.2296 99H42.7704C19.149 99 0 79.851 0 56.2296V42.7704Z" fill="#3418D8"/>
<path d="M49.1865 70.375C52.6038 70.375 55.374 67.6048 55.374 64.1875C55.374 60.7702 52.6038 58 49.1865 58C45.7693 58 42.999 60.7702 42.999 64.1875C42.999 67.6048 45.7693 70.375 49.1865 70.375Z" stroke="#F3FBFD" stroke-width="2" stroke-miterlimit="10"/>
<path d="M44.9995 60L34.7846 43.0004" stroke="#F3FBFD" stroke-width="2.5" stroke-miterlimit="10"/>
<path d="M52.6402 59.9998L62.855 43.0002" stroke="#F3FBFD" stroke-width="2.5" stroke-miterlimit="10"/>
<path d="M32.1865 43.5C35.6038 43.5 38.374 40.7298 38.374 37.3125C38.374 33.8952 35.6038 31.125 32.1865 31.125C28.7693 31.125 25.999 33.8952 25.999 37.3125C25.999 40.7298 28.7693 43.5 32.1865 43.5Z" stroke="#F3FBFD" stroke-width="2" stroke-miterlimit="10"/>
<path d="M59.7624 37.695L38.3724 37.695" stroke="#F3FBFD" stroke-width="2.5" stroke-miterlimit="10"/>
<path d="M65.5615 43.5C68.9788 43.5 71.749 40.7298 71.749 37.3125C71.749 33.8952 68.9788 31.125 65.5615 31.125C62.1443 31.125 59.374 33.8952 59.374 37.3125C59.374 40.7298 62.1443 43.5 65.5615 43.5Z" stroke="#F3FBFD" stroke-width="2" stroke-miterlimit="10"/>
</svg>
